<svg enable-background="new 0 0 24 24" height="512" viewBox="0 0 24 24" width="512" xmlns="http://www.w3.org/2000/svg"><path d="m12 1.2c-6.762 0-10.8 3.215-10.8 8.599 0 5.92 7.749 13.001 10.8 13.001s10.8-7.081 10.8-13.001c0-5.384-4.038-8.599-10.8-8.599z" fill="#26a69a"/><path d="m7.097 12.017c-.118 0-.234-.001-.347-.002l-.277-.001c-1.496 0-2.713-1.217-2.713-2.713s1.217-2.714 2.713-2.714c1.514 0 3.767 2.253 3.767 3.766 0 .388-.142.734-.409 1-.611.607-1.738.664-2.734.664z" fill="#00695c"/><path d="m16.903 12.017c-.996 0-2.123-.057-2.734-.663-.267-.266-.409-.611-.409-1 0-1.514 2.253-3.766 3.767-3.766 1.496 0 2.713 1.217 2.713 2.714s-1.217 2.713-2.713 2.713l-.277.001c-.113 0-.229.001-.347.001z" fill="#00695c"/><path d="m12 18.98c-1.912 0-3.824-.728-5.28-2.184-.293-.293-.293-.768 0-1.061s.768-.293 1.061 0c2.326 2.326 6.113 2.326 8.439 0 .293-.293.768-.293 1.061 0s.293.768 0 1.061c-1.457 1.457-3.369 2.184-5.281 2.184z"/><path d="m12 24c-3.39 0-12-7.867-12-14.445 0-5.983 4.486-9.555 12-9.555s12 3.572 12 9.555c0 6.578-8.61 14.445-12 14.445zm0-22.5c-3.157 0-10.5.785-10.5 8.055 0 5.913 8.012 12.945 10.5 12.945s10.5-7.032 10.5-12.945c0-7.27-7.343-8.055-10.5-8.055z"/><path d="m7.118 12.654c-.146 0-.288-.001-.428-.002l-.34-.002c-1.847 0-3.35-1.503-3.35-3.35s1.503-3.35 3.35-3.35c1.869 0 4.65 2.781 4.65 4.65 0 .479-.175.906-.505 1.234-.754.75-2.147.82-3.377.82zm-.768-5.204c-1.02 0-1.85.83-1.85 1.85 0 1.021.83 1.851 1.85 1.851l.352.002c.813.001 2.337.016 2.737-.382.033-.033.062-.069.062-.17-.001-1.031-2.121-3.151-3.151-3.151z"/><path d="m16.882 12.654c-1.23 0-2.623-.07-3.377-.819-.33-.328-.505-.755-.505-1.234 0-1.869 2.781-4.65 4.65-4.65 1.847-.001 3.35 1.502 3.35 3.349 0 1.848-1.503 3.351-3.35 3.351l-.341.002c-.139 0-.282.001-.427.001zm.768-5.204c-1.03 0-3.15 2.12-3.15 3.15 0 .101.028.137.062.17.399.397 1.923.383 2.737.382l.352-.002c1.02 0 1.85-.83 1.85-1.851-.001-1.019-.831-1.849-1.851-1.849z"/></svg>