<svg height="384pt" viewBox="0 0 384 384" width="384pt" xmlns="http://www.w3.org/2000/svg"><path d="m264 280h-144c0-39.761719 32.238281-72 72-72s72 32.238281 72 72zm0 0" fill="#e0f7fa"/><path d="m192 16c97.199219 0 176 78.800781 176 176s-78.800781 176-176 176-176-78.800781-176-176 78.800781-176 176-176zm-72 264h144c0-39.761719-32.238281-72-72-72s-72 32.238281-72 72zm0 0" fill="#ff7043"/><g fill="#012e52"><path d="m192 0c-105.863281 0-192 86.128906-192 192 0 105.863281 86.136719 192 192 192s192-86.136719 192-192c0-105.871094-86.136719-192-192-192zm0 352c-88.222656 0-160-71.777344-160-160s71.777344-160 160-160 160 71.777344 160 160-71.777344 160-160 160zm0 0"/><path d="m192 192c-48.519531 0-88 39.480469-88 88 0 8.832031 7.167969 16 16 16h144c8.832031 0 16-7.167969 16-16 0-48.519531-39.480469-88-88-88zm-53.671875 72c6.894531-23.113281 28.351563-40 53.671875-40s46.777344 16.886719 53.671875 40zm0 0"/><path d="m280.839844 105.6875-48 24c-7.902344 3.953125-11.113282 13.558594-7.160156 21.472656 2.816406 5.601563 8.464843 8.839844 14.335937 8.839844 2.398437 0 4.839844-.542969 7.144531-1.6875l48-24c7.902344-3.953125 11.113282-13.558594 7.160156-21.472656-3.960937-7.886719-13.542968-11.113282-21.480468-7.152344zm0 0"/><path d="m143.984375 160c5.871094 0 11.519531-3.238281 14.328125-8.847656 3.953125-7.90625.75-17.511719-7.160156-21.472656l-48-24c-7.921875-3.960938-17.511719-.734376-21.472656 7.160156-3.953126 7.902344-.75 17.511718 7.160156 21.472656l48 24c2.304687 1.152344 4.746094 1.6875 7.144531 1.6875zm0 0"/></g></svg>