<svg height="384pt" viewBox="0 0 384 384" width="384pt" xmlns="http://www.w3.org/2000/svg"><path d="m344.480469 104h23.519531c0 12.878906-2.800781 25.121094-7.761719 36.160156-13.757812 30.558594-44.476562 51.839844-80.238281 51.839844-48.640625 0-88-39.359375-88-88zm0 0" fill="#ff7043"/><path d="m360.238281 140.160156c5.042969 16.398438 7.761719 33.839844 7.761719 51.839844 0 97.199219-78.800781 176-176 176s-176-78.800781-176-176c0-18 2.71875-35.441406 7.761719-51.839844 13.757812 30.558594 44.476562 51.839844 80.238281 51.839844 48.640625 0 88-39.359375 88-88 0 48.640625 39.359375 88 88 88 35.761719 0 66.480469-21.28125 80.238281-51.839844zm0 0" fill="#4dd0e1"/><path d="m344.480469 104h-304.960938c30.402344-52.558594 87.359375-88 152.480469-88s122.078125 35.441406 152.480469 88zm0 0" fill="#4dd0e1"/><path d="m39.519531 104h152.480469c0 48.640625-39.359375 88-88 88-35.761719 0-66.480469-21.28125-80.238281-51.839844-4.960938-11.039062-7.761719-23.28125-7.761719-36.160156zm0 0" fill="#ff7043"/><g fill="#012e52"><path d="m379.3125 92.6875c-3-3-7.074219-4.6875-11.3125-4.6875h-14.65625c-35.207031-54.480469-96.144531-88-161.34375-88s-126.136719 33.519531-161.34375 88h-14.65625c-4.238281 0-8.3125 1.6875-11.3125 4.6875s-4.6875 7.074219-4.6875 11.3125c0 12.777344 2.433594 25.183594 6.976562 37.0625-4.550781 16.554688-6.976562 33.640625-6.976562 50.9375 0 105.871094 86.128906 192 192 192 105.863281 0 192-86.128906 192-192 0-17.296875-2.425781-34.382812-6.96875-50.945312 4.535156-11.863282 6.96875-24.269532 6.96875-37.054688 0-4.238281-1.6875-8.3125-4.6875-11.3125zm-29.105469 27.3125c-1.054687 4.640625-2.574219 9.175781-4.550781 13.59375-11.609375 25.757812-37.375 42.40625-65.65625 42.40625-34.199219 0-62.910156-23.976562-70.207031-56zm-158.207031-88c47.023438 0 91.398438 20.9375 121.519531 56h-243.039062c30.128906-35.0625 74.496093-56 121.519531-56zm-153.648438 101.601562c-1.984374-4.417968-3.503906-8.960937-4.566406-13.601562h5.6875.03125.03125 134.671875c-7.296875 32.023438-36 56-70.207031 56-28.28125 0-54.046875-16.648438-65.648438-42.398438zm153.648438 218.398438c-88.222656 0-160-71.777344-160-160 0-4.207031.183594-8.398438.511719-12.566406 18.984375 17.957031 44.417969 28.566406 71.488281 28.566406 37.070312 0 69.585938-19.550781 88-48.832031 18.425781 29.28125 50.9375 48.832031 88 48.832031 27.070312 0 52.503906-10.609375 71.488281-28.574219.328125 4.175781.511719 8.367188.511719 12.574219 0 88.222656-71.777344 160-160 160zm0 0"/><path d="m248 232c-8.832031 0-16 7.167969-16 16 0 22.054688-17.945312 40-40 40s-40-17.945312-40-40c0-8.832031-7.167969-16-16-16s-16 7.167969-16 16c0 39.695312 32.304688 72 72 72 39.703125 0 72-32.304688 72-72 0-8.832031-7.167969-16-16-16zm0 0"/></g></svg>