<svg height="384pt" viewBox="0 0 384 384" width="384pt" xmlns="http://www.w3.org/2000/svg"><path d="m224 256c0-22.089844-14.328125-40-32-40s-32 17.910156-32 40 14.328125 40 32 40 32-17.910156 32-40zm0 0" fill="#e0f7fa"/><path d="m280 344.480469c-25.839844 14.960937-55.921875 23.519531-88 23.519531s-62.160156-8.558594-88-23.519531c-52.558594-30.402344-88-87.359375-88-152.480469 0-97.199219 78.800781-176 176-176s176 78.800781 176 176c0 65.121094-35.441406 122.078125-88 152.480469zm-56-88.480469c0-22.078125-14.320312-40-32-40s-32 17.921875-32 40 14.320312 40 32 40 32-17.921875 32-40zm0 0" fill="#ff7043"/><g fill="#012e52"><path d="m192 0c-105.871094 0-192 86.128906-192 192 0 68.351562 36.785156 132.089844 95.992188 166.328125 29.007812 16.800781 62.207031 25.671875 96.007812 25.671875s67-8.878906 96.007812-25.671875c59.207032-34.238281 95.992188-97.976563 95.992188-166.328125 0-105.871094-86.128906-192-192-192zm104 313.519531v-153.519531h8c8.832031 0 16-7.167969 16-16s-7.167969-16-16-16h-80c-8.832031 0-16 7.167969-16 16s7.167969 16 16 16h40v174.902344c-22.175781 11.1875-46.871094 17.097656-72 17.097656s-49.824219-5.910156-72-17.097656v-174.902344h40c8.832031 0 16-7.167969 16-16s-7.167969-16-16-16h-80c-8.832031 0-16 7.167969-16 16s7.167969 16 16 16h8v153.519531c-35.0625-30.121093-56-74.496093-56-121.519531 0-88.222656 71.777344-160 160-160s160 71.777344 160 160c0 47.023438-20.9375 91.390625-56 121.519531zm0 0"/><path d="m144 256c0 30.871094 21.527344 56 48 56s48-25.128906 48-56-21.527344-56-48-56-48 25.128906-48 56zm64 0c0 12.785156-7.480469 24-16 24s-16-11.214844-16-24 7.480469-24 16-24 16 11.214844 16 24zm0 0"/></g></svg>