<svg height="384pt" viewBox="0 0 384 384" width="384pt" xmlns="http://www.w3.org/2000/svg"><path d="m368 192c0 97.203125-78.796875 176-176 176s-176-78.796875-176-176 78.796875-176 176-176 176 78.796875 176 176zm0 0" fill="#4dd0e1"/><g fill="#012e52"><path d="m192 0c-105.871094 0-192 86.128906-192 192 0 105.863281 86.128906 192 192 192 105.863281 0 192-86.136719 192-192 0-105.871094-86.136719-192-192-192zm0 352c-88.222656 0-160-71.777344-160-160s71.777344-160 160-160 160 71.777344 160 160-71.777344 160-160 160zm0 0"/><path d="m288 136c0 7.503906-3.59375 14.679688-9.671875 19.257812-4.097656 3.101563-9.046875 4.742188-14.328125 4.742188-13.230469 0-24-10.769531-24-24 0-8.832031-7.167969-16-16-16s-16 7.167969-16 16c0 30.878906 25.128906 56 56 56 2.710938 0 5.367188-.265625 8-.632812v72.632812c0 8.832031 7.167969 16 16 16s16-7.167969 16-16v-88.945312c10.097656-10.390626 16-24.429688 16-39.054688 0-8.832031-7.167969-16-16-16s-16 7.167969-16 16zm0 0"/><path d="m176 136c0-8.832031-7.167969-16-16-16s-16 7.167969-16 16c0 13.230469-10.769531 24-24 24-5.28125 0-10.238281-1.640625-14.382812-4.785156-6.023438-4.535156-9.617188-11.710938-9.617188-19.214844 0-8.832031-7.167969-16-16-16s-16 7.167969-16 16c0 14.640625 5.910156 28.695312 16 39.0625v88.9375c0 8.832031 7.167969 16 16 16s16-7.167969 16-16v-72.640625c2.632812.367187 5.289062.640625 8 .640625 30.878906 0 56-25.121094 56-56zm0 0"/><path d="m232 240h-80c-8.832031 0-16 7.167969-16 16s7.167969 16 16 16h80c8.832031 0 16-7.167969 16-16s-7.167969-16-16-16zm0 0"/></g></svg>