<svg height="384pt" viewBox="0 0 384 384" width="384pt" xmlns="http://www.w3.org/2000/svg"><path d="m368 192c0 97.203125-78.796875 176-176 176s-176-78.796875-176-176 78.796875-176 176-176 176 78.796875 176 176zm0 0" fill="#4dd0e1"/><g fill="#012e52"><path d="m192 0c-105.871094 0-192 86.136719-192 192s86.128906 192 192 192 192-86.136719 192-192-86.128906-192-192-192zm0 352c-88.222656 0-160-71.777344-160-160s71.777344-160 160-160 160 71.777344 160 160-71.777344 160-160 160zm0 0"/><path d="m144 176c0 8.832031 7.167969 16 16 16s16-7.167969 16-16c0-30.871094-25.121094-56-56-56s-56 25.128906-56 56c0 8.832031 7.167969 16 16 16s16-7.167969 16-16c0-13.230469 10.769531-24 24-24s24 10.769531 24 24zm0 0"/><path d="m264 120c-30.878906 0-56 25.128906-56 56 0 8.832031 7.167969 16 16 16s16-7.167969 16-16c0-13.230469 10.769531-24 24-24s24 10.769531 24 24c0 8.832031 7.167969 16 16 16s16-7.167969 16-16c0-30.871094-25.121094-56-56-56zm0 0"/><path d="m256 224c-8.832031 0-16 7.167969-16 16v16c0 8.824219-7.175781 16-16 16s-16-7.175781-16-16c0-8.832031-7.167969-16-16-16s-16 7.167969-16 16c0 8.824219-7.175781 16-16 16s-16-7.175781-16-16v-16c0-8.832031-7.167969-16-16-16s-16 7.167969-16 16v16c0 26.472656 21.527344 48 48 48 12.304688 0 23.496094-4.6875 32-12.320312 8.503906 7.632812 19.695312 12.320312 32 12.320312 26.472656 0 48-21.527344 48-48v-16c0-8.832031-7.167969-16-16-16zm0 0"/></g></svg>