<svg height="384pt" viewBox="0 0 384 384" width="384pt" xmlns="http://www.w3.org/2000/svg"><path d="m120 232h144c0 39.761719-32.238281 72-72 72s-72-32.238281-72-72zm0 0" fill="#e0f7fa"/><path d="m192 16c97.199219 0 176 78.800781 176 176s-78.800781 176-176 176-176-78.800781-176-176 78.800781-176 176-176zm72 216h-144c0 39.761719 32.238281 72 72 72s72-32.238281 72-72zm0 0" fill="#ff7043"/><g fill="#012e52"><path d="m192 0c-105.871094 0-192 86.136719-192 192s86.128906 192 192 192c105.863281 0 192-86.136719 192-192s-86.136719-192-192-192zm0 352c-88.222656 0-160-71.777344-160-160s71.777344-160 160-160 160 71.777344 160 160-71.777344 160-160 160zm0 0"/><path d="m280 120v-24c0-8.832031-7.167969-16-16-16s-16 7.167969-16 16v24h-16c-8.832031 0-16 7.167969-16 16s7.167969 16 16 16h16v24c0 8.832031 7.167969 16 16 16s16-7.167969 16-16v-24h16c8.832031 0 16-7.167969 16-16s-7.167969-16-16-16zm0 0"/><path d="m104 176c0 8.832031 7.167969 16 16 16s16-7.167969 16-16v-24h16c8.832031 0 16-7.167969 16-16s-7.167969-16-16-16h-16v-24c0-8.832031-7.167969-16-16-16s-16 7.167969-16 16v24h-16c-8.832031 0-16 7.167969-16 16s7.167969 16 16 16h16zm0 0"/><path d="m264 216h-144c-8.832031 0-16 7.167969-16 16 0 48.519531 39.480469 88 88 88s88-39.480469 88-88c0-8.832031-7.167969-16-16-16zm-72 72c-25.320312 0-46.769531-16.886719-53.671875-40h107.34375c-6.894531 23.113281-28.351563 40-53.671875 40zm0 0"/></g></svg>