<svg enable-background="new 0 0 24 24" height="512" viewBox="0 0 24 24" width="512" xmlns="http://www.w3.org/2000/svg"><circle cx="12" cy="12" fill="#ffd54f" r="10.8"/><path d="m9.031 7.736-1.519-1.518c-.214-.214-.56-.214-.773 0-.214.214-.214.56 0 .773l.525.525c-.43.254-.722.717-.722 1.251 0 .804.654 1.458 1.458 1.458s1.458-.654 1.458-1.458c0-.388-.151-.753-.425-1.028-.001-.001-.001-.002-.002-.003z" fill="#6d4c41"/><path d="m16.818 7.446.583-.583c.237-.237.237-.622 0-.859s-.622-.237-.859 0l-1.687 1.688c-.001.001-.001.002-.002.003-.305.305-.473.71-.473 1.142 0 .893.727 1.62 1.62 1.62s1.62-.727 1.62-1.62c0-.594-.325-1.109-.802-1.391z" fill="#6d4c41"/><path d="m18.712 17.788c-.998-2.844-3.695-4.754-6.712-4.754s-5.715 1.91-6.712 4.754c-.072.207-.04.435.087.613.127.179.331.285.55.285h12.15c.219 0 .424-.106.55-.285.127-.178.159-.407.087-.613z" fill="#e53935"/><path d="m12 24c-6.617 0-12-5.383-12-12s5.383-12 12-12 12 5.383 12 12-5.383 12-12 12zm0-22.5c-5.79 0-10.5 4.71-10.5 10.5s4.71 10.5 10.5 10.5 10.5-4.71 10.5-10.5-4.71-10.5-10.5-10.5z"/><path d="m8 11c-1.103 0-2-.897-2-2s.897-2 2-2c.533 0 1.035.208 1.413.585.379.378.587.88.587 1.415 0 1.103-.897 2-2 2zm0-2.5c-.275 0-.5.224-.5.5s.225.5.5.5.5-.224.5-.5c0-.134-.052-.259-.146-.353-.095-.095-.221-.147-.354-.147z"/><path d="m8.884 8.866c-.192 0-.384-.073-.53-.22l-2.083-2.083c-.293-.293-.293-.768 0-1.061s.768-.293 1.061 0l2.083 2.083c.293.293.293.768 0 1.061-.147.147-.34.22-.531.22z"/><path d="m16 11c-1.103 0-2-.897-2-2 0-.535.208-1.037.587-1.415.378-.377.88-.585 1.413-.585 1.103 0 2 .897 2 2s-.897 2-2 2zm0-2.5c-.133 0-.259.052-.354.147-.094.094-.146.219-.146.353 0 .276.225.5.5.5s.5-.224.5-.5-.225-.5-.5-.5z"/><path d="m15.116 8.866c-.192 0-.384-.073-.53-.22-.293-.293-.293-.768 0-1.061l2.083-2.083c.293-.293.768-.293 1.061 0s.293.768 0 1.061l-2.083 2.083c-.147.147-.338.22-.531.22z"/><path d="m18.75 19h-13.5c-.243 0-.471-.118-.611-.316-.141-.198-.177-.452-.097-.682 1.108-3.16 4.105-5.282 7.458-5.282s6.35 2.123 7.458 5.282c.08.229.044.483-.097.682-.14.198-.368.316-.611.316zm-12.343-1.5h11.186c-1.115-1.998-3.247-3.28-5.593-3.28s-4.478 1.282-5.593 3.28z"/></svg>