<svg height="384pt" viewBox="0 0 384 384" width="384pt" xmlns="http://www.w3.org/2000/svg"><path d="m368 72c0 14.960938-10.238281 27.519531-24.160156 30.960938-2.480469.71875-5.121094 1.039062-7.839844 1.039062-17.679688 0-32-14.320312-32-32 0-3.601562 1.359375-8.078125 3.441406-12.878906 8.238282-18.800782 28.558594-43.121094 28.558594-43.121094s32 38.320312 32 56zm0 0" fill="#4dd0e1"/><path d="m120 232h144c0 39.761719-32.238281 72-72 72s-72-32.238281-72-72zm0 0" fill="#e0f7fa"/><path d="m343.839844 102.960938c15.359375 26.078124 24.160156 56.558593 24.160156 89.039062 0 97.199219-78.800781 176-176 176s-176-78.800781-176-176 78.800781-176 176-176c44.160156 0 84.558594 16.238281 115.441406 43.121094-2.082031 4.800781-3.441406 9.277344-3.441406 12.878906 0 17.679688 14.320312 32 32 32 2.71875 0 5.359375-.320312 7.839844-1.039062zm-79.839844 129.039062h-144c0 39.761719 32.238281 72 72 72s72-32.238281 72-72zm0 0" fill="#ff7043"/><g fill="#012e52"><path d="m144 176c0 8.832031 7.167969 16 16 16s16-7.167969 16-16c0-30.871094-25.128906-56-56-56s-56 25.128906-56 56c0 8.832031 7.167969 16 16 16s16-7.167969 16-16c0-13.230469 10.769531-24 24-24s24 10.769531 24 24zm0 0"/><path d="m264 120c-30.871094 0-56 25.128906-56 56 0 8.832031 7.167969 16 16 16s16-7.167969 16-16c0-13.230469 10.769531-24 24-24s24 10.769531 24 24c0 8.832031 7.167969 16 16 16s16-7.167969 16-16c0-30.871094-25.128906-56-56-56zm0 0"/><path d="m264 216h-144c-8.832031 0-16 7.167969-16 16 0 48.519531 39.480469 88 88 88s88-39.480469 88-88c0-8.832031-7.167969-16-16-16zm-72 72c-25.320312 0-46.777344-16.886719-53.671875-40h107.34375c-6.894531 23.113281-28.351563 40-53.671875 40zm0 0"/><path d="m384 72c0-21.191406-24.976562-53.398438-35.71875-66.257812-3.042969-3.636719-7.539062-5.742188-12.28125-5.742188s-9.238281 2.105469-12.28125 5.742188c-.640625.769531-11.726562 14.121093-21.277344 29.273437-32.160156-22.640625-70.679687-35.015625-110.441406-35.015625-105.863281 0-192 86.136719-192 192s86.136719 192 192 192 192-86.136719 192-192c0-28.609375-6.441406-56.710938-18.574219-82.265625 11.390625-8.847656 18.574219-22.527344 18.574219-37.734375zm-47.976562-29.65625c9.082031 12.902344 15.816406 25.097656 15.976562 29.65625 0 7.335938-4.929688 13.679688-11.992188 15.433594-.199218.046875-.40625.101562-.609374.167968-.933594.253907-2.078126.398438-3.398438.398438-8.824219 0-16-7.175781-16-15.960938 0-.078124.105469-1.886718 2.097656-6.503906 3.09375-7.0625 8.605469-15.679687 13.925782-23.191406zm-144.023438 309.65625c-88.222656 0-160-71.777344-160-160s71.777344-160 160-160c35.167969 0 69.136719 11.640625 96.855469 32.777344-.527344 2.535156-.855469 4.957031-.855469 7.222656 0 26.089844 20.9375 47.34375 46.878906 47.945312 11.21875 22.191407 17.121094 46.894532 17.121094 72.054688 0 88.222656-71.777344 160-160 160zm0 0"/></g></svg>