<svg enable-background="new 0 0 24 24" height="512" viewBox="0 0 24 24" width="512" xmlns="http://www.w3.org/2000/svg"><path d="m3.243 12.309c.098-.32-.081-.66-.402-.759-.162-.05-.334-.075-.511-.075-1.117 0-2.025.908-2.025 2.025s.908 2.025 2.025 2.025c.177 0 .348-.025.511-.075.321-.098.501-.438.402-.759-.08-.262-.321-.42-.581-.42v-1.542c.26 0 .501-.158.581-.42z" fill="#ffb74d"/><path d="m21.116 11.531c-.327.076-.53.403-.454.729.065.28.316.459.592.458v1.562c-.276-.001-.527.179-.592.459-.076.327.127.653.454.729.16.037.318.056.469.056 1.117 0 2.025-.908 2.025-2.025 0-1.267-1.155-2.277-2.494-1.968z" fill="#ffb74d"/><path d="m20.958 13.5c0 4.959-4.041 9-9 9s-9-4.041-9-9c0-3.6 2.124-6.705 5.184-8.145.432-.216.891-.387 1.368-.513.774-.225 1.602-.342 2.448-.342s1.674.117 2.448.342c.018.108.027.216.027.333 0 1.368 1.251 2.205 1.341.18 3.06 1.44 5.184 4.545 5.184 8.145z" fill="#ffd54f"/><path d="m11.635 19.18v-.306c0-.302-.245-.547-.547-.547s-.547.245-.547.547v.671c0 .804.654 1.458 1.458 1.458s1.458-.654 1.458-1.458v-.671c0-.302-.245-.547-.547-.547s-.547.245-.547.547v.306z" fill="#fff"/><path d="m12 23.5c-5.514 0-10-4.486-10-10s4.486-10 10-10 10 4.486 10 10-4.486 10-10 10zm0-18.5c-4.687 0-8.5 3.813-8.5 8.5s3.813 8.5 8.5 8.5 8.5-3.813 8.5-8.5-3.813-8.5-8.5-8.5z"/><path d="m2.5 16c-1.379 0-2.5-1.121-2.5-2.5s1.121-2.5 2.5-2.5c.219 0 .432.031.631.093.396.122.618.542.496.938s-.542.619-.938.496c-.055-.018-.121-.027-.189-.027-.552 0-1 .448-1 1s.448 1 1 1c.068 0 .134-.009.189-.026.395-.12.815.101.938.496s-.1.815-.496.938c-.199.061-.412.092-.631.092z"/><path d="m12 8.5c-.671 0-1.332-.156-1.911-.452-.369-.189-.516-.64-.327-1.009.188-.368.637-.517 1.009-.327.369.188.794.288 1.229.288 1.517 0 2.75-1.233 2.75-2.75s-1.233-2.75-2.75-2.75-2.75 1.233-2.75 2.75c0 .188.017.347.049.483.098.403-.149.809-.552.905-.404.096-.809-.149-.905-.551-.062-.255-.092-.528-.092-.837 0-2.344 1.906-4.25 4.25-4.25s4.25 1.906 4.25 4.25-1.906 4.25-4.25 4.25z"/><path d="m12.001 19.462c-1.9 0-3.687-.74-5.03-2.084-.293-.293-.293-.768 0-1.061s.768-.293 1.061 0c1.061 1.061 2.471 1.645 3.97 1.645s2.909-.584 3.97-1.645c.293-.293.768-.293 1.061 0s.293.768 0 1.061c-1.345 1.344-3.132 2.084-5.032 2.084z"/><path d="m12 21.5c-1.103 0-2-.897-2-2v-.92c0-.414.336-.75.75-.75s.75.336.75.75v.92c0 .275.225.5.5.5s.5-.225.5-.5v-.92c0-.414.336-.75.75-.75s.75.336.75.75v.92c0 1.103-.897 2-2 2z"/><path d="m9.25 13.75c-.414 0-.75-.336-.75-.75 0-.275-.225-.5-.5-.5s-.5.225-.5.5c0 .414-.336.75-.75.75s-.75-.336-.75-.75c0-1.103.897-2 2-2s2 .897 2 2c0 .414-.336.75-.75.75z"/><path d="m17.25 13.75c-.414 0-.75-.336-.75-.75 0-.275-.225-.5-.5-.5s-.5.225-.5.5c0 .414-.336.75-.75.75s-.75-.336-.75-.75c0-1.103.897-2 2-2s2 .897 2 2c0 .414-.336.75-.75.75z"/><path d="m21.5 16c-.188 0-.383-.023-.58-.069-.403-.094-.654-.497-.561-.9.094-.404.502-.658.9-.561.085.02.168.03.24.03.552 0 1-.448 1-1s-.448-1-1-1c-.072 0-.155.011-.24.03-.398.094-.807-.156-.9-.561-.094-.403.157-.807.561-.9 1.645-.385 3.08.865 3.08 2.431 0 1.379-1.121 2.5-2.5 2.5z"/></svg>