<svg height="384pt" viewBox="0 0 384 384" width="384pt" xmlns="http://www.w3.org/2000/svg"><path d="m336.160156 64.238281c30.480469 3.28125 42.480469 43.683594 20.878906 66.402344l-.078124.078125-60.960938 45.28125-60.960938-45.28125c-21.679687-22.71875-9.679687-63.199219 20.800782-66.480469 1.519531-.160156 3.039062-.238281 4.558594-.238281 14.480468 0 27.523437 7.359375 35.601562 18.640625 5.039062-7.039063 11.921875-12.480469 19.921875-15.601563 4.878906-2 10.15625-3.039062 15.679687-3.039062 1.519532 0 3.039063.078125 4.558594.238281zm0 0" fill="#ff7043"/><path d="m128.160156 64.238281c30.480469 3.28125 42.480469 43.761719 20.800782 66.480469l-60.960938 45.28125-60.960938-45.28125-.078124-.078125c-21.601563-22.71875-9.601563-63.121094 20.878906-66.402344 1.519531-.160156 3.039062-.238281 4.558594-.238281 5.523437 0 10.800781 1.039062 15.679687 3.039062 8 3.121094 14.882813 8.5625 19.921875 15.601563 8.078125-11.28125 21.121094-18.640625 35.601562-18.640625 1.519532 0 3.039063.078125 4.558594.238281zm0 0" fill="#ff7043"/><path d="m357.039062 130.640625c7.121094 19.121094 10.960938 39.757813 10.960938 61.359375 0 97.199219-78.800781 176-176 176s-176-78.800781-176-176c0-21.601562 3.839844-42.238281 10.960938-61.359375l.078124.078125 60.960938 45.28125 60.960938-45.28125c21.679687-22.71875 9.679687-63.199219-20.800782-66.480469-1.519531-.160156-3.039062-.238281-4.558594-.238281-14.480468 0-27.523437 7.359375-35.601562 18.640625-5.039062-7.039063-11.921875-12.480469-19.921875-15.601563 31.761719-31.597656 75.601563-51.039062 123.921875-51.039062s92.160156 19.441406 123.921875 51.039062c-8 3.121094-14.882813 8.5625-19.921875 15.601563-8.078125-11.28125-21.121094-18.640625-35.601562-18.640625-1.519532 0-3.039063.078125-4.558594.238281-30.480469 3.28125-42.480469 43.761719-20.800782 66.480469l60.960938 45.28125 60.960938-45.28125zm0 0" fill="#4dd0e1"/><g fill="#012e52"><path d="m380.441406 82.527344c-7.089844-19.3125-23-32.09375-42.609375-34.199219-5.921875-.632813-11.800781-.265625-17.488281.863281-35.214844-31.792968-80.433594-49.191406-128.34375-49.191406s-93.121094 17.398438-128.335938 49.183594c-5.664062-1.128906-11.527343-1.503906-17.535156-.847656-19.570312 2.105468-35.488281 14.886718-42.570312 34.199218-6.269532 17.089844-3.964844 36.023438 5.671875 51.03125-6.007813 18.785156-9.230469 38.371094-9.230469 58.433594 0 105.871094 86.128906 192 192 192s192-86.128906 192-192c0-20.039062-3.214844-39.585938-9.199219-58.351562 9.589844-14.832032 11.953125-33.914063 5.640625-51.121094zm-30.042968 11.023437c2.480468 6.746094 2.761718 17.328125-4.140626 25.183594l-50.257812 37.335937-50.183594-37.277343c-6.945312-8.03125-6.65625-18.511719-4.191406-25.21875 1.335938-3.664063 5.574219-12.308594 15.894531-13.421875 9.761719-.984375 19.527344 3.503906 25.480469 11.808594 3 4.191406 7.839844 6.679687 13 6.679687s10-2.488281 13.007812-6.6875c3.28125-4.578125 7.671876-8.042969 12.726563-10.007813.066406-.023437.128906-.050781.195313-.082031.015624-.007812.039062-.015625.054687-.023437h.007813c3.832031-1.574219 8.265624-2.136719 12.457031-1.695313 10.367187 1.121094 14.605469 9.75 15.949219 13.40625zm-316.796876 0c1.34375-3.664062 5.582032-12.292969 15.910157-13.40625 4.351562-.449219 8.664062.128907 12.488281 1.695313.007812.007812.023438.007812.03125.015625.074219.03125.152344.054687.226562.089843 5.046876 1.964844 9.445313 5.429688 12.726563 10.007813 3.015625 4.199219 7.855469 6.6875 13.015625 6.6875s10-2.488281 13.007812-6.679687c5.953126-8.3125 16.039063-12.785157 25.441407-11.816407 10.351562 1.121094 14.589843 9.757813 15.933593 13.421875 2.457032 6.707032 2.746094 17.1875-4.191406 25.21875l-50.191406 37.285156-50.199219-37.292968c-6.960937-8.035156-6.65625-18.519532-4.199219-25.226563zm158.398438 258.449219c-88.222656 0-160-71.777344-160-160 0-11.832031 1.414062-23.433594 3.921875-34.761719l42.542969 31.601563c2.832031 2.113281 6.183594 3.160156 9.535156 3.160156s6.703125-1.046875 9.535156-3.160156l60.960938-45.28125c.726562-.535156 1.40625-1.144532 2.03125-1.796875 14.738281-15.441407 19.410156-38.671875 11.898437-59.195313-7.074219-19.335937-22.984375-32.132812-42.601562-34.246094-2.527344-.273437-5.054688-.3125-7.566407-.25 21.46875-10.40625 45.140626-16.070312 69.742188-16.070312 24.59375 0 48.257812 5.65625 69.710938 16.070312-2.511719-.054687-5.03125-.007812-7.582032.265626-19.578125 2.105468-35.488281 14.902343-42.5625 34.238281-7.503906 20.515625-2.832031 43.753906 11.898438 59.195312.625.65625 1.304687 1.253907 2.03125 1.796875l60.960937 45.28125c2.839844 2.105469 6.191407 3.152344 9.542969 3.152344s6.703125-1.046875 9.535156-3.160156l42.542969-31.601563c2.507813 11.328125 3.921875 22.929688 3.921875 34.761719 0 88.222656-71.777344 160-160 160zm0 0"/><path d="m265.246094 232.097656c-8.789063-.90625-16.679688 5.390625-17.636719 14.175782-3.082031 28.351562-26.984375 49.726562-55.609375 49.726562s-52.527344-21.375-55.617188-49.726562c-.949218-8.785157-8.894531-15.082032-17.640624-14.175782-8.78125.957032-15.132813 8.847656-14.175782 17.636719 4.867188 44.617187 42.449219 78.265625 87.433594 78.265625s82.566406-33.648438 87.425781-78.273438c.957031-8.78125-5.394531-16.679687-14.179687-17.628906zm0 0"/></g></svg>