<svg enable-background="new 0 0 24 24" height="512" viewBox="0 0 24 24" width="512" xmlns="http://www.w3.org/2000/svg"><path d="m3.243 12.309c.098-.32-.081-.66-.402-.759-.162-.05-.334-.075-.511-.075-1.117 0-2.025.908-2.025 2.025s.908 2.025 2.025 2.025c.177 0 .348-.025.511-.075.321-.098.501-.438.402-.759-.08-.262-.321-.42-.581-.42v-1.542c.26 0 .501-.158.581-.42z" fill="#ffb74d"/><path d="m21.116 11.531c-.327.076-.53.403-.454.729.065.28.316.459.592.458v1.562c-.276-.001-.527.179-.592.459-.076.327.127.653.454.729.16.037.318.056.469.056 1.117 0 2.025-.908 2.025-2.025 0-1.267-1.155-2.277-2.494-1.968z" fill="#ffb74d"/><path d="m20.958 13.5c0 4.959-4.041 9-9 9s-9-4.041-9-9c0-3.6 2.124-6.705 5.184-8.145.432-.216.891-.387 1.368-.513.774-.225 1.602-.342 2.448-.342s1.674.117 2.448.342c.018.108.027.216.027.333 0 1.368 1.251 2.205 1.341.18 3.06 1.44 5.184 4.545 5.184 8.145z" fill="#ffd54f"/><path d="m20 23.052c-.109 0-.217-.032-.31-.097-.435-.3-2.606-1.869-2.606-3.318 0-.93.8-1.688 1.783-1.688.422 0 .82.141 1.133.384.313-.243.711-.384 1.133-.384.983 0 1.783.757 1.783 1.688 0 1.449-2.171 3.019-2.606 3.318-.093.064-.201.097-.31.097z" fill="#e53935"/><path d="m12 23.5c-5.514 0-10-4.486-10-10s4.486-10 10-10 10 4.486 10 10c0 1.896-.531 3.735-1.537 5.321-.221.351-.686.454-1.035.232-.35-.222-.454-.686-.232-1.035.853-1.345 1.304-2.908 1.304-4.518 0-4.687-3.813-8.5-8.5-8.5s-8.5 3.813-8.5 8.5 3.813 8.5 8.5 8.5c1.842 0 3.582-.571 5.032-1.651.333-.248.803-.178 1.05.153.248.332.179.802-.153 1.05-1.712 1.274-3.762 1.948-5.929 1.948z"/><path d="m2.5 16c-1.378 0-2.5-1.121-2.5-2.5s1.122-2.5 2.5-2.5c.218 0 .43.031.63.093.396.121.618.541.497.937-.122.397-.542.62-.937.497-.057-.018-.122-.027-.19-.027-.551 0-1 .448-1 1s.449 1 1 1c.068 0 .133-.009.19-.026.395-.12.815.101.937.497s-.101.815-.497.937c-.2.061-.412.092-.63.092z"/><path d="m12 8.5c-.672 0-1.333-.156-1.911-.452-.369-.189-.515-.641-.327-1.01.188-.368.642-.514 1.009-.326.369.188.793.288 1.229.288 1.517 0 2.75-1.233 2.75-2.75s-1.233-2.75-2.75-2.75-2.75 1.233-2.75 2.75c0 .188.016.347.05.487.095.403-.154.807-.557.903-.409.093-.807-.155-.903-.557-.061-.255-.09-.527-.09-.833 0-2.344 1.907-4.25 4.25-4.25s4.25 1.906 4.25 4.25-1.907 4.25-4.25 4.25z"/><path d="m9.25 13.75c-.414 0-.75-.336-.75-.75 0-.275-.224-.5-.5-.5s-.5.225-.5.5c0 .414-.336.75-.75.75s-.75-.336-.75-.75c0-1.103.897-2 2-2s2 .897 2 2c0 .414-.336.75-.75.75z"/><path d="m17.25 13.75c-.414 0-.75-.336-.75-.75 0-.275-.224-.5-.5-.5s-.5.225-.5.5c0 .414-.336.75-.75.75s-.75-.336-.75-.75c0-1.103.897-2 2-2s2 .897 2 2c0 .414-.336.75-.75.75z"/><path d="m20 24c-.149 0-.297-.044-.425-.133-.597-.411-3.575-2.563-3.575-4.552 0-1.276 1.097-2.315 2.446-2.315.579 0 1.125.193 1.554.526.429-.333.976-.526 1.554-.526 1.349 0 2.446 1.039 2.446 2.315 0 1.988-2.978 4.141-3.575 4.552-.128.089-.276.133-.425.133zm-1.554-5.5c-.521 0-.946.366-.946.815 0 .785 1.367 2.142 2.5 3.007 1.133-.866 2.5-2.224 2.5-3.007 0-.449-.424-.815-.946-.815-.387 0-.73.199-.875.508-.247.527-1.111.527-1.358 0-.145-.309-.488-.508-.875-.508z"/><path d="m11.75 21c-.297 0-.579-.178-.696-.472-.154-.385.033-.821.418-.975l.949-.38-1.006-.503c-.254-.126-.415-.386-.415-.67s.161-.544.415-.671l1.006-.503-.949-.38c-.385-.153-.572-.59-.418-.975.154-.384.592-.568.975-.418l2.5 1c.274.109.459.37.471.665s-.15.57-.414.702l-1.159.58 1.158.579c.264.132.426.407.414.702s-.197.556-.471.665l-2.5 1c-.091.036-.185.054-.278.054z"/><path d="m21.5 16c-.187 0-.382-.023-.58-.069-.404-.094-.655-.497-.561-.9.094-.402.497-.66.9-.561.087.021.168.03.241.03.551 0 1-.448 1-1s-.449-1-1-1c-.073 0-.154.01-.241.03-.404.094-.807-.158-.9-.561-.094-.403.157-.807.561-.9 1.654-.382 3.08.866 3.08 2.431 0 1.379-1.122 2.5-2.5 2.5z"/></svg>