<svg height="384pt" viewBox="0 0 384 384" width="384pt" xmlns="http://www.w3.org/2000/svg"><path d="m192 16c97.199219 0 176 78.800781 176 176s-78.800781 176-176 176-176-78.800781-176-176 78.800781-176 176-176zm72 216h-144c0 39.761719 32.238281 72 72 72s72-32.238281 72-72zm0 0" fill="#ff7043"/><path d="m120 232h144c0 39.761719-32.238281 72-72 72s-72-32.238281-72-72zm0 0" fill="#e0f7fa"/><g fill="#012e52"><path d="m192 0c-105.871094 0-192 86.128906-192 192s86.128906 192 192 192 192-86.128906 192-192-86.128906-192-192-192zm0 352c-88.222656 0-160-71.777344-160-160s71.777344-160 160-160 160 71.777344 160 160-71.777344 160-160 160zm0 0"/><path d="m144 176c0 8.832031 7.167969 16 16 16s16-7.167969 16-16c0-30.878906-25.121094-56-56-56s-56 25.121094-56 56c0 8.832031 7.167969 16 16 16s16-7.167969 16-16c0-13.230469 10.769531-24 24-24s24 10.769531 24 24zm0 0"/><path d="m264 120c-30.878906 0-56 25.121094-56 56 0 8.832031 7.167969 16 16 16s16-7.167969 16-16c0-13.230469 10.769531-24 24-24s24 10.769531 24 24c0 8.832031 7.167969 16 16 16s16-7.167969 16-16c0-30.878906-25.121094-56-56-56zm0 0"/><path d="m264 216h-144c-8.832031 0-16 7.167969-16 16 0 48.519531 39.480469 88 88 88s88-39.480469 88-88c0-8.832031-7.167969-16-16-16zm-72 72c-25.320312 0-46.769531-16.894531-53.671875-40h107.34375c-6.902344 23.105469-28.351563 40-53.671875 40zm0 0"/></g></svg>