<svg enable-background="new 0 0 24 24" height="512" viewBox="0 0 24 24" width="512" xmlns="http://www.w3.org/2000/svg"><path d="m.674 4.477s.315 3.654 1.953 5.085c.081.072.162.135.252.198l.117.072h5.229z" fill="#5d4037"/><path d="m23.326 4.477s-.315 3.654-1.953 5.085c-.081.072-.162.135-.252.198l-.117.072h-5.229z" fill="#5d4037"/><circle cx="12" cy="13.5" fill="#ffd54f" r="9.45"/><path d="m6.051 4.465.243-.441 1.287-2.565c.387-.711 1.134-1.152 1.935-1.152h4.968c.801 0 1.548.441 1.935 1.152l1.287 2.565.243.441s-3.305 1.373-5.949 1.373c-2.644.001-5.949-1.373-5.949-1.373z" fill="#5d4037"/><path d="m20 23.646c-.135 0-.27-.04-.387-.121-.536-.375-3.213-2.334-3.213-4.141 0-1.159.987-2.102 2.201-2.102.521 0 1.013.175 1.399.478.387-.303.878-.478 1.399-.478 1.214 0 2.201.943 2.201 2.102 0 1.807-2.677 3.766-3.213 4.141-.117.081-.252.121-.387.121z" fill="#e53935"/><path d="m22.112 3.972c.245 0 .457.192.457.446 0 .074-.018.153-.059.234-2.687 4.022-6.333 5.393-9.84 5.393-5.835 0-11.283-3.795-11.283-5.495 0-.153.044-.288.135-.403.085-.113.22-.176.361-.176.038 0 .077.005.116.014.099.099 5.198 1.377 9.999 1.377 4.488 0 9.879-1.257 9.999-1.377.038-.009.077-.013.115-.013z" fill="#6d4c41"/><path d="m18.25 14.25c-.414 0-.75-.336-.75-.75 0-.551-.448-1-1-1s-1 .449-1 1c0 .414-.336.75-.75.75s-.75-.336-.75-.75c0-1.378 1.121-2.5 2.5-2.5s2.5 1.122 2.5 2.5c0 .414-.336.75-.75.75z"/><path d="m9.279 14.25c-.414 0-.75-.336-.75-.75 0-.551-.448-1-1-1s-1 .449-1 1c0 .414-.336.75-.75.75s-.75-.336-.75-.75c0-1.378 1.121-2.5 2.5-2.5s2.5 1.122 2.5 2.5c0 .414-.336.75-.75.75z"/><path d="m2.989 10.383c-.146 0-.293-.042-.423-.131-2.12-1.451-2.524-5.587-2.563-6.055-.035-.413.271-.775.684-.81.407-.04.775.271.811.684.092 1.072.614 4.051 1.917 4.942.342.234.429.701.195 1.042-.146.214-.381.328-.621.328z"/><path d="m21.011 10.383c-.239 0-.475-.114-.62-.327-.233-.342-.146-.809.195-1.042 1.303-.891 1.825-3.87 1.917-4.942.035-.413.407-.722.811-.684.412.035.719.397.684.81-.039.467-.443 4.604-2.563 6.055-.131.087-.279.13-.424.13z"/><path d="m12 6.43c-1.726 0-3.573-.132-5.49-.394-.012 0-.023-.001-.032-.003-.324-.04-.637-.081-.94-.131-.24-.04-.445-.194-.552-.413s-.099-.475.018-.689l1.868-3.395c.475-.865 1.383-1.405 2.369-1.405h5.518c.986 0 1.895.54 2.37 1.408l1.867 3.392c.117.213.124.47.018.689s-.312.373-.552.413c-.303.05-.616.091-.939.131-.01.001-.021.002-.032.003-1.918.262-3.765.394-5.491.394zm-5.156-1.861c1.813.24 3.542.361 5.156.361 1.619 0 3.353-.122 5.156-.362l-1.343-2.438c-.212-.39-.616-.63-1.054-.63h-5.518c-.438 0-.842.24-1.054.627z"/><path d="m12 10.754c-3.085 0-5.872-.855-8.285-2.542-2.426-1.698-3.565-3.618-3.612-3.698-.155-.265-.133-.597.055-.839.188-.243.507-.344.799-.261.02.005 2.001.57 4.819 1.007.291.049.585.086.887.124 1.88.256 3.669.385 5.337.385s3.457-.129 5.318-.384c.033-.004.067-.007.102-.007.219-.032.513-.069.796-.117 2.834-.439 4.808-1.003 4.827-1.008.293-.085.61.018.799.26.188.242.21.575.056.839-.048.081-1.187 2-3.611 3.698-2.415 1.688-5.202 2.543-8.287 2.543zm-9.301-5.375c.485.503 1.109 1.068 1.876 1.604 2.155 1.507 4.654 2.271 7.425 2.271s5.27-.764 7.426-2.271c.767-.537 1.39-1.101 1.875-1.604-.784.168-1.751.355-2.847.525-.295.049-.608.089-.932.13-.01.001-.021.002-.032.003-1.917.261-3.764.393-5.49.393s-3.573-.132-5.49-.393c-.012-.001-.023-.002-.032-.004-.324-.04-.637-.081-.94-.131-1.092-.169-2.057-.356-2.839-.523z"/><path d="m12 24c-5.79 0-10.5-4.71-10.5-10.5 0-2.292.73-4.471 2.111-6.302.248-.331.718-.397 1.051-.147.33.25.396.72.146 1.05-1.183 1.569-1.808 3.436-1.808 5.399 0 4.963 4.037 9 9 9 1.954 0 3.812-.616 5.371-1.78.333-.248.805-.178 1.05.151.248.332.18.803-.151 1.05-1.822 1.36-3.99 2.079-6.27 2.079z"/><path d="m20.709 18.64c-.114 0-.229-.026-.339-.081-.369-.188-.517-.64-.329-1.009.637-1.253.959-2.615.959-4.05 0-1.963-.625-3.83-1.809-5.398-.25-.331-.184-.801.146-1.05.332-.25.801-.184 1.051.147 1.382 1.83 2.112 4.009 2.112 6.301 0 1.673-.377 3.264-1.121 4.729-.133.26-.397.411-.67.411z"/><path d="m20 24c-.15 0-.301-.045-.43-.135-.595-.416-3.57-2.594-3.57-4.601 0-1.287 1.097-2.335 2.445-2.335.579 0 1.125.194 1.555.531.43-.337.976-.531 1.555-.531 1.349 0 2.445 1.048 2.445 2.335 0 2.007-2.975 4.186-3.57 4.602-.129.089-.28.134-.43.134zm-1.555-5.571c-.521 0-.945.375-.945.835 0 .801 1.367 2.177 2.5 3.055 1.153-.89 2.5-2.246 2.5-3.055 0-.46-.424-.835-.945-.835-.386 0-.729.203-.874.517-.246.529-1.115.529-1.361 0-.146-.314-.489-.517-.875-.517z"/><path d="m11.75 21c-.304 0-.589-.186-.702-.486-.146-.388.051-.82.438-.966l.39-.146-.461-.23c-.255-.128-.415-.388-.415-.672s.16-.544.415-.671l.461-.23-.39-.146c-.388-.146-.584-.578-.438-.966s.578-.581.966-.438l2 .75c.279.104.47.365.485.663s-.146.576-.414.71l-.658.328.658.329c.268.134.43.412.414.71s-.206.559-.485.663l-2 .75c-.087.032-.176.048-.264.048z"/></svg>