<svg height="384pt" viewBox="0 0 384 384" width="384pt" xmlns="http://www.w3.org/2000/svg"><path d="m264 288h-144c0-39.761719 32.238281-72 72-72s72 32.238281 72 72zm0 0" fill="#e0f7fa"/><path d="m192 16c97.199219 0 176 78.800781 176 176s-78.800781 176-176 176-176-78.800781-176-176 78.800781-176 176-176zm-72 272h144c0-39.761719-32.238281-72-72-72s-72 32.238281-72 72zm0 0" fill="#ff7043"/><g fill="#012e52"><path d="m192 200c-48.519531 0-88 39.480469-88 88 0 8.832031 7.167969 16 16 16h144c8.832031 0 16-7.167969 16-16 0-48.519531-39.480469-88-88-88zm-53.671875 72c6.894531-23.113281 28.351563-40 53.671875-40s46.777344 16.886719 53.671875 40zm0 0"/><path d="m192 0c-105.863281 0-192 86.136719-192 192s86.136719 192 192 192 192-86.136719 192-192-86.136719-192-192-192zm0 352c-88.222656 0-160-71.777344-160-160s71.777344-160 160-160 160 71.777344 160 160-71.777344 160-160 160zm0 0"/><path d="m120 160c-8.832031 0-16 7.167969-16 16s7.167969 16 16 16c30.871094 0 56-25.128906 56-56s-25.128906-56-56-56c-8.832031 0-16 7.167969-16 16s7.167969 16 16 16c13.230469 0 24 10.769531 24 24s-10.769531 24-24 24zm0 0"/><path d="m264 112c8.832031 0 16-7.167969 16-16s-7.167969-16-16-16c-30.871094 0-56 25.128906-56 56s25.128906 56 56 56c8.832031 0 16-7.167969 16-16s-7.167969-16-16-16c-13.230469 0-24-10.769531-24-24s10.769531-24 24-24zm0 0"/></g></svg>