<svg enable-background="new 0 0 24 24" height="512" viewBox="0 0 24 24" width="512" xmlns="http://www.w3.org/2000/svg"><path d="m24 18.34c0 2-2.97 4.18-3.57 4.6-.13.09-.28.13-.43.13s-.3-.04-.43-.13c-.21-.14-.69-.5-1.24-.98-1.05-.92-2.33-2.31-2.33-3.62 0-1.29 1.1-2.34 2.45-2.34.57 0 1.12.19 1.55.53.43-.34.98-.53 1.55-.53.35 0 .68.07.98.19.87.37 1.47 1.19 1.47 2.15z" fill="#fff"/><g fill="#e53935"><path d="m21.844 17.096c-.219-.087-.459-.139-.714-.139-.416 0-.816.139-1.13.386-.313-.248-.714-.386-1.13-.386-.984 0-1.786.765-1.786 1.706 0 .955.933 1.968 1.699 2.639.401.35.751.612.904.714.095.066.204.095.313.095s.219-.029.313-.095c.437-.306 2.603-1.895 2.603-3.353 0-.699-.437-1.297-1.072-1.567z"/><path d="m19.997 1.229c-.161-.145-.392-.18-.588-.093-.197.088-.324.284-.324.499 0 .916-.411 1.762-1.128 2.323-.238.186-.279.53-.094.768.186.237.53.279.768.094.018-.014.032-.031.049-.045l1.095 1.095c-.018.028-.032.057-.051.085-.173.248-.112.588.136.761.095.066.204.098.313.098.173 0 .342-.082.449-.234 1.171-1.678.902-3.979-.625-5.351z"/><path d="m4.937 1.378c0-.24-.141-.457-.36-.555-.218-.098-.475-.058-.654.103-1.696 1.525-1.994 4.082-.693 5.947.118.169.307.26.499.26.12 0 .241-.036.347-.109.275-.192.343-.571.151-.846-.021-.031-.036-.064-.057-.095l1.216-1.216c.019.016.035.034.055.05.264.206.647.16.853-.104s.16-.646-.104-.853c-.796-.624-1.253-1.565-1.253-2.582z"/></g><circle cx="12.121" cy="12.997" fill="#ef5350" r="10.129"/><path d="m12 24c-6.065 0-11-4.935-11-11s4.935-11 11-11 11 4.935 11 11c0 1.396-.257 2.75-.763 4.026-.153.385-.588.574-.974.421-.385-.152-.573-.589-.421-.974.437-1.1.657-2.269.657-3.474 0-5.238-4.262-9.5-9.5-9.5s-9.499 4.263-9.499 9.501 4.262 9.5 9.5 9.5c2.173 0 4.228-.722 5.943-2.087.324-.259.795-.204 1.054.12.258.324.204.796-.12 1.054-1.983 1.579-4.361 2.413-6.877 2.413z"/><path d="m20.39 7.875c-.414 0-.75-.331-.75-.745 0-.155.048-.315.138-.442.874-1.239.959-2.823.325-4.126-.353 1.012-.994 1.916-1.857 2.574-.33.254-.8.188-1.051-.141-.252-.329-.188-.8.141-1.051 1-.764 1.574-1.928 1.574-3.194 0-.296.175-.564.445-.686.269-.118.587-.07.807.129 2.093 1.888 2.46 5.031.862 7.328-.132.212-.367.354-.634.354z"/><path d="m3.591 7.89c-.235 0-.466-.109-.612-.315-1.642-2.311-1.285-5.485.83-7.384.221-.197.535-.248.807-.126.27.121.444.389.444.685 0 1.271.578 2.442 1.587 3.214.328.252.392.723.14 1.052-.25.327-.72.393-1.052.14-.882-.676-1.525-1.574-1.875-2.59-.633 1.306-.544 2.894.341 4.139.24.338.161.806-.177 1.046-.131.094-.284.139-.433.139z"/><path d="m16 12c-1.103 0-2-.897-2-2 0-.534.208-1.036.586-1.414s.88-.586 1.414-.586c1.103 0 2 .897 2 2s-.897 2-2 2zm0-2.5c-.134 0-.259.052-.354.146s-.146.22-.146.354c0 .275.225.5.5.5s.5-.225.5-.5-.225-.5-.5-.5z"/><path d="m15.189 9.798c-.192 0-.384-.073-.53-.22-.293-.293-.293-.768 0-1.061l2-2c.293-.293.768-.293 1.061 0s.293.768 0 1.061l-2 2c-.147.147-.338.22-.531.22z"/><path d="m8 12c-1.103 0-2-.897-2-2s.897-2 2-2c.534 0 1.036.208 1.414.586s.586.88.586 1.414c0 1.103-.897 2-2 2zm0-2.5c-.275 0-.5.225-.5.5s.225.5.5.5.5-.225.5-.5c0-.134-.052-.259-.146-.354s-.22-.146-.354-.146z"/><path d="m8.811 9.798c-.192 0-.384-.073-.53-.22l-2-2c-.293-.293-.293-.768 0-1.061s.768-.293 1.061 0l2 2c.293.293.293.768 0 1.061-.148.147-.339.22-.531.22z"/><path d="m11.751 21c-.275 0-.54-.151-.672-.415-.186-.37-.035-.82.336-1.006l1.277-.639-1.328-.797c-.225-.135-.364-.379-.364-.643s.139-.508.364-.644l1.328-.797-1.277-.639c-.371-.186-.521-.636-.336-1.006.187-.371.636-.521 1.006-.336l2.5 1.25c.245.122.404.368.414.643.011.273-.129.53-.363.672l-1.428.857 1.428.856c.234.142.374.398.363.672-.01.274-.169.521-.414.643l-2.5 1.25c-.107.054-.222.079-.334.079z"/><path d="m20 23.071c-.15 0-.301-.045-.43-.135-.595-.415-3.57-2.594-3.57-4.6 0-1.288 1.097-2.336 2.445-2.336.579 0 1.125.194 1.555.531.43-.337.976-.531 1.555-.531 1.348 0 2.445 1.048 2.445 2.336 0 2.006-2.975 4.185-3.57 4.601-.129.089-.28.134-.43.134zm-1.555-5.571c-.521 0-.945.375-.945.836 0 .808 1.347 2.164 2.5 3.054 1.153-.89 2.5-2.246 2.5-3.054 0-.461-.424-.836-.945-.836-.386 0-.729.203-.874.517-.246.529-1.115.529-1.361 0-.146-.314-.489-.517-.875-.517z"/></svg>