<svg enable-background="new 0 0 24 24" height="512" viewBox="0 0 24 24" width="512" xmlns="http://www.w3.org/2000/svg"><path d="m21.416 15.727c-.099 0-.187-.009-.276-.021-.333-.04-.57-.343-.53-.676.041-.332.348-.57.677-.529.041.005.083.011.129.011.558 0 .558-2.025 0-2.025-.335 0-.608-.272-.608-.608 0-.335.272-.608.608-.608 1.228 0 2.228.999 2.228 2.227s-.999 2.229-2.228 2.229z" fill="#ffb74d"/><path d="m2.584 15.727c-1.228 0-2.227-.999-2.227-2.227s.999-2.227 2.227-2.227c.335 0 .608.272.608.608 0 .335-.272.608-.608.608-.558 0-.558 2.025 0 2.025.046 0 .088-.006.129-.011.333-.041.636.197.677.529.04.333-.197.636-.53.676-.089.01-.177.019-.276.019z" fill="#ffb74d"/><path d="m12.009 23.078c-5.166 0-8.462-4.411-8.942-8.562-.01-.088-.003-.177.022-.262l1.062-3.735c.067-.236.257-.417.495-.473.031-.007 3.115-.762 3.115-2.889 0-.342.255-.629.595-.671.34-.032.656.179.736.511.004.011 1.04 3.031 10.108 3.031.301 0 .565.199.649.488l1.071 3.708c.025.085.032.174.022.262-.469 4.223-3.938 8.592-8.933 8.592z" fill="#ffd54f"/><g fill="#6d4c41"><path d="m8 15.215c-.67 0-1.215-.545-1.215-1.215s.545-1.215 1.215-1.215 1.215.545 1.215 1.215-.545 1.215-1.215 1.215z"/><path d="m16 15.35c-.745 0-1.35-.606-1.35-1.35s.605-1.35 1.35-1.35 1.35.606 1.35 1.35-.605 1.35-1.35 1.35z"/><path d="m2.488 14.393c-.016 0 .682 0 .666-.001-.319-.022-.042-.266-.086-.582-.045-.332-.068-.693-.068-1.074v-4.706c0-4.997 4.67-7.272 9.009-7.272 4.468 0 8.991 2.5 8.991 7.281l.75 4.707c0 .34-.019.68-.058 1.021-.036.32-.294.57-.614.596-.317.029-.615-.176-.705-.485l-.931-3.224c-6.038-.075-9.342-2.383-11.212-2.873-.786 1.522-3.332 2.493-4.134 2.747l-.96 3.374c-.082.292-.348.491-.648.491z"/></g><path d="m12.01 24c-5.988 0-10.01-5.528-10.01-10.691v-5.234c0-5.548 5.189-8.075 10.01-8.075 4.964 0 9.99 2.777 9.99 8.087v5.232c0 5.159-4.014 10.681-9.99 10.681zm0-22.5c-4.099 0-8.51 2.058-8.51 6.575v5.233c0 4.438 3.419 9.191 8.51 9.191 5.079 0 8.49-4.747 8.49-9.181v-5.231c0-4.525-4.401-6.587-8.49-6.587z"/><path d="m2.75 16.25c-1.517 0-2.75-1.233-2.75-2.75s1.233-2.75 2.75-2.75c.414 0 .75.336.75.75s-.336.75-.75.75c-.689 0-1.25.561-1.25 1.25s.561 1.25 1.25 1.25c.057 0 .108-.008.159-.014.409-.05.786.242.835.653s-.243.785-.654.835c-.109.014-.217.026-.34.026z"/><path d="m21.25 16.25c-.123 0-.231-.012-.341-.025-.411-.05-.704-.424-.654-.835s.428-.702.835-.653c.051.006.102.014.159.014.689 0 1.25-.561 1.25-1.25s-.561-1.25-1.25-1.25c-.414 0-.75-.336-.75-.75s.336-.75.75-.75c1.517 0 2.75 1.233 2.75 2.75s-1.232 2.749-2.749 2.749z"/><path d="m8 16c-1.103 0-2-.897-2-2s.897-2 2-2 2 .897 2 2-.897 2-2 2zm0-2.5c-.276 0-.5.225-.5.5s.224.5.5.5.5-.225.5-.5-.224-.5-.5-.5z"/><path d="m16 16c-1.103 0-2-.897-2-2s.897-2 2-2 2 .897 2 2-.897 2-2 2zm0-2.5c-.276 0-.5.225-.5.5s.224.5.5.5.5-.225.5-.5-.224-.5-.5-.5z"/><path d="m12 19.995c-1.094 0-2.188-.401-3.021-1.205-.298-.288-.306-.763-.019-1.061.288-.3.763-.305 1.061-.02 1.091 1.055 2.867 1.055 3.958 0 .298-.285.774-.28 1.061.02.288.298.279.772-.019 1.061-.833.804-1.927 1.205-3.021 1.205z"/><path d="m2.82 15.15c-.068 0-.137-.009-.206-.028-.398-.113-.629-.528-.516-.927l1.18-4.15c.074-.262.285-.463.55-.525.035-.008 3.462-.847 3.462-3.21 0-.38.284-.699.661-.745.381-.038.728.199.818.567.004.013 1.155 3.368 11.231 3.368.334 0 .628.221.721.542l1.19 4.12c.115.397-.115.813-.513.929-.397.11-.813-.115-.929-.513l-1.034-3.582c-6.708-.083-9.723-1.644-11.068-2.914-.874 1.691-2.869 2.492-3.76 2.774l-1.066 3.749c-.094.331-.394.545-.721.545z"/></svg>