<svg height="384pt" viewBox="0 0 384 384" width="384pt" xmlns="http://www.w3.org/2000/svg"><path d="m368 80v112c0 17.679688-14.320312 32-32 32h-80c-17.679688 0-32-14.320312-32-32v-112zm-56 112c0-8.800781-7.199219-16-16-16s-16 7.199219-16 16 7.199219 16 16 16 16-7.199219 16-16zm0 0" fill="#e0f7fa"/><path d="m336 224c17.679688 0 32-14.320312 32-32 0 97.199219-78.800781 176-176 176s-176-78.800781-176-176c0 17.679688 14.320312 32 32 32h80c17.679688 0 32-14.320312 32-32v-48h64v48c0 17.679688 14.320312 32 32 32zm0 0" fill="#ff7043"/><path d="m327.839844 80h-103.839844v64h-64v-64h-103.839844c32.320313-39.039062 81.199219-64 135.839844-64s103.519531 24.960938 135.839844 64zm0 0" fill="#ff7043"/><path d="m160 144v48c0 17.679688-14.320312 32-32 32h-80c-17.679688 0-32-14.320312-32-32v-112h144zm-56 48c0-8.800781-7.199219-16-16-16s-16 7.199219-16 16 7.199219 16 16 16 16-7.199219 16-16zm0 0" fill="#e0f7fa"/><g fill="#012e52"><path d="m368 64h-32.902344c-36.539062-40.734375-88.234375-64-143.097656-64s-106.558594 23.265625-143.097656 64h-32.902344c-8.832031 0-16 7.167969-16 16v112c0 105.871094 86.136719 192 192 192s192-86.128906 192-192v-112c0-8.832031-7.167969-16-16-16zm-16 128c0 8.824219-7.175781 16-16 16h-12.449219c2.753907-4.726562 4.449219-10.144531 4.449219-16 0-17.648438-14.351562-32-32-32s-32 14.351562-32 32c0 5.855469 1.695312 11.273438 4.449219 16h-12.449219c-8.824219 0-16-7.175781-16-16v-96h112zm-72 0 15.984375-.046875c.007813.007813.015625.039063.015625.046875zm-88-160c35.039062 0 68.519531 11.40625 95.976562 32h-63.976562c-8.832031 0-16 7.167969-16 16v48h-32v-48c0-8.832031-7.167969-16-16-16h-63.976562c27.457031-20.59375 60.9375-32 95.976562-32zm-160 64h112v96c0 8.824219-7.175781 16-16 16h-12.449219c2.753907-4.726562 4.449219-10.144531 4.449219-16 0-17.648438-14.351562-32-32-32s-32 14.351562-32 32c0 5.855469 1.695312 11.273438 4.449219 16h-12.449219c-8.824219 0-16-7.175781-16-16zm40 96 15.984375-.046875c.007813.007813.015625.039063.015625.046875zm120 160c-71.824219 0-132.71875-47.574219-152.894531-112.855469 2.886719.542969 5.855469.855469 8.894531.855469h80c26.472656 0 48-21.527344 48-48v-32h32v32c0 26.472656 21.527344 48 48 48h80c3.039062 0 6.007812-.3125 8.894531-.855469-20.175781 65.28125-81.070312 112.855469-152.894531 112.855469zm0 0"/><path d="m240 288h-96c-8.832031 0-16 7.167969-16 16s7.167969 16 16 16h96c8.832031 0 16-7.167969 16-16s-7.167969-16-16-16zm0 0"/></g></svg>