<svg height="384pt" viewBox="0 0 384 384" width="384pt" xmlns="http://www.w3.org/2000/svg"><path d="m368 192c0 97.203125-78.796875 176-176 176s-176-78.796875-176-176 78.796875-176 176-176 176 78.796875 176 176zm0 0" fill="#4dd0e1"/><g fill="#012e52"><path d="m192 0c-105.863281 0-192 86.128906-192 192s86.136719 192 192 192 192-86.128906 192-192-86.136719-192-192-192zm0 352c-88.222656 0-160-71.777344-160-160s71.777344-160 160-160 160 71.777344 160 160-71.777344 160-160 160zm0 0"/><path d="m144 208c0 8.832031 7.167969 16 16 16s16-7.167969 16-16c0-30.878906-25.128906-56-56-56s-56 25.121094-56 56c0 8.832031 7.167969 16 16 16s16-7.167969 16-16c0-13.230469 10.769531-24 24-24s24 10.769531 24 24zm0 0"/><path d="m264 152c-30.871094 0-56 25.121094-56 56 0 8.832031 7.167969 16 16 16s16-7.167969 16-16c0-13.230469 10.769531-24 24-24s24 10.769531 24 24c0 8.832031 7.167969 16 16 16s16-7.167969 16-16c0-30.878906-25.128906-56-56-56zm0 0"/><path d="m240 256h-96c-8.832031 0-16 7.167969-16 16s7.167969 16 16 16h96c8.832031 0 16-7.167969 16-16s-7.167969-16-16-16zm0 0"/><path d="m137.191406 129.199219c10.671875 0 22.289063-3.464844 33.359375-13.175781 6.640625-5.832032 7.296875-15.933594 1.472657-22.574219-5.816407-6.640625-15.917969-7.3125-22.574219-1.480469-11.898438 10.457031-23.832031 2.429688-27.242188-.304688-6.773437-5.601562-16.78125-4.695312-22.4375 2.007813-5.699219 6.761719-4.832031 16.847656 1.917969 22.542969 7.105469 6.007812 20.351562 12.984375 35.503906 12.984375zm0 0"/><path d="m246.808594 129.199219c15.152344 0 28.40625-6.984375 35.503906-12.976563 6.703125-5.648437 7.527344-15.574218 1.960938-22.335937-5.570313-6.765625-15.625-7.726563-22.457032-2.230469-3.375 2.71875-15.34375 10.808594-27.265625.320312-6.648437-5.824218-16.765625-5.167968-22.574219 1.480469-5.832031 6.640625-5.167968 16.75 1.472657 22.574219 11.0625 9.710938 22.6875 13.167969 33.359375 13.167969zm0 0"/></g></svg>