<svg enable-background="new 0 0 24 24" height="512" viewBox="0 0 24 24" width="512" xmlns="http://www.w3.org/2000/svg"><circle cx="12" cy="12" fill="#ffd54f" r="10.8"/><path d="m13.823 15.475h-3.645c-.335 0-.608.272-.608.608v2.025c0 .782.636 1.417 1.418 1.417h2.025c.782 0 1.418-.636 1.418-1.417v-2.025c-.001-.336-.273-.608-.608-.608z" fill="#fff"/><path d="m12 24c-6.617 0-12-5.383-12-12s5.383-12 12-12 12 5.383 12 12-5.383 12-12 12zm0-22.5c-5.79 0-10.5 4.71-10.5 10.5s4.71 10.5 10.5 10.5 10.5-4.71 10.5-10.5-4.71-10.5-10.5-10.5z"/><path d="m17.5 16.5h-11c-.414 0-.75-.336-.75-.75s.336-.75.75-.75h11c.414 0 .75.336.75.75s-.336.75-.75.75z"/><path d="m9.25 10.25c-.414 0-.75-.336-.75-.75 0-.551-.448-1-1-1s-1 .449-1 1c0 .414-.336.75-.75.75s-.75-.336-.75-.75c0-1.378 1.121-2.5 2.5-2.5s2.5 1.122 2.5 2.5c0 .414-.336.75-.75.75z"/><path d="m18.25 10.25c-.414 0-.75-.336-.75-.75 0-.551-.448-1-1-1s-1 .449-1 1c0 .414-.336.75-.75.75s-.75-.336-.75-.75c0-1.378 1.121-2.5 2.5-2.5s2.5 1.122 2.5 2.5c0 .414-.336.75-.75.75z"/><path d="m13.25 20h-2.5c-.965 0-1.75-.785-1.75-1.75v-2.5c0-.414.336-.75.75-.75s.75.336.75.75v2.5c0 .138.112.25.25.25h2.5c.138 0 .25-.112.25-.25v-2.5c0-.414.336-.75.75-.75s.75.336.75.75v2.5c0 .965-.785 1.75-1.75 1.75z"/></svg>