<svg height="384pt" viewBox="0 0 384 384" width="384pt" xmlns="http://www.w3.org/2000/svg"><path d="m240 256c0 26.507812-21.492188 48-48 48s-48-21.492188-48-48 21.492188-48 48-48 48 21.492188 48 48zm0 0" fill="#e0f7fa"/><path d="m368 104c0 12.238281-3.039062 23.761719-8.480469 33.839844-12.078125 22.71875-36 38.160156-63.519531 38.160156-39.761719 0-72-32.238281-72-72 0-31.761719 20.558594-58.71875 49.121094-68.238281 7.199218-2.480469 14.878906-3.761719 22.878906-3.761719 39.761719 0 72 32.238281 72 72zm-64 0c0-4.398438-3.601562-8-8-8s-8 3.601562-8 8 3.601562 8 8 8 8-3.601562 8-8zm0 0" fill="#e0f7fa"/><path d="m110.878906 35.761719c28.5625 9.519531 49.121094 36.476562 49.121094 68.238281 0 39.761719-32.238281 72-72 72-27.519531 0-51.441406-15.441406-63.519531-38.160156-5.441407-10.078125-8.480469-21.601563-8.480469-33.839844 0-39.761719 32.238281-72 72-72 8 0 15.679688 1.28125 22.878906 3.761719zm-14.878906 68.238281c0-4.398438-3.601562-8-8-8s-8 3.601562-8 8 3.601562 8 8 8 8-3.601562 8-8zm0 0" fill="#e0f7fa"/><path d="m359.519531 137.839844c5.519531 17.039062 8.480469 35.28125 8.480469 54.160156 0 97.199219-78.800781 176-176 176s-176-78.800781-176-176c0-18.878906 2.960938-37.121094 8.480469-54.160156 12.078125 22.71875 36 38.160156 63.519531 38.160156 39.761719 0 72-32.238281 72-72 0-31.761719-20.558594-58.71875-49.121094-68.238281 24.242188-12.640625 51.839844-19.761719 81.121094-19.761719s56.878906 7.121094 81.121094 19.761719c-28.5625 9.519531-49.121094 36.476562-49.121094 68.238281 0 39.761719 32.238281 72 72 72 27.519531 0 51.441406-15.441406 63.519531-38.160156zm-119.519531 118.160156c0-26.480469-21.519531-48-48-48s-48 21.519531-48 48 21.519531 48 48 48 48-21.519531 48-48zm0 0" fill="#4dd0e1"/><g fill="#012e52"><path d="m296 16c-7.351562 0-14.558594.902344-21.496094 2.671875-25.558594-12.183594-53.910156-18.671875-82.503906-18.671875s-56.945312 6.488281-82.503906 18.671875c-6.9375-1.769531-14.144532-2.671875-21.496094-2.671875-48.519531 0-88 39.480469-88 88 0 12.167969 2.671875 24.152344 7.503906 35.152344-4.886718 17.078125-7.503906 34.800781-7.503906 52.847656 0 105.863281 86.128906 192 192 192s192-86.136719 192-192c0-18.046875-2.617188-35.769531-7.503906-52.839844 4.832031-11.007812 7.503906-22.992187 7.503906-35.160156 0-48.519531-39.480469-88-88-88zm-17.824219 34.945312c.023438-.007812.03125-.023437.054688-.023437.035156-.011719.066406-.011719.097656-.027344 5.566406-1.917969 11.511719-2.894531 17.671875-2.894531 30.878906 0 56 25.121094 56 56 0 9.34375-2.207031 18.175781-6.558594 26.238281-.007812.019531-.007812.035157-.027344.050781-.015624.015626-.023437.023438-.03125.039063-9.71875 18.304687-28.648437 29.671875-49.382812 29.671875-30.878906 0-56-25.121094-56-56 0-24.128906 15.34375-45.449219 38.175781-53.054688zm-190.175781-2.945312c6.160156 0 12.105469.976562 17.824219 2.945312 22.832031 7.605469 38.175781 28.925782 38.175781 53.054688 0 30.878906-25.121094 56-56 56-20.734375 0-39.664062-11.367188-49.390625-29.671875-.015625-.03125-.035156-.054687-.050781-.089844-4.351563-8.0625-6.558594-16.894531-6.558594-26.238281 0-30.878906 25.121094-56 56-56zm104 304c-88.222656 0-160-71.777344-160-160 0-6.433594.496094-12.792969 1.238281-19.105469 15.289063 12.167969 34.472657 19.105469 54.761719 19.105469 48.519531 0 88-39.480469 88-88 0-25.585938-11.015625-49.136719-29.152344-65.441406 29.265625-8.453125 61.160156-8.628906 90.359375-.070313-18.207031 16.3125-29.207031 39.910157-29.207031 65.511719 0 48.519531 39.480469 88 88 88 20.335938 0 39.566406-6.960938 54.871094-19.175781.753906 6.328125 1.128906 12.726562 1.128906 19.175781 0 88.222656-71.777344 160-160 160zm0 0"/><path d="m192 192c-35.289062 0-64 28.710938-64 64s28.710938 64 64 64 64-28.710938 64-64-28.710938-64-64-64zm0 96c-17.648438 0-32-14.351562-32-32s14.351562-32 32-32 32 14.351562 32 32-14.351562 32-32 32zm0 0"/><path d="m88 128c13.230469 0 24-10.769531 24-24s-10.769531-24-24-24-24 10.769531-24 24 10.769531 24 24 24zm0 0"/><path d="m296 128c13.230469 0 24-10.769531 24-24s-10.769531-24-24-24-24 10.769531-24 24 10.769531 24 24 24zm0 0"/></g></svg>