<svg height="384pt" viewBox="0 0 384 384" width="384pt" xmlns="http://www.w3.org/2000/svg"><path d="m320.800781 72c29.277344 31.441406 47.199219 73.601562 47.199219 120 0 97.199219-78.800781 176-176 176s-176-78.800781-176-176c0-46.398438 17.921875-88.558594 47.199219-120 32.160156-34.480469 78-56 128.800781-56s96.640625 21.519531 128.800781 56zm-48.800781 72c0-8.800781-7.199219-16-16-16s-16 7.199219-16 16 7.199219 16 16 16 16-7.199219 16-16zm-128 0c0-8.800781-7.199219-16-16-16s-16 7.199219-16 16 7.199219 16 16 16 16-7.199219 16-16zm0 0" fill="#4dd0e1"/><g fill="#012e52"><path d="m332.503906 61.089844c-.121094-.128906-.257812-.25-.375-.386719-.007812-.007813-.023437-.023437-.03125-.03125-36.1875-38.558594-87.203125-60.671875-140.097656-60.671875-52.886719 0-103.910156 22.113281-140.097656 60.671875-.007813.007813-.015625.015625-.03125.03125-.128906.136719-.253906.257813-.382813.394531-33.199219 35.65625-51.488281 82.140625-51.488281 130.902344 0 105.863281 86.136719 192 192 192s192-86.136719 192-192c0-48.761719-18.289062-95.246094-51.496094-130.910156zm-140.503906 290.910156c-88.222656 0-160-71.777344-160-160 0-38.398438 13.761719-75.007812 38.601562-104h73.398438c8.832031 0 16-7.167969 16-16s-7.167969-16-16-16h-35.863281c25.046875-15.398438 54.046875-24 83.863281-24s58.824219 8.601562 83.871094 24h-51.871094c-8.832031 0-16 7.167969-16 16s7.167969 16 16 16h89.398438c24.847656 28.992188 38.601562 65.601562 38.601562 104 0 88.222656-71.777344 160-160 160zm0 0"/><path d="m192 232c-39.703125 0-72 32.296875-72 72 0 8.832031 7.167969 16 16 16s16-7.167969 16-16c0-22.054688 17.945312-40 40-40s40 17.945312 40 40c0 8.832031 7.167969 16 16 16s16-7.167969 16-16c0-39.703125-32.296875-72-72-72zm0 0"/><path d="m256 112c-17.648438 0-32 14.351562-32 32s14.351562 32 32 32 32-14.351562 32-32-14.351562-32-32-32zm-16 32 15.984375-.046875c.007813.007813.015625.039063.015625.046875zm0 0"/><path d="m160 144c0-17.648438-14.351562-32-32-32s-32 14.351562-32 32 14.351562 32 32 32 32-14.351562 32-32zm-32.015625-.046875c.007813.007813.015625.039063.015625.046875h-16zm0 0"/></g></svg>