<svg enable-background="new 0 0 24 24" height="512" viewBox="0 0 24 24" width="512" xmlns="http://www.w3.org/2000/svg"><circle cx="12" cy="12" fill="#4dd0e1" r="10.8"/><circle cx="7" cy="9" fill="#012e52" r="1.8"/><circle cx="17" cy="9" fill="#012e52" r="1.8"/><path fill="#012e52" d="m12 24c-6.617 0-12-5.383-12-12s5.383-12 12-12 12 5.383 12 12-5.383 12-12 12zm0-22.5c-5.79 0-10.5 4.71-10.5 10.5s4.71 10.5 10.5 10.5 10.5-4.71 10.5-10.5-4.71-10.5-10.5-10.5z"/><path fill="#012e52" d="m7 11c-1.103 0-2-.897-2-2s.897-2 2-2 2 .897 2 2-.897 2-2 2zm0-2.5c-.276 0-.5.224-.5.5s.224.5.5.5.5-.224.5-.5-.224-.5-.5-.5z"/><path  fill="#012e52" d="m17 11c-1.103 0-2-.897-2-2s.897-2 2-2 2 .897 2 2-.897 2-2 2zm0-2.5c-.276 0-.5.224-.5.5s.224.5.5.5.5-.224.5-.5-.224-.5-.5-.5z"/><path fill="#012e52" d="m15.25 20c-.147 0-.296-.043-.426-.133l-6.5-4.5c-.341-.236-.426-.703-.19-1.043.236-.341.704-.426 1.043-.19l6.5 4.5c.341.236.426.703.19 1.043-.146.21-.38.323-.617.323z"/><path  fill="#012e52" d="m8.75 20c-.238 0-.472-.113-.617-.323-.236-.34-.151-.808.19-1.043l6.5-4.5c.338-.237.807-.151 1.043.19.236.34.151.808-.19 1.043l-6.5 4.5c-.129.09-.278.133-.426.133z"/></svg>