<svg enable-background="new 0 0 24 24" height="512" viewBox="0 0 24 24" width="512" xmlns="http://www.w3.org/2000/svg"><circle cx="12" cy="11.25" fill="#42a5f5" r="10.125"/><path d="m8 10.8c-.993 0-1.8-.807-1.8-1.8s.807-1.8 1.8-1.8 1.8.807 1.8 1.8-.807 1.8-1.8 1.8z" fill="#4e342e"/><path d="m16 10.8c-.993 0-1.8-.807-1.8-1.8s.807-1.8 1.8-1.8 1.8.807 1.8 1.8-.807 1.8-1.8 1.8z" fill="#4e342e"/><path d="m16.163 17.513h-8.325c-1.179 0-2.138-.959-2.138-2.138s.959-2.137 2.138-2.137h8.325c1.179 0 2.137.959 2.137 2.137s-.959 2.138-2.137 2.138z" fill="#eee"/><path d="m22.34 10.503c-.699-.797-2.069-.796-2.765.003-.349.399-.508.93-.436 1.455l1.17 8.581c.046.335.331.584.669.584h.001c.338-.001.624-.251.668-.587l1.133-8.586c.069-.524-.091-1.052-.44-1.45z" fill="#90caf9"/><path d="m1.6 11.624c-.305.359-.442.795-.381 1.164l1.097 9.926c.038.34.323.598.665.601h.006c.339 0 .626-.252.669-.589l1.27-9.89c.067-.401-.064-.836-.363-1.196-.723-.871-2.228-.879-2.963-.016z" fill="#90caf9"/><path d="m12 22c-3.528 0-6.748-1.628-8.834-4.466-.246-.334-.174-.804.16-1.049.333-.246.804-.174 1.049.16 1.8 2.45 4.579 3.855 7.625 3.855 3.12 0 6.032-1.527 7.792-4.085.233-.342.701-.427 1.043-.193.341.235.427.702.192 1.043-2.039 2.964-5.414 4.735-9.027 4.735z"/><path d="m22.24 12.22c-.414 0-.75-.325-.75-.739 0-.041.003-.102.01-.142v-.339c0-5.238-4.262-9.5-9.5-9.5s-9.5 4.262-9.5 9.5c0 .273.018.539.037.812l-1.495.127.749-.05-.75.022c-.021-.306-.041-.603-.041-.911 0-6.065 4.935-11 11-11s11 4.935 11 11v.24c0 .143-.002.228-.017.322-.05.368-.363.658-.743.658z"/><path d="m8 11c-1.103 0-2-.897-2-2s.897-2 2-2 2 .897 2 2-.897 2-2 2zm0-2.5c-.276 0-.5.225-.5.5s.224.5.5.5.5-.225.5-.5-.224-.5-.5-.5z"/><path d="m16 11c-1.103 0-2-.897-2-2s.897-2 2-2 2 .897 2 2-.897 2-2 2zm0-2.5c-.276 0-.5.225-.5.5s.224.5.5.5.5-.225.5-.5-.224-.5-.5-.5z"/><path d="m5.75 7c-.414 0-.75-.336-.75-.75s.336-.75.75-.75.75-.337.75-.75c0-.414.336-.75.75-.75s.75.336.75.75c0 1.24-1.009 2.25-2.25 2.25z"/><path d="m18.25 7c-1.241 0-2.25-1.01-2.25-2.25 0-.414.336-.75.75-.75s.75.336.75.75c0 .413.336.75.75.75s.75.336.75.75-.336.75-.75.75z"/><path d="m16.625 17.75h-9.25c-1.31 0-2.375-1.065-2.375-2.375s1.065-2.375 2.375-2.375h9.25c1.31 0 2.375 1.065 2.375 2.375s-1.065 2.375-2.375 2.375zm-9.25-3.25c-.482 0-.875.393-.875.875s.393.875.875.875h9.25c.482 0 .875-.393.875-.875s-.393-.875-.875-.875z"/><path d="m20.979 21.75c-.375 0-.692-.277-.743-.648l-1.3-9.534c-.08-.584.097-1.174.484-1.618.774-.888 2.296-.888 3.073-.004.387.442.565 1.03.489 1.612v.001l-1.259 9.54c-.049.372-.366.65-.742.651-.001 0-.001 0-.002 0zm-.021-11c-.214 0-.347.116-.407.186-.061.069-.157.217-.128.429l.544 3.995.528-3.998v.001c.028-.212-.069-.359-.129-.428-.061-.07-.194-.185-.408-.185zm1.281.71h.01z"/><path d="m2.978 24c-.002 0-.004 0-.006 0-.38-.003-.697-.29-.739-.668l-1.22-11.029c-.067-.409.085-.894.424-1.292.816-.96 2.489-.95 3.292.018.333.399.479.883.404 1.328l-1.412 10.989c-.048.374-.367.654-.743.654zm.098-12.25c-.344 0-.565.279-.576.371l.532 4.81.614-4.782c.001-.009.003-.019.004-.029-.016-.099-.233-.37-.574-.37z"/><path d="m15 24c-.016 0-.033-.001-.049-.002-.278-.018-.523-.188-.636-.443l-.98-2.2c-.168-.378.001-.821.38-.99.378-.167.822.003.99.381l.4.897 1.255-2.05c.217-.354.679-.464 1.031-.248.354.217.464.678.248 1.031l-2 3.266c-.136.223-.379.358-.639.358z"/></svg>