<svg height="384pt" viewBox="0 0 384 384" width="384pt" xmlns="http://www.w3.org/2000/svg"><path d="m368 192c0 97.203125-78.796875 176-176 176s-176-78.796875-176-176 78.796875-176 176-176 176 78.796875 176 176zm0 0" fill="#4dd0e1"/><g fill="#012e52"><path d="m192 0c-105.871094 0-192 86.136719-192 192s86.128906 192 192 192 192-86.136719 192-192-86.128906-192-192-192zm0 352c-88.222656 0-160-71.777344-160-160s71.777344-160 160-160 160 71.777344 160 160-71.777344 160-160 160zm0 0"/><path d="m240 256h-96c-8.832031 0-16 7.167969-16 16s7.167969 16 16 16h96c8.832031 0 16-7.167969 16-16s-7.167969-16-16-16zm0 0"/><path d="m299.3125 108.6875c-6.242188-6.246094-16.382812-6.246094-22.625 0l-16.6875 16.6875-16.6875-16.6875c-6.242188-6.246094-16.382812-6.246094-22.625 0-6.246094 6.25-6.246094 16.375 0 22.625l16.6875 16.6875-16.6875 16.6875c-6.246094 6.25-6.246094 16.375 0 22.625 3.121094 3.128906 7.214844 4.6875 11.3125 4.6875s8.191406-1.558594 11.3125-4.6875l16.6875-16.6875 16.6875 16.6875c3.121094 3.128906 7.214844 4.6875 11.3125 4.6875s8.191406-1.558594 11.3125-4.6875c6.246094-6.25 6.246094-16.375 0-22.625l-16.6875-16.6875 16.6875-16.6875c6.246094-6.25 6.246094-16.375 0-22.625zm0 0"/><path d="m140.6875 187.3125c3.121094 3.128906 7.214844 4.6875 11.3125 4.6875s8.191406-1.558594 11.3125-4.6875c6.246094-6.25 6.246094-16.375 0-22.625l-16.6875-16.6875 16.6875-16.6875c6.246094-6.25 6.246094-16.375 0-22.625-6.242188-6.246094-16.382812-6.246094-22.625 0l-16.6875 16.6875-16.6875-16.6875c-6.242188-6.246094-16.382812-6.246094-22.625 0-6.246094 6.25-6.246094 16.375 0 22.625l16.6875 16.6875-16.6875 16.6875c-6.246094 6.25-6.246094 16.375 0 22.625 3.121094 3.128906 7.214844 4.6875 11.3125 4.6875s8.191406-1.558594 11.3125-4.6875l16.6875-16.6875zm0 0"/></g></svg>