<svg height="384pt" viewBox="0 0 384 384" width="384pt" xmlns="http://www.w3.org/2000/svg"><path d="m264 280h-144c0-39.761719 32.238281-72 72-72s72 32.238281 72 72zm0 0" fill="#e0f7fa"/><path d="m368 104c0 12.238281-3.039062 23.761719-8.480469 33.839844-12.078125 22.71875-36 38.160156-63.519531 38.160156-39.761719 0-72-32.238281-72-72 0-31.761719 20.558594-58.71875 49.121094-68.238281 7.199218-2.480469 14.878906-3.761719 22.878906-3.761719 39.761719 0 72 32.238281 72 72zm-64 0c0-4.398438-3.601562-8-8-8s-8 3.601562-8 8 3.601562 8 8 8 8-3.601562 8-8zm0 0" fill="#e0f7fa"/><path d="m110.878906 35.761719c28.5625 9.519531 49.121094 36.476562 49.121094 68.238281 0 39.761719-32.238281 72-72 72-27.519531 0-51.441406-15.441406-63.519531-38.160156-5.441407-10.078125-8.480469-21.601563-8.480469-33.839844 0-39.761719 32.238281-72 72-72 8 0 15.679688 1.28125 22.878906 3.761719zm-14.878906 68.238281c0-4.398438-3.601562-8-8-8s-8 3.601562-8 8 3.601562 8 8 8 8-3.601562 8-8zm0 0" fill="#e0f7fa"/><path d="m359.519531 137.839844c5.519531 17.039062 8.480469 35.28125 8.480469 54.160156 0 97.199219-78.800781 176-176 176s-176-78.800781-176-176c0-18.878906 2.960938-37.121094 8.480469-54.160156 12.078125 22.71875 36 38.160156 63.519531 38.160156 39.761719 0 72-32.238281 72-72 0-31.761719-20.558594-58.71875-49.121094-68.238281 24.242188-12.640625 51.839844-19.761719 81.121094-19.761719s56.878906 7.121094 81.121094 19.761719c-28.5625 9.519531-49.121094 36.476562-49.121094 68.238281 0 39.761719 32.238281 72 72 72 27.519531 0 51.441406-15.441406 63.519531-38.160156zm-239.519531 142.160156h144c0-39.761719-32.238281-72-72-72s-72 32.238281-72 72zm0 0" fill="#ff7043"/><g fill="#012e52"><path d="m192 192c-48.519531 0-88 39.480469-88 88 0 8.832031 7.167969 16 16 16h144c8.832031 0 16-7.167969 16-16 0-48.519531-39.480469-88-88-88zm-53.671875 72c6.902344-23.113281 28.351563-40 53.671875-40s46.769531 16.886719 53.671875 40zm0 0"/><path d="m296 16c-7.351562 0-14.550781.894531-21.496094 2.664062-25.550781-12.175781-53.902344-18.664062-82.503906-18.664062s-56.953125 6.488281-82.503906 18.664062c-6.945313-1.769531-14.144532-2.664062-21.496094-2.664062-48.519531 0-88 39.480469-88 88 0 12.167969 2.671875 24.152344 7.503906 35.160156-4.886718 17.078125-7.503906 34.792969-7.503906 52.839844 0 105.863281 86.128906 192 192 192s192-86.136719 192-192c0-18.046875-2.617188-35.761719-7.503906-52.839844 4.832031-11.015625 7.503906-22.992187 7.503906-35.160156 0-48.519531-39.480469-88-88-88zm-17.816406 34.9375c.015625-.007812.03125-.015625.046875-.027344.035156-.007812.066406-.007812.089843-.023437 5.574219-1.917969 11.519532-2.886719 17.679688-2.886719 30.878906 0 56 25.128906 56 56 0 9.34375-2.207031 18.175781-6.558594 26.246094-.007812.019531-.015625.035156-.027344.050781-.007812.015625-.015624.023437-.023437.03125-9.726563 18.304687-28.65625 29.671875-49.390625 29.671875-30.878906 0-56-25.128906-56-56 0-24.128906 15.34375-45.449219 38.183594-53.0625zm-190.183594-2.9375c6.160156 0 12.105469.96875 17.816406 2.9375 22.839844 7.613281 38.183594 28.933594 38.183594 53.0625 0 30.871094-25.121094 56-56 56-20.734375 0-39.664062-11.367188-49.390625-29.664062-.015625-.03125-.035156-.0625-.050781-.089844-4.351563-8.070313-6.558594-16.902344-6.558594-26.246094 0-30.871094 25.121094-56 56-56zm104 304c-88.222656 0-160-71.777344-160-160 0-6.433594.496094-12.792969 1.238281-19.105469 15.289063 12.167969 34.472657 19.105469 54.761719 19.105469 48.519531 0 88-39.480469 88-88 0-25.585938-11.015625-49.144531-29.160156-65.441406 29.265625-8.453125 61.167968-8.621094 90.367187-.070313-18.207031 16.3125-29.207031 39.910157-29.207031 65.511719 0 48.519531 39.480469 88 88 88 20.335938 0 39.566406-6.953125 54.871094-19.175781.753906 6.328125 1.128906 12.726562 1.128906 19.175781 0 88.222656-71.777344 160-160 160zm0 0"/><path d="m88 128c13.230469 0 24-10.769531 24-24s-10.769531-24-24-24-24 10.769531-24 24 10.769531 24 24 24zm0 0"/><path d="m296 128c13.230469 0 24-10.769531 24-24s-10.769531-24-24-24-24 10.769531-24 24 10.769531 24 24 24zm0 0"/></g></svg>