<svg height="384pt" viewBox="0 0 384 384" width="384pt" xmlns="http://www.w3.org/2000/svg"><path d="m368 192c0 97.203125-78.796875 176-176 176s-176-78.796875-176-176 78.796875-176 176-176 176 78.796875 176 176zm0 0" fill="#4dd0e1"/><path d="m232 264c0 22.089844-17.910156 40-40 40s-40-17.910156-40-40 17.910156-40 40-40 40 17.910156 40 40zm0 0" fill="#e0f7fa"/><g fill="#012e52"><path d="m353.777344 120.832031c-8.378906 2.824219-12.882813 11.886719-10.066406 20.265625 5.496093 16.351563 8.289062 33.46875 8.289062 50.902344 0 88.222656-71.777344 160-160 160s-160-71.777344-160-160 71.777344-160 160-160c16.761719 0 33.144531 2.535156 48.695312 7.542969 8.425782 2.738281 17.433594-1.902344 20.136719-10.320313 2.703125-8.414062-1.910156-17.429687-10.328125-20.132812-18.726562-6.035156-38.40625-9.089844-58.503906-9.089844-105.871094 0-192 86.136719-192 192s86.128906 192 192 192 192-86.136719 192-192c0-20.902344-3.351562-41.472656-9.960938-61.105469-2.816406-8.375-11.878906-12.894531-20.261718-10.0625zm0 0"/><path d="m160 192c8.832031 0 16-7.167969 16-16 0-30.871094-25.121094-56-56-56s-56 25.128906-56 56c0 8.832031 7.167969 16 16 16s16-7.167969 16-16c0-13.230469 10.769531-24 24-24s24 10.769531 24 24c0 8.832031 7.167969 16 16 16zm0 0"/><path d="m288 176c0 8.832031 7.167969 16 16 16s16-7.167969 16-16c0-30.871094-25.121094-56-56-56s-56 25.128906-56 56c0 8.832031 7.167969 16 16 16s16-7.167969 16-16c0-13.230469 10.769531-24 24-24s24 10.769531 24 24zm0 0"/><path d="m192 320c30.878906 0 56-25.128906 56-56s-25.121094-56-56-56-56 25.128906-56 56 25.121094 56 56 56zm0-80c13.230469 0 24 10.769531 24 24s-10.769531 24-24 24-24-10.769531-24-24 10.769531-24 24-24zm0 0"/><path d="m368 64h-25.367188l36.679688-36.6875c4.574219-4.578125 5.945312-11.457031 3.472656-17.441406-2.480468-5.976563-8.3125-9.871094-14.785156-9.871094h-64c-8.832031 0-16 7.167969-16 16s7.167969 16 16 16h25.367188l-36.679688 36.6875c-4.574219 4.578125-5.945312 11.457031-3.472656 17.441406 2.480468 5.976563 8.3125 9.871094 14.785156 9.871094h64c8.832031 0 16-7.167969 16-16s-7.167969-16-16-16zm0 0"/></g></svg>