<svg height="384pt" viewBox="0 0 384 384" width="384pt" xmlns="http://www.w3.org/2000/svg"><path d="m366.238281 88h-38.238281c-4.398438 0-8.398438 1.761719-11.28125 4.71875-2.957031 2.882812-4.71875 6.882812-4.71875 11.28125 0 8.800781 7.199219 16 16 16h38.160156c-1.359375 6.320312-3.679687 12.320312-6.640625 17.839844-12.078125 22.71875-36 38.160156-63.519531 38.160156-39.761719 0-72-32.238281-72-72 0-31.761719 20.558594-58.71875 49.121094-68.238281 7.199218-2.480469 14.878906-3.761719 22.878906-3.761719 34.238281 0 62.960938 23.921875 70.238281 56zm0 0" fill="#e0f7fa"/><path d="m158.238281 88h-38.238281c-4.398438 0-8.398438 1.761719-11.28125 4.71875-2.957031 2.882812-4.71875 6.882812-4.71875 11.28125 0 8.800781 7.199219 16 16 16h38.238281c-7.277343 32.078125-36 56-70.238281 56-27.519531 0-51.441406-15.441406-63.519531-38.160156-5.441407-10.078125-8.480469-21.601563-8.480469-33.839844 0-39.761719 32.238281-72 72-72 8 0 15.679688 1.28125 22.878906 3.761719 23.601563 7.839843 41.761719 27.679687 47.359375 52.238281zm0 0" fill="#e0f7fa"/><path d="m359.519531 137.839844c5.519531 17.039062 8.480469 35.28125 8.480469 54.160156 0 97.199219-78.800781 176-176 176s-176-78.800781-176-176c0-18.878906 2.960938-37.121094 8.480469-54.160156 12.078125 22.71875 36 38.160156 63.519531 38.160156 34.238281 0 62.960938-23.921875 70.238281-56 1.121094-5.121094 1.761719-10.480469 1.761719-16s-.640625-10.878906-1.761719-16c-5.597656-24.558594-23.757812-44.398438-47.359375-52.238281 24.242188-12.640625 51.839844-19.761719 81.121094-19.761719s56.878906 7.121094 81.121094 19.761719c-28.5625 9.519531-49.121094 36.476562-49.121094 68.238281 0 39.761719 32.238281 72 72 72 27.519531 0 51.441406-15.441406 63.519531-38.160156zm0 0" fill="#ff7043"/><g fill="#012e52"><path d="m381.785156 123.375c.03125-.144531.046875-.277344.070313-.421875 1.390625-6.191406 2.144531-12.546875 2.144531-18.953125 0-6.207031-.703125-12.519531-2.046875-18.886719-.03125-.160156-.050781-.328125-.082031-.488281-.015625-.058594-.015625-.113281-.023438-.167969-9.152344-40.304687-44.449218-68.457031-85.847656-68.457031-7.351562 0-14.550781.902344-21.496094 2.664062-25.542968-12.175781-53.902344-18.664062-82.503906-18.664062s-56.953125 6.488281-82.503906 18.664062c-6.945313-1.769531-14.144532-2.664062-21.496094-2.664062-48.519531 0-88 39.480469-88 88 0 12.167969 2.671875 24.152344 7.503906 35.160156-4.886718 17.078125-7.503906 34.792969-7.503906 52.839844 0 105.863281 86.128906 192 192 192 105.863281 0 192-86.136719 192-192 0-18.0625-2.625-35.800781-7.519531-52.902344 2.253906-5.144531 4.160156-10.328125 5.253906-15.433594.027344-.097656.027344-.191406.050781-.289062zm-103.609375-72.4375c.015625-.007812.03125-.015625.046875-.027344.035156-.007812.066406-.007812.089844-.023437 5.574219-1.917969 11.527344-2.886719 17.6875-2.886719 18.550781 0 35.480469 9.472656 45.761719 24h-13.761719c-8.664062 0-16.742188 3.390625-22.449219 9.257812-6.160156 6-9.550781 14.078126-9.550781 22.742188 0 17.648438 14.351562 32 32 32h13.863281c-10.382812 14.929688-27.382812 24-45.863281 24-30.871094 0-56-25.128906-56-56 0-24.128906 15.34375-45.449219 38.175781-53.0625zm-190.175781-2.9375c6.160156 0 12.105469.96875 17.832031 2.9375 11.503907 3.832031 21.335938 11.359375 28.128907 21.0625h-13.960938c-8.664062 0-16.742188 3.390625-22.449219 9.265625-6.160156 6-9.550781 14.078125-9.550781 22.734375 0 17.648438 14.351562 32 32 32h13.734375c-10.292969 14.542969-27.199219 24-45.734375 24-20.734375 0-39.664062-11.367188-49.390625-29.664062-.015625-.03125-.035156-.0625-.050781-.089844-4.351563-8.070313-6.558594-16.902344-6.558594-26.246094 0-30.871094 25.121094-56 56-56zm104 304c-88.222656 0-160-71.777344-160-160 0-6.433594.496094-12.792969 1.238281-19.105469 15.289063 12.167969 34.472657 19.105469 54.761719 19.105469 41.398438 0 76.695312-28.152344 85.863281-68.574219.007813-.035156.007813-.074219.015625-.105469.023438-.105468.03125-.199218.050782-.304687 1.359374-6.328125 2.070312-12.71875 2.070312-19.015625 0-6.222656-.703125-12.558594-2.054688-18.929688-.023437-.140624-.042968-.285156-.074218-.421874-.015625-.0625-.015625-.136719-.03125-.199219-4.085938-17.929688-13.832032-33.863281-27.160156-45.847657 29.304687-8.503906 61.273437-8.679687 90.535156-.113281-18.207032 16.3125-29.214844 39.910157-29.214844 65.511719 0 48.519531 39.480469 88 88 88 20.335938 0 39.558594-6.960938 54.863281-19.175781.761719 6.328125 1.136719 12.726562 1.136719 19.175781 0 88.222656-71.777344 160-160 160zm0 0"/><path d="m240 248h-96c-8.832031 0-16 7.167969-16 16s7.167969 16 16 16h96c8.832031 0 16-7.167969 16-16s-7.167969-16-16-16zm0 0"/></g></svg>