<svg height="384pt" viewBox="0 0 384 384" width="384pt" xmlns="http://www.w3.org/2000/svg"><path d="m368 104c0 12.238281-3.039062 23.761719-8.480469 33.839844-12.078125 22.71875-36 38.160156-63.519531 38.160156-39.761719 0-72-32.238281-72-72 0-31.761719 20.558594-58.71875 49.121094-68.238281 2.238281-.800781 4.558594-1.441407 6.878906-1.921875v38.160156c0 4.398438 1.761719 8.398438 4.71875 11.28125 2.882812 2.957031 6.882812 4.71875 11.28125 4.71875 8.800781 0 16-7.199219 16-16v-38.238281c32.078125 7.277343 56 36 56 70.238281zm0 0" fill="#e0f7fa"/><path d="m359.519531 137.839844c5.519531 17.039062 8.480469 35.28125 8.480469 54.160156 0 97.199219-78.800781 176-176 176s-176-78.800781-176-176c0-18.878906 2.960938-37.121094 8.480469-54.160156 12.078125 22.71875 36 38.160156 63.519531 38.160156 39.761719 0 72-32.238281 72-72 0-31.761719-20.558594-58.71875-49.121094-68.238281 24.242188-12.640625 51.839844-19.761719 81.121094-19.761719s56.878906 7.121094 81.121094 19.761719c-28.5625 9.519531-49.121094 36.476562-49.121094 68.238281 0 39.761719 32.238281 72 72 72 27.519531 0 51.441406-15.441406 63.519531-38.160156zm0 0" fill="#ff7043"/><path d="m110.878906 35.761719c28.5625 9.519531 49.121094 36.476562 49.121094 68.238281 0 39.761719-32.238281 72-72 72-27.519531 0-51.441406-15.441406-63.519531-38.160156-5.441407-10.078125-8.480469-21.601563-8.480469-33.839844 0-34.238281 23.921875-62.960938 56-70.238281v38.238281c0 4.398438 1.761719 8.398438 4.71875 11.28125 2.882812 2.957031 6.882812 4.71875 11.28125 4.71875 8.800781 0 16-7.199219 16-16v-38.238281c2.320312.558593 4.640625 1.199219 6.878906 2zm0 0" fill="#e0f7fa"/><g fill="#012e52"><path d="m315.425781 18.136719c-.035156-.007813-.074219-.007813-.105469-.015625-.105468-.023438-.214843-.03125-.328124-.058594-12.953126-2.773438-26.503907-2.628906-38.160157.097656-.039062.007813-.078125.015625-.113281.023438-.695312.144531-1.34375.402344-2.039062.570312-25.601563-12.234375-54.023438-18.753906-82.679688-18.753906-28.59375 0-56.953125 6.488281-82.511719 18.671875-.6875-.175781-1.34375-.367187-2.0625-.542969-.035156-.007812-.074219-.007812-.105469-.015625-.105468-.023437-.199218-.035156-.304687-.050781-12.566406-2.695312-25.113281-2.71875-37.902344-.015625-.160156.03125-.320312.050781-.480469.082031-.058593.015625-.113281.015625-.167968.023438-40.3125 9.152344-68.464844 44.449218-68.464844 85.847656 0 12.167969 2.671875 24.152344 7.503906 35.152344-4.886718 17.078125-7.503906 34.800781-7.503906 52.847656 0 105.871094 86.128906 192 192 192 105.863281 0 192-86.128906 192-192 0-18.039062-2.617188-35.761719-7.503906-52.839844 4.832031-11.007812 7.503906-22.992187 7.503906-35.160156 0-41.398438-28.152344-76.695312-68.574219-85.863281zm-51.425781 40.023437v13.839844c0 8.664062 3.390625 16.742188 9.265625 22.449219 6 6.160156 14.078125 9.550781 22.734375 9.550781 17.648438 0 32-14.351562 32-32v-13.726562c14.542969 10.292968 24 27.199218 24 45.726562 0 9.34375-2.199219 18.175781-6.550781 26.238281-.007813.019531-.007813.035157-.015625.042969-.007813.015625-.027344.023438-.035156.039062-9.734376 18.3125-28.664063 29.679688-49.398438 29.679688-30.871094 0-56-25.121094-56-56 0-18.671875 9.257812-35.585938 24-45.839844zm-208 .085938v13.753906c0 8.664062 3.390625 16.734375 9.265625 22.449219 6 6.160156 14.070313 9.550781 22.734375 9.550781 17.648438 0 32-14.351562 32-32v-13.839844c14.742188 10.253906 24 27.167969 24 45.839844 0 30.878906-25.121094 56-56 56-20.734375 0-39.664062-11.367188-49.390625-29.671875-.015625-.03125-.035156-.054687-.050781-.089844-4.351563-8.0625-6.558594-16.894531-6.558594-26.238281 0-18.550781 9.472656-35.472656 24-45.753906zm136 293.753906c-88.222656 0-160-71.777344-160-160 0-6.433594.496094-12.792969 1.238281-19.105469 15.289063 12.167969 34.472657 19.105469 54.761719 19.105469 48.519531 0 88-39.480469 88-88 0-25.601562-11.023438-49.160156-29.121094-65.441406 29.257813-8.445313 61.144532-8.613282 90.328125-.070313-18.207031 16.3125-29.207031 39.910157-29.207031 65.511719 0 48.519531 39.480469 88 88 88 20.335938 0 39.558594-6.960938 54.863281-19.175781.761719 6.328125 1.136719 12.726562 1.136719 19.175781 0 88.222656-71.777344 160-160 160zm0 0"/><path d="m240 248h-96c-8.832031 0-16 7.167969-16 16s7.167969 16 16 16h96c8.832031 0 16-7.167969 16-16s-7.167969-16-16-16zm0 0"/></g></svg>