<svg height="384pt" viewBox="0 0 384 384" width="384pt" xmlns="http://www.w3.org/2000/svg"><path d="m232 240v32c0 22.078125-17.921875 40-40 40-11.039062 0-21.039062-4.480469-28.320312-11.679688-7.199219-7.28125-11.679688-17.28125-11.679688-28.320312v-32zm0 0" fill="#e0f7fa"/><path d="m368 104c0 12.238281-3.039062 23.761719-8.480469 33.839844-12.078125 22.71875-36 38.160156-63.519531 38.160156-39.761719 0-72-32.238281-72-72 0-31.761719 20.558594-58.71875 49.121094-68.238281 7.199218-2.480469 14.878906-3.761719 22.878906-3.761719 39.761719 0 72 32.238281 72 72zm-64 0c0-4.398438-3.601562-8-8-8s-8 3.601562-8 8 3.601562 8 8 8 8-3.601562 8-8zm0 0" fill="#e0f7fa"/><path d="m110.878906 35.761719c28.5625 9.519531 49.121094 36.476562 49.121094 68.238281 0 39.761719-32.238281 72-72 72-27.519531 0-51.441406-15.441406-63.519531-38.160156-5.441407-10.078125-8.480469-21.601563-8.480469-33.839844 0-39.761719 32.238281-72 72-72 8 0 15.679688 1.28125 22.878906 3.761719zm-14.878906 68.238281c0-4.398438-3.601562-8-8-8s-8 3.601562-8 8 3.601562 8 8 8 8-3.601562 8-8zm0 0" fill="#e0f7fa"/><path d="m232 240h-80v32c0 11.039062 4.480469 21.039062 11.679688 28.320312 7.28125 7.199219 17.28125 11.679688 28.320312 11.679688 22.078125 0 40-17.921875 40-40zm127.519531-102.160156c5.519531 17.039062 8.480469 35.28125 8.480469 54.160156 0 97.199219-78.800781 176-176 176s-176-78.800781-176-176c0-18.878906 2.960938-37.121094 8.480469-54.160156 12.078125 22.71875 36 38.160156 63.519531 38.160156 39.761719 0 72-32.238281 72-72 0-31.761719-20.558594-58.71875-49.121094-68.238281 24.242188-12.640625 51.839844-19.761719 81.121094-19.761719s56.878906 7.121094 81.121094 19.761719c-28.5625 9.519531-49.121094 36.476562-49.121094 68.238281 0 39.761719 32.238281 72 72 72 27.519531 0 51.441406-15.441406 63.519531-38.160156zm0 0" fill="#4dd0e1"/><g fill="#012e52"><path d="m296 16c-7.351562 0-14.550781.902344-21.496094 2.664062-25.542968-12.175781-53.902344-18.664062-82.503906-18.664062s-56.960938 6.488281-82.503906 18.664062c-6.945313-1.761718-14.144532-2.664062-21.496094-2.664062-48.519531 0-88 39.480469-88 88 0 12.167969 2.671875 24.144531 7.503906 35.160156-4.886718 17.078125-7.503906 34.800782-7.503906 52.839844 0 105.863281 86.136719 192 192 192s192-86.136719 192-192c0-18.039062-2.617188-35.753906-7.503906-52.832031 4.832031-11.015625 7.503906-23 7.503906-35.167969 0-48.519531-39.480469-88-88-88zm-17.824219 34.9375c.015625-.007812.03125-.015625.046875-.027344.035156-.007812.066406-.007812.089844-.023437 5.574219-1.917969 11.527344-2.886719 17.6875-2.886719 30.871094 0 56 25.128906 56 56 0 9.34375-2.207031 18.175781-6.558594 26.246094-.007812.019531-.015625.042968-.027344.058594 0 .007812-.007812.015624-.015624.023437-9.734376 18.304687-28.664063 29.671875-49.398438 29.671875-30.871094 0-56-25.128906-56-56 0-24.128906 15.34375-45.449219 38.175781-53.0625zm-190.175781-2.9375c6.160156 0 12.113281.96875 17.824219 2.9375 22.832031 7.613281 38.175781 28.933594 38.175781 53.0625 0 30.871094-25.128906 56-56 56-20.734375 0-39.664062-11.367188-49.398438-29.671875-.015624-.023437-.027343-.054687-.042968-.082031-4.351563-8.070313-6.558594-16.902344-6.558594-26.246094 0-30.871094 25.128906-56 56-56zm104 304c-88.222656 0-160-71.777344-160-160 0-6.433594.496094-12.792969 1.246094-19.105469 15.289062 12.167969 34.464844 19.105469 54.753906 19.105469 48.519531 0 88-39.480469 88-88 0-25.585938-11.015625-49.136719-29.160156-65.441406 29.257812-8.453125 61.160156-8.621094 90.367187-.078125-18.199219 16.320312-29.207031 39.917969-29.207031 65.519531 0 48.519531 39.480469 88 88 88 20.335938 0 39.558594-6.960938 54.863281-19.175781.761719 6.328125 1.136719 12.726562 1.136719 19.175781 0 88.222656-71.777344 160-160 160zm0 0"/><path d="m272 224h-160c-8.832031 0-16 7.167969-16 16s7.167969 16 16 16h24v16c0 14.886719 5.792969 28.945312 16.433594 39.695312 10.621094 10.511719 24.679687 16.304688 39.566406 16.304688 30.871094 0 56-25.128906 56-56v-16h24c8.832031 0 16-7.167969 16-16s-7.167969-16-16-16zm-56 48c0 13.230469-10.769531 24-24 24-6.40625 0-12.472656-2.503906-16.945312-6.929688-4.550782-4.597656-7.054688-10.664062-7.054688-17.070312v-16h48zm0 0"/><path d="m88 128c13.230469 0 24-10.769531 24-24s-10.769531-24-24-24-24 10.769531-24 24 10.769531 24 24 24zm0 0"/><path d="m296 128c13.230469 0 24-10.769531 24-24s-10.769531-24-24-24-24 10.769531-24 24 10.769531 24 24 24zm0 0"/></g></svg>