<svg enable-background="new 0 0 24 24" height="512" viewBox="0 0 24 24" width="512" xmlns="http://www.w3.org/2000/svg"><path d="m20.172 9.071h-16.344c-.201 0-.392-.09-.52-.244-.128-.155-.181-.36-.143-.557.622-3.275 2.987-5.915 6.171-6.892.064-.02.131-.03.198-.03h4.932c.067 0 .134.01.198.03 3.185.976 5.549 3.617 6.171 6.892.037.197-.015.402-.143.556-.128.155-.319.245-.52.245z" fill="#ffe082"/><path d="m2.594 16.073c-1.005 0-1.822-.817-1.822-1.823s.818-1.823 1.822-1.823c.111 0 .215.013.318.039.293.075.469.373.394.666s-.373.466-.665.394c-.01-.003-.023-.005-.047-.005-.402 0-.402 1.458 0 1.458.08 0 .154-.015.225-.045.279-.117.599.013.716.292.117.278-.013.599-.291.716-.205.086-.424.131-.65.131z" fill="#ffb74d"/><path d="m21.406 16.073c-.226 0-.445-.044-.65-.13-.278-.117-.409-.439-.291-.716.117-.279.438-.409.716-.292.071.03.145.045.225.045.402 0 .402-1.458 0-1.458-.292.076-.614-.1-.689-.392-.075-.293.078-.588.371-.663.103-.026.207-.039.318-.039 1.005 0 1.823.817 1.823 1.823s-.818 1.822-1.823 1.822z" fill="#ffb74d"/><path d="m12.01 23.375c-4.761 0-7.862-3.817-8.728-7.364-.04-.163-.018-.335.062-.482l1.656-3.051c.118-.218.346-.353.593-.353h12.843c.245 0 .47.133.589.346l1.656 2.97c.082.147.106.32.068.483-.845 3.589-3.941 7.451-8.739 7.451z" fill="#ffd54f"/><path d="m3.04 16.39c-.032 0-.064-.002-.097-.006-.307-.04-.559-.266-.632-.566-.206-.848-.311-1.692-.311-2.508v-1.06c0-.414.336-.75.75-.75h2.13c.265 0 .509.14.645.366.135.228.141.509.015.741l-1.84 3.39c-.133.244-.388.393-.66.393z" fill="#6d4c41"/><path d="m20.99 16.3c-.269 0-.521-.145-.655-.385l-1.84-3.3c-.13-.232-.126-.516.008-.745s.38-.37.646-.37h2.1c.414 0 .75.336.75.75v1.07c0 .785-.094 1.592-.279 2.397-.069.303-.318.53-.625.574-.034.006-.07.009-.105.009z" fill="#6d4c41"/><path d="m20.906 12.525h-17.812c-1.292 0-2.344-.908-2.344-2.025s1.051-2.025 2.344-2.025h17.812c1.292 0 2.344.908 2.344 2.025s-1.051 2.025-2.344 2.025z" fill="#ffb300"/><path d="m14.475 9.025h-4.95c-.373 0-.675-.302-.675-.675v-6.3c0-.868.707-1.575 1.575-1.575h3.15c.868 0 1.575.707 1.575 1.575v6.3c0 .373-.302.675-.675.675z" fill="#ffb300"/><path d="m8 16.484c-.543 0-.984-.442-.984-.984s.441-.984.984-.984.984.442.984.984-.441.984-.984.984z" fill="#6d4c41"/><path d="m16 16.484c-.543 0-.984-.442-.984-.984s.442-.984.984-.984.984.442.984.984-.441.984-.984.984z" fill="#6d4c41"/><path d="m12.01 24c-5.988 0-10.01-5.527-10.01-10.69v-1.06c0-.414.336-.75.75-.75s.75.336.75.75v1.06c0 4.438 3.419 9.19 8.51 9.19 5.079 0 8.49-4.746 8.49-9.18v-1.07c0-.414.336-.75.75-.75s.75.336.75.75v1.07c0 5.158-4.014 10.68-9.99 10.68z"/><path d="m8.25 17c-.965 0-1.75-.785-1.75-1.75s.785-1.75 1.75-1.75 1.75.785 1.75 1.75-.785 1.75-1.75 1.75zm0-2c-.138 0-.25.112-.25.25 0 .275.5.275.5 0 0-.138-.112-.25-.25-.25z"/><path d="m15.75 17c-.965 0-1.75-.785-1.75-1.75s.785-1.75 1.75-1.75 1.75.785 1.75 1.75-.785 1.75-1.75 1.75zm0-2c-.138 0-.25.112-.25.25 0 .275.5.275.5 0 0-.138-.112-.25-.25-.25z"/><path d="m12 20.995c-1.094 0-2.188-.401-3.021-1.205-.298-.288-.306-.763-.019-1.061.288-.3.763-.305 1.061-.02 1.091 1.055 2.867 1.055 3.958 0 .298-.285.774-.28 1.061.02.288.298.279.772-.019 1.061-.833.804-1.927 1.205-3.021 1.205z"/><path d="m3.04 16.39c-.121 0-.244-.029-.357-.091-.364-.197-.499-.653-.301-1.017l1.84-3.39c.197-.365.653-.499 1.017-.302s.499.653.301 1.017l-1.84 3.39c-.137.251-.394.393-.66.393z"/><path d="m20.991 16.29c-.263 0-.518-.139-.655-.384l-1.84-3.29c-.202-.361-.073-.818.289-1.021.362-.204.818-.072 1.021.288l1.84 3.29c.202.361.073.818-.289 1.021-.116.066-.242.096-.366.096z"/><path d="m21.5 13h-19c-1.378 0-2.5-1.121-2.5-2.5s1.122-2.5 2.5-2.5h19c1.378 0 2.5 1.121 2.5 2.5s-1.122 2.5-2.5 2.5zm-19-3.5c-.551 0-1 .448-1 1s.449 1 1 1h19c.551 0 1-.448 1-1s-.449-1-1-1z"/><path d="m14.75 9.5h-5.5c-.414 0-.75-.336-.75-.75v-7c0-.965.785-1.75 1.75-1.75h3.5c.965 0 1.75.785 1.75 1.75v7c0 .414-.336.75-.75.75zm-4.75-1.5h4v-6.25c0-.138-.112-.25-.25-.25h-3.5c-.138 0-.25.112-.25.25z"/><path d="m21.079 9.5c-.353 0-.667-.25-.736-.61-.587-3.09-2.818-5.581-5.823-6.503-.396-.121-.619-.541-.498-.937.122-.397.541-.618.937-.497 3.539 1.085 6.166 4.019 6.857 7.657.077.406-.19.799-.597.877-.046.009-.094.013-.14.013z"/><path d="m2.921 9.5c-.046 0-.094-.004-.141-.013-.407-.078-.674-.47-.597-.877.691-3.638 3.318-6.572 6.857-7.657.396-.119.815.1.937.497.121.396-.102.815-.498.937-3.004.922-5.235 3.413-5.822 6.503-.069.36-.383.61-.736.61z"/><path d="m2.5 16.75c-1.378 0-2.5-1.121-2.5-2.5s1.122-2.5 2.5-2.5c.152 0 .295.018.436.054.401.103.643.512.541.913-.103.401-.511.639-.913.54-.014-.004-.031-.007-.064-.007-.551 0-1 .448-1 1s.449 1 1 1c.11 0 .211-.021.309-.062.382-.16.822.019.982.4.161.381-.018.821-.399.982-.282.119-.582.18-.892.18z"/><path d="m21.5 16.75c-.31 0-.61-.061-.892-.179-.381-.161-.561-.602-.399-.982.161-.382.601-.561.982-.4.098.041.199.062.309.062.551 0 1-.448 1-1s-.449-1-1-1c-.401.106-.842-.136-.945-.537s.107-.807.509-.909c.141-.036.284-.054.436-.054 1.378 0 2.5 1.121 2.5 2.5s-1.122 2.499-2.5 2.499z"/></svg>