<svg height="384pt" viewBox="0 0 384 384" width="384pt" xmlns="http://www.w3.org/2000/svg"><path d="m368 192c0 97.203125-78.796875 176-176 176s-176-78.796875-176-176 78.796875-176 176-176 176 78.796875 176 176zm0 0" fill="#4dd0e1"/><g fill="#012e52"><path d="m192 0c-105.863281 0-192 86.128906-192 192s86.136719 192 192 192 192-86.128906 192-192-86.136719-192-192-192zm0 352c-88.222656 0-160-71.777344-160-160s71.777344-160 160-160 160 71.777344 160 160-71.777344 160-160 160zm0 0"/><path d="m240 256h-96c-8.832031 0-16 7.167969-16 16s7.167969 16 16 16h96c8.832031 0 16-7.167969 16-16s-7.167969-16-16-16zm0 0"/><path d="m224 128c-8.832031 0-16 7.167969-16 16s7.167969 16 16 16h40v16c0 8.832031 7.167969 16 16 16s16-7.167969 16-16v-16h8c8.832031 0 16-7.167969 16-16s-7.167969-16-16-16zm0 0"/><path d="m152 176v-16h8c8.832031 0 16-7.167969 16-16s-7.167969-16-16-16h-80c-8.832031 0-16 7.167969-16 16s7.167969 16 16 16h40v16c0 8.832031 7.167969 16 16 16s16-7.167969 16-16zm0 0"/></g></svg>