<svg height="384pt" viewBox="0 0 384 384" width="384pt" xmlns="http://www.w3.org/2000/svg"><path d="m368 192c0 97.203125-78.796875 176-176 176s-176-78.796875-176-176 78.796875-176 176-176 176 78.796875 176 176zm0 0" fill="#4dd0e1"/><g fill="#012e52"><path d="m192 0c-105.863281 0-192 86.136719-192 192s86.136719 192 192 192 192-86.136719 192-192-86.136719-192-192-192zm0 352c-88.222656 0-160-71.777344-160-160s71.777344-160 160-160 160 71.777344 160 160-71.777344 160-160 160zm0 0"/><path d="m153.878906 174.785156c2 .832032 4.074219 1.222656 6.113282 1.222656 6.28125-.007812 12.238281-3.726562 14.792968-9.886718 3.382813-8.167969-.503906-17.519532-8.664062-20.898438l-1.535156-.636718c-28.753907-11.488282-60.417969-11.507813-89.339844.078124l-1.359375.558594c-8.167969 3.378906-12.046875 12.738282-8.664063 20.898438 3.378906 8.167968 12.738282 12.046875 20.898438 8.664062l1.175781-.488281c21.09375-8.441406 44.320313-8.425781 65.222656-.082031zm0 0"/><path d="m264 120c-30.871094 0-56 25.128906-56 56 0 8.832031 7.167969 16 16 16s16-7.167969 16-16c0-13.230469 10.769531-24 24-24s24 10.769531 24 24c0 8.832031 7.167969 16 16 16s16-7.167969 16-16c0-30.871094-25.128906-56-56-56zm0 0"/><path d="m248 232c-8.832031 0-16 7.167969-16 16 0 22.054688-17.945312 40-40 40s-40-17.945312-40-40c0-8.832031-7.167969-16-16-16s-16 7.167969-16 16c0 39.703125 32.296875 72 72 72s72-32.296875 72-72c0-8.832031-7.167969-16-16-16zm0 0"/></g></svg>