<svg enable-background="new 0 0 24 24" height="512" viewBox="0 0 24 24" width="512" xmlns="http://www.w3.org/2000/svg"><path d="m19.939.926c-.179-.161-.435-.201-.653-.103-.219.098-.36.315-.36.555 0 1.017-.457 1.958-1.254 2.581-.264.207-.31.589-.104.853s.589.31.853.104c.02-.015.035-.034.055-.05l1.217 1.217c-.02.031-.035.064-.057.094-.192.275-.125.654.151.846.106.074.227.109.347.109.192 0 .38-.091.499-.26 1.3-1.864 1.002-4.421-.694-5.946z" fill="#e53935"/><path d="m4.777 1.635c0-.216-.127-.411-.324-.499s-.428-.052-.588.093c-1.528 1.372-1.796 3.673-.624 5.352.106.152.276.234.449.234.108 0 .217-.032.313-.098.247-.174.308-.514.135-.762-.019-.027-.033-.057-.051-.085l1.095-1.095c.017.014.031.031.049.045.237.185.582.144.768-.094s.144-.582-.094-.768c-.717-.561-1.128-1.407-1.128-2.323z" fill="#e53935"/><circle cx="11.891" cy="12.976" fill="#ef5350" r="9.9"/><path d="m16.63 8.519.515-.515c.214-.214.214-.56 0-.773-.214-.214-.56-.214-.773 0l-1.458 1.458c-.004.004-.005.01-.009.014-.014.013-.031.023-.045.037-.275.276-.427.641-.427 1.03 0 .804.654 1.458 1.458 1.458s1.458-.654 1.458-1.458c0-.534-.291-.997-.719-1.251z" fill="#4e342e"/><path d="m9.128 8.702c-.004-.004-.005-.01-.009-.014l-1.458-1.457c-.214-.214-.56-.214-.773 0-.214.214-.214.56 0 .773l.515.515c-.429.254-.72.717-.72 1.25 0 .804.654 1.458 1.458 1.458s1.458-.654 1.458-1.458c0-.389-.152-.755-.427-1.03-.013-.014-.03-.023-.044-.037z" fill="#4e342e"/><path d="m17 17.69c-.904 0-1.64-.736-1.64-1.64 0-.698.832-1.98 1.19-2.497.204-.296.696-.296.9 0 .358.518 1.19 1.799 1.19 2.497 0 .904-.736 1.64-1.64 1.64z" fill="#00bcd4"/><path d="m12 24c-6.065 0-11-4.935-11-11s4.935-11 11-11 11 4.935 11 11-4.935 11-11 11zm0-20.5c-5.238 0-9.5 4.262-9.5 9.5s4.262 9.5 9.5 9.5 9.5-4.262 9.5-9.5-4.262-9.5-9.5-9.5z"/><path d="m20.39 7.875c-.414 0-.75-.331-.75-.745 0-.155.048-.315.138-.442.874-1.239.959-2.823.325-4.126-.353 1.012-.994 1.916-1.857 2.574-.33.254-.801.188-1.051-.141-.252-.329-.188-.8.141-1.051 1-.764 1.574-1.928 1.574-3.194 0-.296.175-.564.445-.686.269-.118.588-.07.807.129 2.093 1.888 2.46 5.031.862 7.328-.132.212-.367.354-.634.354z"/><path d="m3.591 7.89c-.235 0-.466-.109-.612-.315-1.642-2.311-1.285-5.485.83-7.384.221-.197.535-.248.807-.126.27.121.444.389.444.685 0 1.271.578 2.442 1.587 3.214.328.252.392.723.14 1.052-.251.327-.721.393-1.052.14-.882-.676-1.525-1.574-1.875-2.59-.633 1.306-.544 2.894.341 4.139.24.338.161.806-.177 1.046-.131.094-.284.139-.433.139z"/><path d="m16 12c-1.103 0-2-.897-2-2 0-.534.208-1.036.586-1.414s.88-.586 1.414-.586c1.103 0 2 .897 2 2s-.897 2-2 2zm0-2.5c-.134 0-.259.052-.354.146s-.146.22-.146.354c0 .275.225.5.5.5s.5-.225.5-.5-.225-.5-.5-.5z"/><path d="m15.189 9.798c-.192 0-.384-.073-.53-.22-.293-.293-.293-.768 0-1.061l2-2c.293-.293.768-.293 1.061 0s.293.768 0 1.061l-2 2c-.147.147-.338.22-.531.22z"/><path d="m8 12c-1.103 0-2-.897-2-2s.897-2 2-2c.534 0 1.036.208 1.414.586s.586.88.586 1.414c0 1.103-.897 2-2 2zm0-2.5c-.275 0-.5.225-.5.5s.225.5.5.5.5-.225.5-.5c0-.134-.052-.259-.146-.354s-.22-.146-.354-.146z"/><path d="m8.811 9.798c-.192 0-.384-.073-.53-.22l-2-2c-.293-.293-.293-.768 0-1.061s.768-.293 1.061 0l2 2c.293.293.293.768 0 1.061-.148.147-.339.22-.531.22z"/><path d="m15 20.542c-.192 0-.384-.073-.53-.22-1.361-1.361-3.578-1.361-4.939 0-.293.293-.768.293-1.061 0s-.293-.768 0-1.061c1.947-1.947 5.113-1.947 7.061 0 .293.293.293.768 0 1.061-.147.147-.339.22-.531.22z"/><path d="m17 18.5c-1.24 0-2.25-1.01-2.25-2.25 0-.958 1.142-2.716 1.633-3.426.279-.406.955-.406 1.234 0 .491.71 1.633 2.468 1.633 3.426 0 1.24-1.01 2.25-2.25 2.25zm0-3.86c-.432.729-.744 1.382-.75 1.611 0 .412.337.749.75.749s.75-.336.75-.749c-.007-.23-.318-.884-.75-1.611z"/></svg>