<svg enable-background="new 0 0 24 24" height="512" viewBox="0 0 24 24" width="512" xmlns="http://www.w3.org/2000/svg"><path d="m20.047.926c-.179-.161-.435-.201-.653-.103-.219.098-.36.315-.36.555 0 1.017-.457 1.958-1.254 2.581-.264.207-.31.589-.104.853s.589.31.853.104c.02-.015.035-.034.055-.05l1.216 1.217c-.02.031-.035.064-.057.094-.192.275-.125.654.151.846.106.074.227.11.348.11.192 0 .38-.091.499-.26 1.301-1.865 1.003-4.422-.694-5.947z" fill="#e53935"/><path d="m4.937 1.378c0-.24-.141-.457-.36-.555-.218-.098-.475-.058-.654.103-1.696 1.525-1.994 4.082-.693 5.947.118.169.307.26.499.26.12 0 .241-.036.347-.109.275-.192.343-.571.151-.846-.021-.031-.036-.064-.057-.095l1.216-1.216c.019.016.035.034.055.05.264.206.647.16.853-.104s.16-.646-.104-.853c-.796-.624-1.253-1.565-1.253-2.582z" fill="#e53935"/><path d="m21.9 12.98c0 5.454-4.437 9.9-9.9 9.9-4.347 0-8.037-2.808-9.369-6.705v-.009c-.171-.495-.306-.999-.387-1.521-.099-.54-.144-1.098-.144-1.665 0-1.935.549-3.735 1.512-5.256.81-1.287 1.899-2.376 3.195-3.168 1.512-.936 3.285-1.476 5.193-1.476.558 0 1.098.045 1.629.135.522.081 1.035.216 1.53.378.72.243 1.395.567 2.025.954 1.287.792 2.376 1.872 3.186 3.15.972 1.53 1.53 3.339 1.53 5.283z" fill="#ef5350"/><path d="m12 24c-6.065 0-11-4.935-11-11s4.935-11 11-11 11 4.935 11 11-4.935 11-11 11zm0-20.5c-5.238 0-9.5 4.262-9.5 9.5s4.262 9.5 9.5 9.5 9.5-4.262 9.5-9.5-4.262-9.5-9.5-9.5z"/><path d="m20.39 7.875c-.414 0-.75-.331-.75-.745 0-.155.048-.315.138-.442.874-1.239.959-2.823.325-4.126-.353 1.012-.994 1.916-1.857 2.574-.33.254-.8.188-1.051-.141-.252-.329-.188-.8.141-1.051 1-.764 1.574-1.928 1.574-3.194 0-.296.175-.564.445-.686.269-.118.587-.07.807.129 2.093 1.888 2.46 5.031.862 7.328-.132.212-.367.354-.634.354z"/><path d="m3.591 7.89c-.235 0-.466-.109-.612-.315-1.642-2.311-1.285-5.485.83-7.384.221-.197.535-.246.807-.126.27.121.444.389.444.685 0 1.271.578 2.442 1.587 3.214.328.252.392.723.14 1.052-.25.327-.72.393-1.052.14-.882-.676-1.525-1.574-1.875-2.59-.633 1.306-.544 2.894.341 4.139.24.338.161.806-.177 1.046-.131.094-.284.139-.433.139z"/><path d="m9.25 13c-.192 0-.384-.073-.53-.22l-2.5-2.5c-.293-.293-.293-.768 0-1.061s.768-.293 1.061 0l2.5 2.5c.293.293.293.768 0 1.061-.147.147-.339.22-.531.22z"/><path d="m6.75 13c-.192 0-.384-.073-.53-.22-.293-.293-.293-.768 0-1.061l2.5-2.5c.293-.293.768-.293 1.061 0s.293.768 0 1.061l-2.5 2.5c-.147.147-.339.22-.531.22z"/><path d="m17.25 12.75c-.192 0-.384-.073-.53-.22l-2.5-2.5c-.293-.293-.293-.768 0-1.061s.768-.293 1.061 0l2.5 2.5c.293.293.293.768 0 1.061-.147.147-.339.22-.531.22z"/><path d="m14.75 12.75c-.192 0-.384-.073-.53-.22-.293-.293-.293-.768 0-1.061l2.5-2.5c.293-.293.768-.293 1.061 0s.293.768 0 1.061l-2.5 2.5c-.147.147-.339.22-.531.22z"/></svg>