<svg enable-background="new 0 0 24 24" height="512" viewBox="0 0 24 24" width="512" xmlns="http://www.w3.org/2000/svg"><circle cx="12" cy="12" fill="#ffd54f" r="10.8"/><path d="m12 24c-6.617 0-12-5.383-12-12s5.383-12 12-12 12 5.383 12 12-5.383 12-12 12zm0-22.5c-5.79 0-10.5 4.71-10.5 10.5s4.71 10.5 10.5 10.5 10.5-4.71 10.5-10.5-4.71-10.5-10.5-10.5z"/><path d="m18.25 12c-.192 0-.384-.073-.53-.22l-3.5-3.5c-.293-.293-.293-.768 0-1.061s.768-.293 1.061 0l3.5 3.5c.293.293.293.768 0 1.061-.147.147-.339.22-.531.22z"/><path d="m14.75 12c-.192 0-.384-.073-.53-.22-.293-.293-.293-.768 0-1.061l3.5-3.5c.293-.293.768-.293 1.061 0s.293.768 0 1.061l-3.5 3.5c-.147.147-.339.22-.531.22z"/><path d="m9.25 12c-.192 0-.384-.073-.53-.22l-3.5-3.5c-.293-.293-.293-.768 0-1.061s.768-.293 1.061 0l3.5 3.5c.293.293.293.768 0 1.061-.147.147-.339.22-.531.22z"/><path d="m5.75 12c-.192 0-.384-.073-.53-.22-.293-.293-.293-.768 0-1.061l3.5-3.5c.293-.293.768-.293 1.061 0s.293.768 0 1.061l-3.5 3.5c-.147.147-.339.22-.531.22z"/></svg>