<svg enable-background="new 0 0 24 24" height="512" viewBox="0 0 24 24" width="512" xmlns="http://www.w3.org/2000/svg"><path d="m.674 4.477s.315 3.654 1.953 5.085c.081.072.162.135.252.198l.117.072h5.229z" fill="#5d4037"/><path d="m23.326 4.477s-.315 3.654-1.953 5.085c-.081.072-.162.135-.252.198l-.117.072h-5.229z" fill="#5d4037"/><circle cx="12" cy="13.5" fill="#ffd54f" r="9.45"/><path d="m6.051 4.465.243-.441 1.287-2.565c.387-.711 1.134-1.152 1.935-1.152h4.968c.801 0 1.548.441 1.935 1.152l1.287 2.565.243.441s-3.305 1.373-5.949 1.373-5.949-1.373-5.949-1.373z" fill="#5d4037"/><path d="m12 21.159c-1.117 0-2.025-1.035-2.025-2.309s.908-2.309 2.025-2.309 2.025 1.035 2.025 2.309-.908 2.309-2.025 2.309z" fill="#e53935"/><path d="m22.112 3.972c.245 0 .457.192.457.446 0 .074-.018.153-.059.234-2.687 4.022-6.333 5.393-9.84 5.393-5.835 0-11.283-3.795-11.283-5.495 0-.153.044-.288.135-.403.085-.113.22-.176.361-.176.038 0 .077.005.116.014.099.099 5.198 1.377 9.999 1.377 4.488 0 9.879-1.257 9.999-1.377.038-.009.077-.013.115-.013z" fill="#6d4c41"/><path d="m12 21.7c-1.379 0-2.5-1.278-2.5-2.851 0-1.571 1.121-2.849 2.5-2.849s2.5 1.278 2.5 2.85-1.121 2.85-2.5 2.85zm0-4.2c-.542 0-1 .618-1 1.35s.458 1.351 1 1.351 1-.618 1-1.351c0-.732-.458-1.35-1-1.35z"/><path d="m8.25 15c-.192 0-.384-.073-.53-.22l-2.5-2.5c-.293-.293-.293-.768 0-1.061s.768-.293 1.061 0l2.5 2.5c.293.293.293.768 0 1.061-.147.147-.339.22-.531.22z"/><path d="m5.75 15c-.192 0-.384-.073-.53-.22-.293-.293-.293-.768 0-1.061l2.5-2.5c.293-.293.768-.293 1.061 0s.293.768 0 1.061l-2.5 2.5c-.147.147-.339.22-.531.22z"/><path d="m18.25 15c-.192 0-.384-.073-.53-.22l-2.5-2.5c-.293-.293-.293-.768 0-1.061s.768-.293 1.061 0l2.5 2.5c.293.293.293.768 0 1.061-.147.147-.339.22-.531.22z"/><path d="m15.75 15c-.192 0-.384-.073-.53-.22-.293-.293-.293-.768 0-1.061l2.5-2.5c.293-.293.768-.293 1.061 0s.293.768 0 1.061l-2.5 2.5c-.147.147-.339.22-.531.22z"/><path d="m2.989 10.383c-.146 0-.293-.042-.423-.131-2.12-1.45-2.524-5.588-2.563-6.055-.035-.412.271-.774.684-.81.407-.041.775.271.811.684.092 1.073.614 4.052 1.917 4.942.342.234.429.7.195 1.043-.146.213-.381.327-.621.327z"/><path d="m21.011 10.383c-.239 0-.475-.114-.62-.326-.233-.343-.146-.809.195-1.043 1.308-.894 1.827-3.87 1.917-4.941.034-.413.407-.723.81-.685.413.034.72.396.685.81-.039.467-.443 4.604-2.563 6.055-.131.088-.279.13-.424.13z"/><path d="m12 6.431c-1.72 0-3.566-.133-5.49-.395-.012-.001-.023-.002-.032-.003-.323-.04-.637-.081-.939-.131-.24-.04-.445-.194-.552-.413s-.1-.476.018-.688l1.868-3.395c.474-.867 1.382-1.406 2.368-1.406h5.518c.986 0 1.895.539 2.37 1.407l1.867 3.394c.117.213.124.47.018.688s-.312.373-.552.413c-.303.05-.616.091-.939.131-.01.001-.021.002-.032.003-1.925.262-3.771.395-5.491.395zm-5.156-1.862c1.819.241 3.548.362 5.156.362 1.613 0 3.347-.122 5.156-.362l-1.343-2.439c-.212-.39-.616-.63-1.054-.63h-5.518c-.438 0-.842.24-1.054.628z"/><path d="m12 10.754c-3.085 0-5.872-.855-8.285-2.541-2.426-1.699-3.565-3.618-3.612-3.699-.155-.265-.133-.597.055-.839s.507-.345.799-.261c.02.006 2.001.57 4.819 1.007.291.049.585.086.887.124 1.887.256 3.676.386 5.337.386s3.45-.13 5.318-.385c.033-.005.067-.007.102-.007.219-.032.513-.069.796-.117 2.834-.438 4.808-1.002 4.827-1.008.293-.084.61.018.799.261.188.242.21.574.056.839-.048.081-1.187 2-3.611 3.698-2.415 1.686-5.202 2.542-8.287 2.542zm-9.301-5.375c.485.504 1.109 1.067 1.876 1.604 2.155 1.507 4.654 2.271 7.425 2.271s5.27-.764 7.426-2.271c.767-.536 1.39-1.101 1.875-1.604-.784.168-1.751.354-2.847.524-.295.049-.608.09-.932.13-.01.001-.021.002-.032.003-1.924.262-3.77.395-5.49.395s-3.566-.133-5.49-.395c-.012-.001-.023-.002-.032-.003-.323-.04-.637-.081-.939-.131-1.093-.17-2.057-.355-2.84-.523z"/><path d="m12 24c-5.79 0-10.5-4.71-10.5-10.5 0-2.291.73-4.471 2.111-6.302.248-.331.719-.398 1.05-.146.331.249.397.72.147 1.051-1.183 1.568-1.808 3.434-1.808 5.397 0 4.963 4.037 9 9 9s9-4.037 9-9c0-1.963-.625-3.829-1.809-5.397-.25-.331-.184-.802.147-1.051.329-.252.8-.185 1.05.146 1.382 1.831 2.112 4.011 2.112 6.302 0 5.79-4.71 10.5-10.5 10.5z"/></svg>