<svg enable-background="new 0 0 24 24" height="512" viewBox="0 0 24 24" width="512" xmlns="http://www.w3.org/2000/svg"><path d="m19.997 1.229c-.161-.145-.392-.18-.588-.093-.197.088-.324.284-.324.499 0 .916-.411 1.762-1.128 2.323-.238.186-.279.53-.094.768.186.237.53.279.768.094.018-.014.032-.031.049-.045l1.095 1.095c-.018.028-.032.057-.051.085-.173.248-.112.588.136.761.095.066.204.098.313.098.173 0 .342-.082.449-.234 1.171-1.678.902-3.979-.625-5.351z" fill="#e53935"/><path d="m4.886 1.635c0-.216-.127-.411-.324-.499s-.428-.052-.589.093c-1.527 1.372-1.795 3.673-.623 5.352.106.152.276.234.449.234.108 0 .217-.032.313-.098.248-.173.308-.514.136-.761-.02-.028-.034-.058-.052-.086l1.095-1.095c.017.014.031.031.049.045.237.185.582.144.768-.094s.144-.582-.094-.768c-.717-.561-1.128-1.407-1.128-2.323z" fill="#e53935"/><circle cx="12" cy="12.976" fill="#ef5350" r="9.9"/><path d="m12 20.43c-2.634 0-4.988-1.578-5.997-4.021-.077-.187-.056-.401.057-.57.113-.168.302-.27.505-.27h10.87c.203 0 .392.101.505.27.113.168.134.382.057.57-1.009 2.443-3.363 4.021-5.997 4.021z" fill="#4e342e"/><path d="m7 9c-.414 0-.75-.336-.75-.75v-1c0-.414.336-.75.75-.75s.75.336.75.75v1c0 .414-.336.75-.75.75z"/><path d="m7.25 13h-1.497c-.414 0-.75-.336-.75-.75s.336-.75.75-.75h1.497c.138 0 .25-.112.25-.25s-.112-.25-.25-.25h-.5c-.965 0-1.75-.785-1.75-1.75s.785-1.75 1.75-1.75h1.5c.414 0 .75.336.75.75s-.336.75-.75.75h-1.5c-.138 0-.25.112-.25.25s.112.25.25.25h.5c.965 0 1.75.785 1.75 1.75s-.785 1.75-1.75 1.75z"/><path d="m7 14c-.414 0-.75-.336-.75-.75v-1c0-.414.336-.75.75-.75s.75.336.75.75v1c0 .414-.336.75-.75.75z"/><path d="m17 9c-.414 0-.75-.336-.75-.75v-1c0-.414.336-.75.75-.75s.75.336.75.75v1c0 .414-.336.75-.75.75z"/><path d="m17.25 13h-1.497c-.414 0-.75-.336-.75-.75s.336-.75.75-.75h1.497c.138 0 .25-.112.25-.25s-.112-.25-.25-.25h-.5c-.965 0-1.75-.785-1.75-1.75s.785-1.75 1.75-1.75h1.5c.414 0 .75.336.75.75s-.336.75-.75.75h-1.5c-.138 0-.25.112-.25.25s.112.25.25.25h.5c.965 0 1.75.785 1.75 1.75s-.785 1.75-1.75 1.75z"/><path d="m17 14c-.414 0-.75-.336-.75-.75v-1c0-.414.336-.75.75-.75s.75.336.75.75v1c0 .414-.336.75-.75.75z"/><path d="m12 24c-6.065 0-11-4.935-11-11s4.935-11 11-11 11 4.935 11 11-4.935 11-11 11zm0-20.5c-5.238 0-9.5 4.262-9.5 9.5s4.262 9.5 9.5 9.5 9.5-4.262 9.5-9.5-4.262-9.5-9.5-9.5z"/><path d="m20.39 7.875c-.414 0-.75-.331-.75-.745 0-.155.048-.315.137-.442.874-1.239.958-2.823.325-4.126-.352 1.012-.994 1.916-1.857 2.575-.329.251-.8.188-1.051-.142-.251-.329-.188-.8.141-1.052 1.001-.763 1.575-1.927 1.575-3.193 0-.296.174-.564.445-.686.269-.12.587-.071.807.129 2.092 1.888 2.459 5.031.862 7.328-.132.212-.367.354-.634.354z"/><path d="m3.59 7.89c-.234 0-.465-.109-.612-.315-1.642-2.311-1.284-5.485.831-7.384.221-.198.537-.247.807-.126s.444.389.444.685c0 1.271.578 2.442 1.585 3.214.329.252.392.723.14 1.052-.252.328-.723.39-1.051.14-.882-.676-1.524-1.575-1.873-2.59-.634 1.306-.545 2.894.34 4.139.24.338.161.806-.177 1.046-.131.094-.283.139-.434.139z"/><path d="m12 21c-3.252 0-6.158-1.948-7.403-4.964-.095-.231-.069-.495.07-.703s.373-.333.623-.333h13.42c.25 0 .484.125.624.333s.165.472.07.703c-1.246 3.016-4.152 4.964-7.404 4.964zm-5.478-4.5c1.184 1.853 3.229 3 5.478 3s4.294-1.147 5.478-3z"/></svg>