<svg enable-background="new 0 0 24 24" height="512" viewBox="0 0 24 24" width="512" xmlns="http://www.w3.org/2000/svg"><path d="m22.8 12c0 5.967-4.833 10.8-10.8 10.8-5.094 0-9.36-3.528-10.503-8.271-.117-.495-.207-1.008-.252-1.53-.027-.333-.045-.666-.045-.999 0-5.967 4.833-10.8 10.8-10.8 1.134 0 2.232.171 3.258.504.504.153.981.342 1.449.567 3.609 1.746 6.093 5.445 6.093 9.729z" fill="#ffd54f"/><path d="m19.623 15.023c-.207.657-.477 1.26-.828 1.827h-13.59c-.351-.567-.621-1.17-.828-1.827-.063-.207-.027-.423.108-.594.126-.18.324-.279.54-.279h13.95c.216 0 .414.099.54.279.135.171.171.387.108.594z" fill="#fff"/><path d="m18.795 17.211c-1.422 2.331-3.969 3.798-6.795 3.798s-5.373-1.467-6.795-3.798z" fill="#e53935"/><path d="m12 21.5c-4.08 0-7.634-2.623-8.846-6.528-.071-.228-.029-.475.112-.667.142-.192.366-.305.604-.305h16.26c.238 0 .462.113.604.305.141.192.183.439.112.667-1.212 3.905-4.766 6.528-8.846 6.528zm-7.041-6c1.259 2.729 3.973 4.5 7.041 4.5s5.782-1.771 7.041-4.5z"/><path d="m19.21 17.5h-14.42c-.414 0-.75-.336-.75-.75s.336-.75.75-.75h14.42c.414 0 .75.336.75.75s-.336.75-.75.75z"/><path d="m12 24c-6.617 0-12-5.383-12-12s5.383-12 12-12 12 5.383 12 12-5.383 12-12 12zm0-22.5c-5.79 0-10.5 4.71-10.5 10.5s4.71 10.5 10.5 10.5 10.5-4.71 10.5-10.5-4.71-10.5-10.5-10.5z"/><path d="m7 7.5c-.414 0-.75-.336-.75-.75v-1c0-.414.336-.75.75-.75s.75.336.75.75v1c0 .414-.336.75-.75.75z"/><path d="m7.25 11.5h-1.497c-.414 0-.75-.336-.75-.75s.336-.75.75-.75h1.497c.138 0 .25-.112.25-.25s-.112-.25-.25-.25h-.5c-.965 0-1.75-.785-1.75-1.75s.785-1.75 1.75-1.75h1.5c.414 0 .75.336.75.75s-.336.75-.75.75h-1.5c-.138 0-.25.112-.25.25s.112.25.25.25h.5c.965 0 1.75.785 1.75 1.75s-.785 1.75-1.75 1.75z"/><path d="m7 12.5c-.414 0-.75-.336-.75-.75v-1c0-.414.336-.75.75-.75s.75.336.75.75v1c0 .414-.336.75-.75.75z"/><path d="m17 7.5c-.414 0-.75-.336-.75-.75v-1c0-.414.336-.75.75-.75s.75.336.75.75v1c0 .414-.336.75-.75.75z"/><path d="m17.25 11.5h-1.497c-.414 0-.75-.336-.75-.75s.336-.75.75-.75h1.497c.138 0 .25-.112.25-.25s-.112-.25-.25-.25h-.5c-.965 0-1.75-.785-1.75-1.75s.785-1.75 1.75-1.75h1.5c.414 0 .75.336.75.75s-.336.75-.75.75h-1.5c-.138 0-.25.112-.25.25s.112.25.25.25h.5c.965 0 1.75.785 1.75 1.75s-.785 1.75-1.75 1.75z"/><path d="m17 12.5c-.414 0-.75-.336-.75-.75v-1c0-.414.336-.75.75-.75s.75.336.75.75v1c0 .414-.336.75-.75.75z"/></svg>