<svg enable-background="new 0 0 24 24" height="512" viewBox="0 0 24 24" width="512" xmlns="http://www.w3.org/2000/svg"><path d="m.674 4.477s.315 3.654 1.953 5.085c.081.072.162.135.252.198l.117.072h5.229z" fill="#5d4037"/><path d="m23.326 4.477s-.315 3.654-1.953 5.085c-.081.072-.162.135-.252.198l-.117.072h-5.229z" fill="#5d4037"/><circle cx="12" cy="13.5" fill="#ffd54f" r="9.45"/><path d="m6.051 4.465.243-.441 1.287-2.565c.387-.711 1.134-1.152 1.935-1.152h4.968c.801 0 1.548.441 1.935 1.152l1.287 2.565.243.441s-3.305 1.373-5.949 1.373c-2.644.001-5.949-1.373-5.949-1.373z" fill="#5d4037"/><g fill="#6d4c41"><path d="m16 14.62c-.893 0-1.62-.727-1.62-1.62s.727-1.62 1.62-1.62 1.62.727 1.62 1.62-.727 1.62-1.62 1.62z"/><path d="m8 14.62c-.893 0-1.62-.727-1.62-1.62s.727-1.62 1.62-1.62 1.62.727 1.62 1.62-.727 1.62-1.62 1.62z"/><path d="m22.112 3.972c.245 0 .457.192.457.446 0 .074-.018.153-.059.234-2.687 4.022-6.333 5.393-9.84 5.393-5.835 0-11.283-3.795-11.283-5.495 0-.153.044-.288.135-.403.085-.113.22-.176.361-.176.038 0 .077.005.116.014.099.099 5.198 1.377 9.999 1.377 4.488 0 9.879-1.257 9.999-1.377.038-.009.077-.013.115-.013z"/></g><path d="m16 15c-1.103 0-2-.897-2-2s.897-2 2-2 2 .897 2 2-.897 2-2 2zm0-2.5c-.275 0-.5.224-.5.5 0 .275.225.5.5.5s.5-.225.5-.5c0-.276-.225-.5-.5-.5z"/><path d="m8 15c-1.103 0-2-.897-2-2s.897-2 2-2 2 .897 2 2-.897 2-2 2zm0-2.5c-.275 0-.5.224-.5.5 0 .275.225.5.5.5s.5-.225.5-.5c0-.276-.225-.5-.5-.5z"/><path d="m16.75 19.483c-.192 0-.384-.073-.53-.22-2.326-2.326-6.113-2.326-8.439 0-.293.293-.768.293-1.061 0s-.293-.768 0-1.061c2.912-2.912 7.648-2.912 10.561 0 .293.293.293.768 0 1.061-.147.147-.339.22-.531.22z"/><path d="m2.989 10.383c-.146 0-.293-.042-.423-.131-2.12-1.451-2.524-5.587-2.563-6.055-.035-.413.271-.775.684-.81.406-.04.775.271.811.684.092 1.072.614 4.051 1.917 4.942.342.234.429.701.195 1.042-.146.214-.381.328-.621.328z"/><path d="m21.011 10.383c-.239 0-.475-.114-.62-.327-.233-.342-.146-.809.195-1.042 1.303-.891 1.825-3.87 1.917-4.942.035-.413.406-.722.811-.684.412.035.719.397.684.81-.039.467-.443 4.604-2.563 6.055-.131.087-.279.13-.424.13z"/><path d="m12 6.43c-1.726 0-3.573-.132-5.49-.394-.012 0-.023-.001-.032-.003-.324-.04-.637-.081-.94-.131-.24-.04-.445-.194-.552-.413s-.099-.475.018-.689l1.868-3.395c.475-.865 1.383-1.405 2.369-1.405h5.518c.986 0 1.895.54 2.37 1.408l1.867 3.392c.117.213.124.47.018.689s-.312.373-.552.413c-.303.05-.616.091-.939.131-.01.001-.021.002-.032.003-1.918.262-3.765.394-5.491.394zm-5.156-1.861c1.813.24 3.542.361 5.156.361 1.619 0 3.353-.122 5.156-.362l-1.343-2.438c-.212-.39-.616-.63-1.054-.63h-5.518c-.438 0-.842.24-1.054.627z"/><path d="m12 10.754c-3.085 0-5.872-.855-8.285-2.542-2.426-1.698-3.565-3.618-3.612-3.698-.155-.265-.133-.597.055-.839.188-.243.506-.344.799-.261.02.005 2.001.57 4.819 1.007.291.049.585.086.887.124 1.88.256 3.669.385 5.337.385s3.457-.129 5.318-.384c.033-.004.067-.007.102-.007.219-.032.513-.069.796-.117 2.834-.439 4.808-1.003 4.827-1.008.293-.085.61.018.799.26.188.242.21.575.056.839-.048.081-1.187 2-3.611 3.698-2.415 1.688-5.202 2.543-8.287 2.543zm-9.301-5.375c.485.503 1.109 1.068 1.876 1.604 2.155 1.507 4.654 2.271 7.425 2.271s5.27-.764 7.426-2.271c.767-.537 1.39-1.101 1.875-1.604-.784.168-1.751.355-2.847.525-.295.049-.608.089-.932.13-.01.001-.021.002-.032.003-1.917.261-3.764.393-5.49.393s-3.573-.132-5.49-.393c-.012-.001-.023-.002-.032-.004-.324-.04-.637-.081-.94-.131-1.092-.169-2.057-.356-2.839-.523z"/><path d="m12 24c-5.79 0-10.5-4.71-10.5-10.5 0-2.292.73-4.471 2.111-6.302.249-.33.719-.397 1.05-.147s.397.72.147 1.05c-1.183 1.569-1.808 3.436-1.808 5.399 0 4.963 4.037 9 9 9s9-4.037 9-9c0-1.963-.625-3.83-1.809-5.398-.25-.331-.184-.801.147-1.05.33-.25.8-.184 1.05.147 1.382 1.83 2.112 4.009 2.112 6.301 0 5.79-4.71 10.5-10.5 10.5z"/></svg>