<svg enable-background="new 0 0 24 24" height="512" viewBox="0 0 24 24" width="512" xmlns="http://www.w3.org/2000/svg"><path d="m20.048.926c-.179-.161-.435-.201-.653-.103-.219.098-.36.315-.36.555 0 1.017-.457 1.958-1.254 2.581-.264.207-.31.589-.104.853s.589.31.853.104c.02-.015.035-.034.055-.05l1.215 1.217c-.02.031-.035.064-.057.094-.192.275-.125.654.151.846.106.074.227.11.348.11.192 0 .38-.091.499-.26 1.301-1.865 1.003-4.422-.693-5.947z" fill="#e53935"/><path d="m4.937 1.378c0-.24-.141-.457-.36-.555-.218-.098-.475-.058-.654.103-1.696 1.525-1.994 4.082-.692 5.947.118.169.307.26.499.26.12 0 .241-.036.347-.109.275-.192.343-.571.151-.846-.021-.03-.036-.063-.057-.094l1.216-1.216c.019.016.035.034.055.05.264.206.647.16.853-.104s.16-.646-.104-.853c-.797-.625-1.254-1.566-1.254-2.583z" fill="#e53935"/><circle cx="12" cy="12.976" fill="#ef5350" r="9.9"/><g fill="#4e342e"><path d="m16.57 8.449.573-.573c.237-.237.237-.622 0-.859s-.622-.237-.859 0l-1.62 1.62c-.004.004-.006.011-.01.015-.016.015-.034.026-.05.041-.305.307-.474.713-.474 1.145 0 .893.727 1.62 1.62 1.62s1.62-.727 1.62-1.62c0-.592-.323-1.106-.8-1.389z"/><path d="m9.346 8.653c-.004-.005-.006-.011-.01-.015l-1.62-1.62c-.237-.237-.622-.237-.859 0s-.237.622 0 .859l.573.572c-.476.282-.8.796-.8 1.389 0 .893.727 1.62 1.62 1.62s1.62-.727 1.62-1.62c0-.432-.168-.838-.474-1.144-.015-.016-.034-.027-.05-.041z"/><path d="m17.468 18.403h-10.936c-.197 0-.381-.096-.495-.256-.114-.161-.143-.366-.078-.552.898-2.559 3.325-4.279 6.041-4.279s5.143 1.72 6.041 4.279c.065.186.036.392-.078.552-.114.161-.299.256-.495.256z"/></g><path d="m12 24c-6.065 0-11-4.935-11-11s4.935-11 11-11 11 4.935 11 11-4.935 11-11 11zm0-20.5c-5.238 0-9.5 4.262-9.5 9.5s4.262 9.5 9.5 9.5 9.5-4.262 9.5-9.5-4.262-9.5-9.5-9.5z"/><path d="m20.39 7.875c-.414 0-.75-.331-.75-.745 0-.155.048-.315.138-.442.874-1.239.959-2.823.325-4.126-.353 1.012-.994 1.916-1.857 2.574-.33.254-.8.188-1.051-.141-.252-.329-.188-.8.141-1.051 1-.764 1.574-1.928 1.574-3.194 0-.296.175-.564.445-.686.269-.118.588-.07.807.129 2.093 1.888 2.46 5.031.862 7.328-.132.212-.367.354-.634.354z"/><path d="m3.591 7.89c-.235 0-.466-.109-.612-.315-1.642-2.311-1.285-5.485.83-7.384.221-.197.535-.246.807-.126.27.121.444.389.444.685 0 1.271.578 2.442 1.587 3.214.328.252.392.723.14 1.052-.251.327-.72.393-1.052.14-.882-.676-1.525-1.574-1.875-2.59-.633 1.306-.544 2.894.341 4.139.24.338.161.806-.177 1.046-.131.094-.284.139-.433.139z"/><path d="m18.75 19h-13.5c-.243 0-.471-.118-.611-.316s-.177-.452-.097-.682c1.108-3.159 4.105-5.282 7.458-5.282s6.35 2.123 7.458 5.282c.08.229.044.483-.097.682s-.368.316-.611.316zm-12.343-1.5h11.186c-1.115-1.998-3.247-3.28-5.593-3.28s-4.478 1.282-5.593 3.28z"/><path d="m16 12c-1.103 0-2-.897-2-2 0-.534.208-1.036.586-1.414s.88-.586 1.414-.586c1.103 0 2 .897 2 2s-.897 2-2 2zm0-2.5c-.134 0-.259.052-.354.146s-.146.22-.146.354c0 .275.225.5.5.5s.5-.225.5-.5-.225-.5-.5-.5z"/><path d="m15.189 9.798c-.192 0-.384-.073-.53-.22-.293-.293-.293-.768 0-1.061l2-2c.293-.293.768-.293 1.061 0s.293.768 0 1.061l-2 2c-.147.147-.338.22-.531.22z"/><path d="m8 12c-1.103 0-2-.897-2-2s.897-2 2-2c.534 0 1.036.208 1.414.586s.586.88.586 1.414c0 1.103-.897 2-2 2zm0-2.5c-.275 0-.5.225-.5.5s.225.5.5.5.5-.225.5-.5c0-.134-.052-.259-.146-.354s-.22-.146-.354-.146z"/><path d="m8.811 9.798c-.192 0-.384-.073-.53-.22l-2-2c-.293-.293-.293-.768 0-1.061s.768-.293 1.061 0l2 2c.293.293.293.768 0 1.061-.148.147-.339.22-.531.22z"/></svg>