<svg enable-background="new 0 0 24 24" height="512" viewBox="0 0 24 24" width="512" xmlns="http://www.w3.org/2000/svg"><circle cx="12" cy="12" fill="#ffd54f" r="10.8"/><path d="m18.041 17.625c-.898-2.559-3.325-4.279-6.041-4.279s-5.143 1.719-6.041 4.279c-.065.186-.036.392.078.552.114.161.298.256.495.256h10.935c.197 0 .381-.095.495-.256.115-.16.144-.366.079-.552z" fill="#e53935"/><path d="m7.5 10c-1.379 0-2.5-1.122-2.5-2.5 0-.414.336-.75.75-.75s.75.336.75.75c0 .551.448 1 1 1s1-.449 1-1c0-.414.336-.75.75-.75s.75.336.75.75c0 1.378-1.121 2.5-2.5 2.5z"/><path d="m16.5 10c-1.379 0-2.5-1.122-2.5-2.5 0-.414.336-.75.75-.75s.75.336.75.75c0 .551.448 1 1 1s1-.449 1-1c0-.414.336-.75.75-.75s.75.336.75.75c0 1.378-1.121 2.5-2.5 2.5z"/><path d="m12 24c-6.617 0-12-5.383-12-12s5.383-12 12-12 12 5.383 12 12-5.383 12-12 12zm0-22.5c-5.79 0-10.5 4.71-10.5 10.5s4.71 10.5 10.5 10.5 10.5-4.71 10.5-10.5-4.71-10.5-10.5-10.5z"/><path d="m18.75 19.03h-13.5c-.243 0-.471-.118-.611-.316-.141-.198-.177-.452-.097-.682 1.108-3.159 4.105-5.282 7.458-5.282s6.35 2.123 7.458 5.282c.08.229.044.483-.097.682-.14.199-.368.316-.611.316zm-12.343-1.5h11.186c-1.115-1.998-3.247-3.28-5.593-3.28s-4.478 1.282-5.593 3.28z"/></svg>