<svg enable-background="new 0 0 24 24" height="512" viewBox="0 0 24 24" width="512" xmlns="http://www.w3.org/2000/svg"><g fill="#eee"><path d="m23.311 8.551c-.474-.496-1.205-.623-1.818-.316l-1.945.968c-.334.166-.47.571-.304.905.131.265.413.398.69.362l.383 2.94-.443.797c-.181.326-.064.737.262.918.104.058.216.085.327.085.237 0 .467-.125.59-.347l2.491-4.48c.34-.61.249-1.329-.233-1.832z"/><path d="m4.453 9.203-1.944-.968c-.616-.308-1.346-.181-1.82.316-.482.504-.573 1.223-.234 1.831l2.491 4.481c.123.222.353.347.59.347.111 0 .224-.027.327-.085.326-.181.443-.592.262-.918l-.443-.797.383-2.94c.278.037.559-.097.69-.362.168-.334.032-.739-.302-.905z"/><path d="m19.276 7.582c-.479-3.637-3.607-6.38-7.276-6.38s-6.797 2.743-7.276 6.38l-1.707 12.963c-.078.58.173 1.148.653 1.482.482.335 1.103.372 1.619.096l1.825-.971c.308-.164.681-.169.995-.012l2.802 1.401c.341.171.715.256 1.089.256s.748-.085 1.089-.256l2.802-1.401c.315-.157.687-.152.995.012l1.825.971c.519.276 1.138.239 1.619-.096.48-.334.731-.902.653-1.481z"/></g><path d="m9 11.01c-1.103 0-2-.897-2-2s.897-2 2-2 2 .897 2 2-.897 2-2 2z" fill="#757575"/><path d="m15 11.01c-1.103 0-2-.897-2-2s.897-2 2-2 2 .897 2 2-.897 2-2 2z" fill="#757575"/><path d="m14.5 16.62c-1.117 0-2.025-.908-2.025-2.025v-.608c0-.335.272-.608.608-.608h2.835c.335 0 .608.272.608.608v.608c-.001 1.117-.909 2.025-2.026 2.025z" fill="#e53935"/><path d="m9 11.01c-1.103 0-2-.897-2-2s.897-2 2-2 2 .897 2 2-.897 2-2 2zm0-2.5c-.276 0-.5.225-.5.5s.224.5.5.5.5-.225.5-.5-.224-.5-.5-.5z"/><path d="m15 11.01c-1.103 0-2-.897-2-2s.897-2 2-2 2 .897 2 2-.897 2-2 2zm0-2.5c-.276 0-.5.225-.5.5s.224.5.5.5.5-.225.5-.5-.224-.5-.5-.5z"/><path d="m16.25 14.5h-8.5c-.414 0-.75-.336-.75-.75s.336-.75.75-.75h8.5c.414 0 .75.336.75.75s-.336.75-.75.75z"/><path d="m14.5 17c-1.378 0-2.5-1.121-2.5-2.5v-.75c0-.414.336-.75.75-.75h3.5c.414 0 .75.336.75.75v.75c0 1.379-1.122 2.5-2.5 2.5zm-1-2.5c0 .552.449 1 1 1s1-.448 1-1z"/><path d="m12 23.997c-.416 0-.832-.095-1.21-.284l-3.113-1.557c-.35-.175-.762-.168-1.104.014l-2.029 1.078c-.575.308-1.264.266-1.797-.106-.535-.372-.813-1.003-.727-1.648l1.896-14.402c.532-4.042 4.008-7.09 8.084-7.09s7.552 3.048 8.084 7.09l1.897 14.403c.086.644-.192 1.274-.727 1.646-.533.372-1.222.412-1.797.106l-2.028-1.078c-.343-.183-.757-.188-1.105-.014l-3.113 1.557c-.379.19-.795.285-1.211.285zm-4.864-3.468c.415 0 .83.095 1.211.285l3.113 1.557c.338.17.741.17 1.079 0l3.113-1.557c.783-.391 1.71-.379 2.481.031l2.027 1.078c.101.053.185.021.237-.014.043-.03.112-.098.096-.218l-1.896-14.404c-.434-3.298-3.27-5.785-6.597-5.785s-6.163 2.487-6.597 5.785l-1.898 14.403c-.016.122.053.189.096.22.053.034.137.066.237.014l2.028-1.078c.396-.211.833-.317 1.27-.317z"/><path d="m20.353 15.606c-.124 0-.249-.03-.364-.095-.362-.201-.493-.657-.291-1.02l2.768-4.979c.055-.099.043-.188-.033-.27-.053-.054-.143-.106-.268-.046l-2.162 1.077c-.37.183-.821.033-1.006-.338-.185-.37-.034-.82.337-1.006l2.162-1.076c.683-.339 1.495-.196 2.021.353.535.56.636 1.358.259 2.035l-2.768 4.978c-.136.249-.392.387-.655.387z"/><path d="m3.647 15.606c-.263 0-.519-.139-.656-.386l-2.768-4.979c-.377-.676-.275-1.475.259-2.034.528-.551 1.34-.692 2.023-.351l2.161 1.075c.371.186.521.636.337 1.006-.185.371-.634.521-1.006.338l-2.162-1.076c-.124-.064-.215-.01-.268.045-.076.081-.088.171-.033.269l2.768 4.979c.202.362.071.818-.291 1.02-.115.064-.24.094-.364.094z"/></svg>