<svg enable-background="new 0 0 24 24" height="512" viewBox="0 0 24 24" width="512" xmlns="http://www.w3.org/2000/svg"><path d="m18.573 22.8c-.001 0-.002 0-.003 0l-13.143-.008c-.001 0-.001 0-.001 0-1.338-.001-2.426-1.093-2.426-2.435v-11.89c0-4.993 4.67-7.267 9.009-7.267 4.468 0 8.991 2.5 8.991 7.277v11.887c0 .65-.252 1.262-.711 1.722-.458.461-1.068.714-1.716.714z" fill="#6d4c41"/><path d="m12 23.075c-1.659 0-3.531-.891-5.007-2.384-1.413-1.43-2.212-3.188-2.193-4.823v-4.718c0-.373.302-.675.675-.675 4.238 0 5.9-3.614 5.917-3.65.108-.243.35-.4.616-.4h.001c.267 0 .508.158.616.402.067.148 1.69 3.648 5.9 3.648.373 0 .675.302.675.675v4.725c0 1.689-.865 3.496-2.373 4.959-1.449 1.403-3.253 2.241-4.827 2.241z" fill="#ffd54f"/><path d="m8 14.484c-.543 0-.984-.442-.984-.984s.441-.984.984-.984.984.442.984.984-.441.984-.984.984z" fill="#6d4c41"/><path d="m16 14.715c-.67 0-1.215-.545-1.215-1.215s.545-1.215 1.215-1.215 1.215.545 1.215 1.215-.545 1.215-1.215 1.215z" fill="#6d4c41"/><path d="m8.25 15.5c-.965 0-1.75-.785-1.75-1.75s.785-1.75 1.75-1.75 1.75.785 1.75 1.75-.785 1.75-1.75 1.75zm0-2c-.138 0-.25.112-.25.25 0 .275.5.275.5 0 0-.138-.112-.25-.25-.25z"/><path d="m15.75 15.5c-.965 0-1.75-.785-1.75-1.75s.785-1.75 1.75-1.75 1.75.785 1.75 1.75-.785 1.75-1.75 1.75zm0-2c-.138 0-.25.112-.25.25 0 .275.5.275.5 0 0-.138-.112-.25-.25-.25z"/><path d="m12 24c-1.844 0-3.924-.99-5.563-2.649-1.571-1.589-2.458-3.542-2.437-5.36v-5.241c0-.414.336-.75.75-.75 4.709 0 6.556-4.016 6.574-4.056.12-.271.389-.444.685-.444h.001c.297 0 .564.176.685.446.074.164 1.877 4.054 6.555 4.054.414 0 .75.336.75.75v5.25c0 1.877-.961 3.885-2.637 5.51-1.609 1.559-3.614 2.49-5.363 2.49zm-6.5-12.528v4.528c-.017 1.429.714 2.991 2.003 4.296 1.344 1.359 3.066 2.204 4.497 2.204 1.348 0 3.003-.792 4.319-2.067 1.386-1.344 2.181-2.959 2.181-4.433v-4.528c-3.502-.269-5.533-2.385-6.493-3.755-.965 1.369-3.003 3.486-6.507 3.755z"/><path d="m19.304 24c-.001 0-.002 0-.003 0l-14.605-.009c-.001 0-.001 0-.001 0-1.486-.001-2.695-1.215-2.695-2.706v-13.211c0-5.548 5.188-8.074 10.01-8.074 4.965 0 9.99 2.777 9.99 8.086v13.208c0 .723-.28 1.402-.79 1.913-.509.512-1.187.793-1.906.793zm-14.608-1.509 14.606.009h.002c.318 0 .618-.125.844-.352.228-.229.353-.531.353-.854v-13.208c0-4.525-4.401-6.586-8.49-6.586-4.1 0-8.511 2.058-8.511 6.574v13.211c0 .664.537 1.205 1.196 1.206z"/><path d="m12 19.995c-1.094 0-2.188-.401-3.021-1.205-.299-.288-.307-.763-.02-1.061.289-.3.764-.305 1.061-.02 1.092 1.055 2.867 1.055 3.959 0 .299-.285.773-.28 1.061.02.287.298.279.772-.02 1.061-.832.804-1.926 1.205-3.02 1.205z"/></svg>