<svg enable-background="new 0 0 24 24" height="512" viewBox="0 0 24 24" width="512" xmlns="http://www.w3.org/2000/svg"><circle cx="12" cy="12" fill="#ffd54f" r="10.8"/><path d="m7.92 7.127h-2.369c-.302 0-.547.245-.547.547s.245.547.547.547h.963c-.03.117-.052.238-.052.365 0 .804.654 1.458 1.458 1.458s1.458-.654 1.458-1.458-.653-1.459-1.458-1.459z" fill="#6d4c41"/><path d="m14.583 8.221h.963c-.03.117-.052.238-.052.365 0 .804.654 1.458 1.458 1.458s1.458-.654 1.458-1.458-.654-1.458-1.458-1.458h-2.369c-.302 0-.547.245-.547.547 0 .301.245.546.547.546z" fill="#6d4c41"/><path d="m12 21c-.414 0-.75-.336-.75-.75s.336-.75.75-.75c2.466 0 4.809-1.193 6.267-3.191.244-.335.713-.409 1.048-.164.335.244.408.713.164 1.048-1.74 2.384-4.536 3.807-7.479 3.807z"/><path d="m12 24c-6.617 0-12-5.383-12-12s5.383-12 12-12 12 5.383 12 12-5.383 12-12 12zm0-22.5c-5.79 0-10.5 4.71-10.5 10.5s4.71 10.5 10.5 10.5 10.5-4.71 10.5-10.5-4.71-10.5-10.5-10.5z"/><path d="m8 11c-1.103 0-2-.897-2-2s.897-2 2-2 2 .897 2 2-.897 2-2 2zm0-2.5c-.276 0-.5.224-.5.5s.224.5.5.5.5-.224.5-.5-.224-.5-.5-.5z"/><path d="m8 8.5h-3.25c-.414 0-.75-.336-.75-.75s.336-.75.75-.75h3.25c.414 0 .75.336.75.75s-.336.75-.75.75z"/><path d="m17 11c-1.103 0-2-.897-2-2s.897-2 2-2 2 .897 2 2-.897 2-2 2zm0-2.5c-.276 0-.5.224-.5.5s.224.5.5.5.5-.224.5-.5-.224-.5-.5-.5z"/><path d="m17 8.5h-3.25c-.414 0-.75-.336-.75-.75s.336-.75.75-.75h3.25c.414 0 .75.336.75.75s-.336.75-.75.75z"/></svg>