<svg enable-background="new 0 0 24 24" height="512" viewBox="0 0 24 24" width="512" xmlns="http://www.w3.org/2000/svg"><path d="m2.832 16.431c-1.34 0-2.43-1.09-2.43-2.43 0-1.236.927-2.276 2.157-2.418.336-.036.635.2.674.534.038.333-.2.634-.534.673-.617.071-.537 2.426.132 2.426.085 0 .163-.009.232-.028.323-.09.657.105.744.43.087.324-.106.657-.43.744-.171.046-.354.069-.545.069z" fill="#ffb74d"/><path d="m21.24 16.188c-.172 0-.337-.021-.491-.062-.292-.078-.465-.377-.387-.669.078-.293.379-.468.669-.387.062.016.132.025.209.025.603 0 .675-2.119.119-2.183-.3-.035-.515-.306-.48-.606s.309-.513.606-.481c1.107.128 1.942 1.064 1.942 2.176 0 1.206-.981 2.187-2.187 2.187z" fill="#ffb74d"/><path d="m21.21 11.508c-.213 0-.418-.112-.529-.308-.016-.028-.03-.059-.041-.091h-.001l-2.832-7.754c-.068-.186-.041-.394.073-.556.114-.163.3-.259.498-.259 2.275 0 3.795.647 4.516 1.923 1.302 2.299-.551 5.732-1.15 6.728-.061.112-.156.205-.279.262-.083.036-.17.055-.255.055z" fill="#e0e0e0"/><path d="m2.718 12.006c-.095 0-.191-.02-.283-.062-.133-.062-.237-.162-.305-.281-.678-1.13-2.727-4.935-1.284-7.486.803-1.418 2.491-2.137 5.019-2.137.22 0 .427.107.553.288.126.18.156.411.081.618l-3.148 8.616c-.012.035-.027.069-.045.101-.123.218-.351.343-.588.343z" fill="#e0e0e0"/><path d="m12 22.8c-3.967 0-9-4.873-9-10.35v-4.05c0-4.237 3.526-7.063 8.983-7.2h.033c5.458.137 8.984 2.963 8.984 7.2v4.05c0 5.477-5.033 10.35-9 10.35z" fill="#ffd54f"/><path d="m8 14.484c-.543 0-.984-.442-.984-.984s.441-.984.984-.984.984.442.984.984-.441.984-.984.984z" fill="#6d4c41"/><path d="m16 14.484c-.543 0-.984-.442-.984-.984s.442-.984.984-.984.984.442.984.984-.441.984-.984.984z" fill="#6d4c41"/><path d="m7 5.759c-.174 0-.349-.061-.491-.184-.313-.271-.347-.745-.075-1.057 1.233-1.422 3.222-2.248 5.458-2.268h.077c2.231 0 4.316.841 5.589 2.258.277.308.251.782-.057 1.059-.308.278-.782.251-1.059-.057-.992-1.104-2.66-1.76-4.471-1.76-.022 0-.043 0-.065 0-1.78.016-3.401.67-4.339 1.75-.149.171-.358.259-.567.259z"/><path d="m7 8.741c-.175 0-.351-.062-.494-.186-.312-.272-.343-.747-.07-1.059 1.233-1.407 3.222-2.226 5.457-2.246 2.297.009 4.376.816 5.663 2.237.278.308.255.781-.052 1.06-.306.277-.781.256-1.059-.052-1.004-1.109-2.708-1.754-4.539-1.745-1.781.016-3.404.664-4.341 1.735-.149.169-.357.256-.565.256z"/><path d="m20.709 12.179c-.133-.235-.113-.552.026-.783 1.246-2.075 2.361-5.101 1.401-6.797-.605-1.07-2.042-1.612-4.271-1.612-.414 0-.75-.336-.75-.75s.336-.75.75-.75c2.809 0 4.685.799 5.576 2.374 1.607 2.839-.681 7.076-1.42 8.307l-.652-.361z"/><path d="m1.989 12.185c-.75-1.248-3.037-5.485-1.43-8.324.891-1.576 2.767-2.375 5.575-2.375.414 0 .75.336.75.75s-.336.75-.75.75c-2.228 0-3.665.542-4.271 1.612-.96 1.696.155 4.722 1.401 6.797.139.231.159.548.026.783l-1.304-.741.651.372z"/><path d="m12 19.995c-1.094 0-2.188-.401-3.021-1.205-.298-.288-.306-.763-.019-1.061.288-.3.764-.305 1.061-.02 1.091 1.055 2.867 1.055 3.958 0 .298-.285.773-.28 1.061.02.288.298.279.772-.019 1.061-.833.804-1.927 1.205-3.021 1.205z"/><path d="m8.25 15.5c-.965 0-1.75-.785-1.75-1.75s.785-1.75 1.75-1.75 1.75.785 1.75 1.75-.785 1.75-1.75 1.75zm0-2c-.138 0-.25.112-.25.25 0 .275.5.275.5 0 0-.138-.112-.25-.25-.25z"/><path d="m15.75 15.5c-.965 0-1.75-.785-1.75-1.75s.785-1.75 1.75-1.75 1.75.785 1.75 1.75-.785 1.75-1.75 1.75zm0-2c-.138 0-.25.112-.25.25 0 .275.5.275.5 0 0-.138-.112-.25-.25-.25z"/><path d="m12 24c-4.408 0-10-5.414-10-11.5v-4.5c0-4.708 3.918-7.848 9.981-8h.037c6.064.152 9.982 3.292 9.982 8v4.5c0 6.086-5.592 11.5-10 11.5zm0-22.5c-3.926.104-8.5 1.867-8.5 6.5v4.5c0 5.424 5.221 10 8.5 10s8.5-4.576 8.5-10v-4.5c0-4.633-4.574-6.396-8.5-6.5z"/><path d="m3 17c-1.654 0-3-1.346-3-3 0-1.525 1.145-2.81 2.664-2.985.413-.041.784.247.832.659.047.411-.247.783-.659.831-.762.088-1.337.731-1.337 1.495 0 .827.673 1.5 1.5 1.5.105 0 .202-.012.287-.034.398-.11.811.13.918.531.107.4-.131.812-.531.918-.212.057-.438.085-.674.085z"/><path d="m21 17c-.236 0-.462-.028-.673-.085-.4-.106-.638-.518-.531-.918.106-.4.52-.641.918-.531.084.022.181.034.286.034.827 0 1.5-.673 1.5-1.5 0-.764-.575-1.407-1.336-1.495-.412-.048-.706-.42-.659-.831.048-.412.422-.7.832-.659 1.518.175 2.663 1.46 2.663 2.985 0 1.654-1.346 3-3 3z"/></svg>