<svg enable-background="new 0 0 24 24" height="512" viewBox="0 0 24 24" width="512" xmlns="http://www.w3.org/2000/svg"><circle cx="12" cy="12" fill="#ffd54f" r="10.8"/><path d="m16.275 13.3h-8.55c-1.489 0-2.7 1.211-2.7 2.7s1.211 2.7 2.7 2.7h8.55c1.489 0 2.7-1.211 2.7-2.7s-1.211-2.7-2.7-2.7z" fill="#fff"/><path d="m12 24c-6.617 0-12-5.383-12-12s5.383-12 12-12 12 5.383 12 12-5.383 12-12 12zm0-22.5c-5.79 0-10.5 4.71-10.5 10.5s4.71 10.5 10.5 10.5 10.5-4.71 10.5-10.5-4.71-10.5-10.5-10.5z"/><path d="m9.25 10.25c-.414 0-.75-.336-.75-.75 0-.551-.448-1-1-1s-1 .449-1 1c0 .414-.336.75-.75.75s-.75-.336-.75-.75c0-1.378 1.121-2.5 2.5-2.5s2.5 1.122 2.5 2.5c0 .414-.336.75-.75.75z"/><path d="m18.25 10.25c-.414 0-.75-.336-.75-.75 0-.551-.448-1-1-1s-1 .449-1 1c0 .414-.336.75-.75.75s-.75-.336-.75-.75c0-1.378 1.121-2.5 2.5-2.5s2.5 1.122 2.5 2.5c0 .414-.336.75-.75.75z"/><path d="m16.75 19h-9.5c-1.654 0-3-1.346-3-3s1.346-3 3-3h9.5c1.654 0 3 1.346 3 3s-1.346 3-3 3zm-9.5-4.5c-.827 0-1.5.673-1.5 1.5s.673 1.5 1.5 1.5h9.5c.827 0 1.5-.673 1.5-1.5s-.673-1.5-1.5-1.5z"/><path d="m8.75 19c-.414 0-.75-.336-.75-.75v-4.5c0-.414.336-.75.75-.75s.75.336.75.75v4.5c0 .414-.336.75-.75.75z"/><path d="m12 19c-.414 0-.75-.336-.75-.75v-4.5c0-.414.336-.75.75-.75s.75.336.75.75v4.5c0 .414-.336.75-.75.75z"/><path d="m15.25 19c-.414 0-.75-.336-.75-.75v-4.5c0-.414.336-.75.75-.75s.75.336.75.75v4.5c0 .414-.336.75-.75.75z"/></svg>