<svg enable-background="new 0 0 24 24" height="512" viewBox="0 0 24 24" width="512" xmlns="http://www.w3.org/2000/svg"><path d="m3.243 12.309c.098-.32-.081-.66-.402-.759-.162-.05-.334-.075-.511-.075-1.117 0-2.025.908-2.025 2.025s.908 2.025 2.025 2.025c.177 0 .348-.025.511-.075.321-.098.501-.438.402-.759-.08-.262-.321-.42-.581-.42v-1.542c.26 0 .501-.158.581-.42z" fill="#ffb74d"/><path d="m21.116 11.531c-.327.076-.53.403-.454.729.065.28.316.459.592.458v1.562c-.276-.001-.527.179-.592.459-.076.327.127.653.454.729.16.037.318.056.469.056 1.117 0 2.025-.908 2.025-2.025 0-1.267-1.155-2.277-2.494-1.968z" fill="#ffb74d"/><path d="m20.958 13.5c0 4.959-4.041 9-9 9s-9-4.041-9-9c0-3.6 2.124-6.705 5.184-8.145.432-.216.891-.387 1.368-.513.774-.225 1.602-.342 2.448-.342s1.674.117 2.448.342c.018.108.027.216.027.333 0 1.368 1.251 2.205 1.341.18 3.06 1.44 5.184 4.545 5.184 8.145z" fill="#ffd54f"/><g fill="#6d4c41"><path d="m8 14.5c-.827 0-1.5-.673-1.5-1.5s.673-1.5 1.5-1.5 1.5.673 1.5 1.5-.673 1.5-1.5 1.5z"/><path d="m16 14.215c-.67 0-1.215-.545-1.215-1.215s.545-1.215 1.215-1.215 1.215.545 1.215 1.215-.545 1.215-1.215 1.215z"/><path d="m12.002 20.573c-1.675 0-3.038-1.363-3.038-3.038 0-.335.272-.608.608-.608h4.86c.335 0 .608.272.608.608-.001 1.675-1.363 3.038-3.038 3.038z"/></g><path d="m12.002 21c-2.068 0-3.75-1.683-3.75-3.75 0-.414.336-.75.75-.75h6c.414 0 .75.336.75.75 0 2.067-1.682 3.75-3.75 3.75zm-2.122-3c.31.873 1.144 1.5 2.122 1.5s1.812-.627 2.122-1.5z"/><path d="m8 15c-1.103 0-2-.897-2-2s.897-2 2-2 2 .897 2 2-.897 2-2 2zm0-2.5c-.276 0-.5.225-.5.5s.224.5.5.5.5-.225.5-.5-.224-.5-.5-.5z"/><path d="m16 15c-1.103 0-2-.897-2-2s.897-2 2-2 2 .897 2 2-.897 2-2 2zm0-2.5c-.276 0-.5.225-.5.5s.224.5.5.5.5-.225.5-.5-.224-.5-.5-.5z"/><path d="m12 23.5c-5.514 0-10-4.486-10-10s4.486-10 10-10 10 4.486 10 10-4.486 10-10 10zm0-18.5c-4.687 0-8.5 3.813-8.5 8.5s3.813 8.5 8.5 8.5 8.5-3.813 8.5-8.5-3.813-8.5-8.5-8.5z"/><path d="m2.5 16c-1.378 0-2.5-1.121-2.5-2.5s1.122-2.5 2.5-2.5c.218 0 .43.031.63.093.396.121.618.541.497.937-.121.397-.542.62-.937.497-.057-.018-.122-.027-.19-.027-.551 0-1 .448-1 1s.449 1 1 1c.068 0 .133-.009.19-.026.395-.12.816.101.937.497.122.396-.101.815-.497.937-.2.061-.412.092-.63.092z"/><path d="m21.5 16c-.187 0-.382-.023-.58-.069-.404-.094-.655-.497-.561-.9.093-.402.499-.658.9-.561.087.021.168.03.241.03.551 0 1-.448 1-1s-.449-1-1-1c-.073 0-.154.01-.241.03-.402.096-.807-.158-.9-.561-.094-.403.157-.807.561-.9 1.654-.384 3.08.865 3.08 2.431 0 1.379-1.122 2.5-2.5 2.5z"/><path d="m12 8.5c-.672 0-1.333-.156-1.911-.452-.369-.189-.515-.641-.327-1.01.189-.368.642-.514 1.009-.326.369.188.793.288 1.229.288 1.517 0 2.75-1.233 2.75-2.75s-1.233-2.75-2.75-2.75-2.75 1.233-2.75 2.75c0 .188.016.347.05.487.095.403-.154.807-.557.903-.408.092-.807-.155-.903-.557-.061-.255-.09-.527-.09-.833 0-2.344 1.907-4.25 4.25-4.25s4.25 1.906 4.25 4.25-1.907 4.25-4.25 4.25z"/></svg>