<svg enable-background="new 0 0 24 24" height="512" viewBox="0 0 24 24" width="512" xmlns="http://www.w3.org/2000/svg"><circle cx="12" cy="12" fill="#ffd54f" r="10.8"/><path d="m17.963 14.853c-.114-.161-.299-.256-.496-.256h-10.935c-.197 0-.382.095-.496.256s-.143.367-.078.553c.897 2.559 3.325 4.279 6.041 4.279s5.144-1.719 6.041-4.279c.066-.187.037-.393-.077-.553z" fill="#e53935"/><path d="m7.5 11c-1.378 0-2.5-1.122-2.5-2.5 0-.414.336-.75.75-.75s.75.336.75.75c0 .551.449 1 1 1s1-.449 1-1c0-.414.336-.75.75-.75s.75.336.75.75c0 1.378-1.122 2.5-2.5 2.5z"/><path d="m16.5 11c-1.378 0-2.5-1.122-2.5-2.5 0-.414.336-.75.75-.75s.75.336.75.75c0 .551.449 1 1 1s1-.449 1-1c0-.414.336-.75.75-.75s.75.336.75.75c0 1.378-1.122 2.5-2.5 2.5z"/><path d="m12 24c-6.617 0-12-5.383-12-12s5.383-12 12-12 12 5.383 12 12-5.383 12-12 12zm0-22.5c-5.79 0-10.5 4.71-10.5 10.5s4.71 10.5 10.5 10.5 10.5-4.71 10.5-10.5-4.71-10.5-10.5-10.5z"/><path d="m12 20.28c-3.354 0-6.351-2.123-7.458-5.282-.08-.229-.044-.483.096-.682.141-.198.369-.316.612-.316h13.5c.243 0 .471.118.612.316.141.199.176.453.096.682-1.107 3.16-4.104 5.282-7.458 5.282zm-5.593-4.78c1.115 1.998 3.246 3.28 5.593 3.28s4.478-1.282 5.593-3.28z"/></svg>