<svg enable-background="new 0 0 24 24" height="512" viewBox="0 0 24 24" width="512" xmlns="http://www.w3.org/2000/svg"><path d="m20.103.59c-.199-.179-.484-.223-.726-.115-.243.109-.4.35-.4.617 0 1.13-.508 2.176-1.393 2.868-.294.23-.345.654-.116.948.229.293.655.345.948.116.022-.017.039-.038.061-.055l1.352 1.352c-.022.034-.039.071-.063.105-.213.306-.138.726.167.94.118.082.252.121.386.121.213 0 .423-.101.554-.289 1.446-2.073 1.115-4.914-.77-6.608z" fill="#e53935"/><path d="m4.937 1.378c0-.24-.141-.457-.36-.555-.218-.098-.475-.058-.654.103-1.696 1.525-1.994 4.082-.693 5.947.118.169.307.26.499.26.12 0 .241-.036.347-.109.275-.192.343-.571.151-.846-.021-.031-.036-.064-.057-.095l1.216-1.216c.019.016.035.034.055.05.264.206.647.16.853-.104s.16-.646-.104-.853c-.796-.624-1.253-1.565-1.253-2.582z" fill="#e53935"/><circle cx="12" cy="12.976" fill="#ef5350" r="9.9"/><g fill="#4e342e"><path d="m16 11.62c-.893 0-1.62-.727-1.62-1.62 0-.433.168-.839.475-1.145.306-.307.712-.475 1.145-.475.893 0 1.62.727 1.62 1.62s-.727 1.62-1.62 1.62z"/><path d="m15.189 9.798c-.192 0-.384-.073-.53-.22-.293-.293-.293-.768 0-1.061l2-2c.293-.293.768-.293 1.061 0s.293.768 0 1.061l-2 2c-.147.147-.339.22-.531.22z"/><path d="m8 11.62c-.893 0-1.62-.727-1.62-1.62s.727-1.62 1.62-1.62c.433 0 .839.168 1.145.475.307.306.475.712.475 1.145 0 .893-.727 1.62-1.62 1.62z"/><path d="m8.811 9.798c-.192 0-.384-.073-.53-.22l-2-2c-.293-.293-.293-.768 0-1.061s.768-.293 1.061 0l2 2c.293.293.293.768 0 1.061-.148.147-.34.22-.531.22z"/><path d="m17.711 17.152c-.057.105-.121.219-.186.324-1.183 1.936-3.248 3.102-5.524 3.102s-4.342-1.166-5.524-3.11c-.065-.105-.121-.211-.178-.316z"/></g><path d="m18.278 15.006c-.122.51-.308 1.012-.567 1.482h-11.413c-.259-.47-.454-.964-.575-1.482-.04-.178 0-.373.113-.518.113-.146.292-.227.478-.227h11.372c.186 0 .364.081.478.227s.154.34.114.518z" fill="#fff"/><path d="m12 20.98c-2.81 0-5.359-1.436-6.821-3.841-.432-.694-.746-1.442-.929-2.218-.095-.402.154-.807.558-.901.403-.096.807.153.902.558.146.616.396 1.213.747 1.775 1.191 1.961 3.262 3.127 5.543 3.127s4.352-1.166 5.539-3.12c.354-.569.605-1.166.751-1.782.095-.404.499-.653.902-.558s.653.499.558.901c-.183.775-.497 1.523-.933 2.225-1.458 2.399-4.007 3.834-6.817 3.834z"/><path d="m16 12c-1.103 0-2-.897-2-2 0-.533.208-1.035.585-1.413.378-.379.88-.587 1.415-.587 1.103 0 2 .897 2 2s-.897 2-2 2zm0-2.5c-.134 0-.259.052-.353.146-.095.095-.147.221-.147.354 0 .275.224.5.5.5s.5-.225.5-.5-.224-.5-.5-.5z"/><path d="m15.189 9.798c-.192 0-.384-.073-.53-.22-.293-.293-.293-.768 0-1.061l2-2c.293-.293.768-.293 1.061 0s.293.768 0 1.061l-2 2c-.147.147-.339.22-.531.22z"/><path d="m8 12c-1.103 0-2-.897-2-2s.897-2 2-2c.535 0 1.037.208 1.415.587.377.378.585.88.585 1.413 0 1.103-.897 2-2 2zm0-2.5c-.276 0-.5.225-.5.5s.224.5.5.5.5-.225.5-.5c0-.133-.052-.259-.147-.354-.094-.094-.219-.146-.353-.146z"/><path d="m8.811 9.798c-.192 0-.384-.073-.53-.22l-2-2c-.293-.293-.293-.768 0-1.061s.768-.293 1.061 0l2 2c.293.293.293.768 0 1.061-.148.147-.34.22-.531.22z"/><path d="m12 24c-6.065 0-11-4.935-11-11s4.935-11 11-11 11 4.935 11 11-4.935 11-11 11zm0-20.5c-5.238 0-9.5 4.262-9.5 9.5s4.262 9.5 9.5 9.5 9.5-4.262 9.5-9.5-4.262-9.5-9.5-9.5z"/><path d="m20.39 7.875c-.414 0-.75-.331-.75-.745 0-.155.048-.315.137-.442.874-1.239.958-2.823.325-4.126-.352 1.012-.994 1.916-1.857 2.575-.329.25-.8.188-1.051-.142-.251-.329-.188-.8.141-1.052 1.001-.763 1.575-1.927 1.575-3.193 0-.296.174-.564.445-.686.269-.119.587-.07.807.129 2.092 1.888 2.459 5.031.862 7.328-.132.212-.367.354-.634.354z"/><path d="m3.59 7.89c-.234 0-.465-.109-.612-.315-1.642-2.311-1.284-5.485.831-7.384.221-.197.538-.247.807-.126.27.121.444.389.444.685 0 1.271.578 2.442 1.585 3.214.329.252.392.723.14 1.052-.253.329-.723.39-1.051.14-.882-.676-1.524-1.575-1.873-2.59-.634 1.306-.545 2.894.34 4.139.24.338.161.806-.177 1.046-.131.094-.283.139-.434.139z"/><path d="m18.18 17.5h-12.36c-.414 0-.75-.336-.75-.75s.336-.75.75-.75h12.36c.414 0 .75.336.75.75s-.336.75-.75.75z"/><path d="m19.02 15.5h-14.04c-.414 0-.75-.336-.75-.75s.336-.75.75-.75h14.04c.414 0 .75.336.75.75s-.336.75-.75.75z"/></svg>