<svg enable-background="new 0 0 24 24" height="512" viewBox="0 0 24 24" width="512" xmlns="http://www.w3.org/2000/svg"><circle cx="12" cy="12" fill="#ffd54f" r="10.8"/><circle cx="7" cy="9" fill="#6d4c41" r="1.8"/><circle cx="17" cy="9" fill="#6d4c41" r="1.8"/><path d="m19.519 14.636c-.127-.173-.329-.275-.544-.275h-13.95c-.214 0-.416.102-.544.275-.127.173-.165.396-.101.6 1.044 3.363 4.106 5.623 7.62 5.623s6.576-2.26 7.62-5.623c.063-.205.026-.428-.101-.6z" fill="#e53935"/><path d="m12 24c-6.617 0-12-5.383-12-12s5.383-12 12-12 12 5.383 12 12-5.383 12-12 12zm0-22.5c-5.79 0-10.5 4.71-10.5 10.5s4.71 10.5 10.5 10.5 10.5-4.71 10.5-10.5-4.71-10.5-10.5-10.5z"/><path d="m7 11.065c-1.103 0-2-.897-2-2s.897-2 2-2 2 .897 2 2-.897 2-2 2zm0-2.5c-.276 0-.5.224-.5.5s.224.5.5.5.5-.224.5-.5-.224-.5-.5-.5z"/><path d="m17 11.065c-1.103 0-2-.897-2-2s.897-2 2-2 2 .897 2 2-.897 2-2 2zm0-2.5c-.276 0-.5.224-.5.5s.224.5.5.5.5-.224.5-.5-.224-.5-.5-.5z"/><path d="m12 21.22c-3.904 0-7.307-2.511-8.466-6.248-.071-.228-.029-.475.112-.667.142-.192.366-.305.604-.305h15.5c.238 0 .462.113.604.305.141.192.183.439.112.667-1.159 3.737-4.562 6.248-8.466 6.248zm-6.657-5.72c1.204 2.561 3.765 4.22 6.657 4.22s5.453-1.659 6.657-4.22z"/></svg>