<svg enable-background="new 0 0 24 24" height="512" viewBox="0 0 24 24" width="512" xmlns="http://www.w3.org/2000/svg"><path d="m20.047.926c-.179-.161-.435-.201-.653-.103-.219.098-.36.315-.36.555 0 1.017-.457 1.958-1.254 2.581-.264.207-.31.589-.104.853s.589.31.853.104c.02-.015.035-.034.055-.05l1.216 1.217c-.02.031-.035.064-.057.094-.192.275-.125.654.151.846.106.074.227.11.348.11.192 0 .38-.091.499-.26 1.301-1.865 1.003-4.422-.694-5.947z" fill="#e53935"/><path d="m4.937 1.378c0-.24-.141-.457-.36-.555-.218-.098-.475-.058-.654.103-1.696 1.525-1.994 4.082-.693 5.947.118.169.307.26.499.26.12 0 .241-.036.347-.109.275-.192.343-.571.151-.846-.021-.031-.036-.064-.057-.095l1.216-1.216c.019.016.035.034.055.05.264.206.647.16.853-.104s.16-.646-.104-.853c-.796-.624-1.253-1.565-1.253-2.582z" fill="#e53935"/><circle cx="12" cy="12.976" fill="#ef5350" r="9.9"/><path d="m17.711 17.152c-.057.105-.121.219-.186.324-1.183 1.936-3.248 3.102-5.524 3.102s-4.342-1.166-5.524-3.11c-.065-.105-.121-.211-.178-.316z" fill="#4e342e"/><path d="m18.975 14.965c-.135.567-.342 1.125-.63 1.647h-12.681c-.288-.522-.504-1.071-.639-1.647-.045-.198 0-.414.126-.576s.324-.252.531-.252h12.636c.207 0 .405.09.531.252s.171.379.126.576z" fill="#fff"/><path d="m12 24c-6.065 0-11-4.935-11-11s4.935-11 11-11 11 4.935 11 11-4.935 11-11 11zm0-20.5c-5.238 0-9.5 4.262-9.5 9.5s4.262 9.5 9.5 9.5 9.5-4.262 9.5-9.5-4.262-9.5-9.5-9.5z"/><path d="m20.39 7.875c-.414 0-.75-.331-.75-.745 0-.155.048-.315.137-.442.874-1.239.958-2.823.325-4.126-.352 1.012-.994 1.916-1.857 2.575-.329.25-.8.188-1.051-.142-.251-.329-.188-.8.141-1.052 1.001-.763 1.575-1.927 1.575-3.193 0-.296.174-.564.445-.686.269-.119.587-.07.807.129 2.092 1.888 2.459 5.031.862 7.328-.132.212-.367.354-.634.354z"/><path d="m3.59 7.89c-.234 0-.465-.109-.612-.315-1.642-2.311-1.284-5.485.831-7.384.221-.197.537-.247.807-.126s.444.389.444.685c0 1.271.578 2.442 1.585 3.214.329.252.392.723.14 1.052s-.723.39-1.051.14c-.882-.676-1.524-1.575-1.873-2.59-.634 1.306-.545 2.894.34 4.139.24.338.161.806-.177 1.046-.131.094-.283.139-.434.139z"/><path d="m12 20.98c-2.81 0-5.359-1.436-6.821-3.841-.432-.694-.746-1.442-.929-2.218-.095-.402.154-.807.558-.901.404-.096.807.153.902.558.146.616.396 1.213.747 1.775 1.191 1.961 3.262 3.127 5.543 3.127s4.352-1.166 5.539-3.12c.354-.569.605-1.166.751-1.782.095-.404.497-.653.902-.558.403.095.653.499.558.901-.183.775-.497 1.523-.933 2.225-1.458 2.399-4.007 3.834-6.817 3.834z"/><path d="m18.18 17.5h-12.36c-.414 0-.75-.336-.75-.75s.336-.75.75-.75h12.36c.414 0 .75.336.75.75s-.336.75-.75.75z"/><path d="m19.02 15.5h-14.04c-.414 0-.75-.336-.75-.75s.336-.75.75-.75h14.04c.414 0 .75.336.75.75s-.336.75-.75.75z"/><path d="m6.75 12c-.236 0-.469-.111-.615-.32-.238-.339-.155-.807.184-1.044l1.623-1.136-1.622-1.136c-.34-.237-.422-.705-.184-1.044.237-.341.706-.422 1.044-.184l2.5 1.75c.2.14.32.369.32.614s-.12.474-.32.614l-2.5 1.75c-.131.092-.281.136-.43.136z"/><path d="m17.25 12c-.149 0-.299-.044-.43-.136l-2.5-1.75c-.2-.14-.32-.369-.32-.614s.12-.474.32-.614l2.5-1.75c.339-.237.808-.155 1.044.185.238.339.155.807-.184 1.044l-1.622 1.135 1.623 1.136c.339.237.422.705.184 1.044-.146.209-.379.32-.615.32z"/></svg>