<svg enable-background="new 0 0 24 24" height="512" viewBox="0 0 24 24" width="512" xmlns="http://www.w3.org/2000/svg"><circle cx="12" cy="12" fill="#ffd54f" r="10.8"/><path d="m19.623 15.023c-.207.657-.477 1.26-.828 1.827h-13.59c-.351-.567-.621-1.17-.828-1.827-.063-.207-.027-.423.108-.594.126-.18.324-.279.54-.279h13.95c.216 0 .414.099.54.279.135.171.171.387.108.594z" fill="#fff"/><path d="m18.795 17.211c-1.422 2.331-3.969 3.798-6.795 3.798s-5.373-1.467-6.795-3.798z" fill="#e53935"/><path d="m12 24c-6.617 0-12-5.383-12-12s5.383-12 12-12 12 5.383 12 12-5.383 12-12 12zm0-22.5c-5.79 0-10.5 4.71-10.5 10.5s4.71 10.5 10.5 10.5 10.5-4.71 10.5-10.5-4.71-10.5-10.5-10.5z"/><path d="m12 21.22c-3.904 0-7.307-2.511-8.467-6.248-.07-.228-.028-.475.113-.667s.366-.305.604-.305h15.5c.238 0 .463.113.604.305.142.192.184.439.113.667-1.16 3.737-4.563 6.248-8.467 6.248zm-6.656-5.72c1.203 2.561 3.764 4.22 6.656 4.22s5.453-1.659 6.656-4.22z"/><path d="m6.751 11c-.236 0-.47-.111-.615-.32-.238-.339-.156-.807.184-1.044l1.622-1.136-1.622-1.136c-.34-.237-.422-.705-.184-1.044.236-.34.704-.423 1.044-.184l2.5 1.75c.201.14.32.369.32.614s-.119.474-.32.614l-2.5 1.75c-.131.092-.281.136-.429.136z"/><path d="m17.249 11c-.148 0-.298-.044-.429-.136l-2.5-1.75c-.201-.14-.32-.369-.32-.614s.119-.474.32-.614l2.5-1.75c.34-.237.808-.155 1.044.184.237.339.155.807-.185 1.044l-1.621 1.136 1.622 1.136c.34.237.422.705.185 1.044-.146.209-.38.32-.616.32z"/><path d="m18.81 17.5h-13.62c-.414 0-.75-.336-.75-.75s.336-.75.75-.75h13.62c.414 0 .75.336.75.75s-.336.75-.75.75z"/></svg>