<svg enable-background="new 0 0 24 24" height="512" viewBox="0 0 24 24" width="512" xmlns="http://www.w3.org/2000/svg"><circle cx="12" cy="12" fill="#ffd54f" r="10.8"/><circle cx="16.75" cy="9" fill="#6d4c41" r="1.62"/><path d="m18.767 14.933c-.115-.155-.296-.247-.489-.247h-12.556c-.193 0-.375.092-.489.247s-.148.356-.091.54c.94 3.027 3.696 5.061 6.858 5.061s5.918-2.034 6.858-5.061c.057-.184.023-.384-.091-.54z" fill="#e53935"/><path d="m12 21.22c-3.904 0-7.307-2.511-8.466-6.248-.071-.228-.029-.475.112-.667.142-.192.366-.305.604-.305h15.5c.238 0 .462.113.604.305.141.192.183.439.112.667-1.159 3.737-4.562 6.248-8.466 6.248zm-6.657-5.72c1.204 2.561 3.765 4.22 6.657 4.22s5.453-1.659 6.657-4.22z"/><path d="m12 24c-6.617 0-12-5.383-12-12s5.383-12 12-12 12 5.383 12 12-5.383 12-12 12zm0-22.5c-5.79 0-10.5 4.71-10.5 10.5s4.71 10.5 10.5 10.5 10.5-4.71 10.5-10.5-4.71-10.5-10.5-10.5z"/><path d="m9 10h-4.5c-.414 0-.75-.336-.75-.75s.336-.75.75-.75h4.5c.414 0 .75.336.75.75s-.336.75-.75.75z"/><path d="m16.75 11c-1.103 0-2-.897-2-2s.897-2 2-2 2 .897 2 2-.897 2-2 2zm0-2.5c-.276 0-.5.224-.5.5s.224.5.5.5.5-.224.5-.5-.224-.5-.5-.5z"/></svg>