<svg enable-background="new 0 0 24 24" height="512" viewBox="0 0 24 24" width="512" xmlns="http://www.w3.org/2000/svg"><path d="m3.243 12.309c.098-.32-.081-.66-.402-.759-.162-.05-.334-.075-.511-.075-1.117 0-2.025.908-2.025 2.025s.908 2.025 2.025 2.025c.177 0 .348-.025.511-.075.321-.098.501-.438.402-.759-.08-.262-.321-.42-.581-.42v-1.542c.26 0 .501-.158.581-.42z" fill="#ffb74d"/><path d="m21.116 11.531c-.327.076-.53.403-.454.729.065.28.316.459.592.458v1.562c-.276-.001-.527.179-.592.459-.076.327.127.653.454.729.16.037.318.056.469.056 1.117 0 2.025-.908 2.025-2.025 0-1.267-1.155-2.277-2.494-1.968z" fill="#ffb74d"/><path d="m20.958 13.5c0 4.959-4.041 9-9 9s-9-4.041-9-9c0-3.6 2.124-6.705 5.184-8.145.432-.216.891-.387 1.368-.513.774-.225 1.602-.342 2.448-.342s1.674.117 2.448.342c.018.108.027.216.027.333 0 1.368 1.251 2.205 1.341.18 3.06 1.44 5.184 4.545 5.184 8.145z" fill="#ffd54f"/><path d="m19 9.918c-1.206 0-2.187-.954-2.187-2.126 0-.972 1.334-2.907 1.743-3.478.205-.286.683-.286.888 0 .409.57 1.743 2.505 1.743 3.478 0 1.172-.981 2.126-2.187 2.126z" fill="#00bcd4"/><path d="m12 23.5c-5.514 0-10-4.486-10-10s4.486-10 10-10c2.186 0 4.251.685 5.971 1.981.331.249.397.719.148 1.05-.25.33-.719.397-1.05.147-1.459-1.097-3.211-1.678-5.069-1.678-4.687 0-8.5 3.813-8.5 8.5s3.813 8.5 8.5 8.5 8.5-3.813 8.5-8.5c0-1.224-.246-2.384-.732-3.448-.172-.377-.006-.822.371-.994.379-.171.823-.005.994.371.575 1.261.867 2.632.867 4.071 0 5.514-4.486 10-10 10z"/><path d="m2.5 16c-1.378 0-2.5-1.121-2.5-2.5s1.122-2.5 2.5-2.5c.218 0 .43.031.63.093.396.121.618.541.497.937-.121.397-.542.62-.937.497-.057-.018-.122-.027-.19-.027-.551 0-1 .448-1 1s.449 1 1 1c.068 0 .133-.009.19-.026.395-.12.815.101.937.497s-.101.815-.497.937c-.2.061-.412.092-.63.092z"/><path d="m12 8.5c-.672 0-1.333-.156-1.911-.452-.369-.189-.515-.641-.327-1.01.189-.368.642-.514 1.009-.326.369.188.793.288 1.229.288 1.517 0 2.75-1.233 2.75-2.75s-1.233-2.75-2.75-2.75-2.75 1.233-2.75 2.75c0 .188.016.347.05.487.095.403-.154.807-.557.903-.407.093-.807-.155-.903-.557-.061-.255-.09-.527-.09-.833 0-2.344 1.907-4.25 4.25-4.25s4.25 1.906 4.25 4.25-1.907 4.25-4.25 4.25z"/><path d="m12.003 21.498c-2.068 0-3.75-1.683-3.75-3.75 0-.414.336-.75.75-.75h6c.414 0 .75.336.75.75 0 2.067-1.682 3.75-3.75 3.75zm-2.121-3c.31.873 1.144 1.5 2.122 1.5s1.812-.627 2.122-1.5z"/><path d="m9.25 13.75c-.414 0-.75-.336-.75-.75 0-.275-.224-.5-.5-.5s-.5.225-.5.5c0 .414-.336.75-.75.75s-.75-.336-.75-.75c0-1.103.897-2 2-2s2 .897 2 2c0 .414-.336.75-.75.75z"/><path d="m17.25 13.75c-.414 0-.75-.336-.75-.75 0-.275-.224-.5-.5-.5s-.5.225-.5.5c0 .414-.336.75-.75.75s-.75-.336-.75-.75c0-1.103.897-2 2-2s2 .897 2 2c0 .414-.336.75-.75.75z"/><path d="m19 11c-1.654 0-3-1.309-3-2.917 0-1.334 1.83-3.988 2.391-4.771.281-.393.938-.393 1.219 0 .56.783 2.39 3.437 2.39 4.771 0 1.608-1.346 2.917-3 2.917zm0-5.92c-.799 1.228-1.5 2.532-1.5 3.003 0 .781.673 1.417 1.5 1.417s1.5-.636 1.5-1.417c0-.472-.7-1.776-1.5-3.003z"/><path d="m21.5 16c-.187 0-.382-.023-.58-.069-.404-.094-.655-.497-.561-.9.094-.402.497-.66.9-.561.087.021.168.03.241.03.551 0 1-.448 1-1s-.449-1-1-1c-.073 0-.154.01-.241.03-.404.094-.806-.158-.9-.561s.157-.807.561-.9c1.657-.382 3.08.866 3.08 2.431 0 1.379-1.122 2.5-2.5 2.5z"/></svg>