<svg enable-background="new 0 0 24 24" height="512" viewBox="0 0 24 24" width="512" xmlns="http://www.w3.org/2000/svg"><circle cx="12" cy="12" fill="#ffd54f" r="10.8"/><path d="m19.623 15.023c-.207.657-.477 1.26-.828 1.827h-13.59c-.351-.567-.621-1.17-.828-1.827-.063-.207-.027-.423.108-.594.126-.18.324-.279.54-.279h13.95c.216 0 .414.099.54.279.135.171.171.387.108.594z" fill="#fff"/><path d="m18.795 17.211c-1.422 2.331-3.969 3.798-6.795 3.798s-5.373-1.467-6.795-3.798z" fill="#e53935"/><path d="m21.929 1.929c-.228-.328-.774-.328-1 0-.373.541-1.592 2.379-1.592 3.315 0 1.154.939 2.093 2.092 2.093 1.154 0 2.093-.939 2.093-2.093 0-.936-1.22-2.774-1.593-3.315z" fill="#00bcd4"/><path d="m12 21.25c-3.904 0-7.307-2.511-8.467-6.248-.07-.228-.028-.475.113-.667s.365-.305.604-.305h15.5c.238 0 .463.113.604.305.142.192.184.439.113.667-1.16 3.737-4.563 6.248-8.467 6.248zm-6.656-5.72c1.203 2.561 3.764 4.22 6.656 4.22s5.453-1.659 6.656-4.22z"/><path d="m18.81 17.53h-13.62c-.414 0-.75-.336-.75-.75s.336-.75.75-.75h13.62c.414 0 .75.336.75.75s-.336.75-.75.75z"/><path d="m12 24c-6.617 0-12-5.383-12-12s5.383-12 12-12c3.241 0 6.276 1.275 8.547 3.59.29.296.286.771-.01 1.061s-.771.286-1.061-.01c-1.986-2.026-4.641-3.141-7.476-3.141-5.79 0-10.5 4.71-10.5 10.5s4.71 10.5 10.5 10.5 10.5-4.71 10.5-10.5c0-1.47-.295-2.886-.876-4.208-.167-.379.006-.822.385-.988.374-.166.821.004.988.385.665 1.513 1.003 3.132 1.003 4.811 0 6.617-5.383 12-12 12z"/><path d="m9.25 10.25c-.414 0-.75-.336-.75-.75 0-.551-.448-1-1-1s-1 .449-1 1c0 .414-.336.75-.75.75s-.75-.336-.75-.75c0-1.378 1.121-2.5 2.5-2.5s2.5 1.122 2.5 2.5c0 .414-.336.75-.75.75z"/><path d="m18.25 10.25c-.414 0-.75-.336-.75-.75 0-.551-.448-1-1-1s-1 .449-1 1c0 .414-.336.75-.75.75s-.75-.336-.75-.75c0-1.378 1.121-2.5 2.5-2.5s2.5 1.122 2.5 2.5c0 .414-.336.75-.75.75z"/><path d="m21.429 8c-1.424 0-2.583-1.159-2.583-2.583 0-1.156 1.505-3.425 1.966-4.093.279-.405.953-.405 1.234 0 .461.668 1.967 2.937 1.967 4.093 0 1.424-1.159 2.583-2.584 2.583zm0-4.873c-.591.967-1.083 1.942-1.083 2.29 0 .598.485 1.083 1.083 1.083s1.084-.486 1.084-1.083c0-.349-.492-1.323-1.084-2.29z"/></svg>