<svg enable-background="new 0 0 24 24" height="512" viewBox="0 0 24 24" width="512" xmlns="http://www.w3.org/2000/svg"><circle cx="12" cy="12" fill="#ffd54f" r="10.8"/><path d="m6.485 17.256.447-2.992s.847-.494 1.554.213.177 2.298.177 2.298l3.653-3.653c.391-.391 1.024-.391 1.414 0 .391.391.391 1.024 0 1.414l.236-.236c.391-.391 1.024-.391 1.414 0 .391.391.391 1.024 0 1.414l-.471.471c.391-.39 1.024-.39 1.414 0 .391.391.391 1.024 0 1.414l-.471.471c.391-.391 1.023-.391 1.414 0s.391 1.023 0 1.414l-2.593 2.593c-1.562 1.562-4.095 1.562-5.657 0l-1.403-1.403c-.897-.895-1.315-2.164-1.128-3.418z" fill="#ffa726"/><path d="m9.25 9c-.414 0-.75-.336-.75-.75 0-.551-.448-1-1-1s-1 .449-1 1c0 .414-.336.75-.75.75s-.75-.336-.75-.75c0-1.378 1.121-2.5 2.5-2.5s2.5 1.122 2.5 2.5c0 .414-.336.75-.75.75z"/><path d="m18.25 9c-.414 0-.75-.336-.75-.75 0-.551-.448-1-1-1s-1 .449-1 1c0 .414-.336.75-.75.75s-.75-.336-.75-.75c0-1.378 1.121-2.5 2.5-2.5s2.5 1.122 2.5 2.5c0 .414-.336.75-.75.75z"/><path d="m12 24c-6.617 0-12-5.383-12-12s5.383-12 12-12 12 5.383 12 12-5.383 12-12 12zm0-22.5c-5.79 0-10.5 4.71-10.5 10.5s4.71 10.5 10.5 10.5 10.5-4.71 10.5-10.5-4.71-10.5-10.5-10.5z"/><path d="m12.57 19.131c-.192 0-.384-.073-.53-.22-.293-.293-.293-.768 0-1.061l2.926-2.925c.072-.073.083-.157.083-.201s-.011-.128-.083-.201c-.111-.111-.291-.111-.402 0-.293.293-.768.293-1.061 0s-.293-.768 0-1.061c.695-.696 1.828-.696 2.523 0 .337.336.522.785.522 1.262s-.186.925-.522 1.262l-2.926 2.925c-.146.147-.337.22-.53.22z"/><path d="m14.033 20.594c-.192 0-.384-.073-.53-.22-.293-.293-.293-.768 0-1.061l2.438-2.438c.11-.111.11-.292 0-.403-.145-.144-.258-.144-.402 0-.292.293-.767.293-1.061.001-.293-.293-.293-.768 0-1.061.671-.674 1.847-.675 2.523-.001.695.696.695 1.828 0 2.523l-2.438 2.438c-.146.149-.337.222-.53.222z"/><path d="m11.839 23.997c-1.252 0-2.503-.476-3.456-1.429l-1.451-1.451c-1.091-1.09-1.606-2.652-1.379-4.178l.463-3.095c.034-.225.168-.422.364-.537.476-.276 1.612-.564 2.515.337.279.279.438.622.522.978l2.379-2.379c.676-.674 1.852-.674 2.523 0 .337.336.522.784.522 1.261s-.186.925-.522 1.262l-2.682 2.681c-.293.293-.768.293-1.061 0s-.293-.768 0-1.061l2.682-2.682c.072-.073.083-.157.083-.201s-.011-.128-.083-.201c-.145-.146-.258-.146-.402 0l-3.778 3.778c-.246.246-.63.289-.925.108-.296-.183-.427-.545-.317-.875.162-.494.255-1.354-.002-1.61-.135-.135-.277-.177-.402-.177h-.001l-.394 2.633c-.158 1.057.199 2.14.955 2.896l1.451 1.451c1.32 1.32 3.471 1.32 4.791 0l2.682-2.682c.073-.071.084-.156.084-.199s-.011-.128-.084-.201c-.146-.147-.256-.146-.402 0-.294.292-.769.292-1.061-.001-.293-.293-.293-.768 0-1.061.676-.675 1.85-.674 2.523.001.338.336.523.785.523 1.261s-.186.925-.523 1.262l-2.682 2.681c-.952.954-2.203 1.43-3.455 1.43z"/></svg>