<svg enable-background="new 0 0 24 24" height="512" viewBox="0 0 24 24" width="512" xmlns="http://www.w3.org/2000/svg"><path d="m.674 4.477s.315 3.654 1.953 5.085c.081.072.162.135.252.198l.117.072h5.229z" fill="#5d4037"/><path d="m23.326 4.477s-.315 3.654-1.953 5.085c-.081.072-.162.135-.252.198l-.117.072h-5.229z" fill="#5d4037"/><circle cx="12" cy="13.5" fill="#ffd54f" r="9.45"/><path d="m6.051 4.465.243-.441 1.287-2.565c.387-.711 1.134-1.152 1.935-1.152h4.968c.801 0 1.548.441 1.935 1.152l1.287 2.565.243.441s-3.305 1.373-5.949 1.373c-2.644.001-5.949-1.373-5.949-1.373z" fill="#5d4037"/><path d="m12 21.106c-2.477 0-4.634-1.592-5.37-3.962-.063-.205-.025-.428.102-.6.127-.173.329-.275.543-.275h9.45c.214 0 .417.102.543.275.127.173.165.396.102.6-.736 2.37-2.893 3.962-5.37 3.962z" fill="#e53935"/><path d="m22.112 3.972c.245 0 .457.192.457.446 0 .074-.018.153-.059.234-2.687 4.022-6.333 5.393-9.84 5.393-5.835 0-11.283-3.795-11.283-5.495 0-.153.044-.288.135-.403.085-.113.22-.176.361-.176.038 0 .077.005.116.014.099.099 5.198 1.377 9.999 1.377 4.488 0 9.879-1.257 9.999-1.377.038-.009.077-.013.115-.013z" fill="#6d4c41"/><path d="m7.35 14.259c-.119 0-.238-.035-.341-.105-.484-.328-2.899-2.048-2.899-3.641 0-1.024.889-1.856 1.981-1.856.468 0 .911.155 1.259.422.348-.267.791-.422 1.259-.422 1.092 0 1.981.833 1.981 1.856 0 1.594-2.415 3.313-2.899 3.641-.103.071-.222.105-.341.105z" fill="#e53935"/><path d="m16.6 14.259c-.119 0-.238-.035-.341-.105-.484-.328-2.899-2.048-2.899-3.641 0-1.024.889-1.856 1.981-1.856.468 0 .911.155 1.259.422.348-.267.791-.422 1.259-.422 1.092 0 1.981.833 1.981 1.856 0 1.594-2.415 3.313-2.899 3.641-.103.071-.222.105-.341.105z" fill="#e53935"/><path d="m12 21.375c-2.752 0-5.149-1.77-5.967-4.402-.07-.228-.028-.476.113-.668s.366-.305.604-.305h10.5c.238 0 .463.113.604.305.142.192.184.44.113.668-.818 2.632-3.215 4.402-5.967 4.402zm-4.11-3.875c.833 1.453 2.38 2.375 4.11 2.375s3.277-.922 4.11-2.375z"/><path d="m16.6 14.917c-.147 0-.294-.043-.421-.13-.598-.405-3.579-2.528-3.579-4.496 0-1.263 1.097-2.291 2.446-2.291.578 0 1.125.191 1.554.521.429-.33.976-.521 1.554-.521 1.349 0 2.445 1.028 2.445 2.292 0 1.968-2.981 4.09-3.579 4.496-.126.086-.273.129-.42.129zm-1.554-5.417c-.521 0-.946.355-.946.792 0 .767 1.368 2.101 2.5 2.953 1.132-.852 2.5-2.186 2.5-2.953 0-.437-.424-.792-.945-.792-.383 0-.735.2-.878.499-.125.261-.388.426-.677.426 0 0 0 0-.001 0-.288 0-.552-.167-.676-.427-.143-.298-.494-.498-.877-.498z"/><path d="m7.35 14.917c-.147 0-.294-.043-.421-.13-.598-.405-3.579-2.528-3.579-4.496 0-1.263 1.097-2.291 2.446-2.291.578 0 1.125.191 1.554.521.429-.33.976-.521 1.554-.521 1.349 0 2.445 1.028 2.445 2.292 0 1.968-2.981 4.09-3.579 4.496-.126.086-.273.129-.42.129zm-1.554-5.417c-.521 0-.946.355-.946.792 0 .767 1.368 2.101 2.5 2.953 1.132-.852 2.5-2.186 2.5-2.953 0-.437-.424-.792-.946-.792-.383 0-.735.2-.878.499-.125.261-.388.426-.677.426 0 0 0 0-.001 0-.288 0-.552-.167-.676-.427-.142-.298-.493-.498-.876-.498z"/><path d="m12 10.75c-.469 0-.916-.021-1.353-.052-.413-.029-.725-.388-.695-.801.029-.413.395-.733.801-.695.807.057 1.688.057 2.494 0 .399-.041.771.282.801.695.029.414-.282.772-.695.801-.437.031-.884.052-1.353.052z"/><path d="m12 10.75c-.469 0-.916-.021-1.353-.052-.413-.029-.725-.388-.695-.801.029-.413.395-.733.801-.695.807.057 1.688.057 2.494 0 .399-.041.771.282.801.695.029.414-.282.772-.695.801-.437.031-.884.052-1.353.052z"/><path d="m2.989 10.383c-.146 0-.293-.042-.423-.131-2.12-1.451-2.524-5.587-2.563-6.055-.035-.413.271-.775.684-.81.405-.04.775.271.811.684.092 1.072.614 4.051 1.917 4.942.342.234.429.701.195 1.042-.146.214-.381.328-.621.328z"/><path d="m21.011 10.383c-.239 0-.475-.114-.62-.327-.233-.342-.146-.809.195-1.042 1.303-.891 1.825-3.87 1.917-4.942.035-.413.406-.722.811-.684.412.035.719.397.684.81-.039.467-.443 4.604-2.563 6.055-.131.087-.279.13-.424.13z"/><path d="m12 6.43c-1.726 0-3.573-.132-5.49-.394-.012 0-.023-.001-.032-.003-.324-.04-.637-.081-.94-.131-.24-.04-.445-.194-.552-.413s-.099-.475.018-.689l1.868-3.395c.475-.865 1.383-1.405 2.369-1.405h5.518c.986 0 1.895.54 2.37 1.408l1.867 3.392c.117.213.124.47.018.689s-.312.373-.552.413c-.303.05-.616.091-.939.131-.01.001-.021.002-.032.003-1.918.262-3.765.394-5.491.394zm-5.156-1.861c1.813.24 3.542.361 5.156.361 1.619 0 3.353-.122 5.156-.362l-1.343-2.438c-.212-.39-.616-.63-1.054-.63h-5.518c-.438 0-.842.24-1.054.627z"/><path d="m17.17 9.79h-.01c-.414 0-.75-.336-.75-.75s.336-.75.75-.75.755.336.755.75-.331.75-.745.75z"/><path d="m16.38 10.08h-.01c-.414 0-.75-.336-.75-.75s.336-.75.75-.75.755.336.755.75-.331.75-.745.75z"/><path d="m6.74 9.76c-.199 0-.43-.099-.57-.239-.293-.293-.293-.767 0-1.06.237-.237.591-.281.875-.136.262.116.445.379.445.685 0 .414-.336.75-.75.75z"/><path d="m6.4 9.6c-.087 0-.177-.017-.263-.047-.006-.002-.012-.004-.018-.006-.044-.011-.087-.025-.126-.043-.782-.35-1.525-.766-2.208-1.236-.016-.011-.046-.033-.077-.057l-.001.002c-2.414-1.704-3.557-3.623-3.603-3.704-.156-.264-.134-.597.054-.839.188-.243.508-.343.8-.261.02.006 2.004.573 4.817 1.01.292.05.591.088.891.127 3.879.517 6.803.516 10.654 0 .033-.004.076-.007.109-.007.204-.033.503-.071.783-.119 2.825-.438 4.81-1.006 4.829-1.012.293-.083.612.018.8.261.188.242.21.575.055.839-.047.081-1.189 2-3.604 3.704-.03.023-.061.044-.081.057-.689.472-1.418.879-2.163 1.209-.48.24-1.089-.138-1.089-.669 0-.299.175-.557.428-.677.013-.007.026-.013.04-.019.666-.294 1.319-.659 1.938-1.083.792-.559 1.433-1.14 1.929-1.654-.783.168-1.748.355-2.84.524-.288.049-.608.091-.93.132-.03.006-.072.008-.104.008-1.893.26-3.698.39-5.42.39s-3.527-.13-5.52-.397c-.327-.04-.647-.082-.947-.134-1.089-.169-2.052-.355-2.834-.524.485.505 1.108 1.072 1.873 1.612.015.011.029.021.043.033.634.431 1.269.787 1.937 1.09.012.003.022.007.033.011.013.004.025.008.038.013.306.095.527.38.527.716 0 .415-.336.75-.75.75zm.511-1.279c.001 0 .002.001.002.002 0-.001-.001-.002-.002-.002z"/><path d="m12 10.75c-.469 0-.916-.021-1.353-.052-.146-.017-.194-.023-.242-.032-.406-.08-.671-.474-.592-.88.08-.406.477-.672.881-.591.055.004.106.011.157.021.608.029 1.585.043 2.39-.013.057-.008.111-.013.148-.013.414 0 .755.336.755.75 0 .406-.316.736-.719.75-.024.004-.049.007-.073.009-.436.03-.883.051-1.352.051z"/><path d="m12 24c-5.79 0-10.5-4.71-10.5-10.5 0-2.292.73-4.471 2.111-6.302.249-.331.72-.397 1.05-.147.331.25.397.72.147 1.05-1.183 1.569-1.808 3.436-1.808 5.399 0 4.963 4.037 9 9 9s9-4.037 9-9c0-1.963-.625-3.83-1.809-5.398-.25-.331-.184-.801.147-1.05.33-.25.8-.184 1.05.147 1.382 1.83 2.112 4.009 2.112 6.301 0 5.79-4.71 10.5-10.5 10.5z"/></svg>