<svg enable-background="new 0 0 24 24" height="512" viewBox="0 0 24 24" width="512" xmlns="http://www.w3.org/2000/svg"><circle cx="12" cy="12" fill="#ffd54f" r="10.8"/><path d="m11.824 17.506-.447-2.992s-.847-.494-1.554.213-.177 2.298-.177 2.298l-3.653-3.653c-.391-.391-1.024-.391-1.414 0-.391.391-.391 1.024 0 1.414l-.236-.236c-.391-.391-1.024-.391-1.414 0-.391.391-.391 1.024 0 1.414l.471.472c-.391-.39-1.024-.39-1.414 0-.391.391-.391 1.024 0 1.414l.471.471c-.391-.391-1.023-.391-1.414 0s-.391 1.023 0 1.414l2.593 2.593c1.562 1.562 4.095 1.562 5.657 0l1.403-1.403c.897-.896 1.315-2.165 1.128-3.419z" fill="#ffa726"/><path d="m12.176 17.506.447-2.992s.847-.494 1.554.213.177 2.298.177 2.298l3.653-3.653c.391-.391 1.024-.391 1.414 0 .391.391.391 1.024 0 1.414l.236-.236c.391-.391 1.024-.391 1.414 0 .391.391.391 1.024 0 1.414l-.471.472c.391-.39 1.024-.39 1.414 0 .391.391.391 1.024 0 1.414l-.471.471c.391-.391 1.023-.391 1.414 0s.391 1.023 0 1.414l-2.593 2.593c-1.562 1.562-4.095 1.562-5.657 0l-1.403-1.403c-.897-.896-1.315-2.165-1.128-3.419z" fill="#ffa726"/><path d="m22.209 17.47c-.106 0-.214-.022-.317-.071-.375-.176-.536-.622-.36-.998.642-1.372.968-2.853.968-4.401 0-5.79-4.71-10.5-10.5-10.5s-10.5 4.71-10.5 10.5c0 1.548.326 3.029.969 4.402.176.375.015.822-.36.998-.379.176-.823.013-.997-.361-.738-1.574-1.112-3.269-1.112-5.039 0-6.617 5.383-12 12-12s12 5.383 12 12c0 1.77-.374 3.465-1.111 5.039-.127.272-.398.431-.68.431z"/><path d="m12 24c-1.184 0-2.346-.177-3.455-.524-.396-.125-.615-.545-.491-.94s.541-.616.94-.491c1.928.605 4.084.605 6.012 0 .398-.125.815.096.94.491.124.395-.096.816-.491.94-1.109.347-2.271.524-3.455.524z"/><path d="m9.25 9c-.414 0-.75-.336-.75-.75 0-.551-.448-1-1-1s-1 .449-1 1c0 .414-.336.75-.75.75s-.75-.336-.75-.75c0-1.378 1.121-2.5 2.5-2.5s2.5 1.122 2.5 2.5c0 .414-.336.75-.75.75z"/><path d="m18.25 9c-.414 0-.75-.336-.75-.75 0-.551-.448-1-1-1s-1 .449-1 1c0 .414-.336.75-.75.75s-.75-.336-.75-.75c0-1.378 1.121-2.5 2.5-2.5s2.5 1.122 2.5 2.5c0 .414-.336.75-.75.75z"/><path d="m12 13.02c-1.912 0-3.824-.728-5.28-2.184-.293-.293-.293-.768 0-1.061s.768-.293 1.061 0c2.326 2.326 6.113 2.326 8.439 0 .293-.293.768-.293 1.061 0s.293.768 0 1.061c-1.457 1.456-3.369 2.184-5.281 2.184z"/><path d="m5.758 19.543c-.192 0-.384-.073-.53-.22l-2.829-2.829c-.331-.331-.513-.77-.513-1.237 0-.468.183-.907.513-1.238.684-.682 1.794-.682 2.476 0 .293.293.293.768 0 1.061s-.768.293-1.061 0c-.099-.098-.258-.096-.354 0-.063.064-.073.138-.073.177s.01.113.073.177l2.829 2.829c.293.293.293.768 0 1.061-.147.146-.339.219-.531.219z"/><path d="m4.344 20.957c-.192 0-.384-.073-.53-.22l-2.358-2.357c-.683-.682-.683-1.793 0-2.475.682-.682 1.791-.681 2.475 0 .293.293.293.768 0 1.061-.292.293-.767.294-1.061.001-.098-.098-.256-.098-.354 0-.098.097-.098.256 0 .354l2.357 2.357c.293.293.293.768 0 1.061-.145.145-.337.218-.529.218z"/><path d="m6.465 24.25c-1.269 0-2.462-.494-3.358-1.391l-2.594-2.593c-.681-.683-.681-1.792-.001-2.475.684-.683 1.793-.683 2.477-.001.293.293.293.768 0 1.061-.292.293-.767.294-1.061.001-.1-.099-.255-.101-.354 0-.099.099-.099.254.001.354l2.593 2.592c1.227 1.228 3.369 1.228 4.596 0l1.403-1.403c.725-.725 1.067-1.764.916-2.778l-.377-2.523c-.109.004-.233.046-.352.164-.235.235-.155 1.05.005 1.53.109.33-.021.692-.317.875-.296.182-.68.138-.925-.108l-3.653-3.653c-.098-.098-.256-.098-.354 0-.063.064-.073.138-.073.177s.01.113.073.176l2.593 2.593c.293.293.293.768 0 1.061s-.768.293-1.061 0l-2.593-2.593c-.33-.33-.513-.77-.513-1.237s.182-.907.513-1.237c.682-.683 1.793-.683 2.475 0l2.27 2.269c.084-.333.238-.652.5-.914.883-.883 1.997-.603 2.462-.331.196.115.33.312.364.537l.447 2.993c.221 1.483-.28 3.001-1.34 4.06l-1.403 1.403c-.897.897-2.091 1.391-3.359 1.391z"/><path d="m18.242 19.543c-.192 0-.384-.073-.53-.22-.293-.293-.293-.768 0-1.061l2.829-2.829c.063-.064.073-.138.073-.177s-.01-.113-.073-.176c-.097-.098-.256-.099-.354 0-.293.293-.768.293-1.061 0s-.293-.768 0-1.061c.683-.684 1.795-.682 2.476 0 .33.33.513.77.513 1.237s-.182.907-.513 1.237l-2.829 2.829c-.147.148-.338.221-.531.221z"/><path d="m19.656 20.957c-.192 0-.384-.073-.53-.22-.293-.293-.293-.768 0-1.061l2.357-2.357c.098-.098.098-.256 0-.354-.098-.097-.256-.097-.354 0-.294.293-.769.292-1.061-.001-.293-.293-.293-.768 0-1.061.684-.681 1.791-.681 2.475 0 .683.683.683 1.793 0 2.476l-2.357 2.357c-.146.148-.337.221-.53.221z"/><path d="m17.535 24.25c-1.269 0-2.462-.494-3.358-1.391l-1.403-1.403c-1.06-1.059-1.561-2.577-1.34-4.06l.447-2.993c.034-.225.168-.422.364-.537.466-.272 1.579-.552 2.462.331.262.262.416.581.5.914l2.27-2.269c.682-.683 1.793-.683 2.475 0 .331.331.513.77.513 1.237 0 .468-.183.907-.513 1.238l-2.593 2.592c-.293.293-.768.293-1.061 0s-.293-.768 0-1.061l2.593-2.593c.063-.064.073-.138.073-.177s-.01-.113-.073-.177c-.098-.098-.256-.098-.354 0l-3.653 3.653c-.246.246-.63.29-.925.108-.296-.183-.427-.545-.317-.875.154-.471.245-1.29.005-1.53-.118-.118-.243-.158-.352-.164l-.377 2.523c-.151 1.014.191 2.053.916 2.778l1.403 1.403c1.227 1.228 3.369 1.228 4.596 0l2.594-2.593c.099-.099.099-.255-.001-.354-.099-.1-.255-.098-.354.001-.293.293-.768.292-1.061-.001s-.293-.768 0-1.061c.685-.683 1.793-.681 2.476 0 .681.683.681 1.793.001 2.475l-2.595 2.593c-.896.899-2.089 1.393-3.358 1.393z"/></svg>