<svg enable-background="new 0 0 24 24" height="512" viewBox="0 0 24 24" width="512" xmlns="http://www.w3.org/2000/svg"><circle cx="12" cy="12" fill="#ffd54f" r="10.8"/><circle cx="7" cy="9" fill="#6d4c41" r="1.8"/><circle cx="17" cy="9" fill="#6d4c41" r="1.8"/><path d="m11.751 20c-.275 0-.54-.152-.672-.415-.186-.371-.035-.821.336-1.006l1.277-.639-1.328-.797c-.225-.135-.364-.379-.364-.643s.139-.508.364-.643l1.328-.797-1.277-.639c-.371-.186-.521-.636-.336-1.006.186-.37.636-.521 1.006-.335l2.5 1.25c.245.123.404.369.414.642.011.273-.129.531-.363.672l-1.428.856 1.428.857c.234.141.374.398.363.672-.01.273-.169.52-.414.642l-2.5 1.25c-.107.054-.222.079-.334.079z"/><path d="m12 24c-6.617 0-12-5.383-12-12s5.383-12 12-12 12 5.383 12 12-5.383 12-12 12zm0-22.5c-5.79 0-10.5 4.71-10.5 10.5s4.71 10.5 10.5 10.5 10.5-4.71 10.5-10.5-4.71-10.5-10.5-10.5z"/><path d="m7 11c-1.103 0-2-.897-2-2s.897-2 2-2 2 .897 2 2-.897 2-2 2zm0-2.5c-.275 0-.5.224-.5.5s.225.5.5.5.5-.224.5-.5-.225-.5-.5-.5z"/><path d="m17 11c-1.103 0-2-.897-2-2s.897-2 2-2 2 .897 2 2-.897 2-2 2zm0-2.5c-.275 0-.5.224-.5.5s.225.5.5.5.5-.224.5-.5-.225-.5-.5-.5z"/></svg>