<svg enable-background="new 0 0 24 24" height="512" viewBox="0 0 24 24" width="512" xmlns="http://www.w3.org/2000/svg"><path d="m3.756 14.332c-.014 0-.027 0-.041-.001-.316-.019-.576-.256-.626-.568-.063-.395-.095-.818-.098-1.261-.06-.407-.441-3.032-.441-4.443 0-3.818 2.992-4.964 4.79-5.068.576-.492 2.292-1.763 4.66-1.763 3.654 0 9.45 1.854 9.45 6.831 0 1.388-.381 4.035-.441 4.442-.002.446-.035.853-.098 1.246-.051.312-.311.547-.626.566-.313.023-.601-.184-.689-.488l-.905-3.151c-6.036-.075-8.75-1.479-9.96-2.623-.787 1.522-2.583 2.243-3.385 2.498l-.941 3.292c-.083.292-.349.491-.649.491z" fill="#6d4c41"/><path d="m2.747 14.499-.259-2.007c.334-.036.574-.337.537-.67-.037-.334-.339-.585-.67-.537-1.135.125-1.991 1.077-1.991 2.216 0 1.228.999 2.228 2.227 2.228.126 0 .253-.011.379-.035.33-.062.547-.379.486-.709-.062-.33-.38-.548-.709-.486z" fill="#ffb74d"/><path d="m21.644 11.285c-.336-.047-.634.203-.67.537-.037.333.204.634.538.67l-.104 2.021c-.058 0-.111-.004-.164-.014-.329-.061-.647.157-.709.486-.062.33.156.647.486.709.125.023.25.035.387.035 1.228 0 2.227-.999 2.227-2.227 0-1.14-.856-2.092-1.991-2.217z" fill="#ffb74d"/><path d="m12 22.128c-4.454 0-8.286-3.321-8.913-7.726-.013-.094-.007-.189.019-.28l1.044-3.654c.067-.235.257-.416.495-.472.031-.007 3.115-.762 3.115-2.889 0-.342.255-.629.595-.671.343-.032.655.179.736.511.004.011 1.04 3.031 10.108 3.031.301 0 .566.2.649.489l1.044 3.636c.018.061.026.123.026.186v.009c0 .033-.002.064-.007.097-.634 4.408-4.466 7.733-8.911 7.733z" fill="#ffd54f"/><path d="m8 15.5c-.827 0-1.5-.673-1.5-1.5s.673-1.5 1.5-1.5 1.5.673 1.5 1.5-.673 1.5-1.5 1.5z" fill="#6d4c41"/><path d="m16 15.5c-.827 0-1.5-.673-1.5-1.5s.673-1.5 1.5-1.5 1.5.673 1.5 1.5-.673 1.5-1.5 1.5z" fill="#6d4c41"/><path d="m12 23c-5.502 0-9.982-4.469-10.013-9.973-.066-.451-.487-3.37-.487-4.94 0-4.237 3.326-5.51 5.326-5.625.639-.549 2.54-1.962 5.174-1.962 4.06 0 10.5 2.06 10.5 7.587 0 1.544-.421 4.488-.487 4.939-.031 5.505-4.511 9.974-10.013 9.974zm0-21c-2.584 0-4.327 1.716-4.344 1.733-.141.141-.332.22-.531.22-.42.003-4.125.144-4.125 4.134 0 1.557.474 4.74.479 4.772.005.037.008.074.008.111 0 4.703 3.819 8.529 8.513 8.529s8.513-3.826 8.513-8.529c0-.037.003-.073.008-.11.004-.032.479-3.245.479-4.773 0-4.198-5.263-6.087-9-6.087z"/><path d="m8 16c-1.103 0-2-.897-2-2s.897-2 2-2 2 .897 2 2-.897 2-2 2zm0-2.5c-.276 0-.5.225-.5.5s.224.5.5.5.5-.225.5-.5-.224-.5-.5-.5z"/><path d="m2.75 16.25c-1.516 0-2.75-1.233-2.75-2.75 0-1.405 1.057-2.581 2.458-2.735.409-.062.782.252.828.663.045.411-.251.782-.664.827-.629.069-1.122.616-1.122 1.245 0 .753.687 1.371 1.442 1.232.402-.077.799.192.875.6s-.192.799-.6.875c-.155.029-.311.043-.467.043z"/><path d="m21.25 16.25c-.169 0-.323-.015-.478-.043-.407-.076-.676-.468-.6-.875s.471-.675.875-.6c.065.013.131.018.202.018.689 0 1.25-.561 1.25-1.25 0-.629-.493-1.176-1.122-1.245-.412-.045-.709-.416-.664-.827s.412-.724.828-.663c1.402.154 2.459 1.33 2.459 2.735 0 1.517-1.233 2.75-2.75 2.75z"/><path d="m16 16c-1.103 0-2-.897-2-2s.897-2 2-2 2 .897 2 2-.897 2-2 2zm0-2.5c-.276 0-.5.225-.5.5s.224.5.5.5.5-.225.5-.5-.224-.5-.5-.5z"/><path d="m2.84 15.06c-.068 0-.138-.009-.207-.029-.398-.113-.629-.528-.515-.927l1.16-4.06c.075-.261.286-.462.55-.524.035-.008 3.462-.847 3.462-3.21 0-.38.284-.699.661-.745.377-.038.729.199.818.567.004.013 1.155 3.368 11.231 3.368.334 0 .629.222.721.543l1.16 4.05c.114.398-.116.813-.515.928-.398.115-.813-.116-.928-.514l-1.005-3.511c-6.707-.083-9.722-1.644-11.066-2.914-.874 1.691-2.87 2.492-3.761 2.775l-1.045 3.658c-.094.33-.394.545-.721.545z"/><path d="m12 19.495c-1.094 0-2.188-.401-3.021-1.205-.298-.288-.306-.763-.019-1.061.288-.3.763-.305 1.061-.02 1.091 1.055 2.867 1.055 3.958 0 .298-.285.773-.28 1.061.02.288.298.279.772-.019 1.061-.833.804-1.927 1.205-3.021 1.205z"/></svg>