<svg enable-background="new 0 0 24 24" height="512" viewBox="0 0 24 24" width="512" xmlns="http://www.w3.org/2000/svg"><path d="m20.269 23.288c-1.262 0-2.402-.795-2.838-1.978-.07-.191-.04-.405.081-.57l2.405-3.272c.121-.165.302-.265.524-.247 1.607.092 2.865 1.422 2.865 3.029 0 .265-.112.51-.317.689-.376.329-1.075.384-1.653.378.015.581-.048 1.277-.378 1.653-.179.206-.424.318-.689.318z" fill="#6d4c41"/><path d="m3.732 23.289c-.265 0-.51-.112-.689-.317-.33-.376-.393-1.072-.378-1.653-.577.009-1.277-.049-1.653-.378-.205-.179-.317-.424-.317-.689 0-1.612 1.26-2.939 2.869-3.021.199-.017.398.081.519.245l2.413 3.257c.122.164.153.378.082.57-.433 1.188-1.577 1.986-2.846 1.986z" fill="#6d4c41"/><path d="m2.801 16.431c-1.34 0-2.43-1.09-2.43-2.43 0-1.236.928-2.276 2.158-2.418.327-.029.635.2.673.534.039.333-.2.634-.534.673-.617.071-.537 2.426.133 2.426.331-.045.679.185.725.517s-.146.638-.479.684c-.086.013-.16.014-.246.014z" fill="#ffb74d"/><path d="m21.195 16.431c-.086 0-.16-.002-.246-.013-.332-.047-.564-.354-.518-.686.047-.331.352-.566.686-.518h.004c.747 0 .824-2.352.207-2.424-.334-.039-.573-.34-.534-.673.038-.334.346-.565.673-.534 1.23.142 2.158 1.183 2.158 2.418 0 1.34-1.09 2.43-2.43 2.43z" fill="#ffb74d"/><path d="m2.91 15.805c-.414 0-.75-.331-.75-.745v-.01c0-.414.336-.75.75-.75s.75.336.75.75-.336.755-.75.755z"/><path d="m12.009 23.062c-4.844 0-8.12-3.986-8.853-7.922-.008-.041-.011-.083-.011-.124 0-.077.013-.163.04-.236l1.467-4.095c.096-.268.351-.447.635-.447 4.425 0 6.09-3.614 6.107-3.65.108-.243.35-.4.616-.4.267 0 .508.157.617.401.066.146 1.695 3.622 6.133 3.622.287 0 .544.183.638.454l1.422 4.113c.038.11.047.228.026.341-.719 3.947-3.984 7.943-8.837 7.943z" fill="#ffd54f"/><g fill="#6d4c41"><path d="m3.143 13.755c-.019 0-.038-.001-.057-.002-.328-.021-.599-.222-.66-.49-.112-.488-.169-.998-.169-1.516v-4.215c0-4.476 5.056-6.514 9.753-6.514 4.838 0 9.734 2.24 9.734 6.522v4.217c0 .516-.057 1.021-.169 1.501-.063.268-.336.468-.666.488-.322.017-.634-.147-.742-.405l-1.374-3.289c-3.717-.152-5.813-1.904-6.783-3.025-.97 1.127-3.067 2.896-6.76 3.049l-1.42 3.278c-.104.242-.381.401-.687.401z"/><path d="m8 14.594c-.603 0-1.094-.491-1.094-1.094s.491-1.094 1.094-1.094 1.094.491 1.094 1.094-.491 1.094-1.094 1.094z"/><path d="m16 14.594c-.603 0-1.094-.491-1.094-1.094s.491-1.094 1.094-1.094 1.094.491 1.094 1.094-.491 1.094-1.094 1.094z"/></g><path d="m2.91 15.805c-.414 0-.75-.331-.75-.745 0-.086.015-.182.044-.263l1.63-4.55c.106-.298.39-.497.706-.497 4.917 0 6.767-4.016 6.785-4.056.12-.271.389-.444.685-.444.297 0 .564.175.686.445.073.162 1.883 4.024 6.814 4.024.319 0 .604.203.709.505l1.58 4.57c.135.392-.072.818-.464.954-.391.139-.818-.072-.954-.464l-1.41-4.079c-3.813-.188-5.965-2.361-6.96-3.752-.995 1.398-3.147 3.593-6.938 3.782l-1.449 4.045c-.098.304-.38.525-.714.525z"/><path d="m12.01 24c-5.988 0-10.01-5.528-10.01-10.691v-5.234c0-5.548 5.188-8.075 10.01-8.075 4.965 0 9.99 2.777 9.99 8.087v5.232c0 5.159-4.015 10.681-9.99 10.681zm0-22.5c-4.099 0-8.51 2.058-8.51 6.575v5.233c0 4.438 3.42 9.191 8.51 9.191 5.079 0 8.49-4.747 8.49-9.181v-5.231c0-4.525-4.401-6.587-8.49-6.587z"/><path d="m20.25 24c-1.558 0-2.966-.981-3.504-2.441-.143-.389.057-.819.445-.963.388-.143.818.057.963.445.298.811 1.012 1.358 1.855 1.446.073-.333.076-1.028-.003-1.64-.03-.23.049-.463.213-.628.165-.165.396-.246.628-.213.61.077 1.308.078 1.64.003-.115-1.079-1.001-1.938-2.11-2.001-.413-.023-.729-.378-.706-.792.022-.413.373-.733.792-.706 1.983.114 3.537 1.757 3.537 3.74 0 .327-.139.63-.392.851-.464.406-1.328.474-2.041.467.019.718-.06 1.577-.467 2.041-.22.252-.523.391-.85.391z"/><path d="m3.75 24c-.327 0-.63-.139-.851-.392-.407-.464-.485-1.323-.467-2.041-.714.012-1.576-.061-2.041-.467-.252-.22-.391-.523-.391-.85 0-1.99 1.556-3.629 3.542-3.729.401-.04.766.298.787.711.021.414-.298.767-.711.787-1.106.056-1.99.911-2.105 1.991.333.075 1.029.075 1.64-.003.231-.033.464.049.628.213.164.165.243.397.213.628-.079.611-.076 1.307-.003 1.64.84-.091 1.572-.652 1.865-1.454.142-.391.573-.59.961-.447.39.142.59.572.447.961-.535 1.467-1.948 2.452-3.514 2.452z"/><path d="m12 19.995c-1.094 0-2.188-.401-3.021-1.205-.299-.288-.307-.763-.02-1.061.289-.3.763-.305 1.061-.02 1.092 1.055 2.867 1.055 3.959 0 .299-.285.772-.28 1.061.02.287.298.279.772-.02 1.061-.832.804-1.926 1.205-3.02 1.205z"/><path d="m8.25 15.5c-.965 0-1.75-.785-1.75-1.75s.785-1.75 1.75-1.75 1.75.785 1.75 1.75-.785 1.75-1.75 1.75zm0-2c-.138 0-.25.112-.25.25 0 .275.5.275.5 0 0-.138-.112-.25-.25-.25z"/><path d="m15.75 15.5c-.965 0-1.75-.785-1.75-1.75s.785-1.75 1.75-1.75 1.75.785 1.75 1.75-.785 1.75-1.75 1.75zm0-2c-.138 0-.25.112-.25.25 0 .275.5.275.5 0 0-.138-.112-.25-.25-.25z"/><path d="m3 17c-1.654 0-3-1.346-3-3 0-1.525 1.146-2.81 2.664-2.985.404-.036.784.247.831.659.048.411-.247.783-.659.831-.762.088-1.336.731-1.336 1.495 0 .827.673 1.5 1.5 1.5.41-.058.838.229.895.639s-.181.787-.591.845c-.107.014-.198.016-.304.016z"/><path d="m21 17c-.106 0-.197-.002-.304-.017-.41-.058-.696-.437-.64-.847.058-.41.431-.695.847-.64h.005c.922 0 1.592-.672 1.592-1.497 0-.764-.574-1.407-1.336-1.495-.412-.048-.707-.42-.659-.831.047-.412.428-.697.831-.659 1.518.176 2.664 1.461 2.664 2.986 0 1.654-1.346 3-3 3z"/></svg>