<svg enable-background="new 0 0 24 24" height="512" viewBox="0 0 24 24" width="512" xmlns="http://www.w3.org/2000/svg"><path d="m2.832 16.431c-1.34 0-2.43-1.09-2.43-2.43 0-1.236.927-2.276 2.157-2.418.331-.036.635.2.674.534.038.333-.2.634-.534.673-.617.071-.537 2.426.132 2.426.085 0 .163-.009.232-.028.324-.09.657.105.744.43.087.324-.106.657-.43.744-.171.046-.354.069-.545.069z" fill="#ffb74d"/><path d="m21.168 16.431c-.191 0-.375-.023-.545-.069-.324-.086-.517-.419-.43-.744.086-.325.422-.52.744-.43.069.018.147.028.232.028.67 0 .749-2.355.132-2.426-.333-.039-.572-.34-.534-.673.039-.334.338-.57.674-.534 1.23.142 2.157 1.183 2.157 2.418 0 1.34-1.09 2.43-2.43 2.43z" fill="#ffb74d"/><path d="m12.001 23.137c-3.546 0-7.612-3.762-8.7-8.051-.025-.097-.027-.199-.008-.296l1.305-6.624c.042-.217.186-.398.387-.488.2-.089.432-.075.621.038.018.011 2.171 1.245 6.394 1.245 4.222 0 6.39-1.259 6.412-1.272.189-.111.421-.127.622-.036.2.09.346.271.388.486l1.296 6.632c.019.098.017.199-.008.295-1.088 4.3-5.159 8.071-8.709 8.071z" fill="#ffd54f"/><g fill="#6d4c41"><path d="m8 14.715c-.67 0-1.215-.545-1.215-1.215s.545-1.215 1.215-1.215 1.215.545 1.215 1.215-.545 1.215-1.215 1.215z"/><path d="m16 14.85c-.744 0-1.35-.606-1.35-1.35s.606-1.35 1.35-1.35 1.35.606 1.35 1.35-.606 1.35-1.35 1.35z"/><path d="m3.272 14.79c-.307 0 .106-.158.028-.456-.199-.768-.3-1.543-.3-2.303v-4.05c0-4.239 3.526-7.066 8.983-7.2 5.491.134 9.017 2.961 9.017 7.2v4.05c0 .742.575 1.756.382 2.525-.076.307-.99.591-.672.512.912-.227.213-.387.152-.698l-1.803-6.029c-1.073.435-3.958 1.215-7.059 1.215-3.097 0-6.314-1.074-7.381-1.499l-1.139 5.78c-.061.309.127.943-.188.953-.007 0-.013 0-.02 0z"/></g><path d="m8 15.25c-.965 0-1.75-.785-1.75-1.75s.785-1.75 1.75-1.75 1.75.785 1.75 1.75-.785 1.75-1.75 1.75zm0-2c-.138 0-.25.112-.25.25 0 .275.5.275.5 0 0-.138-.112-.25-.25-.25z"/><path d="m16 15.25c-.965 0-1.75-.785-1.75-1.75s.785-1.75 1.75-1.75 1.75.785 1.75 1.75-.785 1.75-1.75 1.75zm0-2c-.138 0-.25.112-.25.25 0 .275.5.275.5 0 0-.138-.112-.25-.25-.25z"/><path d="m12 24c-4.408 0-10-5.414-10-11.5v-4.5c0-4.708 3.918-7.848 9.981-8h.037c6.064.152 9.982 3.292 9.982 8v4.5c0 6.086-5.592 11.5-10 11.5zm0-22.5c-3.926.104-8.5 1.867-8.5 6.5v4.5c0 5.424 5.221 10 8.5 10s8.5-4.576 8.5-10v-4.5c0-4.633-4.574-6.396-8.5-6.5z"/><path d="m3.061 15.62c-.048 0-.097-.005-.146-.014-.406-.08-.671-.475-.591-.881l1.45-7.36c.047-.24.208-.441.431-.541.223-.099.479-.083.69.042.021.013 2.413 1.384 7.105 1.384 4.691 0 7.1-1.398 7.124-1.413.21-.123.468-.141.691-.04.223.1.384.301.431.54l1.44 7.369c.08.406-.186.8-.592.88-.411.069-.801-.186-.88-.593l-1.256-6.425c-1.192.484-3.513 1.182-6.958 1.182-3.441 0-5.752-.685-6.939-1.157l-1.265 6.422c-.07.357-.384.605-.735.605z"/><path d="m12 19.995c-1.094 0-2.188-.401-3.021-1.205-.298-.288-.306-.763-.019-1.061.288-.3.764-.305 1.061-.02 1.091 1.055 2.867 1.055 3.958 0 .298-.285.774-.28 1.061.02.288.298.279.772-.019 1.061-.833.804-1.927 1.205-3.021 1.205z"/><path d="m3 17c-1.654 0-3-1.346-3-3 0-1.525 1.145-2.81 2.664-2.985.411-.041.784.247.832.659.047.411-.247.783-.659.831-.762.088-1.337.731-1.337 1.495 0 .827.673 1.5 1.5 1.5.105 0 .202-.012.287-.034.399-.11.811.13.918.531.107.4-.131.812-.531.918-.212.057-.438.085-.674.085z"/><path d="m21 17c-.236 0-.462-.028-.673-.085-.4-.106-.638-.518-.531-.918.106-.4.52-.641.918-.531.084.022.181.034.286.034.827 0 1.5-.673 1.5-1.5 0-.764-.575-1.407-1.336-1.495-.412-.048-.706-.42-.659-.831.048-.412.42-.7.832-.659 1.518.175 2.663 1.46 2.663 2.985 0 1.654-1.346 3-3 3z"/></svg>