<svg enable-background="new 0 0 24 24" height="512" viewBox="0 0 24 24" width="512" xmlns="http://www.w3.org/2000/svg"><path d="m3.243 12.809c.098-.32-.081-.66-.402-.759-.162-.05-.334-.075-.511-.075-1.117 0-2.025.908-2.025 2.025s.908 2.025 2.025 2.025c.177 0 .348-.025.511-.075.321-.098.501-.438.402-.759-.08-.262-.321-.42-.581-.42v-1.542c.26 0 .501-.158.581-.42z" fill="#ffb74d"/><path d="m21.116 12.031c-.327.076-.53.403-.454.729.065.28.316.459.592.458v1.562c-.276-.001-.527.179-.592.459-.076.327.127.653.454.729.16.037.318.056.469.056 1.117 0 2.025-.908 2.025-2.025 0-1.267-1.155-2.277-2.494-1.968z" fill="#ffb74d"/><path d="m20.958 14c0 4.959-4.041 9-9 9s-9-4.041-9-9c0-3.6 2.124-6.705 5.184-8.145.432-.216.891-.387 1.368-.513.774-.225 1.602-.342 2.448-.342s1.674.117 2.448.342c.018.108.027.216.027.333 0 1.368 1.251 2.205 1.341.18 3.06 1.44 5.184 4.545 5.184 8.145z" fill="#ffd54f"/><path d="m21.16 16.06c-.414 0-.75-.336-.75-.75s.336-.76.75-.76.75.326.75.74v.02c0 .414-.336.75-.75.75z"/><path d="m3.021 14.944c-.011 0-.022 0-.033-.001-.256-.016-.466-.206-.507-.46-.051-.318-.078-.661-.08-1.022-.049-.33-.357-2.455-.357-3.599 0-.136.006-.257.014-.385.016-.289.257-.533.547-.533h1.822c.172 0 .333.08.436.218.105.138.138.316.091.481l-1.407 4.906c-.068.235-.283.395-.526.395z" fill="#6d4c41"/><path d="m21.16 16.04c-.333 0-.628-.22-.721-.542l-1.93-6.7c-.065-.227-.021-.471.121-.659s.364-.299.6-.299h2.489c.377 0 .696.28.744.654.025.192.037.394.037.596 0 1.542-.424 4.483-.49 4.937-.003.497-.038.951-.109 1.385-.057.347-.346.606-.696.628-.016 0-.03 0-.045 0z" fill="#6d4c41"/><path d="m3.45 9.025c-.125 0-.25-.035-.359-.103-.068-.043-1.666-1.069-1.666-3.11 0-2.228 4.026-5.337 10.584-5.337 6.546 0 10.566 3.109 10.566 5.337 0 2.042-1.599 3.067-1.666 3.11-.185.115-.415.137-.618.051-.031-.012-3.157-1.295-6.867-1.579l-2.9.002c-3.668.283-6.784 1.564-6.815 1.577-.083.035-.171.052-.259.052z" fill="#42a5f5"/><path d="m12 10.994c-2.708 0-5.417-.557-7.94-1.67-.222-.098-.365-.32-.362-.562.002-.243.149-.462.374-.555.122-.051 3.014-1.24 6.554-1.511l2.703-.002c3.586.273 6.478 1.462 6.6 1.512.224.094.371.313.373.556s-.14.464-.362.562c-2.523 1.113-5.232 1.67-7.94 1.67z" fill="#1976d2"/><path d="m12.009 8.43c-.134 0-.267-.044-.378-.132l-1.832-1.458c-.144-.115-.229-.29-.229-.475v-2.188c0-.335.272-.607.608-.607h3.645c.335 0 .608.272.608.607v2.187c0 .184-.083.358-.227.474l-1.814 1.458c-.111.089-.246.134-.381.134z" fill="#ffd54f"/><path d="m8 15.35c-.744 0-1.35-.606-1.35-1.35s.606-1.35 1.35-1.35 1.35.606 1.35 1.35-.606 1.35-1.35 1.35z" fill="#6d4c41"/><path d="m16 15.215c-.67 0-1.215-.545-1.215-1.215s.545-1.215 1.215-1.215 1.215.545 1.215 1.215-.545 1.215-1.215 1.215z" fill="#6d4c41"/><path d="m12 24c-5.501 0-9.979-4.469-10.01-9.974-.067-.452-.49-3.368-.49-4.936 0-.187.009-.353.02-.528.023-.413.376-.759.792-.718.414.023.73.366.707.779-.01.172-.019.312-.019.467 0 1.556.477 4.736.481 4.768.006.037.009.075.009.112 0 4.703 3.817 8.53 8.51 8.53s8.51-3.827 8.51-8.53c0-.037.003-.074.008-.111.004-.033.482-3.243.482-4.769 0-.138-.008-.275-.024-.404-.053-.411.238-.787.648-.84.416-.05.787.237.84.648.024.192.036.394.036.596 0 1.542-.424 4.483-.49 4.937-.031 5.503-4.509 9.973-10.01 9.973z"/><path d="m2.84 16.06c-.068 0-.138-.009-.207-.029-.397-.114-.628-.529-.514-.928l1.66-5.79c.113-.398.526-.631.928-.514.397.114.628.529.514.928l-1.66 5.79c-.094.329-.395.543-.721.543z"/><path d="m21.16 16.055c-.365 0-.669-.257-.736-.601l-1.645-5.728c-.114-.398.115-.813.514-.928.397-.113.812.115.928.514l1.66 5.78c.02.067.029.137.029.207 0 .415-.336.756-.75.756z"/><path d="m8 15.75c-.965 0-1.75-.785-1.75-1.75s.785-1.75 1.75-1.75 1.75.785 1.75 1.75-.785 1.75-1.75 1.75zm0-2c-.138 0-.25.112-.25.25 0 .275.5.275.5 0 0-.138-.112-.25-.25-.25z"/><path d="m16 15.75c-.965 0-1.75-.785-1.75-1.75s.785-1.75 1.75-1.75 1.75.785 1.75 1.75-.785 1.75-1.75 1.75zm0-2c-.138 0-.25.112-.25.25 0 .275.5.275.5 0 0-.138-.112-.25-.25-.25z"/><path d="m12 19.995c-1.094 0-2.188-.401-3.021-1.205-.299-.288-.307-.763-.02-1.061.288-.3.763-.305 1.061-.02 1.092 1.055 2.867 1.055 3.959 0 .298-.285.772-.28 1.061.02.287.298.279.772-.02 1.061-.832.804-1.926 1.205-3.02 1.205z"/><path d="m2.5 9.5c-.139 0-.277-.039-.398-.114-.076-.048-1.852-1.188-1.852-3.456 0-2.476 4.474-5.93 11.76-5.93 7.273 0 11.74 3.454 11.74 5.93 0 2.269-1.776 3.408-1.852 3.456-.206.129-.461.151-.687.057-.034-.014-3.508-1.438-7.63-1.754-.413-.032-.722-.393-.69-.806s.39-.718.806-.69c3.564.273 6.597 1.3 7.675 1.703.341-.316.878-.974.878-1.966 0-1.325-3.484-4.43-10.24-4.43-6.77 0-10.26 3.104-10.26 4.43 0 .995.537 1.651.877 1.966 1.077-.402 4.11-1.43 7.676-1.703.411-.01.774.277.806.69s-.277.773-.69.806c-4.134.316-7.596 1.739-7.63 1.754-.094.038-.191.057-.289.057z"/><path d="m12.012 9c-.165 0-.33-.055-.467-.163l-2.262-1.8c-.179-.142-.283-.358-.283-.587v-2.7c0-.414.336-.75.75-.75h4.5c.414 0 .75.336.75.75v2.7c0 .228-.103.442-.28.585l-2.238 1.8c-.137.109-.304.165-.47.165zm-1.512-2.911 1.51 1.201 1.49-1.199v-1.591h-3z"/><path d="m12 11.495c-3.344 0-6.688-.687-9.803-2.059-.379-.166-.551-.61-.384-.989.168-.379.61-.548.989-.384 5.844 2.576 12.551 2.576 18.395 0 .378-.164.821.005.989.384.167.379-.005.822-.384.989-3.114 1.373-6.458 2.059-9.802 2.059z"/><path d="m2.75 16.75c-1.517 0-2.75-1.233-2.75-2.75 0-1.372 1.023-2.543 2.381-2.724.417-.062.788.232.843.644s-.234.788-.644.843c-.616.082-1.08.614-1.08 1.237 0 .707.596 1.239 1.302 1.251.019 0 .036-.001.055-.004.417-.059.789.23.847.64.057.41-.229.789-.64.847-.106.014-.21.016-.314.016z"/><path d="m21.25 16.75c-.118 0-.222-.003-.324-.018-.41-.058-.696-.437-.638-.847.058-.411.44-.708.847-.638.035.004.072.002.115.002.689 0 1.25-.561 1.25-1.25 0-.622-.469-1.154-1.09-1.237-.41-.055-.698-.432-.644-.843s.423-.707.843-.644c1.363.183 2.391 1.354 2.391 2.725 0 1.517-1.233 2.75-2.75 2.75z"/></svg>