<svg enable-background="new 0 0 24 24" height="512" viewBox="0 0 24 24" width="512" xmlns="http://www.w3.org/2000/svg"><path d="m22.8 12c0 1.098-.162 2.16-.468 3.15-.135.468-.306.918-.504 1.35-1.71 3.717-5.463 6.3-9.828 6.3s-8.118-2.583-9.828-6.3l-.018-.054c-.18-.396-.342-.81-.468-1.233l-.018-.063c-.306-.99-.468-2.052-.468-3.15 0-5.967 4.833-10.8 10.8-10.8s10.8 4.833 10.8 10.8z" fill="#ffd54f"/><path d="m15.443 13.665h-6.886c-.782 0-1.418.636-1.418 1.418v2.835c0 .782.636 1.417 1.418 1.417h6.885c.782 0 1.418-.636 1.418-1.417v-2.835c0-.782-.636-1.418-1.417-1.418z" fill="#fff"/><path d="m12 24c-6.617 0-12-5.383-12-12s5.383-12 12-12 12 5.383 12 12-5.383 12-12 12zm0-22.5c-5.79 0-10.5 4.71-10.5 10.5s4.71 10.5 10.5 10.5 10.5-4.71 10.5-10.5-4.71-10.5-10.5-10.5z"/><path d="m9.25 10h-4.5c-.414 0-.75-.336-.75-.75s.336-.75.75-.75h4.5c.414 0 .75.336.75.75s-.336.75-.75.75z"/><path d="m19.25 10h-4.5c-.414 0-.75-.336-.75-.75s.336-.75.75-.75h4.5c.414 0 .75.336.75.75s-.336.75-.75.75z"/><path d="m16.25 20h-8.5c-.965 0-1.75-.785-1.75-1.75v-3.5c0-.965.785-1.75 1.75-1.75h8.5c.965 0 1.75.785 1.75 1.75v3.5c0 .965-.785 1.75-1.75 1.75zm-8.5-5.5c-.138 0-.25.112-.25.25v3.5c0 .138.112.25.25.25h8.5c.138 0 .25-.112.25-.25v-3.5c0-.138-.112-.25-.25-.25z"/><path d="m6.5 17h-4.84c-.414 0-.75-.336-.75-.75s.336-.75.75-.75h4.84c.414 0 .75.336.75.75s-.336.75-.75.75z"/><path d="m22.34 17h-4.84c-.414 0-.75-.336-.75-.75s.336-.75.75-.75h4.84c.414 0 .75.336.75.75s-.336.75-.75.75z"/></svg>