<svg enable-background="new 0 0 24 24" height="512" viewBox="0 0 24 24" width="512" xmlns="http://www.w3.org/2000/svg"><circle cx="12" cy="12" fill="#455a64" r="10.8"/><path d="m21.827 8.522c-5.418-5.404-14.235-5.404-19.653 0-.128.127-.199.299-.199.478s.071.351.198.478c2.71 2.702 6.268 4.052 9.827 4.052s7.117-1.35 9.827-4.052c.127-.127.198-.299.198-.478s-.071-.351-.198-.478z" fill="#ffd54f"/><circle cx="8" cy="9" fill="#455a64" r="1.62"/><circle cx="16" cy="9" fill="#455a64" r="1.62"/><path d="m12 24c-6.617 0-12-5.383-12-12s5.383-12 12-12 12 5.383 12 12-5.383 12-12 12zm0-22.5c-5.79 0-10.5 4.71-10.5 10.5s4.71 10.5 10.5 10.5 10.5-4.71 10.5-10.5-4.71-10.5-10.5-10.5z"/><path d="m8 11c-1.103 0-2-.897-2-2s.897-2 2-2 2 .897 2 2-.897 2-2 2zm0-2.5c-.276 0-.5.224-.5.5s.224.5.5.5.5-.224.5-.5-.224-.5-.5-.5z"/><path d="m16 11c-1.103 0-2-.897-2-2s.897-2 2-2 2 .897 2 2-.897 2-2 2zm0-2.5c-.276 0-.5.224-.5.5s.224.5.5.5.5-.224.5-.5-.224-.5-.5-.5z"/><path d="m12 14.034c-3.954 0-7.908-1.5-10.918-4.502-.142-.142-.221-.333-.221-.532s.079-.39.22-.531c6.021-6.004 15.816-6.004 21.837 0 .142.141.221.332.221.531s-.079.39-.22.531c-3.011 3.002-6.965 4.503-10.919 4.503zm-9.295-5.034c5.205 4.621 13.385 4.621 18.59 0-5.205-4.621-13.385-4.621-18.59 0z"/></svg>