<svg enable-background="new 0 0 24 24" height="512" viewBox="0 0 24 24" width="512" xmlns="http://www.w3.org/2000/svg"><circle cx="12" cy="12" fill="#4dd0e1" r="10.8"/><path fill="#012e52" d="m17.963 14.853c-.114-.161-.299-.256-.496-.256h-10.935c-.197 0-.382.095-.496.256s-.143.367-.078.553c.897 2.559 3.325 4.279 6.041 4.279s5.144-1.719 6.041-4.279c.066-.187.037-.393-.077-.553z" fill="#fff"/><circle cx="17" cy="9" fill="#012e52" r="1.62"/><path  fill="#012e52" d="m11.443 6.546h-6.886c-.335 0-.607.272-.607.608 0 2.233 1.817 4.05 4.05 4.05s4.05-1.817 4.05-4.05c0-.336-.272-.608-.607-.608z" fill="#fff"/><path fill="#012e52" d="m12 24c-6.617 0-12-5.383-12-12s5.383-12 12-12 12 5.383 12 12-5.383 12-12 12zm0-22.5c-5.79 0-10.5 4.71-10.5 10.5s4.71 10.5 10.5 10.5 10.5-4.71 10.5-10.5-4.71-10.5-10.5-10.5z"/><path  fill="#012e52"  d="m12 20.28c-3.354 0-6.351-2.123-7.458-5.282-.08-.229-.044-.483.096-.682.141-.198.369-.316.612-.316h13.5c.243 0 .471.118.612.316.141.199.176.453.096.682-1.107 3.16-4.104 5.282-7.458 5.282zm-5.593-4.78c1.115 1.998 3.246 3.28 5.593 3.28s4.478-1.282 5.593-3.28z"/><path fill="#012e52"  d="m8 11.75c-2.757 0-5-2.243-5-5 0-.414.336-.75.75-.75h8.5c.414 0 .75.336.75.75 0 2.757-2.243 5-5 5zm-3.419-4.25c.344 1.571 1.747 2.75 3.419 2.75s3.075-1.179 3.419-2.75z"/><path  fill="#012e52"  d="m17 11c-1.103 0-2-.897-2-2s.897-2 2-2 2 .897 2 2-.897 2-2 2zm0-2.5c-.276 0-.5.224-.5.5s.224.5.5.5.5-.224.5-.5-.224-.5-.5-.5z"/><path fill="#012e52" d="m9.451 7.25c-.219 0-.437-.096-.584-.279-.26-.323-.209-.795.113-1.055l6.33-5.1c.323-.26.795-.209 1.055.113s.209.795-.113 1.055l-6.33 5.1c-.14.112-.306.166-.471.166z"/><path fill="#012e52" d="m.851 14.18c-.219 0-.436-.095-.584-.279-.26-.322-.209-.794.113-1.055l4.29-3.46c.321-.261.793-.21 1.054.114.26.322.209.794-.113 1.055l-4.29 3.46c-.139.111-.305.165-.47.165z"/></svg>