<svg enable-background="new 0 0 24 24" height="512" viewBox="0 0 24 24" width="512" xmlns="http://www.w3.org/2000/svg"><circle cx="12" cy="12" fill="#ffd54f" r="11.25"/><path d="m12 24c-6.617 0-12-5.383-12-12 0-2.407.706-4.714 2.041-6.672.232-.343.7-.432 1.042-.198.342.233.431.7.197 1.042-1.165 1.708-1.78 3.724-1.78 5.828 0 5.79 4.71 10.5 10.5 10.5s10.5-4.71 10.5-10.5-4.71-10.5-10.5-10.5c-2.104 0-4.12.615-5.828 1.78-.342.234-.808.145-1.042-.197-.233-.343-.145-.809.198-1.042 1.958-1.335 4.265-2.041 6.672-2.041 6.617 0 12 5.383 12 12s-5.383 12-12 12z"/><path d="m9.25 12.5h-4.5c-.414 0-.75-.336-.75-.75s.336-.75.75-.75h4.5c.414 0 .75.336.75.75s-.336.75-.75.75z"/><path d="m19.25 12.5h-4.5c-.414 0-.75-.336-.75-.75s.336-.75.75-.75h4.5c.414 0 .75.336.75.75s-.336.75-.75.75z"/><path d="m15.25 18.5h-6.5c-.414 0-.75-.336-.75-.75s.336-.75.75-.75h6.5c.414 0 .75.336.75.75s-.336.75-.75.75z"/><path d="m3.25 9c-.414 0-.75-.336-.75-.75v-1.75h-1.75c-.414 0-.75-.336-.75-.75s.336-.75.75-.75h2.5c.414 0 .75.336.75.75v2.5c0 .414-.336.75-.75.75z"/><path d="m3.25 4h-2.5c-.414 0-.75-.336-.75-.75s.336-.75.75-.75h1.75v-1.75c0-.414.336-.75.75-.75s.75.336.75.75v2.5c0 .414-.336.75-.75.75z"/><path d="m5.75 9c-.414 0-.75-.336-.75-.75v-2.5c0-.414.336-.75.75-.75h2.5c.414 0 .75.336.75.75s-.336.75-.75.75h-1.75v1.75c0 .414-.336.75-.75.75z"/><path d="m8.25 4h-2.5c-.414 0-.75-.336-.75-.75v-2.5c0-.414.336-.75.75-.75s.75.336.75.75v1.75h1.75c.414 0 .75.336.75.75s-.336.75-.75.75z"/></svg>