<svg enable-background="new 0 0 24 24" height="512" viewBox="0 0 24 24" width="512" xmlns="http://www.w3.org/2000/svg"><circle cx="12" cy="12" fill="#ffd54f" r="10.8"/><path d="m9.145 7.691-1.687-1.687c-.237-.237-.622-.237-.859 0s-.237.622 0 .859l.583.583c-.477.282-.802.797-.802 1.391 0 .893.727 1.62 1.62 1.62s1.62-.727 1.62-1.62c0-.432-.168-.837-.473-1.143-.001 0-.001-.002-.002-.003z" fill="#6d4c41"/><path d="m16.908 7.369.648-.648c.264-.264.264-.691 0-.954s-.691-.264-.954 0l-1.875 1.875c-.001.001-.001.002-.002.003-.339.339-.525.79-.525 1.269 0 .993.808 1.8 1.8 1.8s1.8-.807 1.8-1.8c0-.66-.361-1.231-.892-1.545z" fill="#6d4c41"/><path d="m12 24c-6.617 0-12-5.383-12-12s5.383-12 12-12 12 5.383 12 12-5.383 12-12 12zm0-22.5c-5.79 0-10.5 4.71-10.5 10.5s4.71 10.5 10.5 10.5 10.5-4.71 10.5-10.5-4.71-10.5-10.5-10.5z"/><path d="m8 11c-1.103 0-2-.897-2-2s.897-2 2-2c.533 0 1.035.208 1.413.585.379.378.587.88.587 1.415 0 1.103-.897 2-2 2zm0-2.5c-.275 0-.5.224-.5.5s.225.5.5.5.5-.224.5-.5c0-.134-.052-.259-.146-.353-.095-.095-.221-.147-.354-.147z"/><path d="m8.884 8.866c-.192 0-.384-.073-.53-.22l-2.083-2.083c-.293-.293-.293-.768 0-1.061s.768-.293 1.061 0l2.083 2.083c.293.293.293.768 0 1.061-.147.147-.34.22-.531.22z"/><path d="m16 11c-1.103 0-2-.897-2-2 0-.535.208-1.037.587-1.415.378-.377.88-.585 1.413-.585 1.103 0 2 .897 2 2s-.897 2-2 2zm0-2.5c-.133 0-.259.052-.354.147-.094.094-.146.219-.146.353 0 .276.225.5.5.5s.5-.224.5-.5-.225-.5-.5-.5z"/><path d="m15.116 8.866c-.192 0-.384-.073-.53-.22-.293-.293-.293-.768 0-1.061l2.083-2.083c.293-.293.768-.293 1.061 0s.293.768 0 1.061l-2.083 2.083c-.147.147-.338.22-.531.22z"/><path d="m17.25 19.675c-.192 0-.384-.073-.53-.22-1.261-1.261-2.937-1.955-4.72-1.955s-3.459.694-4.72 1.955c-.293.293-.768.293-1.061 0s-.293-.768 0-1.061c1.545-1.544 3.597-2.394 5.781-2.394s4.236.85 5.78 2.395c.293.293.293.768 0 1.061-.146.146-.338.219-.53.219z"/></svg>