<svg enable-background="new 0 0 24 24" height="512" viewBox="0 0 24 24" width="512" xmlns="http://www.w3.org/2000/svg"><circle cx="12" cy="12" fill="#ffd54f" r="10.8"/><path d="m10.335 9.5c0 1.563-1.272 2.835-2.835 2.835-1.337 0-2.462-.932-2.754-2.179-.057-.211-.081-.429-.081-.656 0-1.563 1.272-2.835 2.835-2.835.47 0 .915.113 1.304.324.915.47 1.531 1.418 1.531 2.511z" fill="#fff"/><path d="m8.853 7.645c0 1.563-1.272 2.835-2.835 2.835-.421 0-.891-.105-1.272-.324-.057-.211-.081-.429-.081-.656 0-1.563 1.272-2.835 2.835-2.835.47 0 .915.113 1.304.324l.032.356c.009.114.017.211.017.3z" fill="#6d4c41"/><path d="m13.665 9.5c0 1.563 1.272 2.835 2.835 2.835 1.337 0 2.462-.932 2.754-2.179.057-.211.081-.429.081-.656 0-1.563-1.272-2.835-2.835-2.835-.47 0-.915.113-1.304.324-.915.47-1.531 1.418-1.531 2.511z" fill="#fff"/><path d="m15.147 7.645c0 1.563 1.272 2.835 2.835 2.835.421 0 .891-.105 1.272-.324.057-.211.081-.429.081-.656 0-1.563-1.272-2.835-2.835-2.835-.47 0-.915.113-1.304.324l-.032.356c-.009.114-.017.211-.017.3z" fill="#6d4c41"/><path d="m12 24c-6.617 0-12-5.383-12-12s5.383-12 12-12 12 5.383 12 12-5.383 12-12 12zm0-22.5c-5.79 0-10.5 4.71-10.5 10.5s4.71 10.5 10.5 10.5 10.5-4.71 10.5-10.5-4.71-10.5-10.5-10.5z"/><path d="m7.5 13c-1.93 0-3.5-1.57-3.5-3.5s1.57-3.5 3.5-3.5 3.5 1.57 3.5 3.5-1.57 3.5-3.5 3.5zm0-5.5c-1.103 0-2 .897-2 2s.897 2 2 2 2-.897 2-2-.897-2-2-2z"/><path d="m5.667 10.708c-.396 0-.797-.07-1.156-.202-.39-.143-.589-.573-.446-.962.143-.39.573-.588.962-.446.193.071.421.11.641.11 1.103 0 2-.897 2-2 0-.07-.007-.139-.013-.208l1.491-.159-.748.065.75-.037c.01.113.019.227.019.34 0 1.929-1.57 3.499-3.5 3.499z"/><path d="m14.061 18.329c-.192 0-.384-.073-.53-.22-.785-.785-2.154-.785-2.939 0-.292.292-.767.294-1.061 0-.293-.292-.293-.768 0-1.061 1.352-1.353 3.709-1.353 5.061 0 .293.293.293.768 0 1.061-.148.146-.34.22-.531.22z"/><path d="m16.5 13c-1.93 0-3.5-1.57-3.5-3.5s1.57-3.5 3.5-3.5 3.5 1.57 3.5 3.5-1.57 3.5-3.5 3.5zm0-5.5c-1.103 0-2 .897-2 2s.897 2 2 2 2-.897 2-2-.897-2-2-2z"/><path d="m18.333 10.708c-1.93 0-3.5-1.57-3.5-3.5 0-.113.009-.227.019-.34.037-.412.386-.729.814-.696.412.036.719.385.683.798-.009.099-.016.168-.016.238 0 1.103.897 2 2 2 .22 0 .447-.039.641-.11.388-.142.819.057.962.446s-.057.82-.446.962c-.36.133-.761.202-1.157.202z"/></svg>