<svg enable-background="new 0 0 24 24" height="512" viewBox="0 0 24 24" width="512" xmlns="http://www.w3.org/2000/svg"><circle cx="12" cy="12" fill="#ffd54f" r="10.8"/><path d="m15.397 4.393c.474.207.909.476 1.318.826v13.562c-.409.35-.844.62-1.318.826-.149.063-.305.027-.429-.108-.13-.126-.201-.323-.201-.539v-13.921c0-.216.071-.413.201-.539.124-.134.279-.17.429-.107z" fill="#fff"/><path d="m17.211 5.205c2.331 1.422 3.798 3.969 3.798 6.795s-1.467 5.373-3.798 6.795z" fill="#e53935"/><path d="m12 24c-6.617 0-12-5.383-12-12s5.383-12 12-12 12 5.383 12 12-5.383 12-12 12zm0-22.5c-5.79 0-10.5 4.71-10.5 10.5s4.71 10.5 10.5 10.5 10.5-4.71 10.5-10.5-4.71-10.5-10.5-10.5z"/><path d="m14.842 20.63c-.158 0-.314-.05-.445-.146-.192-.142-.305-.366-.305-.604v-15.76c0-.238.113-.462.305-.604.192-.141.44-.183.667-.112 3.794 1.178 6.343 4.632 6.343 8.596s-2.549 7.418-6.343 8.596c-.072.023-.147.034-.222.034zm.75-15.418v13.576c2.618-1.223 4.315-3.836 4.315-6.788s-1.697-5.565-4.315-6.788z"/><path d="m9.25 9.981c-1.378 0-2.5-1.122-2.5-2.5s1.122-2.5 2.5-2.5c.414 0 .75.336.75.75s-.336.75-.75.75c-.551 0-1 .449-1 1s.449 1 1 1c.414 0 .75.336.75.75s-.336.75-.75.75z"/><path d="m9.25 19c-1.378 0-2.5-1.122-2.5-2.5s1.122-2.5 2.5-2.5c.414 0 .75.336.75.75s-.336.75-.75.75c-.551 0-1 .449-1 1s.449 1 1 1c.414 0 .75.336.75.75s-.336.75-.75.75z"/><path d="m16.781 19.738c-.414 0-.75-.336-.75-.75v-13.976c0-.414.336-.75.75-.75s.75.336.75.75v13.977c0 .413-.336.749-.75.749z"/></svg>