<svg enable-background="new 0 0 24 24" height="512" viewBox="0 0 24 24" width="512" xmlns="http://www.w3.org/2000/svg"><circle cx="12" cy="12" fill="#ffd54f" r="10.8"/><path d="m19.275 8.642c-.212-.032-.427.039-.579.19l-9.864 9.864c-.152.152-.222.366-.19.579.032.212.163.396.353.496 3.116 1.64 6.879 1.073 9.364-1.412s3.052-6.248 1.412-9.364c-.1-.19-.284-.32-.496-.353z" fill="#e53935"/><path d="m6.777 16.597c-.377.546-1.607 2.399-1.607 3.33 0 1.134.923 2.056 2.057 2.057.567 0 1.081-.231 1.454-.603.372-.372.603-.886.603-1.453 0-.932-1.23-2.785-1.607-3.33-.102-.148-.27-.236-.45-.236-.179-.001-.349.087-.45.235z" fill="#00bcd4"/><path d="m19.927 5.17c-.932 0-2.785 1.23-3.33 1.607-.149.102-.236.27-.236.45 0 .179.088.348.236.45.545.377 2.398 1.607 3.33 1.607.567 0 1.081-.231 1.453-.603.373-.373.603-.887.603-1.454.001-1.134-.922-2.056-2.056-2.057z" fill="#00bcd4"/><path d="m12.016 23.983c-1.571 0-3.159-.31-4.676-.946-.098-.041-.186-.102-.258-.18-.283-.303-.271-.781.032-1.063.243-.228.595-.264.868-.114 3.943 1.625 8.429.736 11.442-2.276 3.022-3.022 3.908-7.527 2.259-11.482-.128-.278-.079-.618.148-.846.294-.293.766-.296 1.058-.003l.007.007c.069.069.124.15.161.24 1.898 4.524.889 9.684-2.572 13.145-2.301 2.301-5.353 3.518-8.469 3.518z"/><path d="m5.02 21.547c-.163 0-.327-.053-.465-.162-.389-.308-.729-.609-1.04-.92-4.679-4.679-4.679-12.292 0-16.97 4.68-4.679 12.291-4.679 16.971 0 .313.314.614.654.92 1.041.257.325.202.796-.122 1.053-.327.258-.799.2-1.054-.123-.27-.34-.533-.638-.805-.911-4.095-4.093-10.757-4.093-14.85 0-4.094 4.094-4.094 10.755 0 14.849.271.27.568.534.911.805.324.257.379.729.122 1.054-.148.187-.367.284-.588.284z"/><path d="m12.281 21.091c-.63 0-1.266-.067-1.897-.205-.599-.123-1.171-.308-1.74-.565-.378-.171-.546-.615-.375-.992s.618-.545.992-.375c.468.211.936.363 1.433.465 2.466.536 4.989-.206 6.766-1.98 1.775-1.775 2.517-4.301 1.982-6.756-.105-.51-.257-.979-.467-1.442-.171-.377-.003-.822.375-.993.374-.168.82-.003.992.375.256.566.441 1.139.566 1.75.642 2.947-.25 5.989-2.389 8.127-1.681 1.68-3.92 2.591-6.238 2.591z"/><path d="m8.74 19.878c-.192 0-.384-.073-.53-.22-.293-.293-.293-.768 0-1.061l10.408-10.408c.293-.293.768-.293 1.061 0s.293.768 0 1.061l-10.408 10.409c-.147.146-.338.219-.531.219z"/><path d="m7.05 23.185c-1.555 0-2.82-1.266-2.82-2.821 0-1.278 1.687-3.82 2.203-4.568.279-.405.953-.405 1.234 0 .517.749 2.204 3.29 2.204 4.568 0 1.555-1.266 2.821-2.821 2.821zm0-5.593c-.71 1.144-1.32 2.335-1.32 2.772 0 .729.593 1.321 1.32 1.321.729 0 1.321-.592 1.321-1.321 0-.437-.61-1.629-1.321-2.772z"/><path d="m20.385 9.851c-1.278 0-3.82-1.687-4.568-2.204-.203-.14-.324-.371-.324-.617s.121-.477.324-.617c.748-.517 3.29-2.204 4.568-2.204 1.556 0 2.821 1.266 2.821 2.821s-1.266 2.821-2.821 2.821zm-2.773-2.821c1.145.71 2.336 1.32 2.772 1.32.729 0 1.321-.592 1.321-1.321s-.593-1.321-1.321-1.321c-.423 0-1.621.61-2.772 1.322z"/><path d="m7.065 15.219c-.043 0-.087-.003-.131-.011-.408-.072-.681-.461-.608-.869l.344-1.95-1.949.345c-.415.072-.797-.201-.869-.608-.072-.408.2-.797.607-.869l3.005-.531c.246-.041.489.036.661.208.173.173.251.419.208.661l-.53 3.005c-.064.363-.38.619-.738.619z"/><path d="m11.484 8.325c-.197 0-.389-.078-.53-.22-.173-.173-.251-.419-.208-.661l.53-3.005c.071-.407.459-.679.868-.608.408.072.681.461.608.869l-.344 1.95 1.949-.345c.421-.07.797.201.869.608.072.408-.2.797-.607.869l-3.005.531c-.043.008-.087.012-.13.012z"/></svg>