<svg enable-background="new 0 0 24 24" height="512" viewBox="0 0 24 24" width="512" xmlns="http://www.w3.org/2000/svg"><circle cx="12" cy="12" fill="#ffd54f" r="10.8"/><path d="m21.929 1.929c-.228-.328-.774-.328-1 0-.373.541-1.592 2.379-1.592 3.315 0 1.154.939 2.093 2.092 2.093 1.154 0 2.093-.939 2.093-2.093 0-.936-1.22-2.774-1.593-3.315z" fill="#00bcd4"/><path d="m17.054 19.593c-.192 0-.384-.073-.53-.22-2.494-2.494-6.553-2.494-9.047 0-.293.293-.768.293-1.061 0s-.293-.768 0-1.061c3.078-3.079 8.09-3.079 11.168 0 .293.293.293.768 0 1.061-.146.147-.338.22-.53.22z"/><path d="m7.5 11c-1.379 0-2.5-1.122-2.5-2.5 0-.414.336-.75.75-.75s.75.336.75.75c0 .551.448 1 1 1s1-.449 1-1c0-.414.336-.75.75-.75s.75.336.75.75c0 1.378-1.121 2.5-2.5 2.5z"/><path d="m16.5 11c-1.379 0-2.5-1.122-2.5-2.5 0-.414.336-.75.75-.75s.75.336.75.75c0 .551.448 1 1 1s1-.449 1-1c0-.414.336-.75.75-.75s.75.336.75.75c0 1.378-1.121 2.5-2.5 2.5z"/><path d="m11.994 24c-6.617 0-12-5.383-12-12s5.383-12 12-12c3.239 0 6.275 1.275 8.547 3.59.29.296.286.771-.01 1.061-.297.292-.771.286-1.061-.01-1.987-2.026-4.642-3.141-7.476-3.141-5.79 0-10.5 4.71-10.5 10.5s4.71 10.5 10.5 10.5 10.5-4.71 10.5-10.5c0-1.47-.295-2.886-.876-4.208-.167-.379.006-.822.385-.988.374-.166.822.004.988.385.665 1.514 1.003 3.132 1.003 4.812 0 6.616-5.383 11.999-12 11.999z"/><path d="m21.423 8c-1.424 0-2.583-1.159-2.583-2.583 0-1.156 1.505-3.425 1.966-4.093.279-.405.955-.405 1.234 0 .461.668 1.966 2.937 1.966 4.093 0 1.424-1.159 2.583-2.583 2.583zm0-4.873c-.592.967-1.083 1.941-1.083 2.289 0 .598.485 1.083 1.083 1.083s1.083-.486 1.083-1.083c0-.347-.491-1.322-1.083-2.289z"/></svg>