<svg enable-background="new 0 0 24 24" height="512" viewBox="0 0 24 24" width="512" xmlns="http://www.w3.org/2000/svg"><circle cx="12" cy="12" fill="#ffd54f" r="10.8"/><path d="m21.449 17.013-1.495-1.503c-.088-.088-.206-.137-.325-.158-.33.946-1.171 2.572-3.211 3.872.023.035.04.073.07.104l1.32 1.32c.484.489 1.131.759 1.821.759.69 0 1.337-.269 1.817-.754.489-.484.759-1.131.759-1.821-.001-.692-.271-1.339-.756-1.819z" fill="#e53935"/><path d="m12 24c-6.617 0-12-5.383-12-12s5.383-12 12-12 12 5.383 12 12c0 2.105-.556 4.177-1.607 5.991-.208.359-.667.48-1.025.273-.358-.208-.48-.667-.273-1.025.919-1.586 1.405-3.397 1.405-5.239 0-5.79-4.71-10.5-10.5-10.5s-10.5 4.71-10.5 10.5 4.71 10.5 10.5 10.5c2.218 0 4.333-.682 6.115-1.971.335-.243.804-.169 1.047.168.243.335.168.804-.168 1.047-2.039 1.476-4.458 2.256-6.994 2.256z"/><path d="m12.032 21.003c-3.973 0-7.436-2.555-8.616-6.358-.123-.395.098-.815.494-.938.397-.123.816.099.938.494.985 3.171 3.872 5.302 7.184 5.302s6.199-2.131 7.183-5.302c.123-.395.544-.616.938-.494.396.123.617.543.494.938-1.179 3.803-4.642 6.358-8.615 6.358z"/><path d="m19.703 22.115c-.852 0-1.65-.333-2.248-.937l-1.629-1.629c-.293-.293-.293-.768 0-1.061s.768-.293 1.061 0l1.632 1.632c.316.32.736.494 1.185.494.448 0 .868-.174 1.183-.492.322-.319.497-.739.497-1.188 0-.448-.175-.868-.492-1.182l-1.851-1.86c-.292-.293-.291-.769.003-1.061.293-.292.769-.291 1.061.003l1.846 1.856c.6.593.932 1.392.933 2.243 0 .852-.333 1.651-.937 2.249-.593.601-1.392.933-2.244.933z"/><path d="m19.718 19.701c-.192 0-.384-.073-.53-.22l-1.496-1.496c-.293-.293-.293-.768 0-1.061s.768-.293 1.061 0l1.496 1.496c.293.293.293.768 0 1.061-.147.146-.339.22-.531.22z"/><path d="m9.25 10.25c-.414 0-.75-.336-.75-.75 0-.551-.449-1-1-1s-1 .449-1 1c0 .414-.336.75-.75.75s-.75-.336-.75-.75c0-1.378 1.122-2.5 2.5-2.5s2.5 1.122 2.5 2.5c0 .414-.336.75-.75.75z"/><path d="m18.25 10.25c-.414 0-.75-.336-.75-.75 0-.551-.449-1-1-1s-1 .449-1 1c0 .414-.336.75-.75.75s-.75-.336-.75-.75c0-1.378 1.122-2.5 2.5-2.5s2.5 1.122 2.5 2.5c0 .414-.336.75-.75.75z"/></svg>