<svg enable-background="new 0 0 24 24" height="512" viewBox="0 0 24 24" width="512" xmlns="http://www.w3.org/2000/svg"><path d="m3.289 12.309c.098-.32-.081-.66-.402-.759-.162-.05-.334-.075-.511-.075-1.117 0-2.025.908-2.025 2.025s.908 2.025 2.025 2.025c.177 0 .348-.025.511-.075.321-.098.501-.438.402-.759-.08-.262-.321-.42-.581-.42v-1.542c.26 0 .501-.158.581-.42z" fill="#ffb74d"/><path d="m21.263 11.728c-.294.068-.477.362-.409.656.058.252.284.413.533.413v1.406c-.248-.001-.474.161-.533.413-.068.294.115.588.409.656.144.033.286.051.423.051 1.005 0 1.823-.817 1.823-1.823-.001-1.141-1.041-2.05-2.246-1.772z" fill="#ffb74d"/><path d="m21.254 13.5c0 5.097-4.153 9.25-9.25 9.25s-9.25-4.153-9.25-9.25c0-3.7 2.183-6.891 5.328-8.371.444-.222.916-.398 1.406-.527.795-.231 1.646-.352 2.516-.352s1.72.12 2.516.352c.019.111.028.222.028.342 0 1.406 1.286 2.266 1.378.185 3.145 1.48 5.328 4.671 5.328 8.371z" fill="#ffd54f"/><path d="m16 16c-1.103 0-2-.897-2-2 0-.414.336-.75.75-.75s.75.336.75.75c0 .275.225.5.5.5s.5-.225.5-.5c0-.414.336-.75.75-.75s.75.336.75.75c0 1.103-.897 2-2 2z" fill="#6d4c41"/><path d="m12 23.5c-5.514 0-10-4.486-10-10s4.486-10 10-10c1.598 0 3.188.387 4.597 1.117.368.19.512.644.321 1.011-.19.368-.643.512-1.011.321-1.215-.63-2.529-.949-3.907-.949-4.687 0-8.5 3.813-8.5 8.5s3.813 8.5 8.5 8.5 8.5-3.813 8.5-8.5c0-1.113-.212-2.196-.631-3.219-.156-.384.027-.821.41-.979.383-.156.821.027.979.41.492 1.205.742 2.479.742 3.788 0 5.514-4.486 10-10 10z"/><path d="m2.5 16c-1.379 0-2.5-1.121-2.5-2.5s1.121-2.5 2.5-2.5c.219 0 .432.031.631.093.396.122.618.542.496.938s-.543.619-.938.496c-.055-.018-.121-.027-.189-.027-.552 0-1 .448-1 1s.448 1 1 1c.068 0 .134-.009.189-.026.395-.12.815.101.938.496s-.1.815-.496.938c-.199.061-.412.092-.631.092z"/><path d="m12 8.5c-.671 0-1.332-.156-1.911-.452-.369-.189-.516-.64-.327-1.009.188-.368.638-.517 1.009-.327.369.188.794.288 1.229.288 1.517 0 2.75-1.233 2.75-2.75s-1.233-2.75-2.75-2.75-2.75 1.233-2.75 2.75c0 .188.017.347.049.483.098.403-.149.809-.552.905-.404.097-.808-.15-.905-.552-.062-.254-.092-.527-.092-.836 0-2.344 1.906-4.25 4.25-4.25s4.25 1.906 4.25 4.25-1.906 4.25-4.25 4.25z"/><path d="m8 16c-1.103 0-2-.897-2-2 0-.414.336-.75.75-.75s.75.336.75.75c0 .275.225.5.5.5s.5-.225.5-.5c0-.414.336-.75.75-.75s.75.336.75.75c0 1.103-.897 2-2 2z"/><path d="m16 16c-1.103 0-2-.897-2-2 0-.414.336-.75.75-.75s.75.336.75.75c0 .275.225.5.5.5s.5-.225.5-.5c0-.414.336-.75.75-.75s.75.336.75.75c0 1.103-.897 2-2 2z"/><path d="m14.25 20h-4.5c-.414 0-.75-.336-.75-.75s.336-.75.75-.75h4.5c.414 0 .75.336.75.75s-.336.75-.75.75z"/><path d="m23.25 7h-2.5c-.304 0-.577-.183-.693-.463-.115-.28-.052-.603.163-.817l1.22-1.22h-.69c-.414 0-.75-.336-.75-.75s.336-.75.75-.75h2.5c.304 0 .577.183.693.463.115.28.052.603-.163.817l-1.22 1.22h.689c.415 0 .751.336.751.75s-.336.75-.75.75z"/><path d="m18.75 12h-2.5c-.281 0-.538-.157-.667-.407-.129-.249-.106-.55.057-.778l1.653-2.315h-1.043c-.414 0-.75-.336-.75-.75s.336-.75.75-.75h2.5c.281 0 .538.157.667.407.129.249.106.55-.057.778l-1.653 2.315h1.043c.414 0 .75.336.75.75s-.336.75-.75.75z"/><path d="m21.5 16c-.188 0-.383-.023-.58-.069-.403-.094-.654-.497-.561-.9.094-.404.502-.656.9-.561.085.02.168.03.24.03.552 0 1-.448 1-1s-.448-1-1-1c-.072 0-.155.011-.24.03-.398.096-.807-.156-.9-.561-.094-.403.157-.807.561-.9 1.646-.383 3.08.865 3.08 2.431 0 1.379-1.121 2.5-2.5 2.5z"/></svg>