<svg enable-background="new 0 0 24 24" height="512" viewBox="0 0 24 24" width="512" xmlns="http://www.w3.org/2000/svg"><path d="m4.886 1.635c0-.216-.127-.411-.324-.499s-.428-.052-.589.093c-1.527 1.372-1.795 3.673-.623 5.352.106.152.276.234.449.234.108 0 .217-.032.313-.098.248-.173.308-.514.136-.761-.02-.028-.034-.058-.052-.086l1.095-1.095c.017.014.031.031.049.045.237.185.582.144.768-.094s.144-.582-.094-.768c-.717-.561-1.128-1.407-1.128-2.323z" fill="#e53935"/><circle cx="12" cy="12.976" fill="#ef5350" r="10.226"/><path d="m12 24c-6.065 0-11-4.935-11-11s4.935-11 11-11c.721 0 1.442.07 2.146.21.406.08.671.475.59.881-.08.407-.479.673-.881.59-.608-.12-1.232-.181-1.855-.181-5.238 0-9.5 4.262-9.5 9.5s4.262 9.5 9.5 9.5 9.5-4.262 9.5-9.5c0-2.01-.619-3.931-1.792-5.554-.242-.336-.166-.805.169-1.048.338-.242.807-.165 1.048.169 1.357 1.881 2.075 4.106 2.075 6.433 0 6.065-4.935 11-11 11z"/><path d="m3.591 7.89c-.235 0-.466-.109-.612-.315-1.642-2.311-1.285-5.485.83-7.384.221-.197.535-.248.807-.126.27.121.444.389.444.685 0 1.271.578 2.442 1.587 3.214.328.252.392.723.14 1.052-.251.327-.721.393-1.052.14-.882-.676-1.525-1.574-1.875-2.59-.633 1.306-.544 2.894.341 4.139.24.338.161.806-.177 1.046-.131.094-.284.139-.433.139z"/><path d="m15.25 20h-6.5c-.414 0-.75-.336-.75-.75s.336-.75.75-.75h6.5c.414 0 .75.336.75.75s-.336.75-.75.75z"/><path d="m23.25 4h-2.5c-.304 0-.577-.183-.693-.463-.115-.28-.052-.603.163-.817l1.22-1.22h-.69c-.414 0-.75-.336-.75-.75s.336-.75.75-.75h2.5c.304 0 .577.183.693.463.115.28.052.603-.163.817l-1.22 1.22h.689c.415 0 .751.336.751.75s-.336.75-.75.75z"/><path d="m18.25 9h-2.5c-.281 0-.538-.157-.667-.407-.129-.249-.106-.55.057-.778l1.653-2.315h-1.043c-.414 0-.75-.336-.75-.75s.336-.75.75-.75h2.5c.281 0 .538.157.667.407.129.249.106.55-.057.778l-1.653 2.315h1.043c.414 0 .75.336.75.75s-.336.75-.75.75z"/><path d="m7.5 15c-1.379 0-2.5-1.121-2.5-2.5 0-.414.336-.75.75-.75s.75.336.75.75c0 .552.448 1 1 1s1-.448 1-1c0-.414.336-.75.75-.75s.75.336.75.75c0 1.379-1.121 2.5-2.5 2.5z"/><path d="m16.5 15c-1.379 0-2.5-1.121-2.5-2.5 0-.414.336-.75.75-.75s.75.336.75.75c0 .552.448 1 1 1s1-.448 1-1c0-.414.336-.75.75-.75s.75.336.75.75c0 1.379-1.121 2.5-2.5 2.5z"/></svg>