<svg enable-background="new 0 0 24 24" height="512" viewBox="0 0 24 24" width="512" xmlns="http://www.w3.org/2000/svg"><circle cx="12" cy="12" fill="#ffd54f" r="11.25"/><path d="m12 24c-6.617 0-12-5.383-12-12s5.383-12 12-12c2.081 0 4.131.542 5.93 1.565.36.205.486.663.281 1.023-.206.359-.665.484-1.023.281-1.573-.895-3.367-1.369-5.188-1.369-5.79 0-10.5 4.71-10.5 10.5s4.71 10.5 10.5 10.5 10.5-4.71 10.5-10.5c0-1.941-.534-3.836-1.543-5.482-.217-.353-.106-.815.247-1.031.353-.217.814-.107 1.031.247 1.155 1.881 1.765 4.048 1.765 6.266 0 6.617-5.383 12-12 12z"/><path d="m7.5 13c-1.378 0-2.5-1.122-2.5-2.5 0-.414.336-.75.75-.75s.75.336.75.75c0 .551.449 1 1 1s1-.449 1-1c0-.414.336-.75.75-.75s.75.336.75.75c0 1.378-1.122 2.5-2.5 2.5z"/><path d="m16.5 13c-1.378 0-2.5-1.122-2.5-2.5 0-.414.336-.75.75-.75s.75.336.75.75c0 .551.449 1 1 1s1-.449 1-1c0-.414.336-.75.75-.75s.75.336.75.75c0 1.378-1.122 2.5-2.5 2.5z"/><path d="m15.25 18.5h-6.5c-.414 0-.75-.336-.75-.75s.336-.75.75-.75h6.5c.414 0 .75.336.75.75s-.336.75-.75.75z"/><path d="m23.25 4h-2.5c-.303 0-.577-.183-.693-.463s-.052-.603.163-.817l1.22-1.22h-.69c-.414 0-.75-.336-.75-.75s.336-.75.75-.75h2.5c.303 0 .577.183.693.463s.052.603-.163.817l-1.22 1.22h.689c.415 0 .751.336.751.75s-.336.75-.75.75z"/><path d="m18.25 9h-2.5c-.281 0-.538-.157-.667-.407-.128-.25-.106-.551.057-.779l1.652-2.314h-1.042c-.414 0-.75-.336-.75-.75s.336-.75.75-.75h2.5c.281 0 .538.157.667.407.128.25.106.551-.057.779l-1.652 2.314h1.042c.414 0 .75.336.75.75s-.336.75-.75.75z"/></svg>