<svg enable-background="new 0 0 24 24" height="512" viewBox="0 0 24 24" width="512" xmlns="http://www.w3.org/2000/svg"><path d="m20.103.59c-.199-.179-.484-.223-.726-.115-.243.109-.4.35-.4.617 0 1.13-.508 2.176-1.393 2.868-.294.23-.345.654-.116.948.229.293.655.345.948.116.022-.017.039-.038.061-.055l1.352 1.352c-.022.034-.039.071-.063.105-.213.306-.138.726.167.94.118.082.252.121.386.121.213 0 .423-.101.554-.289 1.446-2.073 1.115-4.914-.77-6.608z" fill="#e53935"/><path d="m4.994 1.092c0-.266-.157-.508-.4-.617-.242-.108-.528-.064-.726.115-1.885 1.694-2.216 4.535-.77 6.608.131.188.341.289.554.289.134 0 .268-.04.386-.121.306-.214.381-.634.167-.94-.023-.035-.04-.072-.063-.106l1.352-1.352c.021.017.039.038.061.055.293.229.719.178.948-.116.229-.293.178-.717-.116-.947-.885-.693-1.393-1.738-1.393-2.868z" fill="#e53935"/><circle cx="12" cy="12.976" fill="#ef5350" r="9.9"/><g fill="#4e342e"><path d="m16 12c-1.103 0-2-.897-2-2 0-.534.208-1.036.586-1.414s.88-.586 1.414-.586c1.103 0 2 .897 2 2s-.897 2-2 2z"/><path d="m15.189 9.798c-.192 0-.384-.073-.53-.22-.293-.293-.293-.768 0-1.061l2-2c.293-.293.768-.293 1.061 0s.293.768 0 1.061l-2 2c-.147.147-.339.22-.531.22z"/><path d="m8 12c-1.103 0-2-.897-2-2s.897-2 2-2c.534 0 1.036.208 1.414.586s.586.88.586 1.414c0 1.103-.897 2-2 2z"/><path d="m8.811 9.798c-.192 0-.384-.073-.53-.22l-2-2c-.293-.293-.293-.768 0-1.061s.768-.293 1.061 0l2 2c.293.293.293.768 0 1.061-.148.147-.34.22-.531.22z"/></g><path d="m12 23.977c-6.065 0-11-4.935-11-11s4.935-11 11-11 11 4.935 11 11-4.935 11-11 11zm0-20.5c-5.238 0-9.5 4.262-9.5 9.5s4.262 9.5 9.5 9.5 9.5-4.262 9.5-9.5-4.262-9.5-9.5-9.5z"/><path d="m16 12c-1.103 0-2-.897-2-2 0-.533.208-1.035.585-1.413.378-.379.88-.587 1.415-.587 1.103 0 2 .897 2 2s-.897 2-2 2zm0-2.5c-.134 0-.259.052-.353.146-.095.095-.147.221-.147.354 0 .275.224.5.5.5s.5-.225.5-.5-.224-.5-.5-.5z"/><path d="m15.189 9.798c-.192 0-.384-.073-.53-.22-.293-.293-.293-.768 0-1.061l2-2c.293-.293.768-.293 1.061 0s.293.768 0 1.061l-2 2c-.147.147-.339.22-.531.22z"/><path d="m8 12c-1.103 0-2-.897-2-2s.897-2 2-2c.535 0 1.037.208 1.415.587.377.378.585.88.585 1.413 0 1.103-.897 2-2 2zm0-2.5c-.276 0-.5.225-.5.5s.224.5.5.5.5-.225.5-.5c0-.133-.052-.259-.147-.354-.094-.094-.219-.146-.353-.146z"/><path d="m8.811 9.798c-.192 0-.384-.073-.53-.22l-2-2c-.293-.293-.293-.768 0-1.061s.768-.293 1.061 0l2 2c.293.293.293.768 0 1.061-.148.147-.34.22-.531.22z"/><path d="m12 18.98c-1.912 0-3.824-.728-5.28-2.184-.293-.293-.293-.768 0-1.061s.768-.293 1.061 0c2.328 2.327 6.114 2.325 8.439 0 .293-.293.768-.293 1.061 0s.293.768 0 1.061c-1.456 1.457-3.368 2.184-5.281 2.184z"/><path d="m20.404 7.879c-.148 0-.298-.044-.429-.135-.34-.237-.423-.705-.186-1.045.863-1.236.946-2.811.321-4.105-.343.996-.966 1.88-1.821 2.549-.327.256-.798.197-1.053-.129s-.198-.797.128-1.053c.984-.77 1.548-1.932 1.548-3.188 0-.296.174-.564.445-.685.269-.121.586-.07.807.127 2.095 1.884 2.462 5.04.855 7.343-.145.21-.378.321-.615.321z"/><path d="m3.566 7.879c-.237 0-.47-.111-.615-.32-1.607-2.303-1.24-5.459.855-7.343.221-.197.538-.248.807-.127.271.12.445.389.445.685 0 1.256.564 2.418 1.548 3.188.326.256.383.727.128 1.053s-.728.383-1.053.128c-.855-.669-1.478-1.553-1.821-2.549-.625 1.295-.542 2.869.321 4.105.237.34.154.808-.186 1.045-.131.091-.28.135-.429.135z"/></svg>