<svg enable-background="new 0 0 24 24" height="512" viewBox="0 0 24 24" width="512" xmlns="http://www.w3.org/2000/svg"><path d="m20.047.926c-.179-.161-.435-.201-.653-.103-.219.098-.36.315-.36.555 0 1.017-.457 1.958-1.254 2.581-.264.207-.31.589-.104.853s.589.31.853.104c.02-.015.035-.034.055-.05l1.216 1.217c-.02.031-.035.064-.057.094-.192.275-.125.654.151.846.106.074.227.11.348.11.192 0 .38-.091.499-.26 1.301-1.865 1.003-4.422-.694-5.947z" fill="#e53935"/><path d="m4.937 1.378c0-.24-.141-.457-.36-.555-.218-.098-.475-.058-.654.103-1.696 1.525-1.994 4.082-.693 5.947.118.169.307.26.499.26.12 0 .241-.036.347-.109.275-.192.343-.571.151-.846-.021-.031-.036-.064-.057-.095l1.216-1.216c.019.016.035.034.055.05.264.206.647.16.853-.104s.16-.646-.104-.853c-.796-.624-1.253-1.565-1.253-2.582z" fill="#e53935"/><circle cx="12" cy="12.976" fill="#ef5350" r="9.9"/><path d="m12 24c-6.065 0-11-4.935-11-11s4.935-11 11-11 11 4.935 11 11-4.935 11-11 11zm0-20.5c-5.238 0-9.5 4.262-9.5 9.5s4.262 9.5 9.5 9.5 9.5-4.262 9.5-9.5-4.262-9.5-9.5-9.5z"/><path d="m20.39 7.875c-.414 0-.75-.331-.75-.745 0-.155.048-.315.137-.442.874-1.239.958-2.823.325-4.126-.352 1.012-.994 1.916-1.857 2.575-.328.25-.8.188-1.051-.142s-.188-.8.141-1.052c1.001-.763 1.575-1.927 1.575-3.193 0-.296.174-.564.445-.686.27-.119.587-.07.807.129 2.092 1.888 2.459 5.031.862 7.328-.132.212-.367.354-.634.354z"/><path d="m3.59 7.89c-.234 0-.465-.109-.612-.315-1.642-2.311-1.284-5.485.831-7.384.221-.197.537-.247.807-.126s.444.389.444.685c0 1.271.578 2.442 1.585 3.214.329.252.392.723.14 1.052s-.723.39-1.051.14c-.882-.676-1.524-1.575-1.873-2.59-.634 1.306-.545 2.894.34 4.139.24.338.161.806-.177 1.046-.131.094-.283.139-.434.139z"/><path d="m12 20.032c-2.003 0-4.005-.763-5.53-2.287-.293-.293-.293-.768 0-1.061s.768-.293 1.061 0c2.465 2.465 6.475 2.465 8.939 0 .293-.293.768-.293 1.061 0s.293.768 0 1.061c-1.526 1.525-3.528 2.287-5.531 2.287z"/><path d="m9.25 11c-.414 0-.75-.336-.75-.75 0-.552-.449-1-1-1s-1 .448-1 1c0 .414-.336.75-.75.75s-.75-.336-.75-.75c0-1.379 1.122-2.5 2.5-2.5s2.5 1.121 2.5 2.5c0 .414-.336.75-.75.75z"/><path d="m18.25 11c-.414 0-.75-.336-.75-.75 0-.552-.449-1-1-1s-1 .448-1 1c0 .414-.336.75-.75.75s-.75-.336-.75-.75c0-1.379 1.122-2.5 2.5-2.5s2.5 1.121 2.5 2.5c0 .414-.336.75-.75.75z"/></svg>