<svg enable-background="new 0 0 24 24" height="512" viewBox="0 0 24 24" width="512" xmlns="http://www.w3.org/2000/svg"><circle cx="12" cy="12" fill="#ffd54f" r="10.8"/><path d="m10.827 15.125-1.588 7.29c-.057.284-.308.478-.591.478-.032 0-.065 0-.097-.008l-4.512-.77-.122-.024c-.292-.049-.502-.3-.502-.599 0-.154-.016-.308-.04-.454-.267-1.701-1.944-2.835-1.96-2.843-.186-.122-.292-.332-.275-.551.016-.219.146-.413.348-.51l7.403-3.54c.478-.227 1.547-.469 1.969-.137.413.325.081 1.15-.033 1.668z" fill="#eceff1"/><path d="m6.751 12c-.236 0-.47-.111-.615-.32-.237-.339-.155-.807.185-1.044l1.621-1.136-1.622-1.136c-.34-.237-.422-.705-.184-1.044.236-.34.704-.423 1.044-.184l2.5 1.75c.201.14.32.369.32.614s-.119.474-.32.614l-2.5 1.75c-.131.092-.281.136-.429.136z"/><path d="m17.249 12c-.148 0-.298-.044-.429-.136l-2.5-1.75c-.201-.14-.32-.369-.32-.614s.119-.474.32-.614l2.5-1.75c.34-.237.808-.155 1.044.184.237.339.155.807-.185 1.044l-1.621 1.136 1.622 1.136c.34.237.422.705.185 1.044-.146.209-.38.32-.616.32z"/><path d="m12 24c-.864 0-1.721-.091-2.547-.271-.404-.088-.661-.488-.572-.893.088-.405.497-.659.893-.573.72.157 1.469.237 2.226.237 5.79 0 10.5-4.71 10.5-10.5s-4.71-10.5-10.5-10.5-10.5 4.71-10.5 10.5c0 1.554.356 3.119 1.03 4.524.055.107.085.228.085.347 0 .414-.336.75-.75.75-.3 0-.559-.176-.679-.43-.002-.005-.005-.01-.007-.015-.771-1.607-1.179-3.397-1.179-5.176 0-6.617 5.383-12 12-12s12 5.383 12 12-5.383 12-12 12z"/><path d="m17.749 19c-.121 0-.244-.029-.358-.092l-2.405-1.312-2.65 1.325c-.206.102-.448.106-.654.007l-1.23-.58c-.375-.176-.536-.624-.359-.998.176-.375.624-.537.998-.358l.901.425 2.675-1.337c.219-.109.478-.105.694.013l2.75 1.5c.363.198.497.654.299 1.018-.138.248-.395.389-.661.389z"/><path d="m9.272 24c-.042 0-.085-.003-.127-.011l-5.703-.975c-.019-.003-.038-.007-.057-.011-.171-.041-.315-.138-.416-.268-.001 0-.001 0-.001 0s0 0-.001-.001c0 0 0 0 0-.001h-.001c-.013-.017-.024-.033-.036-.051v-.001h-.001c-.078-.122-.122-.266-.119-.417-.008-2.412-2.447-4.049-2.472-4.066-.226-.149-.354-.408-.336-.678.019-.27.18-.509.424-.626l9.144-4.374c.591-.282 1.273-.204 1.785.2.512.405.743 1.053.605 1.691l-1.957 8.999c-.074.349-.384.59-.731.59zm-4.321-2.25 3.74.639 1.804-8.297c.021-.099-.026-.162-.07-.196-.044-.035-.113-.068-.208-.023l-8.08 3.864c.646.615 1.448 1.566 1.874 2.791l2.785-3.432c.261-.323.734-.37 1.055-.11.321.261.371.733.109 1.055z"/></svg>