<svg enable-background="new 0 0 24 24" height="512" viewBox="0 0 24 24" width="512" xmlns="http://www.w3.org/2000/svg"><path d="m3.243 12.309c.098-.32-.081-.66-.402-.759-.162-.05-.334-.075-.511-.075-1.117 0-2.025.908-2.025 2.025s.908 2.025 2.025 2.025c.177 0 .348-.025.511-.075.321-.098.501-.438.402-.759-.08-.262-.321-.42-.581-.42v-1.542c.26 0 .501-.158.581-.42z" fill="#ffb74d"/><path d="m21.116 11.531c-.327.076-.53.403-.454.729.065.28.316.459.592.458v1.562c-.276-.001-.527.179-.592.459-.076.327.127.653.454.729.16.037.318.056.469.056 1.117 0 2.025-.908 2.025-2.025 0-1.267-1.155-2.277-2.494-1.968z" fill="#ffb74d"/><path d="m20.958 13.5c0 4.959-4.041 9-9 9s-9-4.041-9-9c0-3.6 2.124-6.705 5.184-8.145.432-.216.891-.387 1.368-.513.774-.225 1.602-.342 2.448-.342s1.674.117 2.448.342c.018.108.027.216.027.333 0 1.368 1.251 2.205 1.341.18 3.06 1.44 5.184 4.545 5.184 8.145z" fill="#ffd54f"/><path d="m20.565 22.155c-.199 0-.399-.026-.597-.079-1.04-.278-2.837-2.345-3.187-2.757-.117-.137-.158-.322-.112-.495.046-.174.175-.313.345-.373.508-.182 3.094-1.074 4.138-.794.59.159 1.084.537 1.389 1.066s.387 1.145.229 1.736-.536 1.084-1.066 1.389c-.352.203-.743.307-1.139.307z" fill="#00bcd4"/><path d="m12 23.5c-5.514 0-10-4.486-10-10s4.486-10 10-10 10 4.486 10 10c0 1.548-.339 3.021-1.007 4.381-.182.37-.63.527-1.004.342-.371-.183-.524-.632-.342-1.004.565-1.15.853-2.402.853-3.719 0-4.687-3.813-8.5-8.5-8.5s-8.5 3.813-8.5 8.5 3.813 8.5 8.5 8.5c2.037 0 4.001-.728 5.529-2.048.312-.272.786-.237 1.058.077.271.313.236.787-.077 1.058-1.801 1.556-4.113 2.413-6.51 2.413z"/><path d="m2.5 16c-1.379 0-2.5-1.121-2.5-2.5s1.121-2.5 2.5-2.5c.219 0 .432.031.631.093.396.122.618.542.496.938s-.542.619-.938.496c-.055-.018-.121-.027-.189-.027-.552 0-1 .448-1 1s.448 1 1 1c.068 0 .134-.009.189-.026.395-.12.815.101.938.496s-.1.815-.496.938c-.199.061-.412.092-.631.092z"/><path d="m12 8.5c-.671 0-1.332-.156-1.911-.452-.369-.189-.516-.64-.327-1.009.188-.368.637-.517 1.009-.327.369.188.794.288 1.229.288 1.517 0 2.75-1.233 2.75-2.75s-1.233-2.75-2.75-2.75-2.75 1.233-2.75 2.75c0 .188.017.347.049.483.098.403-.149.809-.552.905-.403.097-.808-.15-.905-.552-.062-.254-.092-.527-.092-.836 0-2.344 1.906-4.25 4.25-4.25s4.25 1.906 4.25 4.25-1.906 4.25-4.25 4.25z"/><path d="m8 16c-1.103 0-2-.897-2-2 0-.414.336-.75.75-.75s.75.336.75.75c0 .275.225.5.5.5s.5-.225.5-.5c0-.414.336-.75.75-.75s.75.336.75.75c0 1.103-.897 2-2 2z"/><path d="m16 16c-1.103 0-2-.897-2-2 0-.414.336-.75.75-.75s.75.336.75.75c0 .275.225.5.5.5s.5-.225.5-.5c0-.414.336-.75.75-.75s.75.336.75.75c0 1.103-.897 2-2 2z"/><path d="m14 21h-4c-.414 0-.75-.336-.75-.75 0-1.517 1.233-2.75 2.75-2.75s2.75 1.233 2.75 2.75c0 .414-.336.75-.75.75zm-2.999-1.5h1.998c-.228-.304-.591-.5-.999-.5s-.771.196-.999.5z"/><path d="m20.868 23.001c-.273 0-.548-.036-.818-.108-1.427-.382-3.892-3.217-4.371-3.781-.16-.188-.217-.441-.153-.68s.24-.43.473-.512c.697-.249 4.245-1.473 5.676-1.089.81.218 1.486.736 1.905 1.462s.53 1.571.313 2.381-.735 1.486-1.462 1.905c-.484.279-1.02.422-1.563.422zm-3.301-4.022c1.108 1.197 2.347 2.325 2.871 2.465.422.114.863.056 1.242-.163s.649-.572.763-.994c.113-.423.056-.864-.163-1.243-.219-.378-.572-.649-.995-.763-.524-.144-2.161.217-3.718.698z"/><path d="m21.5 16c-.188 0-.383-.023-.58-.069-.403-.094-.654-.497-.561-.9.095-.404.503-.656.9-.561.085.02.168.03.24.03.552 0 1-.448 1-1s-.448-1-1-1c-.072 0-.155.011-.24.03-.397.096-.806-.156-.9-.561-.094-.403.157-.807.561-.9 1.644-.383 3.08.865 3.08 2.431 0 1.379-1.121 2.5-2.5 2.5z"/></svg>