<svg enable-background="new 0 0 24 24" height="512" viewBox="0 0 24 24" width="512" xmlns="http://www.w3.org/2000/svg"><path d="m.674 4.477s.315 3.654 1.953 5.085c.081.072.162.135.252.198l.117.072h5.229z" fill="#5d4037"/><path d="m23.326 4.477s-.315 3.654-1.953 5.085c-.081.072-.162.135-.252.198l-.117.072h-5.229z" fill="#5d4037"/><circle cx="12" cy="13.5" fill="#ffd54f" r="9.45"/><path d="m6.051 4.465.243-.441 1.287-2.565c.387-.711 1.134-1.152 1.935-1.152h4.968c.801 0 1.548.441 1.935 1.152l1.287 2.565.243.441s-3.305 1.373-5.949 1.373-5.949-1.373-5.949-1.373z" fill="#5d4037"/><path d="m22.112 3.972c.245 0 .457.192.457.446 0 .074-.018.153-.059.234-2.687 4.022-6.333 5.393-9.84 5.393-5.835 0-11.283-3.795-11.283-5.495 0-.153.044-.288.135-.403.085-.113.22-.176.361-.176.038 0 .077.005.116.014.099.099 5.198 1.377 9.999 1.377 4.488 0 9.879-1.257 9.999-1.377.038-.009.077-.013.115-.013z" fill="#6d4c41"/><path d="m22.786 16.898c-.358-.62-.935-1.063-1.627-1.249-1.226-.329-4.297.728-4.9.944-.188.067-.331.222-.383.415-.051.193-.005.399.124.551.414.488 2.546 2.939 3.772 3.267.231.062.464.091.692.091 1.183 0 2.269-.791 2.589-1.986.185-.691.09-1.413-.267-2.033z" fill="#00bcd4"/><path d="m14.43 20.619h-4.86c-.197 0-.382-.095-.496-.256s-.143-.366-.078-.552c.447-1.273 1.653-2.128 3.003-2.128s2.557.855 3.003 2.128c.065.186.036.392-.078.552-.112.16-.297.256-.494.256z" fill="#e53935"/><path d="m20.697 21.544c-.288 0-.577-.038-.862-.114-1.513-.405-4.145-3.432-4.656-4.034-.16-.188-.217-.441-.153-.68.064-.238.241-.43.473-.512.745-.266 4.534-1.57 6.049-1.165 1.762.473 2.811 2.29 2.339 4.052-.229.854-.776 1.566-1.542 2.009-.509.294-1.075.444-1.648.444zm-3.632-4.281c1.122 1.217 2.526 2.549 3.158 2.718.467.125.954.061 1.372-.181s.717-.631.842-1.098c.258-.962-.315-1.955-1.278-2.214-.631-.172-2.514.282-4.094.775z"/><path d="m7.5 15c-1.378 0-2.5-1.121-2.5-2.5 0-.414.336-.75.75-.75s.75.336.75.75c0 .552.449 1 1 1s1-.448 1-1c0-.414.336-.75.75-.75s.75.336.75.75c0 1.379-1.122 2.5-2.5 2.5z"/><path d="m16.5 15c-1.378 0-2.5-1.121-2.5-2.5 0-.414.336-.75.75-.75s.75.336.75.75c0 .552.449 1 1 1s1-.448 1-1c0-.414.336-.75.75-.75s.75.336.75.75c0 1.379-1.122 2.5-2.5 2.5z"/><path d="m15 20.963h-6c-.243 0-.471-.118-.612-.316s-.176-.452-.096-.682c.551-1.571 2.041-2.627 3.708-2.627s3.157 1.056 3.708 2.627c.081.229.045.483-.096.682s-.369.316-.612.316zm-4.627-1.5h3.254c-.874-.787-2.38-.787-3.254 0z"/><path d="m2.99 10.383c-.146 0-.293-.042-.423-.131-2.121-1.451-2.525-5.588-2.565-6.055-.034-.413.272-.775.685-.81.404-.043.775.271.811.684.09 1.073.612 4.052 1.916 4.943.342.234.43.701.196 1.042-.146.213-.381.327-.62.327z"/><path d="m21.01 10.383c-.239 0-.474-.114-.62-.327-.234-.342-.146-.809.196-1.042 1.308-.894 1.827-3.87 1.916-4.941.035-.413.406-.707.81-.685.413.035.719.397.685.81-.039.467-.443 4.604-2.564 6.055-.129.087-.277.13-.423.13z"/><path d="m12 6.43c-1.726 0-3.573-.132-5.49-.394-.011 0-.022-.001-.032-.003-.324-.04-.637-.081-.94-.131-.24-.04-.446-.194-.552-.413s-.099-.475.018-.689l1.868-3.395c.474-.865 1.382-1.405 2.369-1.405h5.518c.987 0 1.896.54 2.37 1.408l1.867 3.392c.117.213.124.47.018.689s-.312.373-.552.413c-.303.051-.616.091-.94.131-.01.001-.021.002-.032.003-1.917.262-3.764.394-5.49.394zm-5.156-1.861c1.814.24 3.542.361 5.156.361 1.619 0 3.353-.122 5.156-.362l-1.342-2.438c-.213-.39-.617-.63-1.055-.63h-5.518c-.438 0-.842.24-1.054.627z"/><path d="m12 10.754c-3.084 0-5.872-.855-8.285-2.542-2.425-1.698-3.565-3.618-3.612-3.698-.155-.265-.133-.597.055-.839.189-.243.507-.344.799-.261.02.005 2 .57 4.819 1.007.292.049.585.086.888.124 1.879.256 3.669.385 5.336.385s3.457-.129 5.318-.384c.034-.004.067-.007.102-.007.219-.032.513-.069.796-.117 2.827-.438 4.807-1.003 4.827-1.008.293-.083.611.018.799.261.188.242.21.574.055.839-.047.081-1.187 2-3.612 3.698-2.413 1.687-5.201 2.542-8.285 2.542zm-9.301-5.375c.485.503 1.109 1.068 1.875 1.604 2.156 1.507 4.655 2.271 7.426 2.271s5.27-.764 7.426-2.271c.766-.537 1.39-1.101 1.875-1.604-.784.168-1.751.355-2.847.525-.295.049-.608.09-.932.13-.01.001-.021.002-.032.003-1.917.261-3.764.393-5.49.393s-3.573-.132-5.49-.393c-.011-.001-.022-.002-.032-.004-.324-.04-.637-.081-.94-.131-1.092-.169-2.056-.356-2.839-.523z"/><path d="m12 24c-5.79 0-10.5-4.71-10.5-10.5 0-2.292.73-4.472 2.111-6.302.25-.33.72-.396 1.05-.147.331.25.396.72.147 1.05-1.183 1.568-1.808 3.435-1.808 5.399 0 4.963 4.038 9 9 9 2.508 0 4.828-1.002 6.533-2.822.283-.303.758-.316 1.06-.035.302.283.318.758.035 1.061-1.963 2.095-4.743 3.296-7.628 3.296z"/><path d="m21.471 16.55c-.062 0-.125-.008-.187-.023-.401-.104-.643-.512-.54-.913.17-.663.256-1.375.256-2.114 0-1.964-.625-3.831-1.809-5.398-.25-.331-.184-.801.147-1.05.33-.25.8-.184 1.05.147 1.382 1.829 2.112 4.009 2.112 6.301 0 .865-.102 1.702-.303 2.486-.087.339-.392.564-.726.564z"/></svg>