<svg enable-background="new 0 0 24 24" height="512" viewBox="0 0 24 24" width="512" xmlns="http://www.w3.org/2000/svg"><path d="m20.047.926c-.179-.161-.435-.201-.653-.103-.219.098-.36.315-.36.555 0 1.017-.457 1.958-1.254 2.581-.264.207-.31.589-.104.853s.589.31.853.104c.02-.015.035-.034.055-.05l1.216 1.217c-.02.031-.035.064-.057.094-.192.275-.125.654.151.846.106.074.227.11.348.11.192 0 .38-.091.499-.26 1.301-1.865 1.003-4.422-.694-5.947z" fill="#e53935"/><path d="m4.937 1.378c0-.24-.141-.457-.36-.555-.218-.098-.475-.058-.654.103-1.696 1.525-1.994 4.082-.693 5.947.118.169.307.26.499.26.12 0 .241-.036.347-.109.275-.192.343-.571.151-.846-.021-.031-.036-.064-.057-.095l1.216-1.216c.019.016.035.034.055.05.264.206.647.16.853-.104s.16-.646-.104-.853c-.796-.624-1.253-1.565-1.253-2.582z" fill="#e53935"/><path d="m21.9 12.98c0 5.454-4.437 9.9-9.9 9.9-4.347 0-8.037-2.808-9.369-6.705v-.009c-.171-.495-.306-.999-.387-1.521-.099-.54-.144-1.098-.144-1.665 0-1.935.549-3.735 1.512-5.256.81-1.287 1.899-2.376 3.195-3.168 1.512-.936 3.285-1.476 5.193-1.476.558 0 1.098.045 1.629.135.522.081 1.035.216 1.53.378.72.243 1.395.567 2.025.954 1.287.792 2.376 1.872 3.186 3.15.972 1.53 1.53 3.339 1.53 5.283z" fill="#ef5350"/><path d="m14.43 20.667h-4.86c-.199 0-.385-.097-.499-.261-.113-.163-.14-.372-.07-.558.449-1.206 1.655-2.016 3-2.016s2.55.81 3 2.016c.07.187.043.396-.07.558-.116.164-.302.261-.501.261z" fill="#4e342e"/><path d="m20.284 20.806c-.244 0-.491-.032-.734-.097-1.296-.347-3.562-2.954-4.003-3.473-.13-.152-.176-.358-.124-.551.051-.192.195-.348.383-.414.642-.229 3.908-1.354 5.203-1.005 1.5.402 2.394 1.95 1.992 3.45-.195.727-.66 1.334-1.313 1.711-.434.251-.916.379-1.404.379z" fill="#00bcd4"/><path d="m12 24c-6.065 0-11-4.935-11-11s4.935-11 11-11 11 4.935 11 11c0 .954-.123 1.905-.364 2.829-.104.403-.519.642-.915.536-.401-.104-.641-.515-.536-.915.209-.801.315-1.625.315-2.45 0-5.238-4.262-9.5-9.5-9.5s-9.5 4.262-9.5 9.5 4.262 9.5 9.5 9.5c2.502 0 4.865-.965 6.655-2.716.295-.288.771-.285 1.061.012.29.296.284.771-.012 1.061-2.072 2.027-4.808 3.143-7.704 3.143z"/><path d="m20.39 7.875c-.414 0-.75-.331-.75-.745 0-.155.048-.315.138-.442.874-1.239.959-2.823.325-4.126-.353 1.012-.994 1.916-1.857 2.574-.33.254-.801.188-1.051-.141-.252-.329-.188-.8.141-1.051 1-.764 1.574-1.928 1.574-3.194 0-.296.175-.564.445-.686.269-.118.587-.07.807.129 2.093 1.888 2.46 5.031.862 7.328-.132.212-.367.354-.634.354z"/><path d="m3.591 7.89c-.235 0-.466-.109-.612-.315-1.642-2.311-1.285-5.485.83-7.384.221-.197.535-.246.807-.126.27.121.444.389.444.685 0 1.271.578 2.442 1.587 3.214.328.252.392.723.14 1.052-.251.327-.721.393-1.052.14-.882-.676-1.525-1.574-1.875-2.59-.633 1.306-.544 2.894.341 4.139.24.338.161.806-.177 1.046-.131.094-.284.139-.433.139z"/><path d="m15 21h-6c-.246 0-.476-.12-.616-.322-.14-.201-.173-.459-.087-.689.555-1.489 2.043-2.489 3.703-2.489s3.148 1 3.703 2.488c.086.23.053.488-.087.689-.14.203-.37.323-.616.323zm-4.53-1.5h3.061c-.848-.633-2.214-.633-3.061 0z"/><path d="m20.526 21.464c-.302 0-.606-.04-.906-.12-1.6-.429-4.397-3.646-4.941-4.287-.16-.188-.217-.441-.153-.68.063-.237.24-.43.473-.512.792-.282 4.821-1.671 6.424-1.241 1.852.496 2.955 2.407 2.459 4.26-.24.897-.815 1.647-1.621 2.112-.536.31-1.132.468-1.735.468zm-3.964-4.541c1.211 1.319 2.753 2.786 3.446 2.972 1.057.284 2.142-.345 2.423-1.399.282-1.054-.345-2.14-1.398-2.422-.694-.186-2.762.313-4.471.849z"/><path d="m7.5 14.25c-1.379 0-2.5-1.121-2.5-2.5 0-.414.336-.75.75-.75s.75.336.75.75c0 .552.448 1 1 1s1-.448 1-1c0-.414.336-.75.75-.75s.75.336.75.75c0 1.379-1.121 2.5-2.5 2.5z"/><path d="m16.5 14.25c-1.379 0-2.5-1.121-2.5-2.5 0-.414.336-.75.75-.75s.75.336.75.75c0 .552.448 1 1 1s1-.448 1-1c0-.414.336-.75.75-.75s.75.336.75.75c0 1.379-1.121 2.5-2.5 2.5z"/></svg>