<svg enable-background="new 0 0 24 24" height="512" viewBox="0 0 24 24" width="512" xmlns="http://www.w3.org/2000/svg"><circle cx="12" cy="12" fill="#ffd54f" r="10.8"/><path d="m14.801 19.838c-.416-1.187-1.542-1.984-2.801-1.984s-2.385.797-2.801 1.984c-.065.186-.036.392.078.552.114.161.299.256.496.256h4.455c.197 0 .382-.095.496-.256.113-.161.142-.366.077-.552z" fill="#e53935"/><path d="m22.786 17.148c-.358-.62-.935-1.063-1.627-1.249-1.226-.33-4.297.729-4.9.944-.188.067-.331.222-.383.415-.051.193-.005.399.124.551.414.488 2.546 2.939 3.772 3.267.231.062.464.091.692.091 1.183 0 2.269-.791 2.589-1.986.185-.691.09-1.413-.267-2.033z" fill="#00bcd4"/><path d="m7.5 15c-1.378 0-2.5-1.122-2.5-2.5 0-.414.336-.75.75-.75s.75.336.75.75c0 .551.449 1 1 1s1-.449 1-1c0-.414.336-.75.75-.75s.75.336.75.75c0 1.378-1.122 2.5-2.5 2.5z"/><path d="m16.5 15c-1.378 0-2.5-1.122-2.5-2.5 0-.414.336-.75.75-.75s.75.336.75.75c0 .551.449 1 1 1s1-.449 1-1c0-.414.336-.75.75-.75s.75.336.75.75c0 1.378-1.122 2.5-2.5 2.5z"/><path d="m12 24c-6.617 0-12-5.383-12-12s5.383-12 12-12 12 5.383 12 12c0 1.613-.312 3.181-.928 4.661-.158.382-.596.564-.98.404-.382-.159-.563-.598-.404-.98.539-1.297.812-2.671.812-4.085 0-5.79-4.71-10.5-10.5-10.5s-10.5 4.71-10.5 10.5 4.71 10.5 10.5 10.5c2.474 0 4.873-.875 6.755-2.464.317-.266.79-.227 1.057.089.267.317.227.79-.089 1.057-2.153 1.817-4.896 2.818-7.723 2.818z"/><path d="m14.75 20.974h-5.5c-.243 0-.471-.118-.612-.316s-.176-.452-.096-.682c.514-1.465 1.903-2.449 3.458-2.449s2.944.984 3.458 2.449c.081.229.045.483-.096.682-.141.198-.369.316-.612.316zm-4.068-1.5h2.636c-.739-.567-1.897-.567-2.636 0z"/><path d="m20.69 21.793c-.282 0-.569-.037-.854-.113-1.514-.406-4.145-3.431-4.657-4.034-.16-.188-.217-.442-.153-.68s.241-.429.473-.512c.745-.266 4.534-1.571 6.049-1.165.854.229 1.567.776 2.008 1.542.442.765.559 1.657.331 2.51-.396 1.476-1.737 2.452-3.197 2.452zm-3.625-4.28c1.122 1.217 2.525 2.548 3.158 2.718.961.26 1.956-.316 2.214-1.279.125-.466.061-.953-.18-1.372-.242-.418-.631-.717-1.098-.842-.631-.169-2.514.282-4.094.775z"/></svg>