<svg enable-background="new 0 0 24 24" height="512" viewBox="0 0 24 24" width="512" xmlns="http://www.w3.org/2000/svg"><circle cx="12" cy="12" fill="#ffd54f" r="10.8"/><path d="m14.925 14.35h-5.85c-.373 0-.675.302-.675.675v2.025c0 1.985 1.615 3.6 3.6 3.6s3.6-1.615 3.6-3.6v-2.025c0-.373-.302-.675-.675-.675z" fill="#e53935"/><path d="m12 24c-6.617 0-12-5.383-12-12s5.383-12 12-12 12 5.383 12 12-5.383 12-12 12zm0-22.5c-5.79 0-10.5 4.71-10.5 10.5s4.71 10.5 10.5 10.5 10.5-4.71 10.5-10.5-4.71-10.5-10.5-10.5z"/><path d="m6.75 11c-.236 0-.469-.111-.615-.32-.237-.339-.155-.807.185-1.044l1.622-1.136-1.622-1.136c-.34-.237-.422-.705-.184-1.044.237-.34.706-.422 1.044-.184l2.5 1.75c.2.14.32.369.32.614s-.12.474-.32.614l-2.5 1.75c-.131.092-.281.136-.43.136z"/><path d="m17.25 11c-.149 0-.299-.044-.43-.136l-2.5-1.75c-.2-.14-.32-.369-.32-.614s.12-.474.32-.614l2.5-1.75c.339-.238.808-.155 1.044.184.238.339.155.807-.184 1.044l-1.622 1.136 1.623 1.136c.339.237.422.705.184 1.044-.146.209-.379.32-.615.32z"/><path d="m16.5 15.5h-9c-.414 0-.75-.336-.75-.75s.336-.75.75-.75h9c.414 0 .75.336.75.75s-.336.75-.75.75z"/><path d="m12 21c-2.206 0-4-1.794-4-4v-2.25c0-.414.336-.75.75-.75s.75.336.75.75v2.25c0 1.378 1.122 2.5 2.5 2.5s2.5-1.122 2.5-2.5v-2.25c0-.414.336-.75.75-.75s.75.336.75.75v2.25c0 2.206-1.794 4-4 4z"/></svg>