<svg enable-background="new 0 0 24 24" height="512" viewBox="0 0 24 24" width="512" xmlns="http://www.w3.org/2000/svg"><circle cx="12" cy="12" fill="#ffd54f" r="12"/><path d="m15.775 16.75h-4.05c-.335 0-.608.246-.608.548v1.827c0 1.31 1.181 2.376 2.632 2.376s2.632-1.066 2.632-2.376v-1.827c.001-.302-.271-.548-.606-.548z" fill="#e53935"/><path d="m17.25 17.5h-10.5c-.414 0-.75-.336-.75-.75s.336-.75.75-.75h10.5c.414 0 .75.336.75.75s-.336.75-.75.75z"/><path d="m13.75 22.5c-1.792 0-3.25-1.458-3.25-3.25v-2.5c0-.414.336-.75.75-.75s.75.336.75.75v2.5c0 .965.785 1.75 1.75 1.75s1.75-.785 1.75-1.75v-2.5c0-.414.336-.75.75-.75s.75.336.75.75v2.5c0 1.792-1.458 3.25-3.25 3.25z"/><path d="m12 24c-6.617 0-12-5.383-12-12s5.383-12 12-12 12 5.383 12 12-5.383 12-12 12zm0-22.5c-5.79 0-10.5 4.71-10.5 10.5s4.71 10.5 10.5 10.5 10.5-4.71 10.5-10.5-4.71-10.5-10.5-10.5z"/><path d="m6.75 11c-.236 0-.469-.111-.615-.32-.237-.339-.155-.807.185-1.044l1.622-1.136-1.622-1.136c-.34-.237-.422-.705-.184-1.044.237-.34.706-.422 1.044-.184l2.5 1.75c.2.14.32.369.32.614s-.12.474-.32.614l-2.5 1.75c-.131.092-.281.136-.43.136z"/><path d="m17.25 11c-.149 0-.299-.044-.43-.136l-2.5-1.75c-.2-.14-.32-.369-.32-.614s.12-.474.32-.614l2.5-1.75c.34-.238.808-.156 1.044.184.238.339.155.807-.184 1.044l-1.622 1.136 1.623 1.136c.339.237.422.705.184 1.044-.146.209-.379.32-.615.32z"/></svg>