<svg enable-background="new 0 0 24 24" height="512" viewBox="0 0 24 24" width="512" xmlns="http://www.w3.org/2000/svg"><path d="m.674 4.477s.315 3.654 1.953 5.085c.081.072.162.135.252.198l.117.072h5.229z" fill="#5d4037"/><path d="m23.326 4.477s-.315 3.654-1.953 5.085c-.081.072-.162.135-.252.198l-.117.072h-5.229z" fill="#5d4037"/><path d="m21.45 13.5c0 2.799-1.215 5.31-3.15 7.038-1.026.918-2.25 1.611-3.6 2.016-.855.261-1.764.396-2.7.396s-1.845-.135-2.7-.396c-1.35-.405-2.574-1.098-3.6-2.016-1.935-1.728-3.15-4.239-3.15-7.038 0-1.224.234-2.394.666-3.465.252-.648.576-1.269.972-1.836.171-.252.351-.504.549-.738.549-.666 1.179-1.251 1.89-1.728.063-.045.117-.081.18-.117 1.494-.99 3.276-1.566 5.193-1.566s3.699.576 5.184 1.557c.063.036.126.081.189.126.711.477 1.341 1.062 1.89 1.728.198.234.378.486.549.738.396.567.72 1.188.972 1.836.432 1.071.666 2.241.666 3.465z" fill="#ffd54f"/><path d="m6.051 4.465.243-.441 1.287-2.565c.387-.711 1.134-1.152 1.935-1.152h4.968c.801 0 1.548.441 1.935 1.152l1.287 2.565.243.441s-3.305 1.373-5.949 1.373c-2.644.001-5.949-1.373-5.949-1.373z" fill="#5d4037"/><path d="m22.112 3.972c.245 0 .457.192.457.446 0 .074-.018.153-.059.234-2.687 4.022-6.333 5.393-9.84 5.393-5.835 0-11.283-3.795-11.283-5.495 0-.153.044-.288.135-.403.085-.113.22-.176.361-.176.038 0 .077.005.116.014.099.099 5.198 1.377 9.999 1.377 4.488 0 9.879-1.257 9.999-1.377.038-.009.077-.013.115-.013z" fill="#6d4c41"/><path d="m18.377 13.816c-.097 0-.194-.023-.282-.07l-1.595-.838-1.595.838c-.204.107-.454.089-.639-.046-.187-.136-.281-.366-.242-.594l.305-1.775-1.29-1.257c-.165-.161-.225-.403-.153-.623.071-.22.261-.38.49-.413l1.782-.259.797-1.616c.206-.414.884-.414 1.09 0l.797 1.616 1.782.259c.229.033.419.193.49.413.072.22.012.462-.153.623l-1.29 1.257.305 1.775c.039.228-.055.458-.242.594-.105.077-.231.116-.357.116z" fill="#2196f3"/><path d="m12 20.864c-2.229 0-4.171-1.433-4.833-3.566-.057-.184-.023-.385.092-.54.114-.155.296-.247.489-.247h8.505c.193 0 .375.092.489.247.115.155.149.356.092.54-.663 2.133-2.605 3.566-4.834 3.566z" fill="#e53935"/><path d="m9.381 13.816c-.097 0-.194-.023-.282-.07l-1.595-.838-1.595.838c-.204.108-.453.089-.639-.046-.187-.136-.281-.366-.242-.594l.305-1.775-1.29-1.257c-.166-.163-.226-.404-.154-.624.071-.22.261-.38.49-.413l1.782-.259.797-1.616c.206-.414.884-.414 1.09 0l.797 1.616 1.782.259c.229.033.419.193.49.413.072.22.012.462-.153.623l-1.29 1.257.305 1.775c.039.228-.055.458-.242.594-.104.078-.23.117-.356.117z" fill="#2196f3"/><path d="m9.821 14.633c-.119 0-.239-.028-.349-.086l-1.969-1.035-1.969 1.035c-.252.132-.561.111-.789-.058-.231-.167-.347-.452-.299-.733l.376-2.192-1.592-1.552c-.204-.2-.278-.498-.189-.769.088-.271.322-.469.605-.51l2.2-.32.984-1.995c.254-.512 1.092-.512 1.346 0l.984 1.995 2.2.32c.283.041.518.239.605.51.089.271.015.57-.189.769l-1.593 1.552.376 2.192c.048.281-.067.566-.299.733-.128.096-.283.144-.439.144zm-2.317-2.718c.12 0 .24.029.349.086l.973.511-.186-1.083c-.042-.244.039-.492.216-.664l.787-.767-1.087-.158c-.245-.035-.456-.189-.566-.41l-.486-.986-.486.986c-.109.221-.32.375-.565.41l-1.088.158.787.767c.177.172.258.42.216.664l-.186 1.083.973-.512c.109-.057.229-.085.349-.085z"/><path d="m18.817 14.633c-.119 0-.239-.028-.349-.086l-1.968-1.035-1.969 1.035c-.252.132-.56.111-.789-.058-.231-.167-.347-.452-.299-.733l.376-2.192-1.593-1.552c-.204-.199-.278-.498-.189-.769.088-.271.322-.469.605-.51l2.2-.32.984-1.995c.254-.512 1.092-.512 1.346 0l.984 1.995 2.2.32c.283.041.518.239.605.51.089.271.015.57-.189.769l-1.593 1.552.376 2.192c.048.281-.067.566-.299.733-.128.096-.283.144-.439.144zm-2.317-2.718c.12 0 .24.029.349.086l.973.511-.186-1.083c-.042-.244.039-.492.216-.664l.787-.767-1.087-.158c-.245-.036-.456-.189-.565-.41l-.487-.986-.486.986c-.109.221-.32.375-.565.41l-1.087.158.787.767c.177.172.258.42.216.664l-.186 1.083.972-.512c.109-.057.229-.085.349-.085z"/><path d="m12 21.375c-2.752 0-5.149-1.77-5.967-4.402-.07-.228-.028-.476.113-.668s.366-.305.604-.305h10.5c.238 0 .463.113.604.305.142.192.184.44.113.668-.818 2.632-3.215 4.402-5.967 4.402zm-4.11-3.875c.833 1.453 2.38 2.375 4.11 2.375s3.277-.922 4.11-2.375z"/><path d="m12 10.75-.72-.01c-.414 0-.75-.336-.75-.75s.336-.75.75-.75l.72.01.72-.01c.414 0 .756.336.756.75s-.331.75-.745.75z"/><path d="m12 10.75-.72-.01c-.414 0-.75-.336-.75-.75s.336-.75.75-.75l.72.01.72-.01c.414 0 .756.336.756.75s-.331.75-.745.75z"/><path d="m2.989 10.383c-.146 0-.293-.042-.423-.131-2.12-1.451-2.524-5.587-2.563-6.055-.035-.413.271-.775.684-.81.404-.04.775.271.811.684.092 1.072.614 4.051 1.917 4.942.342.234.429.701.195 1.042-.146.214-.381.328-.621.328z"/><path d="m21.011 10.383c-.239 0-.475-.114-.62-.327-.233-.342-.146-.809.195-1.042 1.303-.891 1.825-3.87 1.917-4.942.035-.413.404-.722.811-.684.412.035.719.397.684.81-.039.467-.443 4.604-2.563 6.055-.131.087-.279.13-.424.13z"/><path d="m12 6.43c-1.726 0-3.573-.132-5.49-.394-.012 0-.023-.001-.032-.003-.324-.04-.637-.081-.94-.131-.24-.04-.445-.194-.552-.413s-.099-.475.018-.689l1.868-3.395c.475-.865 1.383-1.405 2.369-1.405h5.518c.986 0 1.895.54 2.37 1.408l1.867 3.392c.117.213.124.47.018.689s-.312.373-.552.413c-.303.05-.616.091-.939.131-.01.001-.021.002-.032.003-1.918.262-3.765.394-5.491.394zm-5.156-1.861c1.813.24 3.542.361 5.156.361 1.619 0 3.353-.122 5.156-.362l-1.343-2.438c-.212-.39-.616-.63-1.054-.63h-5.518c-.438 0-.842.24-1.054.627z"/><path d="m6.45 9.64c-.098 0-.197-.019-.293-.06-.825-.35-1.602-.779-2.374-1.314-.015-.01-.045-.032-.075-.055l-.001.002c-2.414-1.704-3.557-3.623-3.603-3.704-.156-.264-.134-.597.054-.839.187-.243.503-.343.8-.261.02.006 2.004.573 4.817 1.01.292.05.591.088.891.127 3.879.517 6.803.516 10.654 0 .033-.004.076-.007.109-.007.204-.033.503-.071.783-.119 2.825-.438 4.81-1.006 4.829-1.012.292-.083.612.018.8.261.188.242.21.575.055.839-.047.081-1.189 2-3.604 3.704-.03.023-.061.044-.081.057-.777.538-1.551.968-2.359 1.311-.476.2-1.048-.176-1.048-.69 0-.336.219-.621.522-.716.691-.298 1.358-.671 2.036-1.141.793-.56 1.435-1.142 1.932-1.656-.784.168-1.748.355-2.84.524-.288.049-.608.091-.93.132-.03.005-.072.007-.104.007-1.893.26-3.698.39-5.42.39s-3.527-.13-5.52-.397c-.327-.04-.647-.082-.947-.134-1.089-.169-2.052-.355-2.834-.524.485.505 1.108 1.072 1.873 1.612.015.011.03.022.045.034.728.5 1.406.874 2.126 1.179.381.162.56.602.397.983-.12.286-.398.457-.69.457z"/><path d="m12 10.75-1.283-.051c-.405-.023-.724-.364-.712-.77s.339-.729.745-.729l1.25.05 1.197-.048.053.748-.01.75z"/><path d="m12 24c-5.79 0-10.5-4.71-10.5-10.5 0-2.292.73-4.471 2.111-6.302.249-.331.72-.397 1.05-.147.331.25.397.72.147 1.05-1.183 1.569-1.808 3.436-1.808 5.399 0 4.963 4.037 9 9 9s9-4.037 9-9c0-1.963-.625-3.83-1.809-5.398-.25-.331-.184-.801.147-1.05.329-.25.8-.184 1.05.147 1.382 1.83 2.112 4.009 2.112 6.301 0 5.79-4.71 10.5-10.5 10.5z"/></svg>