<svg enable-background="new 0 0 24 24" height="512" viewBox="0 0 24 24" width="512" xmlns="http://www.w3.org/2000/svg"><path d="m20.047.926c-.179-.161-.435-.201-.653-.103-.219.098-.36.315-.36.555 0 1.017-.457 1.958-1.254 2.581-.264.207-.31.589-.104.853s.589.31.853.104c.02-.015.035-.034.055-.05l1.216 1.217c-.02.031-.035.064-.057.094-.192.275-.125.654.151.846.106.074.227.11.348.11.192 0 .38-.091.499-.26 1.301-1.865 1.003-4.422-.694-5.947z" fill="#e53935"/><path d="m4.937 1.378c0-.24-.141-.457-.36-.555-.218-.098-.475-.058-.654.103-1.696 1.525-1.994 4.082-.693 5.947.118.169.307.26.499.26.12 0 .241-.036.347-.109.275-.192.343-.571.151-.846-.021-.031-.036-.064-.057-.095l1.216-1.216c.019.016.035.034.055.05.264.206.647.16.853-.104s.16-.646-.104-.853c-.796-.624-1.253-1.565-1.253-2.582z" fill="#e53935"/><circle cx="12" cy="12.976" fill="#ef5350" r="9.9"/><path d="m12 20.43c-2.634 0-4.988-1.578-5.997-4.021-.077-.187-.056-.401.057-.57.113-.168.302-.27.505-.27h10.87c.203 0 .392.101.505.27.113.168.134.382.057.57-1.009 2.443-3.363 4.021-5.997 4.021z" fill="#4e342e"/><path d="m8.627 13.205c-.097 0-.194-.023-.283-.07l-1.344-.706-1.344.706c-.205.108-.452.09-.64-.047-.187-.136-.281-.366-.242-.594l.257-1.497-1.088-1.06c-.165-.16-.225-.401-.153-.621s.261-.38.49-.414l1.503-.219.672-1.361c.205-.414.884-.414 1.089 0l.672 1.361 1.504.219c.229.033.419.194.49.414s.012.461-.154.623l-1.088 1.06.257 1.497c.039.228-.055.458-.242.594-.105.076-.23.115-.356.115z" fill="#ffd54f"/><path d="m18.464 12.895c-.087 0-.174-.021-.255-.063l-1.209-.635-1.21.636c-.184.097-.407.081-.576-.042-.168-.122-.253-.33-.217-.535l.231-1.347-.979-.954c-.149-.145-.203-.362-.138-.56.064-.198.235-.342.441-.372l1.353-.197.605-1.226c.184-.373.796-.373.98 0l.605 1.225 1.353.197c.206.03.377.174.441.372s.011.415-.138.56l-.979.954.231 1.347c.035.205-.049.412-.217.535-.096.071-.208.105-.322.105z" fill="#ffd54f"/><path d="m12 21c-3.252 0-6.158-1.948-7.403-4.964-.095-.231-.069-.495.07-.703s.373-.333.623-.333h13.42c.25 0 .484.125.624.333s.165.472.07.703c-1.246 3.016-4.152 4.964-7.404 4.964zm-5.478-4.5c1.184 1.853 3.229 3 5.478 3s4.294-1.147 5.478-3z"/><path d="m9.009 13.932c-.12 0-.239-.028-.349-.086l-1.66-.872-1.66.872c-.252.132-.559.112-.79-.058-.231-.168-.347-.452-.298-.733l.317-1.848-1.342-1.309c-.205-.199-.278-.497-.19-.768s.323-.47.605-.511l1.855-.271.83-1.681c.253-.512 1.092-.512 1.345 0l.83 1.681 1.855.271c.283.041.517.239.605.511.088.271.015.569-.19.769l-1.343 1.309.317 1.848c.048.281-.067.565-.298.733-.129.095-.284.143-.439.143zm-2.009-2.556c.12 0 .24.028.349.086l.664.349-.127-.738c-.042-.243.039-.491.216-.664l.537-.523-.743-.11c-.244-.035-.456-.188-.564-.41l-.332-.672-.332.672c-.109.222-.32.375-.564.41l-.743.109.537.523c.177.173.257.421.216.664l-.127.738.664-.349c.109-.057.229-.085.349-.085z"/><path d="m19.009 13.932c-.12 0-.239-.028-.349-.086l-1.66-.872-1.66.872c-.253.132-.558.112-.79-.058-.231-.168-.347-.452-.298-.733l.317-1.848-1.343-1.309c-.205-.199-.278-.497-.19-.769.088-.271.323-.47.605-.511l1.855-.271.83-1.681c.253-.512 1.092-.512 1.345 0l.83 1.681 1.855.271c.283.041.517.239.605.511.088.271.015.569-.19.769l-1.343 1.309.317 1.848c.048.281-.067.565-.298.733-.128.096-.283.144-.438.144zm-2.009-2.556c.12 0 .24.028.349.086l.664.349-.127-.738c-.042-.243.039-.491.216-.664l.537-.523-.742-.108c-.244-.035-.456-.188-.564-.41l-.333-.674-.332.672c-.109.222-.32.375-.564.41l-.742.108.537.523c.177.173.257.421.216.664l-.127.738.664-.349c.108-.056.228-.084.348-.084z"/><path d="m12 24c-6.065 0-11-4.935-11-11s4.935-11 11-11 11 4.935 11 11-4.935 11-11 11zm0-20.5c-5.238 0-9.5 4.262-9.5 9.5s4.262 9.5 9.5 9.5 9.5-4.262 9.5-9.5-4.262-9.5-9.5-9.5z"/><path d="m20.39 7.875c-.414 0-.75-.331-.75-.745 0-.155.048-.315.137-.442.874-1.239.958-2.823.325-4.126-.352 1.012-.994 1.916-1.857 2.575-.328.251-.8.188-1.051-.142s-.188-.8.141-1.052c1.001-.763 1.575-1.927 1.575-3.193 0-.296.174-.564.445-.686.27-.12.587-.071.807.129 2.092 1.888 2.459 5.031.862 7.328-.132.212-.367.354-.634.354z"/><path d="m3.59 7.89c-.234 0-.465-.109-.612-.315-1.642-2.311-1.284-5.485.831-7.384.221-.198.537-.247.807-.126s.444.389.444.685c0 1.271.578 2.442 1.585 3.214.329.252.392.723.14 1.052-.252.328-.723.39-1.051.14-.882-.676-1.524-1.575-1.873-2.59-.634 1.306-.545 2.894.34 4.139.24.338.161.806-.177 1.046-.131.094-.283.139-.434.139z"/></svg>