<svg enable-background="new 0 0 24 24" height="512" viewBox="0 0 24 24" width="512" xmlns="http://www.w3.org/2000/svg"><circle cx="12" cy="12" fill="#ffd54f" r="10.8"/><path d="m9.72 7.652-1.503-.219-.672-1.362c-.206-.414-.884-.414-1.09 0l-.672 1.362-1.503.219c-.229.033-.419.193-.49.413-.072.22-.012.462.153.623l1.088 1.06-.257 1.497c-.039.228.055.458.242.594.185.135.435.153.639.046l1.345-.707 1.345.707c.089.047.186.07.282.07.126 0 .252-.039.357-.116.187-.136.281-.366.242-.594l-.257-1.497 1.088-1.06c.165-.161.225-.403.153-.623-.071-.22-.261-.38-.49-.413z" fill="#2196f3"/><path d="m20.21 8.065c-.071-.22-.261-.38-.49-.413l-1.503-.218-.672-1.362c-.206-.414-.884-.414-1.09 0l-.672 1.362-1.503.218c-.229.033-.419.193-.49.413-.072.22-.012.462.153.623l1.088 1.06-.257 1.497c-.039.228.055.458.242.594.186.135.435.153.639.046l1.345-.707 1.345.707c.089.047.186.07.282.07.126 0 .252-.039.357-.116.187-.136.281-.366.242-.594l-.257-1.497 1.088-1.06c.165-.162.225-.403.153-.623z" fill="#2196f3"/><path d="m18.861 15.071c-.186.591-.429 1.134-.745 1.644h-12.231c-.316-.51-.559-1.053-.745-1.644-.057-.186-.024-.381.097-.535.113-.162.292-.251.486-.251h12.555c.194 0 .373.089.486.251.121.154.153.348.097.535z" fill="#fff"/><path d="m18.115 17.151c-1.28 2.098-3.572 3.418-6.115 3.418s-4.836-1.32-6.115-3.418z" fill="#e53935"/><path d="m12 21.22c-3.904 0-7.307-2.511-8.467-6.248-.07-.228-.028-.475.113-.667s.366-.305.604-.305h15.5c.238 0 .463.113.604.305.142.192.184.439.113.667-1.16 3.737-4.563 6.248-8.467 6.248zm-6.656-5.72c1.203 2.561 3.764 4.22 6.656 4.22s5.453-1.659 6.656-4.22z"/><path d="m18.81 17.5h-13.62c-.414 0-.75-.336-.75-.75s.336-.75.75-.75h13.62c.414 0 .75.336.75.75s-.336.75-.75.75z"/><path d="m12 24c-6.617 0-12-5.383-12-12s5.383-12 12-12 12 5.383 12 12-5.383 12-12 12zm0-22.5c-5.79 0-10.5 4.71-10.5 10.5s4.71 10.5 10.5 10.5 10.5-4.71 10.5-10.5-4.71-10.5-10.5-10.5z"/><path d="m9.009 12.682c-.119 0-.239-.028-.349-.086l-1.66-.873-1.66.873c-.252.132-.561.11-.789-.057-.231-.168-.347-.452-.299-.734l.317-1.848-1.342-1.309c-.205-.199-.279-.498-.19-.769.088-.271.322-.469.605-.51l1.855-.27.829-1.682c.254-.512 1.092-.512 1.346 0l.829 1.682 1.855.27c.283.041.518.239.605.51.089.271.015.57-.189.769l-1.341 1.309.317 1.848c.048.282-.067.566-.299.734-.13.094-.285.143-.44.143zm-2.009-2.557c.12 0 .24.029.349.086l.664.349-.127-.738c-.042-.244.039-.492.216-.664l.536-.523-.742-.108c-.245-.036-.456-.189-.565-.41l-.331-.672-.331.672c-.109.221-.32.375-.565.41l-.742.108.536.523c.177.172.258.42.216.664l-.127.739.664-.349c.109-.058.229-.087.349-.087z"/><path d="m19.009 12.682c-.119 0-.239-.028-.349-.086l-1.66-.873-1.66.873c-.252.132-.561.11-.789-.057-.231-.168-.347-.452-.299-.734l.317-1.848-1.343-1.309c-.204-.199-.278-.498-.189-.769.088-.271.322-.469.605-.51l1.855-.27.829-1.682c.254-.512 1.092-.512 1.346 0l.829 1.682 1.855.27c.283.041.518.239.605.51.089.271.015.57-.189.769l-1.343 1.309.317 1.848c.048.282-.067.566-.299.734-.128.094-.283.143-.438.143zm-2.009-2.557c.12 0 .24.029.349.086l.664.349-.127-.739c-.042-.244.039-.492.216-.664l.536-.523-.741-.108c-.245-.036-.456-.189-.565-.41l-.332-.671-.331.672c-.109.221-.32.375-.565.41l-.741.108.536.523c.177.172.258.42.216.664l-.127.739.664-.349c.108-.058.228-.087.348-.087z"/></svg>