<svg enable-background="new 0 0 24 24" height="512" viewBox="0 0 24 24" width="512" xmlns="http://www.w3.org/2000/svg"><path d="m20.047.926c-.179-.161-.435-.201-.653-.103-.219.098-.36.315-.36.555 0 1.017-.457 1.958-1.254 2.581-.264.207-.31.589-.104.853s.589.31.853.104c.02-.015.035-.034.055-.05l1.216 1.217c-.02.031-.035.064-.057.094-.192.275-.125.654.151.846.106.074.227.11.348.11.192 0 .38-.091.499-.26 1.301-1.865 1.003-4.422-.694-5.947z" fill="#e53935"/><path d="m4.937 1.378c0-.24-.141-.457-.36-.555-.218-.098-.475-.058-.654.103-1.696 1.525-1.994 4.082-.693 5.947.118.169.307.26.499.26.12 0 .241-.036.347-.109.275-.192.343-.571.151-.846-.021-.031-.036-.064-.057-.095l1.216-1.216c.019.016.035.034.055.05.264.206.647.16.853-.104s.16-.646-.104-.853c-.796-.624-1.253-1.565-1.253-2.582z" fill="#e53935"/><circle cx="12" cy="12.976" fill="#ef5350" r="9.9"/><path d="m19.719 7.674c-.221-.025-5.17-.574-7.719.69-2.549-1.263-7.498-.715-7.719-.69-.327.038-.574.297-.574.603 0 1.708.846 4.939 4.049 4.939 2.149 0 3.503-1.263 4.243-2.5.741 1.238 2.095 2.5 4.243 2.5 3.203 0 4.049-3.231 4.049-4.939.002-.306-.245-.565-.572-.603z" fill="#455a64"/><path d="m12 24c-6.065 0-11-4.935-11-11s4.935-11 11-11 11 4.935 11 11-4.935 11-11 11zm0-20.5c-5.238 0-9.5 4.262-9.5 9.5s4.262 9.5 9.5 9.5 9.5-4.262 9.5-9.5-4.262-9.5-9.5-9.5z"/><path d="m20.39 7.875c-.414 0-.75-.331-.75-.745 0-.155.048-.315.138-.442.874-1.239.959-2.823.325-4.126-.353 1.012-.994 1.916-1.857 2.574-.33.254-.8.188-1.051-.141-.252-.329-.188-.8.141-1.051 1-.764 1.574-1.928 1.574-3.194 0-.296.175-.564.445-.686.269-.118.588-.07.807.129 2.093 1.888 2.46 5.031.862 7.328-.132.212-.367.354-.634.354z"/><path d="m3.591 7.89c-.235 0-.466-.109-.612-.315-1.642-2.311-1.285-5.485.83-7.384.221-.197.535-.246.807-.126.27.121.444.389.444.685 0 1.271.578 2.442 1.587 3.214.328.252.392.723.14 1.052-.251.327-.72.393-1.052.14-.882-.676-1.525-1.574-1.875-2.59-.633 1.306-.544 2.894.341 4.139.24.338.161.806-.177 1.046-.131.094-.284.139-.433.139z"/><path d="m11.75 21c-.414 0-.75-.336-.75-.75s.336-.75.75-.75c2.467 0 4.81-1.193 6.268-3.191.243-.335.712-.408 1.048-.163.334.244.407.713.163 1.048-1.739 2.383-4.535 3.806-7.479 3.806z"/><path d="m7.139 14.017c-3.669 0-4.639-3.988-4.639-6.098 0-.379.282-.697.657-.744.265-.032 6.511-.783 9.266 1.098.253.173.376.482.31.782-.382 1.716-2.043 4.962-5.594 4.962zm-3.097-5.425c.136 1.281.706 3.925 3.097 3.925 2.527 0 3.606-2.227 3.974-3.269-1.842-.87-5.226-.809-7.071-.656z"/><path d="m16.861 14.017c-3.552 0-5.212-3.246-5.594-4.962-.066-.3.057-.609.31-.782 2.754-1.882 9.001-1.13 9.266-1.098.375.047.657.365.657.744 0 2.109-.97 6.098-4.639 6.098zm-3.973-4.769c.367 1.042 1.446 3.269 3.974 3.269 2.391 0 2.961-2.644 3.097-3.925-1.846-.153-5.228-.214-7.071.656z"/></svg>