<svg enable-background="new 0 0 24 24" height="512" viewBox="0 0 24 24" width="512" xmlns="http://www.w3.org/2000/svg"><circle cx="12" cy="12" fill="#ffd54f" r="10.8"/><circle cx="7" cy="9" fill="#6d4c41" r="1.8"/><circle cx="17" cy="9" fill="#6d4c41" r="1.8"/><path d="m16.746 13.777h-9.45c-1.375 0-2.493 1.119-2.493 2.494s1.119 2.493 2.493 2.493h9.45c1.375 0 2.494-1.118 2.494-2.493s-1.119-2.494-2.494-2.494z" fill="#e53935"/><path d="m12 24c-6.617 0-12-5.383-12-12s5.383-12 12-12 12 5.383 12 12-5.383 12-12 12zm0-22.5c-5.79 0-10.5 4.71-10.5 10.5s4.71 10.5 10.5 10.5 10.5-4.71 10.5-10.5-4.71-10.5-10.5-10.5z"/><path d="m7 11c-1.103 0-2-.897-2-2s.897-2 2-2 2 .897 2 2-.897 2-2 2zm0-2.5c-.275 0-.5.224-.5.5s.225.5.5.5.5-.224.5-.5-.225-.5-.5-.5z"/><path d="m17 11c-1.103 0-2-.897-2-2s.897-2 2-2 2 .897 2 2-.897 2-2 2zm0-2.5c-.275 0-.5.224-.5.5s.225.5.5.5.5-.224.5-.5-.225-.5-.5-.5z"/><path d="m17.271 19.042h-10.5c-1.528 0-2.771-1.243-2.771-2.771s1.243-2.771 2.771-2.771h10.5c1.528 0 2.771 1.243 2.771 2.771s-1.243 2.771-2.771 2.771zm-10.5-4.042c-.701 0-1.271.57-1.271 1.271s.57 1.271 1.271 1.271h10.5c.701 0 1.271-.57 1.271-1.271s-.57-1.271-1.271-1.271z"/></svg>