<svg enable-background="new 0 0 24 24" height="512" viewBox="0 0 24 24" width="512" xmlns="http://www.w3.org/2000/svg"><path d="m3.243 12.309c.098-.32-.081-.66-.402-.759-.162-.05-.334-.075-.511-.075-1.117 0-2.025.908-2.025 2.025s.908 2.025 2.025 2.025c.177 0 .348-.025.511-.075.321-.098.501-.438.402-.759-.08-.262-.321-.42-.581-.42v-1.542c.26 0 .501-.158.581-.42z" fill="#ffb74d"/><path d="m21.116 11.531c-.327.076-.53.403-.454.729.065.28.316.459.592.458v1.562c-.276-.001-.527.179-.592.459-.076.327.127.653.454.729.16.037.318.056.469.056 1.117 0 2.025-.908 2.025-2.025 0-1.267-1.155-2.277-2.494-1.968z" fill="#ffb74d"/><path d="m20.958 13.5c0 4.959-4.041 9-9 9s-9-4.041-9-9c0-3.6 2.124-6.705 5.184-8.145.432-.216.891-.387 1.368-.513.774-.225 1.602-.342 2.448-.342s1.674.117 2.448.342c.018.108.027.216.027.333 0 1.368 1.251 2.205 1.341.18 3.06 1.44 5.184 4.545 5.184 8.145z" fill="#ffd54f"/><path d="m8 14.25c-.827 0-1.5-.673-1.5-1.5s.673-1.5 1.5-1.5 1.5.673 1.5 1.5-.673 1.5-1.5 1.5z" fill="#6d4c41"/><path d="m16 14.5c-.827 0-1.5-.673-1.5-1.5s.673-1.5 1.5-1.5 1.5.673 1.5 1.5-.673 1.5-1.5 1.5z" fill="#6d4c41"/><path d="m8 15c-1.103 0-2-.897-2-2s.897-2 2-2 2 .897 2 2-.897 2-2 2zm0-2.5c-.276 0-.5.225-.5.5s.224.5.5.5.5-.225.5-.5-.224-.5-.5-.5z"/><path d="m16 15c-1.103 0-2-.897-2-2s.897-2 2-2 2 .897 2 2-.897 2-2 2zm0-2.5c-.276 0-.5.225-.5.5s.224.5.5.5.5-.225.5-.5-.224-.5-.5-.5z"/><path d="m12 23.5c-5.514 0-10-4.486-10-10s4.486-10 10-10 10 4.486 10 10c0 2.148-.663 4.184-1.916 5.886-.246.334-.717.404-1.049.158-.333-.245-.405-.715-.159-1.049 1.062-1.441 1.624-3.169 1.624-4.995 0-4.687-3.813-8.5-8.5-8.5s-8.5 3.813-8.5 8.5 3.813 8.5 8.5 8.5c2.206 0 4.287-.834 5.859-2.35.298-.288.774-.277 1.061.02.288.299.279.773-.02 1.061-1.853 1.786-4.304 2.769-6.9 2.769z"/><path d="m2.5 16c-1.378 0-2.5-1.121-2.5-2.5s1.122-2.5 2.5-2.5c.218 0 .43.031.63.093.396.121.618.541.497.937-.121.397-.542.62-.937.497-.057-.018-.122-.027-.19-.027-.551 0-1 .448-1 1s.449 1 1 1c.068 0 .133-.009.19-.026.395-.12.816.101.937.497.122.396-.101.815-.497.937-.2.061-.412.092-.63.092z"/><path d="m12 8.5c-.672 0-1.333-.156-1.911-.452-.369-.189-.515-.641-.327-1.01.189-.368.642-.514 1.009-.326.369.188.793.288 1.229.288 1.517 0 2.75-1.233 2.75-2.75s-1.233-2.75-2.75-2.75-2.75 1.233-2.75 2.75c0 .188.016.347.05.487.095.403-.154.807-.557.903-.408.093-.807-.155-.903-.557-.061-.255-.09-.527-.09-.833 0-2.344 1.907-4.25 4.25-4.25s4.25 1.906 4.25 4.25-1.907 4.25-4.25 4.25z"/><path d="m21.5 16c-.187 0-.382-.023-.58-.069-.404-.094-.655-.497-.561-.9.093-.402.499-.66.9-.561.087.021.168.03.241.03.551 0 1-.448 1-1s-.449-1-1-1c-.073 0-.154.01-.241.03-.402.094-.807-.158-.9-.561-.094-.403.157-.807.561-.9 1.654-.382 3.08.866 3.08 2.431 0 1.379-1.122 2.5-2.5 2.5z"/><path d="m14.827 21.086c-.192 0-.384-.073-.53-.22-1.228-1.227-3.366-1.227-4.594 0-.293.293-.768.293-1.061 0s-.293-.768 0-1.061c1.852-1.852 4.863-1.852 6.715 0 .293.293.293.768 0 1.061-.146.147-.338.22-.53.22z"/><path d="m18 21c-1.241 0-2.25-1.01-2.25-2.25 0-.958 1.142-2.716 1.633-3.426.28-.406.954-.406 1.234 0 .491.71 1.633 2.468 1.633 3.426 0 1.24-1.009 2.25-2.25 2.25zm0-3.86c-.432.729-.744 1.382-.75 1.611 0 .412.336.749.75.749s.75-.336.75-.749c-.006-.23-.318-.884-.75-1.611z"/></svg>