<svg enable-background="new 0 0 24 24" height="512" viewBox="0 0 24 24" width="512" xmlns="http://www.w3.org/2000/svg"><circle cx="12" cy="12" fill="#ffd54f" r="10.8"/><path d="m19.623 15.023c-.207.657-.477 1.26-.828 1.827h-13.59c-.351-.567-.621-1.17-.828-1.827-.063-.207-.027-.423.108-.594.126-.18.324-.279.54-.279h13.95c.216 0 .414.099.54.279.135.171.171.387.108.594z" fill="#fff"/><path d="m18.795 17.211c-1.422 2.331-3.969 3.798-6.795 3.798s-5.373-1.467-6.795-3.798z" fill="#e53935"/><path d="m5.379 11.086c-.806.147-3.497.691-4.31 1.505-.99.99-.99 2.601 0 3.591.495.495 1.145.743 1.796.743.65 0 1.3-.248 1.795-.743.814-.813 1.358-3.505 1.505-4.31.04-.218-.03-.442-.186-.599-.158-.157-.383-.228-.6-.187z" fill="#00bcd4"/><path d="m22.931 12.591c-.813-.813-3.504-1.357-4.31-1.505-.219-.041-.442.03-.599.187-.156.157-.227.381-.186.599.147.806.691 3.497 1.505 4.31.495.495 1.145.742 1.795.742s1.301-.247 1.796-.742c.989-.991.989-2.601-.001-3.591z" fill="#00bcd4"/><path d="m12 24c-4.896 0-9.258-2.935-11.114-7.476-.037-.09-.056-.187-.056-.284 0-.414.336-.755.75-.755.34 0 .627.223.719.532 1.639 3.941 5.439 6.483 9.701 6.483 4.275 0 8.087-2.559 9.717-6.521.105-.287.381-.494.703-.494.414 0 .75.331.75.745v.01c0 .097-.019.194-.056.284-1.856 4.541-6.218 7.476-11.114 7.476z"/><path d="m23.171 14.05c-.029 0-.058-.001-.087-.005-.412-.048-.707-.42-.659-.832.051-.436.075-.833.075-1.213 0-5.79-4.71-10.5-10.5-10.5s-10.5 4.71-10.5 10.5c0 .38.024.777.075 1.213.048.412-.247.784-.659.832-.402.049-.784-.247-.831-.659-.058-.494-.085-.947-.085-1.386 0-6.617 5.383-12 12-12s12 5.383 12 12c0 .439-.027.892-.085 1.386-.044.382-.368.664-.744.664z"/><path d="m12 21.22c-3.023 0-5.805-1.52-7.44-4.065-.272-.407-.508-.848-.712-1.336-.159-.382.021-.821.403-.981.381-.159.822.02.981.403.166.398.356.755.582 1.092 1.366 2.125 3.675 3.387 6.186 3.387s4.82-1.262 6.179-3.375c.232-.349.423-.706.589-1.104.16-.383.6-.562.981-.403s.562.599.403.981c-.204.489-.439.929-.719 1.348-1.628 2.534-4.41 4.053-7.433 4.053z"/><path d="m19.1 15.5h-14.2c-.414 0-.75-.336-.75-.75s.336-.75.75-.75h14.2c.414 0 .75.336.75.75s-.336.75-.75.75z"/><path d="m18.81 17.5h-13.62c-.414 0-.75-.336-.75-.75s.336-.75.75-.75h13.62c.414 0 .75.336.75.75s-.336.75-.75.75z"/><path d="m9.25 10.25c-.414 0-.75-.336-.75-.75 0-.551-.448-1-1-1s-1 .449-1 1c0 .414-.336.75-.75.75s-.75-.336-.75-.75c0-1.378 1.121-2.5 2.5-2.5s2.5 1.122 2.5 2.5c0 .414-.336.75-.75.75z"/><path d="m18.25 10.25c-.414 0-.75-.336-.75-.75 0-.551-.448-1-1-1s-1 .449-1 1c0 .414-.336.75-.75.75s-.75-.336-.75-.75c0-1.378 1.121-2.5 2.5-2.5s2.5 1.122 2.5 2.5c0 .414-.336.75-.75.75z"/><path d="m2.821 17.249c-.723 0-1.445-.275-1.995-.825-1.1-1.1-1.1-2.89 0-3.99.903-.904 3.894-1.508 4.789-1.672.243-.045.491.033.665.208s.252.423.207.665c-.163.895-.767 3.885-1.672 4.789-.549.55-1.272.825-1.994.825zm-.934-3.754c-.515.515-.515 1.354 0 1.869.516.515 1.353.514 1.868 0 .31-.31.721-1.584 1.027-2.895-1.311.306-2.586.717-2.895 1.026z"/><path d="m21.179 17.249c-.722 0-1.444-.275-1.994-.825-.904-.904-1.509-3.894-1.672-4.789-.045-.242.033-.491.207-.665s.422-.252.665-.208c.896.164 3.886.768 4.789 1.672 1.1 1.1 1.1 2.89 0 3.99-.55.55-1.273.825-1.995.825zm-1.96-4.781c.306 1.311.717 2.585 1.026 2.895.515.514 1.352.515 1.868 0 .515-.515.515-1.354 0-1.869-.309-.308-1.584-.719-2.894-1.026z"/></svg>