<svg enable-background="new 0 0 24 24" height="512" viewBox="0 0 24 24" width="512" xmlns="http://www.w3.org/2000/svg"><path d="m21.173 16.431c-.136 0-.318-.007-.515-.064-.323-.092-.509-.428-.417-.751s.43-.513.751-.417c.042.012.096.017.182.017.67 0 .749-2.355.132-2.426-.333-.039-.572-.34-.534-.673.039-.334.339-.57.674-.534 1.23.142 2.157 1.183 2.157 2.418 0 1.34-1.09 2.43-2.43 2.43z" fill="#ffb74d"/><path d="m2.685 15.97c-1.085 0-1.968-.883-1.968-1.968 0-1.001.751-1.843 1.748-1.959.268-.029.514.162.546.432.031.27-.162.514-.432.545-.5.058-.435 1.965.107 1.965.088 0 .122-.008.131-.011.259-.079.535.066.615.325s-.066.535-.325.615c-.122.039-.255.056-.422.056z" fill="#ffb74d"/><path d="m12 23.051c-3.822 0-5.896-2.508-7.567-5.217-.03-.052-.444-.781-.625-1.182-.219-.505-.398-1.042-.536-1.603-.029-.12-.025-.246.012-.365l1.332-4.212c.059-.186.199-.339.379-.417.027-.012 2.731-1.199 2.731-3.412 0-.323.229-.599.546-.662.315-.064.633.11.755.409.06.148 1.363 3.261 4.464 3.933-.573-1.463-.367-2.83-.356-2.903.045-.283.263-.506.545-.558.282-.054.566.08.708.328.623 1.087 1.992 2.811 3.014 2.811.322 0 .455-.006.592-.012.162-.007.33-.015.766-.015.295 0 .557.192.645.475l1.314 4.221c.035.113.04.235.014.351-.12.525-.299 1.07-.532 1.617-.209.459-.679 1.245-.699 1.279-1.576 2.491-3.575 5.134-7.502 5.134z" fill="#ffd54f"/><g fill="#6d4c41"><path d="m8 15.215c-.67 0-1.215-.545-1.215-1.215s.545-1.215 1.215-1.215 1.215.545 1.215 1.215-.545 1.215-1.215 1.215z"/><path d="m16 15.094c-.603 0-1.094-.491-1.094-1.094s.49-1.094 1.094-1.094c.603 0 1.094.491 1.094 1.094s-.491 1.094-1.094 1.094z"/><path d="m3.282 15.68c-.009 0-.017 0-.026 0-.327-.012-.607-.235-.683-.548-.194-.791-.292-1.6-.292-2.403v-4.284c0-3.741 2.629-5.06 4.409-5.312.349-.868 1.5-2.281 5.291-2.38 2.954-.053 5.811.919 7.617 2.646 1.389 1.329 2.122 3.066 2.122 5.027v4.284c0 .794-.098 1.602-.292 2.402-.076.313.154.629-.175.64-.357-.012-.624-.195-.721-.502l-1.436-4.6c-.09.003-.159.006-.227.009-.164.007-.565.014-.949.014-1.041 0-2.854-1.681-3.635-2.459.119.267.439 1.427.635 1.682.167.216.194.506.071.748s-.376.395-.653.395c-3.368 0-4.776-1.806-5.862-3.327-.787 1.581-2.902 2.55-3.584 2.892l-1.439 4.646c-.096.298.146.43-.171.43z"/></g><path d="m12 24c-4.258 0-6.559-2.787-8.412-5.8-.033-.056-.492-.864-.691-1.31-.596-1.377-.897-2.826-.897-4.314v-4.498c0-3.932 2.703-5.315 4.533-5.58.359-.912 1.544-2.396 5.449-2.494 3.051-.073 5.973.96 7.832 2.772 1.43 1.395 2.186 3.222 2.186 5.284v4.498c0 1.483-.301 2.935-.894 4.313-.228.506-.75 1.389-.772 1.426-1.752 2.769-3.974 5.703-8.334 5.703zm.287-22.5c-.089 0-.178.001-.268.004-3.178.079-4.1 1.161-4.143 1.722-.029.384-.348.715-.734.723-.37.011-3.642.218-3.642 4.129v4.498c0 1.281.259 2.529.771 3.71.174.388.609 1.15.609 1.15 1.864 3.031 3.796 5.064 7.12 5.064 3.247 0 5.106-1.908 7.055-4.986.127-.216.522-.9.679-1.247.506-1.179.766-2.431.766-3.709v-4.498c0-1.671-.583-3.088-1.734-4.209-1.498-1.462-3.961-2.351-6.479-2.351z"/><path d="m3.03 15.68c-.075 0-.151-.011-.226-.035-.395-.125-.614-.546-.489-.941l1.48-4.68c.065-.208.22-.378.42-.463.031-.014 3.035-1.332 3.035-3.791 0-.358.254-.666.606-.735.348-.072.704.121.839.453.067.164 1.514 3.623 4.959 4.37-.636-1.626-.408-3.145-.396-3.226.05-.314.292-.562.605-.62.312-.059.628.09.786.364.694 1.209 2.216 3.124 3.351 3.124.357 0 .505-.007.658-.014.18-.008.367-.017.852-.017.328 0 .619.214.716.527l1.46 4.69c.123.396-.098.815-.493.938-.397.124-.816-.098-.939-.493l-1.294-4.157c-.092.003-.164.006-.233.01-.17.008-.332.016-.727.016-1.071 0-2.079-.713-2.882-1.53.122.28.279.562.481.829.171.227.2.531.073.786-.128.254-.387.415-.672.415-3.465 0-5.601-2.117-6.718-3.715-.81 1.66-2.454 2.643-3.155 3.001l-1.382 4.37c-.101.32-.397.524-.715.524z"/><path d="m12 19.995c-1.094 0-2.188-.401-3.021-1.205-.298-.288-.306-.763-.019-1.061.288-.3.763-.305 1.061-.02 1.091 1.055 2.867 1.055 3.958 0 .299-.285.774-.28 1.061.02.288.298.279.772-.019 1.061-.833.804-1.927 1.205-3.021 1.205z"/><path d="m8 16c-1.103 0-2-.897-2-2s.897-2 2-2 2 .897 2 2-.897 2-2 2zm0-2.5c-.276 0-.5.225-.5.5s.224.5.5.5.5-.225.5-.5-.224-.5-.5-.5z"/><path d="m16 16c-1.103 0-2-.897-2-2s.897-2 2-2 2 .897 2 2-.897 2-2 2zm0-2.5c-.276 0-.5.225-.5.5s.224.5.5.5.5-.225.5-.5-.224-.5-.5-.5z"/><path d="m3 17c-1.654 0-3-1.346-3-3 0-1.525 1.145-2.81 2.664-2.985.408-.041.784.247.832.659.047.411-.247.783-.659.831-.762.088-1.337.731-1.337 1.495 0 .827.673 1.5 1.5 1.5.135 0 .187-.013.199-.017.395-.123.815.101.938.496.122.396-.1.815-.496.938-.184.057-.388.083-.641.083z"/><path d="m21 17c-.168 0-.392-.009-.636-.079-.398-.113-.629-.528-.515-.927s.53-.634.927-.515c.051.015.118.021.224.021.827 0 1.5-.673 1.5-1.5 0-.764-.575-1.407-1.336-1.495-.412-.048-.706-.42-.659-.831.048-.412.418-.7.832-.659 1.518.175 2.663 1.46 2.663 2.985 0 1.654-1.346 3-3 3z"/></svg>