<svg enable-background="new 0 0 24 24" height="512" viewBox="0 0 24 24" width="512" xmlns="http://www.w3.org/2000/svg"><path d="m18.345 17.271c-.182 0-.359-.074-.488-.208-.164-.171-.226-.417-.163-.647.103-.374.156-.746.156-1.107v-4.075c-3.152-.242-4.98-2.146-5.843-3.379-.868 1.232-2.704 3.138-5.857 3.379v4.075c-.007.363.04.717.147 1.097.064.23.002.477-.164.65-.167.173-.413.243-.643.188-1.466-.352-2.49-1.651-2.49-3.159v-5.76c0-5.095 4.67-7.416 9.009-7.416 4.33 0 8.991 2.324 8.991 7.425v5.76c0 1.497-1.053 2.825-2.504 3.159-.05.012-.101.018-.151.018z" fill="#6d4c41"/><path d="m12 23.075c-2.926 0-6.2-2.687-7.007-5.75-.139-.5-.203-.982-.193-1.464v-4.711c0-.373.302-.675.675-.675 4.238 0 5.901-3.614 5.918-3.65.108-.243.35-.4.616-.4h.001c.267.001.509.158.616.402.067.148 1.69 3.648 5.899 3.648.373 0 .675.302.675.675v4.725c0 .483-.069.976-.205 1.467-.855 3.055-4.124 5.733-6.995 5.733z" fill="#ffd54f"/><path d="m8.75 15.1c-.744 0-1.35-.606-1.35-1.35s.606-1.35 1.35-1.35 1.35.606 1.35 1.35-.606 1.35-1.35 1.35z" fill="#6d4c41"/><path d="m15.25 15.1c-.744 0-1.35-.606-1.35-1.35s.606-1.35 1.35-1.35 1.35.606 1.35 1.35-.606 1.35-1.35 1.35z" fill="#6d4c41"/><path d="m8.75 15.5c-.965 0-1.75-.785-1.75-1.75s.785-1.75 1.75-1.75 1.75.785 1.75 1.75-.785 1.75-1.75 1.75zm0-2c-.138 0-.25.112-.25.25 0 .275.5.275.5 0 0-.138-.112-.25-.25-.25z"/><path d="m15.25 15.5c-.965 0-1.75-.785-1.75-1.75s.785-1.75 1.75-1.75 1.75.785 1.75 1.75-.785 1.75-1.75 1.75zm0-2c-.138 0-.25.112-.25.25 0 .275.5.275.5 0 0-.138-.112-.25-.25-.25z"/><path d="m12 19.995c-1.094 0-2.188-.401-3.021-1.205-.299-.288-.307-.763-.02-1.061.289-.3.764-.305 1.061-.02 1.092 1.055 2.867 1.055 3.959 0 .299-.285.772-.28 1.061.02.287.298.279.772-.02 1.061-.832.804-1.926 1.205-3.02 1.205z"/><path d="m19.049 18.18c-.341 0-.65-.234-.729-.582-.094-.403.158-.806.562-.898.938-.217 1.618-1.078 1.618-2.049v-6.4c0-5.328-5.337-6.75-8.49-6.75-3.161-.001-8.51 1.419-8.51 6.739v6.399c0 .979.664 1.823 1.615 2.051.403.097.651.502.555.904-.097.403-.504.648-.904.555-1.628-.39-2.766-1.834-2.766-3.509v-6.4c0-5.661 5.188-8.24 10.01-8.24 4.811 0 9.99 2.582 9.99 8.25v6.36c0 1.703-1.17 3.179-2.782 3.55-.057.014-.114.02-.169.02z"/><path d="m12 24c-1.844 0-3.924-.99-5.563-2.649-1.571-1.589-2.458-3.542-2.437-5.36v-5.241c0-.414.336-.75.75-.75 4.709 0 6.556-4.016 6.574-4.056.12-.271.389-.444.685-.444h.001c.297 0 .564.176.685.446.074.164 1.877 4.054 6.555 4.054.414 0 .75.336.75.75v5.25c0 1.877-.961 3.885-2.637 5.51-1.609 1.559-3.614 2.49-5.363 2.49zm-6.5-12.528v4.528c-.017 1.429.714 2.991 2.003 4.296 1.344 1.359 3.066 2.204 4.497 2.204 1.348 0 3.003-.792 4.319-2.067 1.386-1.344 2.181-2.959 2.181-4.433v-4.528c-3.502-.269-5.533-2.385-6.493-3.755-.965 1.369-3.003 3.486-6.507 3.755z"/></svg>