<svg enable-background="new 0 0 24 24" height="512" viewBox="0 0 24 24" width="512" xmlns="http://www.w3.org/2000/svg"><circle cx="12" cy="12" fill="#ffd54f" r="10.8"/><path d="m22.8 11.7c0 .153 0 .297-.018.45h-21.573c-.009-.153-.009-.297-.009-.45 0-2.16.63-4.167 1.719-5.85h18.162c1.089 1.683 1.719 3.69 1.719 5.85z" fill="#455a64"/><circle cx="7" cy="9" fill="#fff" r="1.8"/><circle cx="17" cy="9" fill="#fff" r="1.8"/><path d="m12.25 21c-.414 0-.75-.336-.75-.75s.336-.75.75-.75c2.466 0 4.809-1.193 6.267-3.191.245-.335.712-.409 1.048-.164.335.244.408.713.164 1.048-1.74 2.384-4.536 3.807-7.479 3.807z"/><path d="m12 24c-6.617 0-12-5.383-12-12s5.383-12 12-12 12 5.383 12 12-5.383 12-12 12zm0-22.5c-5.79 0-10.5 4.71-10.5 10.5s4.71 10.5 10.5 10.5 10.5-4.71 10.5-10.5-4.71-10.5-10.5-10.5z"/><path d="m7 11c-1.103 0-2-.897-2-2s.897-2 2-2 2 .897 2 2-.897 2-2 2zm0-2.5c-.276 0-.5.224-.5.5s.224.5.5.5.5-.224.5-.5-.224-.5-.5-.5z"/><path d="m17 11c-1.103 0-2-.897-2-2s.897-2 2-2 2 .897 2 2-.897 2-2 2zm0-2.5c-.276 0-.5.224-.5.5s.224.5.5.5.5-.224.5-.5-.224-.5-.5-.5z"/><path d="m23.23 13.5h-22.46c-.414 0-.75-.336-.75-.75s.336-.75.75-.75h22.46c.414 0 .75.336.75.75s-.336.75-.75.75z"/><path d="m20.99 6h-17.98c-.414 0-.75-.336-.75-.75s.336-.75.75-.75h17.98c.414 0 .75.336.75.75s-.336.75-.75.75z"/></svg>