<svg enable-background="new 0 0 24 24" height="512" viewBox="0 0 24 24" width="512" xmlns="http://www.w3.org/2000/svg"><path d="m19.997 1.229c-.161-.145-.392-.18-.588-.093-.197.088-.324.284-.324.499 0 .916-.411 1.762-1.128 2.323-.238.186-.279.53-.094.768.186.237.53.279.768.094.018-.014.032-.031.049-.045l1.095 1.095c-.018.028-.032.057-.051.085-.173.248-.112.588.136.761.095.066.204.098.313.098.173 0 .342-.082.449-.234 1.171-1.678.902-3.979-.625-5.351z" fill="#e53935"/><path d="m4.886 1.635c0-.216-.127-.411-.324-.499s-.428-.052-.589.093c-1.527 1.372-1.795 3.673-.623 5.352.106.152.276.234.449.234.108 0 .217-.032.313-.098.248-.173.308-.514.136-.761-.02-.028-.034-.058-.052-.086l1.095-1.095c.017.014.031.031.049.045.237.185.582.144.768-.094s.144-.582-.094-.768c-.717-.561-1.128-1.407-1.128-2.323z" fill="#e53935"/><circle cx="12" cy="12.976" fill="#ef5350" r="9.9"/><path d="m16.488 8.519.515-.515c.214-.214.214-.56 0-.773-.214-.214-.56-.214-.773 0l-1.458 1.458c-.004.004-.005.01-.009.014-.014.013-.031.023-.045.037-.275.276-.427.641-.427 1.03 0 .804.654 1.458 1.458 1.458s1.458-.654 1.458-1.458c.001-.534-.29-.997-.719-1.251z" fill="#4e342e"/><path d="m9.237 8.702c-.004-.004-.005-.01-.009-.014l-1.459-1.457c-.214-.214-.56-.214-.773 0-.214.214-.214.56 0 .773l.515.515c-.429.254-.72.717-.72 1.25 0 .804.654 1.458 1.458 1.458s1.458-.654 1.458-1.458c0-.389-.152-.755-.427-1.03-.013-.014-.029-.023-.043-.037z" fill="#4e342e"/><path d="m12 24c-6.065 0-11-4.935-11-11s4.935-11 11-11 11 4.935 11 11-4.935 11-11 11zm0-20.5c-5.238 0-9.5 4.262-9.5 9.5s4.262 9.5 9.5 9.5 9.5-4.262 9.5-9.5-4.262-9.5-9.5-9.5z"/><path d="m20.39 7.875c-.414 0-.75-.331-.75-.745 0-.155.048-.315.138-.442.874-1.239.959-2.823.325-4.126-.353 1.012-.994 1.916-1.857 2.574-.33.254-.8.188-1.051-.141-.252-.329-.188-.8.141-1.051 1-.764 1.574-1.928 1.574-3.194 0-.296.175-.564.445-.686.269-.118.588-.07.807.129 2.093 1.888 2.46 5.031.862 7.328-.132.212-.367.354-.634.354z"/><path d="m3.591 7.89c-.235 0-.466-.109-.612-.315-1.642-2.311-1.285-5.485.83-7.384.221-.197.535-.248.807-.126.27.121.444.389.444.685 0 1.271.578 2.442 1.587 3.214.328.252.392.723.14 1.052-.251.327-.72.393-1.052.14-.882-.676-1.525-1.574-1.875-2.59-.633 1.306-.544 2.894.341 4.139.24.338.161.806-.177 1.046-.131.094-.284.139-.433.139z"/><path d="m16 12c-1.103 0-2-.897-2-2 0-.534.208-1.036.586-1.414s.88-.586 1.414-.586c1.103 0 2 .897 2 2s-.897 2-2 2zm0-2.5c-.134 0-.259.052-.354.146s-.146.22-.146.354c0 .275.225.5.5.5s.5-.225.5-.5-.225-.5-.5-.5z"/><path d="m15.189 9.798c-.192 0-.384-.073-.53-.22-.293-.293-.293-.768 0-1.061l2-2c.293-.293.768-.293 1.061 0s.293.768 0 1.061l-2 2c-.147.147-.338.22-.531.22z"/><path d="m8 12c-1.103 0-2-.897-2-2s.897-2 2-2c.534 0 1.036.208 1.414.586s.586.88.586 1.414c0 1.103-.897 2-2 2zm0-2.5c-.275 0-.5.225-.5.5s.225.5.5.5.5-.225.5-.5c0-.134-.052-.259-.146-.354s-.22-.146-.354-.146z"/><path d="m8.811 9.798c-.192 0-.384-.073-.53-.22l-2-2c-.293-.293-.293-.768 0-1.061s.768-.293 1.061 0l2 2c.293.293.293.768 0 1.061-.148.147-.339.22-.531.22z"/><path d="m17.25 17h-10.5c-.414 0-.75-.336-.75-.75s.336-.75.75-.75h10.5c.414 0 .75.336.75.75s-.336.75-.75.75z"/><path d="m12 21c-1.654 0-3-1.346-3-3v-1.75c0-.414.336-.75.75-.75s.75.336.75.75v1.75c0 .827.673 1.5 1.5 1.5s1.5-.673 1.5-1.5v-1.75c0-.414.336-.75.75-.75s.75.336.75.75v1.75c0 1.654-1.346 3-3 3z"/></svg>