<svg enable-background="new 0 0 24 24" height="512" viewBox="0 0 24 24" width="512" xmlns="http://www.w3.org/2000/svg"><circle cx="12" cy="12" fill="#ffd54f" r="10.8"/><circle cx="7" cy="9" fill="#6d4c41" r="1.8"/><circle cx="17" cy="9" fill="#6d4c41" r="1.8"/><path d="m15.775 16.118h-4.05c-.335 0-.608.272-.608.608v2.025c0 1.452 1.181 2.632 2.633 2.632s2.632-1.181 2.632-2.632v-2.025c0-.336-.272-.608-.607-.608z" fill="#e53935"/><path d="m12 24c-6.617 0-12-5.383-12-12s5.383-12 12-12 12 5.383 12 12-5.383 12-12 12zm0-22.5c-5.79 0-10.5 4.71-10.5 10.5s4.71 10.5 10.5 10.5 10.5-4.71 10.5-10.5-4.71-10.5-10.5-10.5z"/><path d="m7 11c-1.103 0-2-.897-2-2s.897-2 2-2 2 .897 2 2-.897 2-2 2zm0-2.5c-.275 0-.5.224-.5.5s.225.5.5.5.5-.224.5-.5-.225-.5-.5-.5z"/><path d="m17 11c-1.103 0-2-.897-2-2s.897-2 2-2 2 .897 2 2-.897 2-2 2zm0-2.5c-.275 0-.5.224-.5.5s.225.5.5.5.5-.224.5-.5-.225-.5-.5-.5z"/><path d="m17.25 17h-10.5c-.414 0-.75-.336-.75-.75s.336-.75.75-.75h10.5c.414 0 .75.336.75.75s-.336.75-.75.75z"/><path d="m13.75 22c-1.792 0-3.25-1.458-3.25-3.25v-2.5c0-.414.336-.75.75-.75s.75.336.75.75v2.5c0 .965.785 1.75 1.75 1.75s1.75-.785 1.75-1.75v-2.5c0-.414.336-.75.75-.75s.75.336.75.75v2.5c0 1.792-1.458 3.25-3.25 3.25z"/></svg>