<svg enable-background="new 0 0 24 24" height="512" viewBox="0 0 24 24" width="512" xmlns="http://www.w3.org/2000/svg"><circle cx="12" cy="12" fill="#ffd54f" r="10.8"/><path d="m14.925 17.35h-5.85c-.373 0-.675.302-.675.675v3.15c0 1.365 1.11 2.475 2.475 2.475h2.25c1.365 0 2.475-1.11 2.475-2.475v-3.15c0-.373-.302-.675-.675-.675z" fill="#e53935"/><path d="m21.972 1.641c-.126-.182-.334-.291-.555-.291s-.429.109-.555.291c-.415.601-1.77 2.643-1.77 3.683 0 1.282 1.043 2.325 2.326 2.325 1.281 0 2.325-1.043 2.325-2.325-.001-1.04-1.356-3.081-1.771-3.683z" fill="#00bcd4"/><path d="m12 24c-6.617 0-12-5.383-12-12s5.383-12 12-12c3.241 0 6.276 1.275 8.547 3.59.29.296.286.771-.01 1.061s-.771.285-1.061-.01c-1.986-2.026-4.641-3.141-7.476-3.141-5.79 0-10.5 4.71-10.5 10.5s4.71 10.5 10.5 10.5 10.5-4.71 10.5-10.5c0-1.47-.295-2.886-.876-4.208-.167-.379.006-.822.385-.988.374-.167.822.004.988.385.665 1.513 1.003 3.132 1.003 4.811 0 6.617-5.383 12-12 12z"/><path d="m7.5 12c-1.379 0-2.5-1.122-2.5-2.5 0-.414.336-.75.75-.75s.75.336.75.75c0 .551.448 1 1 1s1-.449 1-1c0-.414.336-.75.75-.75s.75.336.75.75c0 1.378-1.121 2.5-2.5 2.5z"/><path d="m16.5 12c-1.379 0-2.5-1.122-2.5-2.5 0-.414.336-.75.75-.75s.75.336.75.75c0 .551.448 1 1 1s1-.449 1-1c0-.414.336-.75.75-.75s.75.336.75.75c0 1.378-1.121 2.5-2.5 2.5z"/><path d="m16.25 18.5h-8.5c-.414 0-.75-.336-.75-.75s.336-.75.75-.75h8.5c.414 0 .75.336.75.75s-.336.75-.75.75z"/><path d="m13.25 24h-2.5c-1.517 0-2.75-1.233-2.75-2.75v-3.5c0-.414.336-.75.75-.75s.75.336.75.75v3.5c0 .689.561 1.25 1.25 1.25h2.5c.689 0 1.25-.561 1.25-1.25v-3.5c0-.414.336-.75.75-.75s.75.336.75.75v3.5c0 1.517-1.233 2.75-2.75 2.75z"/><path d="m21.417 8c-1.425 0-2.584-1.159-2.584-2.583 0-1.156 1.506-3.425 1.967-4.093.14-.203.371-.324.617-.324.246 0 .478.121.617.324.461.668 1.966 2.936 1.966 4.093 0 1.424-1.159 2.583-2.583 2.583zm0-4.873c-.592.967-1.084 1.942-1.084 2.29 0 .598.486 1.083 1.084 1.083s1.083-.486 1.083-1.083c0-.348-.492-1.323-1.083-2.29z"/></svg>