<svg enable-background="new 0 0 24 24" height="512" viewBox="0 0 24 24" width="512" xmlns="http://www.w3.org/2000/svg"><circle cx="12" cy="12" fill="#ffd54f" r="10.8"/><circle cx="7" cy="10" fill="#6d4c41" r="1.62"/><circle cx="17" cy="10" fill="#6d4c41" r="1.62"/><path d="m12 24c-6.617 0-12-5.383-12-12s5.383-12 12-12 12 5.383 12 12-5.383 12-12 12zm0-22.5c-5.79 0-10.5 4.71-10.5 10.5s4.71 10.5 10.5 10.5 10.5-4.71 10.5-10.5-4.71-10.5-10.5-10.5z"/><path d="m7 12c-1.103 0-2-.897-2-2s.897-2 2-2 2 .897 2 2-.897 2-2 2zm0-2.5c-.275 0-.5.224-.5.5s.225.5.5.5.5-.224.5-.5-.225-.5-.5-.5z"/><path d="m17 12c-1.103 0-2-.897-2-2s.897-2 2-2 2 .897 2 2-.897 2-2 2zm0-2.5c-.275 0-.5.224-.5.5s.225.5.5.5.5-.224.5-.5-.225-.5-.5-.5z"/><path d="m9.249 7.333c-.143 0-.287-.041-.415-.126l-2.5-1.667c-.345-.229-.438-.695-.208-1.04.229-.344.694-.439 1.04-.208l2.5 1.667c.345.23.438.695.208 1.04-.145.217-.383.334-.625.334z"/><path d="m14.751 7.333c-.242 0-.48-.117-.625-.334-.229-.345-.137-.81.208-1.04l2.5-1.667c.346-.231.811-.136 1.04.208.229.345.137.81-.208 1.04l-2.5 1.667c-.128.086-.272.126-.415.126z"/><path d="m15.25 18h-6.5c-.414 0-.75-.336-.75-.75s.336-.75.75-.75h6.5c.414 0 .75.336.75.75s-.336.75-.75.75z"/></svg>