<svg enable-background="new 0 0 24 24" height="512" viewBox="0 0 24 24" width="512" xmlns="http://www.w3.org/2000/svg"><circle cx="12" cy="12" fill="#ffd54f" r="10.8"/><path d="m18.836 20.143c-1.165-.699-2.732-.627-3.686-.49v-3.458c0-.373-.302-.675-.675-.675h-4.95c-.373 0-.675.302-.675.675v3.411c-.957-.129-2.533-.186-3.697.539-.687.415-1.506 1.267-1.506 2.972 0 .373.302.675.675.675h15.354c.373 0 .675-.302.675-.675.001-1.711-.824-2.562-1.515-2.974z" fill="#4caf50"/><path d="m4.78 21.34c-.17 0-.34-.057-.48-.174-2.733-2.279-4.3-5.63-4.3-9.196 0-6.617 5.383-12 12-12s12 5.383 12 12c0 3.581-1.571 6.933-4.312 9.198-.318.263-.792.219-1.056-.101-.264-.319-.219-.792.101-1.056 2.395-1.979 3.768-4.91 3.768-8.042 0-5.79-4.71-10.5-10.5-10.5s-10.501 4.712-10.501 10.501c0 3.119 1.371 6.051 3.761 8.043.318.266.36.738.096 1.057-.149.178-.362.27-.577.27z"/><path d="m6.751 12c-.236 0-.47-.111-.615-.32-.237-.339-.155-.807.185-1.044l1.621-1.136-1.622-1.136c-.34-.237-.422-.705-.184-1.044.236-.34.704-.423 1.044-.184l2.5 1.75c.201.14.32.369.32.614s-.119.474-.32.614l-2.5 1.75c-.131.092-.281.136-.429.136z"/><path d="m17.249 12c-.148 0-.298-.044-.429-.136l-2.5-1.75c-.201-.14-.32-.369-.32-.614s.119-.474.32-.614l2.5-1.75c.34-.237.808-.155 1.044.184.237.339.155.807-.185 1.044l-1.621 1.136 1.622 1.136c.34.237.422.705.185 1.044-.146.209-.38.32-.616.32z"/><path d="m20.53 24h-17.06c-.414 0-.75-.336-.75-.75 0-1.894.909-2.841 1.673-3.302 1.292-.805 3.045-.741 4.107-.599v-3.79c0-.414.336-.75.75-.75s.75.337.75.751v4.69c0 .232-.107.451-.291.592-.184.142-.422.192-.646.134-.687-.176-2.722-.476-3.886.25-.464.281-.755.7-.882 1.274h15.41c-.127-.574-.419-.991-.88-1.266-1.172-.703-3.199-.382-3.881-.199-.229.059-.467.012-.65-.129-.186-.143-.294-.363-.294-.596v-4.75c0-.414.336-.75.75-.75s.75.336.75.75v3.842c1.062-.152 2.802-.231 4.096.545.768.458 1.685 1.404 1.685 3.303-.001.414-.337.75-.751.75z"/><path d="m17 16.31h-10c-.414 0-.75-.336-.75-.75s.336-.75.75-.75h10c.414 0 .75.336.75.75s-.336.75-.75.75z"/></svg>