<svg enable-background="new 0 0 24 24" height="512" viewBox="0 0 24 24" width="512" xmlns="http://www.w3.org/2000/svg"><path d="m.674 4.477s.315 3.654 1.953 5.085c.081.072.162.135.252.198l.117.072h5.229z" fill="#5d4037"/><path d="m23.326 4.477s-.315 3.654-1.953 5.085c-.081.072-.162.135-.252.198l-.117.072h-5.229z" fill="#5d4037"/><circle cx="12" cy="13.5" fill="#ffd54f" r="9.45"/><path d="m6.051 4.465.243-.441 1.287-2.565c.387-.711 1.134-1.152 1.935-1.152h4.968c.801 0 1.548.441 1.935 1.152l1.287 2.565.243.441s-3.305 1.373-5.949 1.373-5.949-1.373-5.949-1.373z" fill="#5d4037"/><path d="m16.725 19.669h-9.45c-.214 0-.416-.102-.544-.275-.127-.173-.165-.396-.101-.6.735-2.37 2.893-3.963 5.37-3.963s4.634 1.593 5.37 3.963c.064.205.026.428-.101.6-.128.173-.33.275-.544.275z" fill="#e53935"/><path d="m22.112 3.972c.245 0 .457.192.457.446 0 .074-.018.153-.059.234-2.687 4.022-6.333 5.393-9.84 5.393-5.835 0-11.283-3.795-11.283-5.495 0-.153.044-.288.135-.403.085-.113.22-.176.361-.176.038 0 .077.005.116.014.099.099 5.198 1.377 9.999 1.377 4.488 0 9.879-1.257 9.999-1.377.038-.009.077-.013.115-.013z" fill="#6d4c41"/><path d="m6.75 15c-.236 0-.469-.111-.615-.32-.238-.339-.155-.807.184-1.044l1.623-1.136-1.622-1.136c-.339-.237-.422-.705-.184-1.044.237-.341.706-.423 1.044-.185l2.5 1.75c.2.141.32.37.32.615s-.12.474-.32.614l-2.5 1.75c-.131.092-.281.136-.43.136z"/><path d="m17.5 15c-.138 0-.277-.038-.402-.117l-2.75-1.75c-.217-.138-.348-.376-.348-.633s.131-.495.347-.633l2.75-1.75c.348-.221.813-.12 1.036.23.222.35.119.812-.23 1.035l-1.756 1.118 1.756 1.117c.349.223.452.686.23 1.035-.143.225-.386.348-.633.348z"/><path d="m17.25 19.938h-10.5c-.238 0-.462-.113-.604-.305-.141-.192-.183-.44-.112-.668.817-2.633 3.215-4.402 5.966-4.402s5.149 1.77 5.966 4.402c.071.228.029.476-.112.668-.142.191-.366.305-.604.305zm-9.361-1.5h8.222c-.834-1.453-2.38-2.375-4.111-2.375s-3.277.921-4.111 2.375z"/><path d="m2.99 10.383c-.146 0-.293-.042-.423-.131-2.121-1.45-2.525-5.588-2.564-6.055-.034-.412.272-.774.685-.81.402-.037.775.271.811.684.089 1.074.611 4.052 1.915 4.943.342.233.43.7.196 1.042-.146.213-.381.327-.62.327z"/><path d="m21.01 10.383c-.239 0-.474-.114-.62-.327-.234-.342-.146-.809.196-1.042 1.308-.894 1.827-3.87 1.916-4.941.035-.413.396-.717.81-.685.413.034.719.396.685.81-.039.467-.443 4.604-2.564 6.055-.129.088-.277.13-.423.13z"/><path d="m12 6.431c-1.719 0-3.566-.133-5.49-.395-.011-.001-.022-.002-.032-.003-.324-.04-.637-.081-.94-.131-.24-.04-.446-.194-.552-.413s-.1-.476.018-.688l1.868-3.395c.474-.867 1.382-1.406 2.369-1.406h5.518c.987 0 1.895.539 2.37 1.408l1.867 3.393c.117.213.124.47.018.688s-.312.373-.552.413c-.303.05-.616.091-.94.131-.01.001-.021.002-.032.003-1.924.262-3.771.395-5.49.395zm-5.156-1.862c1.82.241 3.548.362 5.156.362 1.613 0 3.347-.122 5.156-.363l-1.342-2.438c-.213-.39-.617-.63-1.055-.63h-5.518c-.438 0-.842.24-1.054.627z"/><path d="m12 10.754c-3.084 0-5.872-.855-8.285-2.541-2.425-1.699-3.565-3.618-3.612-3.699-.155-.265-.133-.597.055-.839s.506-.345.799-.261c.02.006 2 .57 4.819 1.007.292.049.585.086.888.124 1.886.256 3.675.386 5.336.386s3.45-.13 5.318-.385c.034-.005.067-.007.102-.007.219-.032.513-.069.796-.117 2.827-.438 4.807-1.002 4.827-1.008.292-.084.61.018.799.261.188.242.21.574.055.839-.047.081-1.187 2-3.612 3.698-2.413 1.686-5.201 2.542-8.285 2.542zm-9.301-5.375c.486.504 1.109 1.067 1.875 1.604 2.157 1.507 4.655 2.271 7.426 2.271s5.269-.764 7.426-2.271c.766-.536 1.39-1.1 1.875-1.604-.784.168-1.751.354-2.847.524-.295.049-.608.09-.932.13-.01.001-.021.002-.032.003-1.924.262-3.771.395-5.49.395s-3.566-.133-5.49-.395c-.011-.001-.022-.002-.032-.003-.324-.04-.637-.081-.94-.131-1.092-.17-2.056-.355-2.839-.523z"/><path d="m12 24c-5.79 0-10.5-4.71-10.5-10.5 0-2.292.73-4.471 2.111-6.302.25-.33.72-.396 1.05-.146.331.249.396.72.147 1.051-1.183 1.567-1.808 3.433-1.808 5.397 0 4.963 4.038 9 9 9s9-4.037 9-9c0-1.964-.625-3.83-1.809-5.397-.25-.331-.184-.802.147-1.051.33-.251.8-.185 1.05.146 1.382 1.831 2.112 4.01 2.112 6.302 0 5.79-4.71 10.5-10.5 10.5z"/></svg>