<svg enable-background="new 0 0 24 24" height="512" viewBox="0 0 24 24" width="512" xmlns="http://www.w3.org/2000/svg"><circle cx="12" cy="12" fill="#ffd54f" r="12"/><path d="m19.518 18.002c-1.117-3.185-4.138-5.325-7.518-5.325s-6.401 2.14-7.518 5.325c-.08.229-.044.483.096.682.141.198.369.316.612.316h13.62c.243 0 .471-.118.612-.316.14-.199.176-.453.096-.682z" fill="#e53935"/><path d="m12 24c-6.617 0-12-5.383-12-12s5.383-12 12-12 12 5.383 12 12-5.383 12-12 12zm0-22.5c-5.79 0-10.5 4.71-10.5 10.5s4.71 10.5 10.5 10.5 10.5-4.71 10.5-10.5-4.71-10.5-10.5-10.5z"/><path d="m18.81 19h-13.62c-.243 0-.471-.118-.612-.316-.141-.199-.176-.453-.096-.682 1.117-3.185 4.138-5.325 7.518-5.325s6.401 2.14 7.518 5.325c.08.229.044.483-.096.682-.141.198-.369.316-.612.316zm-12.464-1.5h11.308c-1.125-2.023-3.28-3.323-5.654-3.323s-4.529 1.3-5.654 3.323z"/><path d="m6.75 11c-.248 0-.49-.123-.633-.347-.222-.35-.119-.813.23-1.036l1.756-1.117-1.756-1.117c-.349-.223-.452-.686-.23-1.036.223-.35.686-.453 1.036-.23l2.75 1.75c.216.138.347.377.347.633s-.131.495-.347.633l-2.75 1.75c-.125.079-.264.117-.403.117z"/><path d="m17.25 11c-.138 0-.277-.038-.402-.117l-2.75-1.75c-.217-.138-.348-.377-.348-.633s.131-.495.347-.633l2.75-1.75c.349-.223.812-.12 1.036.23.222.35.119.813-.23 1.036l-1.756 1.117 1.756 1.117c.349.223.452.686.23 1.036-.143.224-.386.347-.633.347z"/></svg>