<svg enable-background="new 0 0 24 24" height="512" viewBox="0 0 24 24" width="512" xmlns="http://www.w3.org/2000/svg"><circle cx="12" cy="12" fill="#ffd54f" r="10.8"/><path d="m13.823 16.57h-3.645c-.335 0-.608.272-.608.608v1.822c0 1.432 1.281 2.43 2.43 2.43s2.43-.998 2.43-2.43v-1.823c0-.335-.272-.607-.607-.607z" fill="#e53935"/><circle cx="7.5" cy="9.5" fill="#6d4c41" r="2.025"/><path d="m12 24c-6.617 0-12-5.383-12-12s5.383-12 12-12 12 5.383 12 12-5.383 12-12 12zm0-22.5c-5.79 0-10.5 4.71-10.5 10.5s4.71 10.5 10.5 10.5 10.5-4.71 10.5-10.5-4.71-10.5-10.5-10.5z"/><path d="m17.25 17.5h-10.5c-.414 0-.75-.336-.75-.75s.336-.75.75-.75h10.5c.414 0 .75.336.75.75s-.336.75-.75.75z"/><path d="m12 22c-1.419 0-3-1.232-3-3v-2.25c0-.414.336-.75.75-.75s.75.336.75.75v2.25c0 .929.874 1.5 1.5 1.5s1.5-.571 1.5-1.5v-2.25c0-.414.336-.75.75-.75s.75.336.75.75v2.25c0 1.768-1.581 3-3 3z"/><path d="m7.5 12c-1.379 0-2.5-1.122-2.5-2.5s1.121-2.5 2.5-2.5 2.5 1.122 2.5 2.5-1.121 2.5-2.5 2.5zm0-3.5c-.552 0-1 .449-1 1s.448 1 1 1 1-.449 1-1-.448-1-1-1z"/><path d="m18.25 11.25c-.414 0-.75-.336-.75-.75 0-.551-.448-1-1-1s-1 .449-1 1c0 .414-.336.75-.75.75s-.75-.336-.75-.75c0-1.378 1.121-2.5 2.5-2.5s2.5 1.122 2.5 2.5c0 .414-.336.75-.75.75z"/></svg>