<svg enable-background="new 0 0 24 24" height="512" viewBox="0 0 24 24" width="512" xmlns="http://www.w3.org/2000/svg"><circle cx="12" cy="12" fill="#ffd54f" r="10.8"/><circle cx="17.25" cy="9.25" fill="#6d4c41" r="1.458"/><path d="m12 19.985c-2.093 0-4.187-.797-5.78-2.391-.293-.293-.293-.768 0-1.061s.768-.293 1.061 0c1.261 1.261 2.937 1.955 4.72 1.955s3.459-.694 4.72-1.955c.293-.293.768-.293 1.061 0s.293.768 0 1.061c-1.595 1.594-3.689 2.391-5.782 2.391z"/><path d="m12 24c-6.617 0-12-5.383-12-12s5.383-12 12-12 12 5.383 12 12-5.383 12-12 12zm0-22.5c-5.79 0-10.5 4.71-10.5 10.5s4.71 10.5 10.5 10.5 10.5-4.71 10.5-10.5-4.71-10.5-10.5-10.5z"/><path d="m9.25 10h-4.5c-.414 0-.75-.336-.75-.75s.336-.75.75-.75h4.5c.414 0 .75.336.75.75s-.336.75-.75.75z"/><path d="m17 11c-1.103 0-2-.897-2-2s.897-2 2-2 2 .897 2 2-.897 2-2 2zm0-2.5c-.276 0-.5.224-.5.5s.224.5.5.5.5-.224.5-.5-.224-.5-.5-.5z"/></svg>