<svg enable-background="new 0 0 24 24" height="512" viewBox="0 0 24 24" width="512" xmlns="http://www.w3.org/2000/svg"><path d="m18.525 23.195h-13.05c-1.365 0-2.475-1.11-2.475-2.475v-11.34c0-.373.302-.675.675-.675h16.65c.373 0 .675.303.675.675v11.34c0 1.365-1.11 2.475-2.475 2.475z" fill="#6d4c41"/><path d="m12 23.242c-1.657 0-3.527-.89-5.002-2.382-1.415-1.43-2.216-3.19-2.198-4.825v-5.753c0-.373.302-.675.675-.675h13.05c.373 0 .675.302.675.675v5.76c0 3.709-4.056 7.2-7.2 7.2z" fill="#ffd54f"/><path d="m12.011 9c-.165 0-.331-.055-.467-.163l-2.261-1.8c-.179-.142-.283-.358-.283-.587v-2.7c0-.414.336-.75.75-.75h4.5c.414 0 .75.336.75.75v2.7c0 .228-.103.442-.28.585l-2.239 1.8c-.137.109-.303.165-.47.165zm-1.511-2.911 1.509 1.201 1.491-1.199v-1.591h-3z"/><path d="m3.45 9.025c-.125 0-.25-.035-.359-.103-.068-.043-1.666-1.069-1.666-3.11 0-2.228 4.026-5.337 10.584-5.337 6.546 0 10.566 3.109 10.566 5.337 0 2.042-1.599 3.067-1.666 3.11-.185.115-.415.137-.618.051-.031-.012-3.157-1.295-6.867-1.579l-2.9.002c-3.668.283-6.784 1.564-6.815 1.577-.083.035-.171.052-.259.052z" fill="#42a5f5"/><path d="m12 11.233c-3.009 0-6.019-.619-8.822-1.855-.247-.11-.406-.356-.403-.626s.166-.512.416-.616c.135-.056 3.349-1.377 7.282-1.679l3.003-.002c3.985.303 7.198 1.624 7.334 1.68.25.104.413.346.416.616s-.156.516-.403.625c-2.804 1.238-5.814 1.857-8.823 1.857z" fill="#1976d2"/><path d="m12.011 8.7c-.149 0-.297-.049-.42-.147l-2.036-1.62c-.161-.128-.255-.322-.255-.528v-2.43c0-.373.302-.675.675-.675h4.05c.373 0 .675.302.675.675v2.43c0 .205-.092.398-.252.526l-2.014 1.62c-.124.099-.274.149-.423.149z" fill="#ffd54f"/><path d="m8.25 15.6c-.744 0-1.35-.606-1.35-1.35s.606-1.35 1.35-1.35 1.35.606 1.35 1.35-.606 1.35-1.35 1.35z" fill="#6d4c41"/><path d="m16 15.6c-.744 0-1.35-.606-1.35-1.35s.606-1.35 1.35-1.35 1.35.606 1.35 1.35-.606 1.35-1.35 1.35z" fill="#6d4c41"/><path d="m12 24c-1.841 0-3.919-.989-5.558-2.646-1.572-1.589-2.462-3.544-2.442-5.362v-6.392c0-.414.336-.75.75-.75s.75.336.75.75v6.4c-.016 1.429.716 2.992 2.009 4.299 1.343 1.357 3.063 2.201 4.491 2.201 2.718 0 6.5-3.275 6.5-6.5v-6.4c0-.414.336-.75.75-.75s.75.336.75.75v6.4c0 4.12-4.507 8-8 8z"/><path d="m19.25 24h-14.5c-1.517 0-2.75-1.233-2.75-2.75v-12.6c0-.414.336-.75.75-.75s.75.336.75.75v12.6c0 .689.561 1.25 1.25 1.25h14.5c.689 0 1.25-.561 1.25-1.25v-12.6c0-.414.336-.75.75-.75s.75.336.75.75v12.6c0 1.517-1.233 2.75-2.75 2.75z"/><path d="m21.5 9.5c-.098 0-.195-.019-.288-.058-.035-.014-3.509-1.438-7.629-1.754-.413-.032-.722-.393-.691-.806.032-.413.396-.711.805-.69 3.564.273 6.597 1.3 7.675 1.703.34-.316.877-.974.877-1.966 0-1.325-3.484-4.43-10.24-4.43-6.768.001-10.259 3.105-10.259 4.431 0 .995.537 1.651.876 1.966 1.078-.402 4.111-1.43 7.676-1.703.404-.023.773.277.805.69.031.413-.278.773-.691.806-4.12.315-7.595 1.74-7.629 1.754-.223.095-.479.071-.685-.057-.076-.048-1.852-1.188-1.852-3.456 0-2.476 4.474-5.93 11.76-5.93 7.274 0 11.74 3.454 11.74 5.93 0 2.269-1.776 3.408-1.852 3.456-.121.075-.259.114-.398.114z"/><path d="m12.011 9c-.165 0-.331-.055-.467-.163l-2.261-1.8c-.179-.142-.283-.358-.283-.587v-2.7c0-.414.336-.75.75-.75h4.5c.414 0 .75.336.75.75v2.7c0 .228-.103.442-.28.585l-2.239 1.8c-.137.109-.303.165-.47.165zm-1.511-2.911 1.509 1.201 1.491-1.199v-1.591h-3z"/><path d="m12 11.495c-3.344 0-6.688-.687-9.802-2.059-.38-.166-.552-.61-.385-.989s.61-.548.989-.384c5.846 2.576 12.55 2.576 18.396 0 .378-.164.821.005.989.384.167.379-.005.822-.384.989-3.115 1.373-6.459 2.059-9.803 2.059z"/><path d="m8.25 16c-.965 0-1.75-.785-1.75-1.75s.785-1.75 1.75-1.75 1.75.785 1.75 1.75-.785 1.75-1.75 1.75zm0-2c-.138 0-.25.112-.25.25 0 .275.5.275.5 0 0-.138-.112-.25-.25-.25z"/><path d="m15.75 16c-.965 0-1.75-.785-1.75-1.75s.785-1.75 1.75-1.75 1.75.785 1.75 1.75-.785 1.75-1.75 1.75zm0-2c-.138 0-.25.112-.25.25 0 .275.5.275.5 0 0-.138-.112-.25-.25-.25z"/><path d="m12 19.495c-1.094 0-2.188-.401-3.021-1.205-.298-.288-.306-.763-.019-1.061.288-.3.763-.305 1.061-.02 1.091 1.055 2.867 1.055 3.958 0 .298-.285.773-.28 1.061.02.288.298.279.772-.019 1.061-.833.804-1.927 1.205-3.021 1.205z"/></svg>