<svg enable-background="new 0 0 24 24" height="512" viewBox="0 0 24 24" width="512" xmlns="http://www.w3.org/2000/svg"><path d="m22.8 12c0 5.967-4.833 10.8-10.8 10.8-5.094 0-9.36-3.528-10.503-8.271-.117-.495-.207-1.008-.252-1.53-.027-.333-.045-.666-.045-.999 0-5.967 4.833-10.8 10.8-10.8 1.134 0 2.232.171 3.258.504.504.153.981.342 1.449.567 3.609 1.746 6.093 5.445 6.093 9.729z" fill="#ffd54f"/><path d="m18.861 15.071c-.186.591-.429 1.134-.745 1.644h-12.231c-.316-.51-.559-1.053-.745-1.644-.057-.186-.024-.381.097-.535.113-.162.292-.251.486-.251h12.555c.194 0 .373.089.486.251.121.154.153.348.097.535z" fill="#fff"/><path d="m18.115 16.901c-1.28 2.098-3.572 3.418-6.115 3.418s-4.836-1.32-6.115-3.418z" fill="#e53935"/><circle cx="7.5" cy="8.5" fill="#fff" r="3.15"/><circle cx="17" cy="9" fill="#6d4c41" r="1.8"/><path d="m12 21.22c-3.904 0-7.307-2.511-8.466-6.248-.071-.228-.029-.475.112-.667.142-.192.366-.305.604-.305h15.5c.238 0 .462.113.604.305.141.192.183.439.112.667-1.159 3.737-4.562 6.248-8.466 6.248zm-6.657-5.72c1.204 2.561 3.765 4.22 6.657 4.22s5.453-1.659 6.657-4.22z"/><path d="m18.81 17.5h-13.62c-.414 0-.75-.336-.75-.75s.336-.75.75-.75h13.62c.414 0 .75.336.75.75s-.336.75-.75.75z"/><path d="m12 24c-6.617 0-12-5.383-12-12s5.383-12 12-12 12 5.383 12 12-5.383 12-12 12zm0-22.5c-5.79 0-10.5 4.71-10.5 10.5s4.71 10.5 10.5 10.5 10.5-4.71 10.5-10.5-4.71-10.5-10.5-10.5z"/><path d="m7.5 12c-1.93 0-3.5-1.57-3.5-3.5s1.57-3.5 3.5-3.5 3.5 1.57 3.5 3.5-1.57 3.5-3.5 3.5zm0-5.5c-1.103 0-2 .897-2 2s.897 2 2 2 2-.897 2-2-.897-2-2-2z"/><path d="m17 11c-1.103 0-2-.897-2-2s.897-2 2-2 2 .897 2 2-.897 2-2 2zm0-2.5c-.276 0-.5.224-.5.5s.224.5.5.5.5-.224.5-.5-.224-.5-.5-.5z"/></svg>