<svg enable-background="new 0 0 24 24" height="512" viewBox="0 0 24 24" width="512" xmlns="http://www.w3.org/2000/svg"><circle cx="12" cy="12" fill="#ffd54f" r="12"/><circle cx="16.5" cy="9.5" fill="#fff" r="2.835"/><circle cx="7.5" cy="9.5" fill="#fff" r="2.835"/><path d="m20.062 18.661c-.479-.479-2.109-.973-2.788-1.164-.015-.004-.029.003-.044 0-.037-.007-.071-.022-.11-.022v1.823h-.269c.233.686.538 1.436.839 1.736.327.327.756.49 1.186.49s.859-.163 1.187-.49c.653-.654.653-1.718-.001-2.373z" fill="#eceff1"/><path d="m12 24c-6.617 0-12-5.383-12-12s5.383-12 12-12 12 5.383 12 12c0 3.059-1.148 5.965-3.233 8.184-.283.302-.758.317-1.06.033s-.316-.758-.033-1.06c1.822-1.94 2.826-4.481 2.826-7.157 0-5.79-4.71-10.5-10.5-10.5s-10.5 4.71-10.5 10.5 4.71 10.5 10.5 10.5c2.18 0 4.278-.668 6.067-1.933.338-.238.806-.159 1.045.18.239.338.158.806-.18 1.045-2.043 1.445-4.44 2.208-6.932 2.208z"/><path d="m16.5 13c-1.93 0-3.5-1.57-3.5-3.5s1.57-3.5 3.5-3.5 3.5 1.57 3.5 3.5-1.57 3.5-3.5 3.5zm0-5.5c-1.103 0-2 .897-2 2s.897 2 2 2 2-.897 2-2-.897-2-2-2z"/><path d="m7.5 13c-1.93 0-3.5-1.57-3.5-3.5s1.57-3.5 3.5-3.5 3.5 1.57 3.5 3.5-1.57 3.5-3.5 3.5zm0-5.5c-1.103 0-2 .897-2 2s.897 2 2 2 2-.897 2-2-.897-2-2-2z"/><path d="m16.75 18.5h-9c-.414 0-.75-.336-.75-.75s.336-.75.75-.75h9c.414 0 .75.336.75.75s-.336.75-.75.75z"/><path d="m9.75 20c-.414 0-.75-.336-.75-.75v-3.5c0-.414.336-.75.75-.75s.75.336.75.75v3.5c0 .414-.336.75-.75.75z"/><path d="m12 20c-.414 0-.75-.336-.75-.75v-3.5c0-.414.336-.75.75-.75s.75.336.75.75v3.5c0 .414-.336.75-.75.75z"/><path d="m14.25 20c-.414 0-.75-.336-.75-.75v-3.5c0-.414.336-.75.75-.75s.75.336.75.75v3.5c0 .414-.336.75-.75.75z"/><path d="m18.917 21.999c-.53 0-1.06-.202-1.464-.605-.591-.591-1.202-2.603-1.438-3.441-.073-.261 0-.541.192-.733.191-.192.472-.266.733-.192.838.235 2.851.846 3.441 1.437.807.808.807 2.121 0 2.929-.403.403-.934.605-1.464.605zm-1.031-3.1c.252.718.498 1.291.63 1.437.221.221.582.219.805-.002.222-.222.222-.583.001-.806-.158-.143-.748-.389-1.436-.629z"/></svg>