<svg height="512pt" viewBox="-92 0 512 512.00057" width="512pt" xmlns="http://www.w3.org/2000/svg"><path d="m318.488281 228.921875c6.921875-10.136719-.335937-23.886719-12.609375-23.886719h-128.78125l34.921875-186.546875c2.046875-9.722656-10.769531-15.203125-16.390625-7.003906l-185.5625 271.59375c-6.925781 10.136719.332032 23.882813 12.605469 23.882813h128.777344l-34.917969 186.546874c-2.046875 9.726563 10.773438 15.207032 16.390625 7.007813zm0 0" fill="#f1df77"/><path d="m40.066406 283.078125 168.621094-246.796875 3.332031-17.792969c2.046875-9.722656-10.769531-15.203125-16.390625-7.003906l-185.5625 271.59375c-6.925781 10.136719.332032 23.882813 12.605469 23.882813h30c-12.273437 0-19.53125-13.746094-12.605469-23.882813zm0 0" fill="#edb963"/><path d="m151.449219 306.960938-34.917969 186.546874c-2.046875 9.730469 10.773438 15.207032 16.390625 7.007813l16.941406-24.800781 26.070313-139.265625c2.867187-15.324219-8.890625-29.488281-24.484375-29.488281zm0 0" fill="#edb963"/><path d="m88.09375 246.46875v12.429688c0 4.140624 3.359375 7.5 7.503906 7.5 4.140625 0 7.5-3.359376 7.5-7.5v-12.429688c0-4.144531-3.359375-7.5-7.5-7.5-4.144531 0-7.503906 3.355469-7.503906 7.5zm0 0"/><path d="m240.453125 258.898438v-12.429688c0-4.144531-3.359375-7.5-7.5-7.5-4.144531 0-7.5 3.355469-7.5 7.5v12.429688c0 4.140624 3.355469 7.5 7.5 7.5 4.140625 0 7.5-3.359376 7.5-7.5zm0 0"/><path d="m175.578125 253.09375c-2.742187 3.140625-6.863281 4.9375-11.304687 4.9375-4.441407 0-8.5625-1.796875-11.300782-4.933594-2.726562-3.121094-7.464844-3.4375-10.585937-.710937-3.117188 2.726562-3.4375 7.464843-.710938 10.582031 5.589844 6.394531 13.828125 10.0625 22.597657 10.0625 8.769531 0 17.007812-3.667969 22.597656-10.0625 2.726562-3.117188 2.410156-7.855469-.710938-10.582031-3.117187-2.726563-7.855468-2.410157-10.582031.707031zm0 0"/><path d="m130.828125 106.328125c-3.421875-2.335937-8.089844-1.457031-10.425781 1.964844 0 0-116.4375 170.417969-116.53125 170.554687-10.144532 14.847656.886718 35.617188 18.800781 35.617188h119.742187s-33.195312 177.355468-33.242187 177.59375c-1.902344 10.160156 5.894531 19.941406 16.339844 19.941406 5.308593 0 10.398437-2.578125 13.601562-7.253906l56.875-83.246094c2.339844-3.421875 1.460938-8.089844-1.960937-10.425781-3.417969-2.335938-8.085938-1.457031-10.421875 1.960937l-56.875 83.242188c-.238281.347656-.734375 1.074218-1.929688.5625-1.199219-.511719-1.015625-1.375-.929687-1.785156.011718-.054688 34.882812-186.34375 34.949218-186.710938.855469-4.558594-2.738281-8.878906-7.371093-8.878906 0 0-128.378907 0-128.777344 0-6.152344 0-9.886719-7.070313-6.414063-12.152344l116.53125-170.558594c2.335938-3.421875 1.457032-8.085937-1.960937-10.425781zm0 0"/><path d="m209.644531 1.367188c-7.367187-3.148438-15.675781-.730469-20.207031 5.886718l-51.839844 75.875c-2.339844 3.417969-1.460937 8.085938 1.960938 10.421875 3.417968 2.335938 8.085937 1.460938 10.421875-1.960937l51.835937-75.863282c.238282-.351562.734375-1.074218 1.933594-.566406 1.195312.515625 1.015625 1.375.925781 1.785156-.011719.054688-34.910156 186.496094-34.953125 186.710938-.851562 4.558594 2.75 8.878906 7.375 8.878906h128.777344c6.128906 0 9.878906 7.085938 6.417969 12.152344l-111.515625 163.210938c-2.335938 3.421874-1.457032 8.089843 1.964844 10.425781 1.292968.882812 2.765624 1.308593 4.222656 1.308593 2.394531 0 4.746094-1.144531 6.199218-3.269531 0 0 111.433594-163.097656 111.515626-163.210937 10.148437-14.855469-.882813-35.617188-18.804688-35.617188h-119.742188l33.242188-177.597656c1.597656-7.808594-2.394531-15.433594-9.730469-18.570312zm0 0"/></svg>