<svg height="512" viewBox="0 0 54 59" width="512" xmlns="http://www.w3.org/2000/svg"><g id="028---Cinema" fill="none"><path id="Shape" d="m50 3v22c-.0032948 1.1032019-.8967981 1.9967052-2 2h-42c-.45014571.0014884-.88741664-.1501458-1.24-.43-.34856426-.2791613-.5947399-.6660088-.7-1.1 2.156-29.902 35.694-24.118 44.3-24.44.322001.05818063.6244386.1956523.88.4.4776404.38153865.7570245.95868728.76 1.57z" fill="#2980ba"/><path id="Rectangle-path" d="m14 26h26v6h-26z" fill="#2c2f38"/><path id="Shape" d="m48.36 1.03c-8.01.3-42.74 2.8-44.3 24.44-.04022736-.1534154-.06039544-.3113987-.06-.47v-22c.0032948-1.10320187.89679813-1.9967052 2-2h42c.1206222.00005058.2410332.01008483.36.03z" fill="#3b97d3"/><path id="Shape" d="m48 28h-4c-.5522847 0-1-.4477153-1-1s.4477153-1 1-1h4c.5522847 0 1-.4477153 1-1v-22c0-.55228475-.4477153-1-1-1h-42c-.55228475 0-1 .44771525-1 1v22c0 .5522847.44771525 1 1 1h4c.5522847 0 1 .4477153 1 1s-.4477153 1-1 1h-4c-1.65685425 0-3-1.3431458-3-3v-22c0-1.65685425 1.34314575-3 3-3h42c1.6568542 0 3 1.34314575 3 3v22c0 1.6568542-1.3431458 3-3 3z" fill="#393f4a"/><path id="Shape" d="m15 35h24l-1.831-4h-5.811-8.716-5.811z" fill="#393f4a"/><path id="Shape" d="m8 8c-.4043959-.00008635-.76893405-.2437275-.92367798-.61734544s-.06922994-.80366031.21667798-1.08965456l2-2c.25107447-.25995658.62287789-.3642126.9725073-.27269716.3496295.09151544.6226744.3645604.7141899.71418984.0915154.34962943-.0127406.72143285-.2726972.97250732l-2 2c-.18749273.18754937-.44180519.29294336-.707.293z" fill="#b0d3f0"/><path id="Shape" d="m8 13c-.4043959-.0000863-.76893405-.2437275-.92367798-.6173454-.15474393-.373618-.06922994-.8036603.21667798-1.0896546l7-7c.2510745-.25995658.6228779-.3642126.9725073-.27269716.3496295.09151544.6226744.3645604.7141899.71418984.0915154.34962943-.0127406.72143285-.2726972.97250732l-7 7c-.18749273.1875494-.44180519.2929434-.707.293z" fill="#b0d3f0"/><circle id="Oval" cx="27" cy="14" fill="#285680" r="8"/><path id="Shape" d="m25 12.029v3.942c.0408793.4161874.3042773.7774579.6880179.9436693s.8274406.1112096 1.1589821-.1436693l2.726-1.971c.2650724-.1799911.4237791-.4795937.4237791-.8s-.1587067-.6200089-.4237791-.8l-2.726-1.971c-.3315415-.2548789-.7752415-.3098807-1.1589821-.1436693s-.6471386.5274819-.6880179.9436693z" fill="#24ae5f"/><path id="Shape" d="m39 28h-22c-.5522847 0-1-.4477153-1-1s.4477153-1 1-1h22c.5522847 0 1 .4477153 1 1s-.4477153 1-1 1z" fill="#393f4a"/><path id="Shape" d="m16.92 36.8c1.9261155-1.3019122 3.0801832-3.4751568 3.08-5.8-.0028551-3.0558161-1.9876269-5.756633-4.9031192-6.6720153-2.9154924-.9153822-6.08784428.1662437-7.8368808 2.6720153-.82543662 1.1700148-1.2658435 2.5681319-1.26 4-.00018324 2.3248432 1.15388455 4.4980878 3.08 5.8" fill="#f9c795"/><path id="Shape" d="m44.92 36.8c1.9261155-1.3019122 3.0801832-3.4751568 3.08-5.8 0-3.8659932-3.1340068-7-7-7s-7 3.1340068-7 7c-.0001832 2.3248432 1.1538845 4.4980878 3.08 5.8" fill="#f9c795"/><path id="Shape" d="m3 46.13v-.13c.00356183-4.0068789 2.39526177-7.6258985 6.08-9.2 2.5043951-1.0671304 5.3356049-1.0671304 7.84 0 3.6847382 1.5741015 6.0764382 5.1931211 6.08 9.2l-10 3z" fill="#e64c3c"/><path id="Shape" d="m31 46c.0035618-4.0068789 2.3952618-7.6258985 6.08-9.2 2.5043951-1.0671304 5.3356049-1.0671304 7.84 0 3.6847382 1.5741015 6.0764382 5.1931211 6.08 9.2v.13l-10 2.87z" fill="#5d4c72"/><path id="Shape" d="m54 50v9h-54v-9c0-2.209139 1.790861-4 4-4h19c2.209139 0 4 1.790861 4 4 0-2.209139 1.790861-4 4-4h19c2.209139 0 4 1.790861 4 4z" fill="#cb8252"/><path id="Shape" d="m31 46h19c2.209139 0 4 1.790861 4 4v9h-27v-9c0-2.209139 1.790861-4 4-4z" fill="#a56a43"/><g fill="#cf976a"><path id="Shape" d="m6 51h-2c-.55228475 0-1-.4477153-1-1s.44771525-1 1-1h2c.55228475 0 1 .4477153 1 1s-.44771525 1-1 1z"/><path id="Shape" d="m22 51h-12c-.55228475 0-1-.4477153-1-1s.44771525-1 1-1h12c.5522847 0 1 .4477153 1 1s-.4477153 1-1 1z"/></g></g></svg>