<?xml version="1.0" encoding="iso-8859-1"?>
<!-- Generator: Adobe Illustrator 19.0.0, SVG Export Plug-In . SVG Version: 6.00 Build 0)  -->
<svg version="1.1" id="Layer_1" xmlns="http://www.w3.org/2000/svg" xmlns:xlink="http://www.w3.org/1999/xlink" x="0px" y="0px"
	 viewBox="0 0 512 512" style="enable-background:new 0 0 512 512;" xml:space="preserve">
<g>
	<rect x="23.814" y="86.921" style="fill:#003638;" width="464.372" height="265.133"/>
	<polygon style="fill:#003638;" points="256,373.483 202.419,392.93 202.419,428.651 125.023,428.651 125.023,464.372 
		386.977,464.372 386.977,428.651 309.581,428.651 309.581,392.93 	"/>
</g>
<path style="fill:#00D7DF;" d="M0,47.628V392.93h512V47.628H0z M476.279,339.349H35.721v-238.14h440.558V339.349z"/>
<g>
	<path style="fill:#FFDA44;" d="M369.301,297.713c10.25-3.992,19.017-9.627,26.297-16.906c7.278-7.279,12.873-16.043,16.786-26.297
		c3.911-10.248,5.87-21.717,5.87-34.394c0-11.425-1.761-22.187-5.284-32.285c-3.521-10.096-8.767-18.9-15.729-26.413
		c-6.967-7.513-15.614-13.46-25.944-17.844C360.965,139.194,348.91,137,335.14,137h-62.219v166.698h62.219
		C347.659,303.699,359.048,301.705,369.301,297.713z M311.425,170.81h23.715c6.885,0,13.067,1.174,18.549,3.522
		c5.476,2.349,10.095,5.717,13.853,10.097c3.755,4.384,6.61,9.59,8.569,15.614c1.955,6.027,2.934,12.718,2.934,20.074
		c0,7.201-0.979,13.816-2.934,19.838c-1.96,6.027-4.778,11.27-8.454,15.732c-3.68,4.46-8.257,7.946-13.736,10.447
		c-5.48,2.506-11.739,3.757-18.781,3.757h-23.715L311.425,170.81L311.425,170.81z"/>
	<polygon style="fill:#FFDA44;" points="132.251,235.304 198.698,235.304 198.698,303.628 237.2,303.628 237.2,136.93 
		198.698,136.93 198.698,201.496 132.251,201.496 132.251,136.93 93.746,136.93 93.746,303.628 132.251,303.628 	"/>
</g>
<g>
</g>
<g>
</g>
<g>
</g>
<g>
</g>
<g>
</g>
<g>
</g>
<g>
</g>
<g>
</g>
<g>
</g>
<g>
</g>
<g>
</g>
<g>
</g>
<g>
</g>
<g>
</g>
<g>
</g>
</svg>
